<svg width="48" height="49" viewBox="0 0 48 49" fill="none" xmlns="http://www.w3.org/2000/svg">
<g filter="url(#filter0_arrow_circle_d)">
<path d="M41.5 20C41.5 30.7696 32.7696 39.5 22 39.5C11.2304 39.5 2.5 30.7696 2.5 20C2.5 9.23045 11.2304 0.5 22 0.5C32.7696 0.5 41.5 9.23045 41.5 20Z" fill="black" stroke="url(#paint0_arrow_circle_linear)"/>
<path d="M29.8921 13C29.8921 12.5857 29.5563 12.25 29.1421 12.25L22.3921 12.25C21.9779 12.25 21.6421 12.5857 21.6421 13C21.6421 13.4142 21.9779 13.75 22.3921 13.75L28.3921 13.75L28.3921 19.75C28.3921 20.1642 28.7279 20.5 29.1421 20.5C29.5563 20.5 29.8921 20.1642 29.8921 19.75L29.8921 13ZM15.5303 27.6724L29.6725 13.5303L28.6118 12.4696L14.4697 26.6118L15.5303 27.6724Z" fill="white"/>
</g>
<defs>
<filter id="filter0_arrow_circle_d" x="0" y="0" width="48" height="49" filterUnits="userSpaceOnUse" color-interpolation-filters="sRGB">
<feFlood flood-opacity="0" result="BackgroundImageFix"/>
<feColorMatrix in="SourceAlpha" type="matrix" values="0 0 0 0 0 0 0 0 0 0 0 0 0 0 0 0 0 0 127 0"/>
<feOffset dx="2" dy="5"/>
<feGaussianBlur stdDeviation="2"/>
<feColorMatrix type="matrix" values="0 0 0 0 0 0 0 0 0 0 0 0 0 0 0 0 0 0 0.5 0"/>
<feBlend mode="normal" in2="BackgroundImageFix" result="effect1_dropShadow"/>
<feBlend mode="normal" in="SourceGraphic" in2="effect1_dropShadow" result="shape"/>
</filter>
<linearGradient id="paint0_arrow_circle_linear" x1="30.9474" y1="35.7576" x2="1.03226" y2="4.15437" gradientUnits="userSpaceOnUse">
<stop stop-color="#EB4A97"/>
<stop offset="1" stop-color="#8C43F6"/>
</linearGradient>
</defs>
</svg>
