<svg width="21" height="18" viewBox="0 0 21 18" fill="none" xmlns="http://www.w3.org/2000/svg">
<path fill-rule="evenodd" clip-rule="evenodd" d="M1.7 15H1.1C0.76836 15 0.5 14.7316 0.5 14.4V10.8C0.5 10.4684 0.76836 10.2 1.1 10.2H1.7V7.8H1.1C0.76836 7.8 0.5 7.53164 0.5 7.2V3.6C0.5 3.26836 0.76836 3 1.1 3H1.7V1.8C1.7 0.80744 2.50744 0 3.5 0H19.18C20.1726 0 20.98 0.80744 20.98 1.8V16.2C20.98 17.1926 20.1726 18 19.18 18H3.5C2.50744 18 1.7 17.1926 1.7 16.2V15ZM17.94 7.2C17.6084 7.2 17.34 7.46836 17.34 7.8V10.2C17.34 10.5316 17.6084 10.8 17.94 10.8C18.2716 10.8 18.54 10.5316 18.54 10.2V7.8C18.54 7.46836 18.2716 7.2 17.94 7.2ZM8.34 9C8.34 8.3896 8.52536 7.82256 8.8398 7.34824L6.11576 4.6242C5.8814 4.38984 5.8814 4.01012 6.11576 3.77576C6.35012 3.5414 6.72984 3.5414 6.9642 3.77576L9.68824 6.4998C10.1626 6.18536 10.7296 6 11.34 6C11.9504 6 12.5174 6.18536 12.9918 6.4998L15.7158 3.77576C15.9502 3.5414 16.3299 3.5414 16.5642 3.77576C16.7986 4.01012 16.7986 4.38984 16.5642 4.6242L13.8402 7.34824C14.1546 7.82256 14.34 8.3896 14.34 9C14.34 9.6104 14.1546 10.1774 13.8402 10.6518L16.5642 13.3758C16.7986 13.6102 16.7986 13.9899 16.5642 14.2242C16.447 14.3414 16.2935 14.4 16.14 14.4C15.9866 14.4 15.833 14.3414 15.7158 14.2242L12.9918 11.5002C12.5174 11.8146 11.9504 12 11.34 12C10.7296 12 10.1626 11.8146 9.68824 11.5002L6.9642 14.2242C6.847 14.3414 6.69348 14.4 6.54 14.4C6.38652 14.4 6.23296 14.3414 6.1158 14.2242C5.88144 13.9899 5.88144 13.6102 6.1158 13.3758L8.83984 10.6518C8.52536 10.1774 8.34 9.6104 8.34 9ZM11.34 10.8C12.3341 10.8 13.14 9.99411 13.14 9C13.14 8.00589 12.3341 7.2 11.34 7.2C10.3459 7.2 9.54001 8.00589 9.54001 9C9.54001 9.99411 10.3459 10.8 11.34 10.8Z" fill="#646464"/>
</svg>
