<svg width="40" height="40" viewBox="0 0 40 40" fill="none" xmlns="http://www.w3.org/2000/svg">
<path fill-rule="evenodd" clip-rule="evenodd" d="M20 9.04L12.2317 16.8083L12.2318 16.808L7.712 12.288L20 0L32.292 12.2917L27.772 16.8117L20 9.04ZM4.52016 15.4792L0 20L4.51984 24.5192L9.04 19.999L4.52016 15.4792ZM20 30.96L12.2317 23.1922L7.7056 27.7056L7.712 27.712L20 40L32.292 27.7085L32.2942 27.7061L27.7718 23.1885L20 30.96ZM35.4802 15.4818L30.96 20.0019L35.48 24.5218L40 20.0016L35.4802 15.4818ZM24.5866 19.9967H24.585L24.5891 19.999L24.5869 20.0015L20.0003 24.5881L15.4178 20.0049L15.4114 19.9983L15.4178 19.9921L16.221 19.1887L16.6104 18.7991L20.0003 15.4102L24.5866 19.9967Z" fill="#F3BA2F"/>
</svg>
