<svg width="19" height="19" viewBox="0 0 19 19" fill="none" xmlns="http://www.w3.org/2000/svg">
<path fill-rule="evenodd" clip-rule="evenodd" d="M16.4934 1.47923H14.7923V0.591691C14.7923 0.26493 14.5274 0 14.2006 0C13.8738 0 13.6089 0.26493 13.6089 0.591691V1.47923H5.32522V0.591691C5.32522 0.26493 5.06033 0 4.73353 0C4.40673 0 4.14184 0.26493 4.14184 0.591691V1.47923H2.44073C1.09489 1.47923 0 2.57412 0 3.91995V16.4934C0 17.8392 1.09489 18.9341 2.44073 18.9341H16.4934C17.8392 18.9341 18.9341 17.8392 18.9341 16.4934V3.91995C18.9341 2.57412 17.8392 1.47923 16.4934 1.47923ZM2.44073 2.66261H4.14184V3.2543C4.14184 3.58106 4.40673 3.84599 4.73353 3.84599C5.06033 3.84599 5.32522 3.58106 5.32522 3.2543V2.66261H13.6089V3.2543C13.6089 3.58106 13.8738 3.84599 14.2006 3.84599C14.5274 3.84599 14.7923 3.58106 14.7923 3.2543V2.66261H16.4934C17.1867 2.66261 17.7507 3.22664 17.7507 3.91995V5.32522H1.18338V3.91995C1.18338 3.22664 1.74741 2.66261 2.44073 2.66261ZM2.44073 17.7507H16.4934C17.1867 17.7507 17.7507 17.1867 17.7507 16.4934V6.5086H1.18338V16.4934C1.18338 17.1867 1.74741 17.7507 2.44073 17.7507Z" fill="#646464"/>
</svg>
