<svg width="14" height="17" viewBox="0 0 14 17" fill="none" xmlns="http://www.w3.org/2000/svg">
<path d="M7.2771 0.712743L13.0554 6.49092C13.2204 6.65587 13.3109 6.8757 13.3109 7.11011C13.3109 7.34478 13.2203 7.56448 13.0554 7.72943L12.5306 8.25403C12.3659 8.41885 12.1461 8.50965 11.9115 8.50965C11.6771 8.50965 11.4497 8.41885 11.285 8.25403L7.90669 4.88312V15.5926C7.90669 16.0755 7.52867 16.457 7.04568 16.457H6.30383C5.82085 16.457 5.40472 16.0755 5.40472 15.5926V4.84488L2.00754 8.25391C1.84259 8.41871 1.62861 8.50952 1.39407 8.50952C1.1598 8.50952 0.942694 8.41871 0.777882 8.25391L0.254828 7.72929C0.0898856 7.56435 0 7.34464 0 7.10997C0 6.87557 0.0910559 6.65573 0.255999 6.49079L6.03418 0.712612C6.19964 0.54728 6.42052 0.456353 6.65531 0.457004C6.89089 0.456484 7.1119 0.54728 7.2771 0.712743Z" fill="url(#paint3_linear)"/>
<defs>
<linearGradient id="paint3_linear" x1="1.66386" y1="0.457" x2="20.5828" y2="9.99401" gradientUnits="userSpaceOnUse">
<stop stop-color="#5294FF"/>
<stop offset="1" stop-color="#1EFF78"/>
</linearGradient>
</defs>
</svg>
