<svg width="100" height="100" viewBox="0 0 100 100" fill="none" xmlns="http://www.w3.org/2000/svg">
<circle opacity="0.35" cx="50.0004" cy="50" r="49" stroke="url(#paint0_capital_linear)" stroke-width="2"/>
<g filter="url(#filter0_capital_d)">
<path fill-rule="evenodd" clip-rule="evenodd" d="M32.2624 49.2795C32.1795 49.3151 32.0903 49.3335 32.0001 49.3335C31.8465 49.3335 31.6977 49.2805 31.5787 49.1835C31.4597 49.0864 31.3778 48.9513 31.3469 48.8008C31.3161 48.6504 31.3381 48.4939 31.4092 48.3579C31.4804 48.2218 31.5964 48.1144 31.7375 48.054L34.6715 46.7966C34.6687 46.7536 34.6668 46.7105 34.6668 46.6668C34.6664 46.2601 34.7901 45.863 35.0214 45.5284C35.2526 45.1939 35.5805 44.9378 35.9611 44.7945C36.3417 44.6512 36.757 44.6273 37.1515 44.7262C37.5459 44.8251 37.9009 45.042 38.1689 45.348L41.3355 44.0813C41.3345 44.0543 41.3335 44.0274 41.3335 44.0001C41.3331 43.5934 41.4568 43.1963 41.688 42.8617C41.9193 42.5272 42.2471 42.2711 42.6277 42.1278C43.0084 41.9845 43.4236 41.9607 43.8181 42.0596C44.2126 42.1584 44.5676 42.3753 44.8355 42.6813L48.0022 41.4146C48.0011 41.3877 48.0001 41.3607 48.0001 41.3334C48.0018 40.8125 48.2067 40.3127 48.5711 39.9405C48.9356 39.5683 49.431 39.353 49.9518 39.3404C50.4726 39.3278 50.9777 39.5189 51.3598 39.8731C51.7418 40.2272 51.9706 40.7165 51.9975 41.2368L55.0531 42.1534C55.3339 41.7683 55.7433 41.4964 56.2071 41.3868C56.671 41.2773 57.1587 41.3374 57.5821 41.5563L61.4268 37.9377C61.3129 37.5787 61.3027 37.1947 61.3974 36.8301C61.4922 36.4655 61.688 36.1351 61.9623 35.8769C62.2367 35.6187 62.5783 35.4433 62.948 35.3708C63.3177 35.2984 63.7003 35.3318 64.0518 35.4673L66.3191 33.3333H66.0001C65.8233 33.3333 65.6538 33.2631 65.5287 33.1381C65.4037 33.0131 65.3335 32.8435 65.3335 32.6667C65.3335 32.4899 65.4037 32.3203 65.5287 32.1953C65.6538 32.0702 65.8233 32 66.0001 32H68.0001C68.177 32 68.3465 32.0702 68.4715 32.1953C68.5966 32.3203 68.6668 32.4899 68.6668 32.6667V34.6667C68.6668 34.8435 68.5966 35.0131 68.4715 35.1381C68.3465 35.2631 68.177 35.3334 68.0001 35.3334C67.8233 35.3334 67.6538 35.2631 67.5287 35.1381C67.4037 35.0131 67.3335 34.8435 67.3335 34.6667V34.2096L65.0686 36.3411C65.2919 36.7309 65.3775 37.1845 65.3114 37.6289C65.2453 38.0732 65.0315 38.4823 64.7044 38.7902C64.3772 39.0981 63.9559 39.2868 63.5084 39.3259C63.0609 39.3649 62.6132 39.2521 62.2377 39.0055L58.496 42.5271C58.6147 42.7957 58.6728 43.0872 58.6661 43.3808C58.6594 43.6745 58.5882 43.963 58.4574 44.226C58.3266 44.4889 58.1395 44.7199 57.9094 44.9023C57.6793 45.0848 57.4118 45.2144 57.126 45.2819C56.8402 45.3493 56.543 45.353 56.2556 45.2926C55.9681 45.2323 55.6975 45.1094 55.463 44.9326C55.2284 44.7559 55.0357 44.5296 54.8985 44.27C54.7612 44.0103 54.6828 43.7236 54.6689 43.4303L51.6132 42.5136C51.4367 42.7555 51.2081 42.9546 50.9443 43.0962C50.6804 43.2378 50.3881 43.3182 50.089 43.3315C49.7898 43.3449 49.4915 43.2907 49.2161 43.1731C48.9407 43.0556 48.6953 42.8775 48.498 42.6523L45.3314 43.9189C45.3325 43.9459 45.3335 43.9729 45.3335 44.0001C45.3338 44.4068 45.2101 44.804 44.9789 45.1385C44.7476 45.4731 44.4198 45.7291 44.0392 45.8724C43.6586 46.0158 43.2433 46.0396 42.8488 45.9407C42.4543 45.8418 42.0994 45.6249 41.8314 45.319L38.6647 46.5856C38.6658 46.6126 38.6668 46.6396 38.6668 46.6668C38.6671 47.0693 38.5458 47.4626 38.3189 47.795C38.092 48.1275 37.77 48.3837 37.395 48.5301C37.0201 48.6766 36.6097 48.7064 36.2175 48.6156C35.8253 48.5249 35.4697 48.3179 35.1971 48.0217L32.2624 49.2795ZM63.7038 36.7791C63.5942 36.7058 63.4653 36.6667 63.3335 36.6667C63.1567 36.6669 62.9873 36.7372 62.8623 36.8622C62.7373 36.9872 62.667 37.1566 62.6668 37.3334C62.6668 37.4652 62.7059 37.5941 62.7792 37.7038C62.8524 37.8134 62.9565 37.8988 63.0784 37.9493C63.2002 37.9998 63.3342 38.013 63.4635 37.9872C63.5929 37.9615 63.7116 37.898 63.8049 37.8048C63.8981 37.7116 63.9616 37.5928 63.9873 37.4634C64.0131 37.3341 63.9998 37.2001 63.9494 37.0783C63.8989 36.9564 63.8135 36.8523 63.7038 36.7791ZM57.0372 42.7791C56.9275 42.7059 56.7987 42.6668 56.6668 42.6668C56.49 42.667 56.3206 42.7373 56.1956 42.8623C56.0706 42.9872 56.0003 43.1567 56.0001 43.3334C56.0001 43.4653 56.0392 43.5942 56.1125 43.7038C56.1857 43.8135 56.2899 43.8989 56.4117 43.9494C56.5335 43.9998 56.6675 44.013 56.7969 43.9873C56.9262 43.9616 57.045 43.8981 57.1382 43.8048C57.2314 43.7116 57.2949 43.5928 57.3207 43.4635C57.3464 43.3342 57.3332 43.2001 57.2827 43.0783C57.2323 42.9565 57.1468 42.8524 57.0372 42.7791ZM50.3705 40.7791C50.2609 40.7058 50.132 40.6667 50.0001 40.6667C49.8234 40.6669 49.6539 40.7372 49.5289 40.8622C49.404 40.9872 49.3337 41.1567 49.3335 41.3334C49.3335 41.4653 49.3726 41.5942 49.4458 41.7038C49.5191 41.8134 49.6232 41.8989 49.745 41.9493C49.8668 41.9998 50.0009 42.013 50.1302 41.9873C50.2595 41.9616 50.3783 41.8981 50.4715 41.8048C50.5648 41.7116 50.6283 41.5928 50.654 41.4635C50.6797 41.3342 50.6665 41.2001 50.616 41.0783C50.5656 40.9565 50.4801 40.8524 50.3705 40.7791ZM43.7038 43.4458C43.5942 43.3725 43.4653 43.3334 43.3335 43.3334C43.1567 43.3336 42.9873 43.4039 42.8623 43.5289C42.7373 43.6539 42.667 43.8234 42.6668 44.0001C42.6668 44.132 42.7059 44.2609 42.7791 44.3705C42.8524 44.4801 42.9565 44.5656 43.0783 44.616C43.2002 44.6665 43.3342 44.6797 43.4635 44.654C43.5928 44.6283 43.7116 44.5648 43.8049 44.4715C43.8981 44.3783 43.9616 44.2595 43.9873 44.1302C44.013 44.0009 43.9998 43.8668 43.9494 43.745C43.8989 43.6232 43.8135 43.519 43.7038 43.4458ZM37.0372 46.1125C36.9275 46.0392 36.7986 46.0001 36.6668 46.0001C36.49 46.0003 36.3206 46.0706 36.1956 46.1956C36.0706 46.3206 36.0003 46.4901 36.0001 46.6668C36.0001 46.7987 36.0392 46.9276 36.1125 47.0372C36.1857 47.1468 36.2898 47.2323 36.4117 47.2827C36.5335 47.3332 36.6675 47.3464 36.7968 47.3207C36.9262 47.2949 37.045 47.2315 37.1382 47.1382C37.2314 47.045 37.2949 46.9262 37.3206 46.7969C37.3464 46.6675 37.3332 46.5335 37.2827 46.4117C37.2322 46.2899 37.1468 46.1857 37.0372 46.1125ZM66.0003 63.9987H69.3336C69.5105 63.9987 69.68 64.0689 69.805 64.194C69.9301 64.319 70.0003 64.4886 70.0003 64.6654C70.0003 64.8422 69.9301 65.0117 69.805 65.1368C69.68 65.2618 69.5105 65.332 69.3336 65.332H30.667C30.4902 65.332 30.3206 65.2618 30.1956 65.1368C30.0705 65.0117 30.0003 64.8422 30.0003 64.6654C30.0003 64.4886 30.0705 64.319 30.1956 64.194C30.3206 64.0689 30.4902 63.9987 30.667 63.9987H34.0003V52.6654C34.0003 52.4886 34.0705 52.319 34.1956 52.194C34.3206 52.0689 34.4902 51.9987 34.667 51.9987H38.667C38.8438 51.9987 39.0134 52.0689 39.1384 52.194C39.2634 52.319 39.3336 52.4886 39.3336 52.6654V63.9987H40.667V49.9987C40.667 49.8219 40.7372 49.6523 40.8622 49.5273C40.9873 49.4023 41.1568 49.332 41.3336 49.332H45.3336C45.5105 49.332 45.68 49.4023 45.805 49.5273C45.9301 49.6523 46.0003 49.8219 46.0003 49.9987V63.9987H47.3336V47.332C47.3336 47.1552 47.4039 46.9857 47.5289 46.8606C47.6539 46.7356 47.8235 46.6654 48.0003 46.6654H52.0003C52.1771 46.6654 52.3467 46.7356 52.4717 46.8606C52.5967 46.9857 52.667 47.1552 52.667 47.332V63.9987H54.0003V49.332C54.0003 49.1552 54.0705 48.9857 54.1956 48.8606C54.3206 48.7356 54.4902 48.6654 54.667 48.6654H58.667C58.8438 48.6654 59.0134 48.7356 59.1384 48.8606C59.2634 48.9857 59.3336 49.1552 59.3336 49.332V63.9987H60.667V43.9987C60.667 43.8219 60.7372 43.6523 60.8622 43.5273C60.9873 43.4023 61.1568 43.332 61.3336 43.332H65.3336C65.5105 43.332 65.68 43.4023 65.805 43.5273C65.9301 43.6523 66.0003 43.8219 66.0003 43.9987V63.9987ZM35.3336 53.332V63.9987H38.0003V53.332H35.3336ZM42.0003 50.6654V63.9987H44.667V50.6654H42.0003ZM48.667 47.9987V63.9987H51.3336V47.9987H48.667ZM55.3336 49.9987V63.9987H58.0003V49.9987H55.3336ZM62.0003 44.6654V63.9987H64.667V44.6654H62.0003Z" fill="url(#paint1_capital_linear)"/>
</g>
<defs>
<filter id="filter0_capital_d" x="26.0003" y="28" width="48" height="41.332" filterUnits="userSpaceOnUse" color-interpolation-filters="sRGB">
<feFlood flood-opacity="0" result="BackgroundImageFix"/>
<feColorMatrix in="SourceAlpha" type="matrix" values="0 0 0 0 0 0 0 0 0 0 0 0 0 0 0 0 0 0 127 0"/>
<feOffset/>
<feGaussianBlur stdDeviation="2"/>
<feColorMatrix type="matrix" values="0 0 0 0 0.207187 0 0 0 0 0.975 0 0 0 0 0.781869 0 0 0 0.3 0"/>
<feBlend mode="normal" in2="BackgroundImageFix" result="effect1_dropShadow"/>
<feBlend mode="normal" in="SourceGraphic" in2="effect1_dropShadow" result="shape"/>
</filter>
<linearGradient id="paint0_capital_linear" x1="72.3689" y1="89.3939" x2="-2.41891" y2="10.3859" gradientUnits="userSpaceOnUse">
<stop stop-color="#EB4A97"/>
<stop offset="1" stop-color="#8C43F6"/>
</linearGradient>
<linearGradient id="paint1_capital_linear" x1="58.9477" y1="61.7968" x2="34.6684" y2="31.0164" gradientUnits="userSpaceOnUse">
<stop stop-color="#EB4A97"/>
<stop offset="1" stop-color="#8C43F6"/>
</linearGradient>
</defs>
</svg>
