<svg width="19" height="17" viewBox="0 0 19 17" fill="none" xmlns="http://www.w3.org/2000/svg">
<path fill-rule="evenodd" clip-rule="evenodd" d="M12.6667 2.87504H16.8229C18.0263 2.87504 19 3.84878 19 5.05212V6.86503L9.69 9.96837C9.62667 9.99212 9.56333 10 9.5 10C9.43667 10 9.37333 9.99212 9.31 9.96837L0 6.86503V5.05212C0 3.84878 0.97375 2.87504 2.17708 2.87504H6.33334V2.08333C6.33334 1.21012 7.04347 0.5 7.91667 0.5H11.0833C11.9565 0.5 12.6667 1.21012 12.6667 2.08333V2.87504ZM7.91667 2.87504V2.08333H11.0833V2.87504H7.91667ZM10.0621 11.0925C9.91958 11.1479 9.71375 11.1875 9.5 11.1875C9.28625 11.1875 9.08042 11.1479 8.89042 11.0767L0 8.11586V14.1563C0 15.3596 0.97375 16.3334 2.17708 16.3334H16.8229C18.0263 16.3334 19 15.3596 19 14.1563V8.11586L10.0621 11.0925Z" fill="#646464"/>
</svg>
