<svg width="20" height="16" viewBox="0 0 20 16" fill="none" xmlns="http://www.w3.org/2000/svg">
<path opacity="0.5" fill-rule="evenodd" clip-rule="evenodd" d="M15.2732 12.0003H8.07779C7.04017 12.0003 6.12015 11.3195 5.83934 10.3442L3.40728 2.10325C3.32088 1.80484 3.03367 1.60004 2.70566 1.60004H0.800019C0.357609 1.60004 0 1.24163 0 0.800019C0 0.358409 0.357609 0 0.800019 0H2.70566C3.74329 0 4.66251 0.680816 4.94332 1.65604L5.39853 3.20008H17.6348C18.134 3.20008 18.6076 3.43768 18.9013 3.83609C19.1925 4.2313 19.2765 4.72571 19.1317 5.19292L17.4812 10.4314C17.158 11.3771 16.2724 12.0003 15.2732 12.0003ZM8.80127 15.9997C7.91885 15.9997 7.20123 15.282 7.20123 14.3996C7.20123 13.5172 7.91885 12.7996 8.80127 12.7996C9.68369 12.7996 10.4013 13.5172 10.4013 14.3996C10.4013 15.282 9.68369 15.9997 8.80127 15.9997ZM12.7996 14.3996C12.7996 15.282 13.5172 15.9997 14.3996 15.9997C15.282 15.9997 15.9997 15.282 15.9997 14.3996C15.9997 13.5172 15.282 12.7996 14.3996 12.7996C13.5172 12.7996 12.7996 13.5172 12.7996 14.3996Z" fill="#DCDCDC"/>
</svg>
