<svg width="20" height="21" viewBox="0 0 20 21" fill="none" xmlns="http://www.w3.org/2000/svg">
<path fill-rule="evenodd" clip-rule="evenodd" d="M0 10.5C0 4.98566 4.48566 0.5 10 0.5C15.5143 0.5 20 4.98566 20 10.5C20 16.0143 15.5143 20.5 10 20.5C4.48566 20.5 0 16.0143 0 10.5ZM1.54918 10.5C1.54918 15.1592 5.34082 18.9508 10 18.9508C14.6592 18.9508 18.4508 15.1592 18.4508 10.5C18.4508 5.84082 14.66 2.04918 10 2.04918C5.34082 2.04918 1.54918 5.84082 1.54918 10.5ZM10.7749 10.1764L13.5634 12.2678C13.9058 12.5242 13.9755 13.0099 13.7183 13.3515C13.5665 13.556 13.3341 13.6621 13.0978 13.6621C12.936 13.6621 12.7733 13.6118 12.6338 13.5072L9.53549 11.1834C9.34029 11.0378 9.22564 10.8077 9.22564 10.5637V5.91615C9.22564 5.48779 9.57189 5.14154 10.0003 5.14154C10.4286 5.14154 10.7749 5.48779 10.7749 5.91615V10.1764Z" fill="url(#paint0_linear)"/>
<defs>
<linearGradient id="paint0_linear" x1="2.5" y1="0.5" x2="28.5758" y2="16.3003" gradientUnits="userSpaceOnUse">
<stop stop-color="#5294FF"/>
<stop offset="1" stop-color="#1EFF78"/>
</linearGradient>
</defs>
</svg>
