<svg width="112" height="112" viewBox="0 0 112 112" fill="none" xmlns="http://www.w3.org/2000/svg">
<circle opacity="0.35" cx="56" cy="56" r="55.5" stroke="url(#paint0_linear)"/>
<path fill-rule="evenodd" clip-rule="evenodd" d="M64.9351 76.0635V64.8257C68.245 64.2556 71.3318 62.778 73.8517 60.5574C76.3716 58.3368 78.2257 55.4604 79.2075 52.2484C80.1893 49.0364 80.2603 45.6149 79.4126 42.3649C78.5648 39.115 76.8317 36.1641 74.4061 33.8409C71.9805 31.5176 68.9576 29.9133 65.6741 29.2064C62.3907 28.4996 58.9754 28.718 55.8087 29.8373C52.642 30.9566 49.8482 32.9329 47.7382 35.5462C45.6283 38.1595 44.2851 41.3071 43.8583 44.6385C36.9341 45.4521 32 48.045 32 51.1998V76.0635C32 79.8797 39.2344 82.8706 48.4705 82.8706C57.7066 82.8706 64.9351 79.8797 64.9351 76.0635ZM61.8505 30.0059C65.2076 30.0059 68.4893 31.0014 71.2807 32.8665C74.072 34.7316 76.2476 37.3826 77.5323 40.4841C78.817 43.5857 79.1531 46.9986 78.4982 50.2912C77.8433 53.5838 76.2267 56.6082 73.8528 58.9821C71.479 61.3559 68.4545 62.9725 65.1619 63.6274C61.8693 64.2824 58.4565 63.9462 55.3549 62.6615C52.2534 61.3768 49.6024 59.2012 47.7373 56.4099C45.8722 53.6186 44.8767 50.3369 44.8767 46.9798C44.8767 42.478 46.665 38.1607 49.8482 34.9774C53.0314 31.7942 57.3488 30.0059 61.8505 30.0059ZM43.7412 45.8091C43.7061 46.2013 43.7061 46.5759 43.7061 46.9797V46.9798C43.7052 50.4741 44.7221 53.893 46.6326 56.8187C42.1199 56.6139 38.0638 55.6481 35.5118 54.1614C34.4407 53.5293 33.1706 52.5109 33.1706 51.2349C33.1706 48.9756 37.2677 46.6227 43.7412 45.8091ZM33.1706 53.7927C33.6893 54.332 34.2802 54.7969 34.9265 55.174C37.777 56.8538 42.4126 57.9015 47.4637 58.0244C49.7462 60.9741 52.8777 63.1537 56.4365 64.2696C53.821 64.8488 51.1493 65.1354 48.4705 65.1242C43.232 65.1242 38.3915 64.1116 35.5118 62.4201C34.4349 61.7821 33.1706 60.7578 33.1706 59.4936V53.7927ZM33.1706 62.0689C33.6909 62.5998 34.2818 63.0568 34.9265 63.4268C37.9701 65.2178 43.033 66.2948 48.4705 66.2948C51.9626 66.3358 55.4406 65.8423 58.7835 64.8315C59.7954 65.0181 60.8216 65.1161 61.8505 65.1242C62.49 65.1248 63.1289 65.0896 63.7645 65.0188V67.799C63.7645 69.075 62.4885 70.0993 61.4232 70.7255C58.5553 72.4229 53.7148 73.4355 48.4763 73.4355C43.2378 73.4355 38.3857 72.3995 35.5118 70.7021C34.4407 70.07 33.1706 69.0457 33.1706 67.7756V62.0689ZM33.1706 76.0635V70.3919C33.6919 70.9185 34.2827 71.3714 34.9265 71.7381C37.9701 73.5409 43.033 74.612 48.4763 74.612C53.9196 74.612 58.9767 73.5409 62.0203 71.7381C62.6641 71.3714 63.2548 70.9185 63.7762 70.3919V76.0928C63.7762 78.8144 57.6305 81.7293 48.4822 81.7293C39.3339 81.7293 33.1706 78.7852 33.1706 76.0635ZM53.3572 55.9156C54.1443 55.9083 54.9286 55.8221 55.6984 55.6581C56.1901 55.5644 56.6993 55.4298 57.2202 55.2776C58.2387 58.8421 59.9126 61.1307 61.8441 61.1307C63.7756 61.1307 65.4496 58.8421 66.468 55.2776C66.989 55.4298 67.4982 55.5644 67.9898 55.6581C68.7597 55.8221 69.544 55.9083 70.3311 55.9156C72.046 55.9156 73.2576 55.4122 73.878 54.4406C74.7384 53.0593 74.1999 50.9873 72.3679 48.5876C71.9241 48.0233 71.4472 47.4859 70.9398 46.978C71.4542 46.4428 71.9369 45.878 72.3855 45.2865C74.2175 42.9043 74.756 40.8323 73.8956 39.4334C73.0352 38.0346 70.969 37.619 68.0015 38.2102C67.5099 38.3097 67.0007 38.4384 66.4798 38.5906C65.4613 35.0261 63.7873 32.7376 61.8558 32.7376C59.9243 32.7376 58.2504 35.0202 57.2319 38.5906C56.711 38.4384 56.2018 38.3097 55.7102 38.2102C52.7836 37.6249 50.6707 38.0521 49.8161 39.4334C48.9616 40.8148 49.4884 42.8809 51.3145 45.2865C51.763 45.878 52.2458 46.4428 52.7602 46.978C52.2463 47.491 51.7635 48.0344 51.3145 48.6052C49.4825 50.9873 48.9733 53.0593 49.8044 54.4582C50.4131 55.4122 51.6423 55.9156 53.3572 55.9156ZM71.4548 49.3192C72.9474 51.2566 73.4683 52.9013 72.9005 53.8202C72.3328 54.7391 70.6237 54.9908 68.2181 54.5109C67.7499 54.4172 67.2582 54.2885 66.7665 54.148C67.0695 52.7981 67.2807 51.4293 67.3987 50.0509C68.3431 49.3508 69.246 48.5964 70.1028 47.7916C70.5795 48.2771 71.0308 48.787 71.4548 49.3192ZM67.504 45.4152C68.1362 45.9186 68.7273 46.4278 69.2599 46.9487C68.7098 47.4638 68.1245 47.973 67.504 48.4764V46.9487C67.504 46.7766 67.506 46.6045 67.5079 46.4328V46.4325C67.5118 46.0905 67.5157 45.7503 67.504 45.4152ZM68.224 39.3691C68.9306 39.22 69.6499 39.1396 70.372 39.1291C71.6304 39.1291 72.5142 39.4451 72.9005 40.0597C73.4858 40.9845 72.9474 42.6233 71.4548 44.5607C71.0348 45.102 70.5854 45.6198 70.1086 46.1118C69.2503 45.3086 68.3475 44.5543 67.4045 43.8525C67.2872 42.474 67.076 41.1051 66.7724 39.7554C67.2641 39.6032 67.7557 39.4744 68.224 39.3691ZM57.5656 50.9347L57.6429 50.988C58.0341 51.2582 58.4356 51.5355 58.8474 51.7717C59.2924 52.0431 59.7375 52.2977 60.1619 52.5405L60.1639 52.5416C60.297 52.6177 60.4281 52.6927 60.5565 52.7667C59.7394 53.1504 58.9033 53.4923 58.0514 53.791C57.8381 52.8483 57.6759 51.8948 57.5656 50.9347ZM61.85 59.9601C60.5799 59.9601 59.2337 58.0637 58.3382 54.9264C59.5389 54.5076 60.7119 54.013 61.85 53.4456C62.9881 54.013 64.1611 54.5076 65.3618 54.9264C64.4663 58.0637 63.1201 59.9601 61.85 59.9601ZM65.6486 53.791C64.7967 53.4923 63.9606 53.1504 63.1435 52.7667C63.7288 52.4565 64.2849 52.1287 64.8526 51.7717C65.2916 51.5024 65.7189 51.2215 66.1344 50.9347C66.0241 51.8948 65.8619 52.8483 65.6486 53.791ZM66.1344 42.957C66.0503 42.9001 65.9656 42.8422 65.8805 42.784C65.5453 42.5549 65.2027 42.3207 64.8526 42.12C64.2673 41.7688 63.7113 41.441 63.1435 41.125C63.9596 40.7406 64.7958 40.4006 65.6486 40.1065C65.8624 41.0471 66.0246 41.9987 66.1344 42.957ZM61.85 33.9374C63.1201 33.9374 64.4663 35.828 65.3618 38.9652C64.1611 39.3841 62.9881 39.8787 61.85 40.446C60.7119 39.8787 59.5389 39.3841 58.3382 38.9652C59.2337 35.8572 60.5799 33.9374 61.85 33.9374ZM58.0514 40.1065C58.9041 40.4006 59.7404 40.7406 60.5565 41.125C59.9712 41.441 59.4151 41.7688 58.8474 42.12C58.4084 42.3951 57.9811 42.676 57.5656 42.957C57.6754 41.9987 57.8376 41.0471 58.0514 40.1065ZM57.4251 44.4846C58.0748 44.0164 58.7596 43.554 59.4678 43.115C60.176 42.676 61.054 42.1668 61.85 41.7571C62.646 42.1668 63.442 42.6233 64.2322 43.115C65.0223 43.6067 65.6252 44.0164 66.2749 44.4846C66.3276 45.2748 66.3627 46.0942 66.3627 46.9487C66.3627 47.8033 66.3276 48.6169 66.2749 49.407C65.6252 49.8811 64.9404 50.3377 64.2322 50.7766C63.524 51.2156 62.646 51.7248 61.85 52.1345C61.0696 51.7248 60.2755 51.2722 59.4678 50.7766C58.7596 50.3377 58.0748 49.8811 57.4251 49.407C57.3724 48.6169 57.3373 47.7974 57.3373 46.9487C57.3373 46.1001 57.3724 45.2748 57.4251 44.4846ZM52.2452 44.5724C50.7526 42.6351 50.2317 40.9962 50.7994 40.0714C51.1858 39.4569 52.0696 39.1408 53.328 39.1408C54.0501 39.1513 54.7694 39.2317 55.476 39.3808C55.9443 39.4744 56.4359 39.6032 56.9276 39.7495C56.624 41.0993 56.4128 42.4681 56.2955 43.8466C55.3525 44.5485 54.4497 45.3027 53.5914 46.1059C53.1151 45.6196 52.6657 45.1077 52.2452 44.5724ZM56.196 48.4764C55.5638 47.973 54.9785 47.4638 54.44 46.9487C54.9902 46.4278 55.5814 45.9186 56.196 45.4152C56.196 45.6648 56.1888 45.9157 56.1815 46.1688L56.1815 46.169C56.1741 46.4264 56.1667 46.6861 56.1667 46.9487C56.1667 47.4697 56.1784 47.973 56.196 48.4764ZM52.2452 49.3192C52.6666 48.7792 53.116 48.2615 53.5914 47.7682C54.4482 48.573 55.3511 49.3274 56.2955 50.0274C56.4134 51.4059 56.6246 52.7747 56.9276 54.1246C56.4359 54.265 55.9443 54.3938 55.476 54.4875C53.0763 54.9674 51.3789 54.7157 50.7936 53.7968C50.2083 52.8779 50.7292 51.2566 52.2452 49.3192ZM63.6095 49.5682C63.089 49.9171 62.4765 50.1034 61.8499 50.1034C61.0177 50.1035 60.2191 49.7753 59.6273 49.1901C59.0356 48.605 58.6985 47.8101 58.6893 46.9779C58.6823 46.3513 58.8617 45.7368 59.2048 45.2125C59.5478 44.6881 60.039 44.2775 60.6158 44.0329C61.1927 43.7883 61.8293 43.7207 62.4447 43.8387C63.0601 43.9566 63.6266 44.2548 64.0721 44.6954C64.5176 45.136 64.8222 45.6991 64.947 46.3131C65.0718 46.9272 65.0113 47.5645 64.7732 48.1441C64.535 48.7236 64.13 49.2194 63.6095 49.5682ZM62.9524 45.2921C62.6258 45.0747 62.2422 44.9586 61.8499 44.9586C61.5861 44.9586 61.3249 45.011 61.0815 45.1128C60.8382 45.2147 60.6175 45.3639 60.4323 45.5518C60.2471 45.7397 60.1011 45.9625 60.0029 46.2074C59.9046 46.4522 59.856 46.7141 59.8599 46.9779C59.8656 47.3702 59.9872 47.752 60.2094 48.0754C60.4315 48.3988 60.7443 48.6493 61.1084 48.7955C61.4725 48.9416 61.8717 48.9769 62.2558 48.8968C62.6398 48.8167 62.9917 48.6249 63.2671 48.3455C63.5425 48.0661 63.7291 47.7114 63.8036 47.3262C63.878 46.941 63.8369 46.5424 63.6855 46.1805C63.534 45.8186 63.279 45.5095 62.9524 45.2921Z" fill="url(#paint1_linear)"/>
<defs>
<linearGradient id="paint0_linear" x1="81.0526" y1="100.121" x2="-2.70966" y2="11.6322" gradientUnits="userSpaceOnUse">
<stop stop-color="#EB4A97"/>
<stop offset="1" stop-color="#8C43F6"/>
</linearGradient>
<linearGradient id="paint1_linear" x1="66.7368" y1="77.1359" x2="26.321" y2="39.233" gradientUnits="userSpaceOnUse">
<stop stop-color="#EB4A97"/>
<stop offset="1" stop-color="#8C43F6"/>
</linearGradient>
</defs>
</svg>
