<svg width="19" height="15" viewBox="0 0 19 15" fill="none" xmlns="http://www.w3.org/2000/svg">
<path fill-rule="evenodd" clip-rule="evenodd" d="M11.2334 7.40382C11.2334 8.91821 12.4654 10.1503 13.9798 10.1503H19V12.1673C19 13.5821 17.849 14.7331 16.4342 14.7331H2.56582C1.15102 14.7331 0 13.5821 0 12.1673V2.56582C0 1.15102 1.15102 0 2.56582 0H16.4342C17.849 0 19 1.15102 19 2.56582V4.65735H13.9798C12.4654 4.65735 11.2334 5.88943 11.2334 7.40382ZM13.9799 8.9531C13.1265 8.9531 12.4321 8.25876 12.4321 7.40526C12.4321 6.5518 13.1265 5.85746 13.98 5.85742H19.0001V8.9531H13.9799ZM14.2024 8.0747C14.547 8.0747 14.8264 7.79534 14.8264 7.45074C14.8264 7.10617 14.547 6.82681 14.2024 6.82678C13.8578 6.82678 13.5785 7.10613 13.5785 7.45074C13.5785 7.79534 13.8578 8.0747 14.2024 8.0747Z" fill="black"/>
</svg>
