<svg width="273" height="392" viewBox="0 0 273 392" fill="none" xmlns="http://www.w3.org/2000/svg">
<line opacity="0.6" x1="45.8963" y1="196.698" x2="153.818" y2="234.564" stroke="#260752"/>
<line opacity="0.6" y1="-0.5" x2="120.353" y2="-0.5" transform="matrix(-0.149511 0.98876 0.98876 0.149511 63.7248 77.1698)" stroke="#260752"/>
<line opacity="0.6" y1="-0.5" x2="96.7495" y2="-0.5" transform="matrix(0.671879 -0.740661 -0.740661 -0.671879 -19.2733 268.829)" stroke="#260752"/>
<line opacity="0.6" x1="-17.9646" y1="268.728" x2="28.0354" y2="327.728" stroke="#260752"/>
<path opacity="0.6" d="M155.653 235.036L238.655 144.036" stroke="#260752"/>
<g filter="url(#filter0_d)">
<circle cx="-18.8095" cy="269.365" r="4" transform="rotate(-120 -18.8095 269.365)" fill="#5713BA"/>
</g>
<circle cx="29.178" cy="329.572" r="4" transform="rotate(-120 29.178 329.572)" fill="#5713BA"/>
<circle cx="155.188" cy="234.572" r="4" transform="rotate(-120 155.188 234.572)" fill="#5713BA"/>
<circle cx="46.1948" cy="196.706" r="4" transform="rotate(-120 46.1948 196.706)" fill="#5713BA"/>
<circle cx="64.1891" cy="76.7057" r="4" transform="rotate(-120 64.1891 76.7057)" fill="#5713BA"/>
<circle cx="239.195" cy="143.571" r="4" transform="rotate(-120 239.195 143.571)" fill="#5713BA"/>
<defs>
<filter id="filter0_d" x="-37.2736" y="253.9" width="40.9282" height="40.9282" filterUnits="userSpaceOnUse" color-interpolation-filters="sRGB">
<feFlood flood-opacity="0" result="BackgroundImageFix"/>
<feColorMatrix in="SourceAlpha" type="matrix" values="0 0 0 0 0 0 0 0 0 0 0 0 0 0 0 0 0 0 127 0"/>
<feOffset dx="2" dy="5"/>
<feGaussianBlur stdDeviation="7.5"/>
<feColorMatrix type="matrix" values="0 0 0 0 0.921569 0 0 0 0 0.290196 0 0 0 0 0.592157 0 0 0 0.75 0"/>
<feBlend mode="normal" in2="BackgroundImageFix" result="effect1_dropShadow"/>
<feBlend mode="normal" in="SourceGraphic" in2="effect1_dropShadow" result="shape"/>
</filter>
</defs>
</svg>
