<svg width="337" height="369" viewBox="0 0 337 369" fill="none" xmlns="http://www.w3.org/2000/svg">
<line opacity="0.6" x1="-7.22093" y1="238.868" x2="103.777" y2="118.527" stroke="#260752"/>
<line opacity="0.6" x1="7.1053" y1="126.367" x2="104.106" y2="118.708" stroke="#260752"/>
<line opacity="0.6" x1="169.31" y1="190.392" x2="279.308" y2="227.392" stroke="#260752"/>
<line opacity="0.6" x1="186.65" y1="310.94" x2="168.656" y2="191.94" stroke="#260752"/>
<line opacity="0.6" x1="104.517" y1="118.871" x2="169.521" y2="190.53" stroke="#260752"/>
<line opacity="0.6" x1="284.72" y1="227.613" x2="328.72" y2="152.613" stroke="#260752"/>
<circle r="4" transform="matrix(-0.5 0.866025 0.866025 0.5 104.61 118.671)" fill="#5713BA"/>
<circle r="4" transform="matrix(-0.5 0.866025 0.866025 0.5 7.60882 127.33)" fill="#5713BA"/>
<circle r="4" transform="matrix(-0.5 0.866025 0.866025 0.5 279.612 228.33)" fill="#5713BA"/>
<circle r="4" transform="matrix(-0.5 0.866025 0.866025 0.5 169.614 191.33)" fill="#5713BA"/>
<circle r="4" transform="matrix(-0.5 0.866025 0.866025 0.5 187.609 311.33)" fill="#5713BA"/>
<circle r="4" transform="matrix(-0.5 0.866025 0.866025 0.5 330.614 151.33)" fill="#5713BA"/>
</svg>
