<svg width="345" height="392" viewBox="0 0 345 392" fill="none" xmlns="http://www.w3.org/2000/svg">
<line opacity="0.6" x1="344.592" y1="250.161" x2="291.508" y2="122.026" stroke="#260752"/>
<line opacity="0.6" x1="389.209" y1="90.4439" x2="292.126" y2="122.651" stroke="#260752"/>
<line opacity="0.6" x1="226.799" y1="194.307" x2="118.877" y2="156.441" stroke="#260752"/>
<line opacity="0.6" y1="-0.5" x2="120.353" y2="-0.5" transform="matrix(0.149511 -0.98876 -0.98876 -0.149511 208.97 313.835)" stroke="#260752"/>
<line opacity="0.6" y1="-0.5" x2="96.7495" y2="-0.5" transform="matrix(-0.671879 0.740661 0.740661 0.671879 291.969 122.176)" stroke="#260752"/>
<line opacity="0.6" x1="290.66" y1="122.277" x2="244.66" y2="63.2765" stroke="#260752"/>
<path opacity="0.6" d="M117.043 155.969L34.0407 246.969" stroke="#260752"/>
<circle cx="345.517" cy="251.433" r="4" transform="rotate(60 345.517 251.433)" fill="#5713BA"/>
<circle cx="291.505" cy="121.64" r="4" transform="rotate(60 291.505 121.64)" fill="#5713BA"/>
<circle cx="243.517" cy="61.4333" r="4" transform="rotate(60 243.517 61.4333)" fill="#5713BA"/>
<circle cx="117.507" cy="156.433" r="4" transform="rotate(60 117.507 156.433)" fill="#5713BA"/>
<circle cx="226.501" cy="194.299" r="4" transform="rotate(60 226.501 194.299)" fill="#5713BA"/>
<circle cx="208.506" cy="314.299" r="4" transform="rotate(60 208.506 314.299)" fill="#5713BA"/>
<circle cx="33.5003" cy="247.433" r="4" transform="rotate(60 33.5003 247.433)" fill="#5713BA"/>
</svg>
