<svg width="456" height="344" viewBox="0 0 456 344" fill="none" xmlns="http://www.w3.org/2000/svg">
<line opacity="0.6" x1="386.362" y1="9.15744" x2="311.716" y2="153.868" stroke="#260752"/>
<line opacity="0.6" x1="311.404" y1="154.121" x2="196.811" y2="185.64" stroke="#260752"/>
<line opacity="0.6" x1="197.165" y1="185.273" x2="175.008" y2="278.895" stroke="#260752"/>
<line opacity="0.6" x1="174.573" y1="279.277" x2="45.0163" y2="292.877" stroke="#260752"/>
<line opacity="0.6" x1="24.4369" y1="212.471" x2="196.599" y2="184.664" stroke="#260752"/>
<line opacity="0.6" x1="44.4782" y1="292.498" x2="26.0308" y2="216.546" stroke="#260752"/>
<circle cx="385.917" cy="8.92821" r="4" transform="rotate(-30 385.917 8.92821)" fill="#5713BA"/>
<circle cx="196.679" cy="185.158" r="4" transform="rotate(-30 196.679 185.158)" fill="#5713BA"/>
<circle cx="311.272" cy="153.638" r="4" transform="rotate(-30 311.272 153.638)" fill="#5713BA"/>
<circle cx="174.521" cy="278.779" r="4" transform="rotate(-30 174.521 278.779)" fill="#5713BA"/>
<circle cx="44.9641" cy="292.38" r="4" transform="rotate(-30 44.9641 292.38)" fill="#5713BA"/>
<circle cx="24.5167" cy="212.964" r="4" transform="rotate(-30 24.5167 212.964)" fill="#5713BA"/>
</svg>
