<svg width="100" height="100" viewBox="0 0 100 100" fill="none" xmlns="http://www.w3.org/2000/svg">
<circle opacity="0.35" cx="49.9996" cy="50" r="49" stroke="url(#paint0_crowd_linear)" stroke-width="2"/>
<g filter="url(#filter0_crowd_d)">
<path fill-rule="evenodd" clip-rule="evenodd" d="M57.9391 43.8171C57.9391 39.456 54.4832 36 50.2043 36C45.8432 36 42.3872 39.456 42.3872 43.8171C42.3872 48.0959 45.8432 51.5519 50.2043 51.5519C54.4832 51.5519 57.9391 48.0959 57.9391 43.8171ZM44.0329 43.8171C44.0329 40.3611 46.7483 37.6457 50.2043 37.6457C53.578 37.6457 56.2934 40.3611 56.2934 43.8171C56.2934 47.1908 53.578 49.9062 50.2043 49.9062C46.7483 49.9062 44.0329 47.1908 44.0329 43.8171ZM39.2597 64.1416C39.7534 64.2239 40.1649 63.8947 40.1649 63.4833C40.7409 58.3816 45.102 54.5141 50.2037 54.5141C55.3054 54.5141 59.5842 58.3816 60.1602 63.4833C60.1602 63.8947 60.5716 64.2239 61.0653 64.1416C61.4768 64.1416 61.8059 63.7302 61.8059 63.2365C61.1476 57.3941 56.1282 52.8684 50.2037 52.8684C44.1968 52.8684 39.2597 57.3941 38.6014 63.2365C38.5192 63.7302 38.8483 64.1416 39.2597 64.1416ZM65.4274 42.6648C68.8011 42.6648 71.5165 45.3802 71.5165 48.6717C71.5165 52.0454 68.8011 54.7608 65.4274 54.7608C62.136 54.7608 59.4206 52.0454 59.4206 48.6717C59.4206 45.3802 62.136 42.6648 65.4274 42.6648ZM65.4274 44.3105C63.0411 44.3105 61.0663 46.2854 61.0663 48.6717C61.0663 51.1402 63.0411 53.1151 65.4274 53.1151C67.896 53.1151 69.8708 51.1402 69.8708 48.6717C69.8708 46.2854 67.896 44.3105 65.4274 44.3105ZM60.9835 57.7232C61.2303 58.1346 61.724 58.2992 62.1355 58.0523C63.1229 57.5586 64.2749 57.2295 65.4269 57.2295C69.0474 57.2295 72.1743 59.8626 72.668 63.4831C72.7503 63.8946 73.1617 64.2237 73.6554 64.1414C74.0668 64.1414 74.396 63.6477 74.3137 63.2363C73.6554 58.8752 69.8703 55.5838 65.4269 55.5838C64.028 55.5838 62.6292 55.9952 61.3949 56.5712C60.9835 56.818 60.8189 57.3117 60.9835 57.7232ZM34.8988 42.6648C38.1902 42.6648 40.9057 45.3802 40.9057 48.6717C40.9057 52.0454 38.1902 54.7608 34.8988 54.7608C31.5251 54.7608 28.8097 52.0454 28.8097 48.6717C28.8097 45.3802 31.5251 42.6648 34.8988 42.6648ZM34.8988 44.3105C32.4303 44.3105 30.4554 46.2854 30.4554 48.6717C30.4554 51.1402 32.4303 53.1151 34.8988 53.1151C37.2851 53.1151 39.26 51.1402 39.26 48.6717C39.26 46.2854 37.2851 44.3105 34.8988 44.3105ZM26.7528 64.1414C27.1642 64.2237 27.5757 63.8946 27.6579 63.4831C28.1517 59.8626 31.2785 57.2295 34.899 57.2295C36.051 57.2295 37.203 57.5586 38.1905 58.0523C38.6019 58.2992 39.0956 58.1346 39.3425 57.7232C39.507 57.3117 39.3425 56.818 39.0133 56.5712C37.6967 55.9952 36.2979 55.5838 34.899 55.5838C30.4556 55.5838 26.6705 58.8752 26.0122 63.2363C25.9299 63.6477 26.2591 64.1414 26.7528 64.1414Z" fill="url(#paint1_crowd_linear)"/>
</g>
<defs>
<filter id="filter0_crowd_d" x="21.9996" y="32" width="56.3267" height="36.1543" filterUnits="userSpaceOnUse" color-interpolation-filters="sRGB">
<feFlood flood-opacity="0" result="BackgroundImageFix"/>
<feColorMatrix in="SourceAlpha" type="matrix" values="0 0 0 0 0 0 0 0 0 0 0 0 0 0 0 0 0 0 127 0"/>
<feOffset/>
<feGaussianBlur stdDeviation="2"/>
<feColorMatrix type="matrix" values="0 0 0 0 0.207187 0 0 0 0 0.975 0 0 0 0 0.781869 0 0 0 0.3 0"/>
<feBlend mode="normal" in2="BackgroundImageFix" result="effect1_dropShadow"/>
<feBlend mode="normal" in="SourceGraphic" in2="effect1_dropShadow" result="shape"/>
</filter>
<linearGradient id="paint0_crowd_linear" x1="72.3681" y1="89.3939" x2="-2.41971" y2="10.3859" gradientUnits="userSpaceOnUse">
<stop stop-color="#EB4A97"/>
<stop offset="1" stop-color="#8C43F6"/>
</linearGradient>
<linearGradient id="paint1_crowd_linear" x1="60.9729" y1="61.1682" x2="43.1385" y2="28.8279" gradientUnits="userSpaceOnUse">
<stop stop-color="#EB4A97"/>
<stop offset="1" stop-color="#8C43F6"/>
</linearGradient>
</defs>
</svg>
