<svg width="34" height="35" viewBox="0 0 34 35" fill="none" xmlns="http://www.w3.org/2000/svg">
<path id="Combined Shape" fill-rule="evenodd" clip-rule="evenodd" d="M34 17.9C34 8.51182 26.3897 0.899994 17 0.899994C7.61183 0.899994 0 8.51182 0 17.9C0 27.2889 7.61183 34.9 17 34.9C26.3897 34.9 34 27.2897 34 17.9ZM8.90392 27.3348V27.2713V24.7958V23.9566V21.4596C8.90392 21.3211 8.90392 21.3005 8.73409 21.3005H6.42836C6.3006 21.3005 6.24782 21.3005 6.24782 21.1306V19.1118H8.71267C8.85037 19.1118 8.90392 19.1118 8.90392 18.9312V16.9338C8.90392 16.806 8.90392 16.7747 8.73409 16.7747H6.42836C6.3006 16.7747 6.24782 16.7747 6.24782 16.6048V14.7352C6.24782 14.6181 6.24782 14.5867 6.41765 14.5867H8.70196C8.86108 14.5867 8.90392 14.5867 8.90392 14.3848V8.65794C8.90392 8.4881 8.90392 8.44526 9.1166 8.44526H17.0849C17.6633 8.46821 18.2378 8.53171 18.8062 8.63652C19.9774 8.85301 21.1027 9.27147 22.1317 9.86894C22.8141 10.2706 23.4421 10.7556 24.0014 11.314C24.4221 11.7509 24.8015 12.2236 25.1382 12.727C25.4725 13.2373 25.7502 13.7827 25.9682 14.3527C25.995 14.5011 26.1373 14.6013 26.2857 14.576H28.1875C28.4315 14.576 28.4315 14.576 28.4422 14.8101V16.5528C28.4422 16.7226 28.3787 16.7655 28.2081 16.7655H26.7416C26.5932 16.7655 26.5504 16.7655 26.5611 16.9567C26.6192 17.6039 26.6192 18.2534 26.5611 18.9006C26.5611 19.0812 26.5611 19.1026 26.7638 19.1026H28.4415C28.4909 19.1663 28.4745 19.23 28.458 19.2939C28.4497 19.3259 28.4415 19.358 28.4415 19.3902C28.4522 19.5134 28.4522 19.6381 28.4415 19.7613V21.0472C28.4415 21.2278 28.3887 21.2813 28.2288 21.2813H26.2206C26.0806 21.2546 25.9445 21.3441 25.9123 21.4833C25.4342 22.7264 24.6692 23.841 23.6808 24.7346C23.3197 25.0597 22.9403 25.3657 22.544 25.648C22.4581 25.6975 22.3726 25.7473 22.2873 25.7971C21.9505 25.9936 21.6167 26.1883 21.2687 26.3495C20.4662 26.7106 19.6247 26.9768 18.761 27.1459C17.941 27.2928 17.1094 27.3593 16.2748 27.3478H8.90086V27.3371L8.90392 27.3348ZM23.5775 14.5531C23.5959 14.5049 23.5959 14.4521 23.5775 14.4047C23.4697 14.1698 23.3419 13.9457 23.1935 13.7353C22.9701 13.3757 22.707 13.0445 22.4071 12.7469C22.2655 12.5671 22.1018 12.4057 21.9182 12.2688C20.9987 11.4862 19.9055 10.9323 18.7304 10.6538C18.1376 10.5207 17.5317 10.4572 16.9243 10.4626H11.2188C11.0597 10.4626 11.0383 10.5261 11.0383 10.6646V14.436C11.0383 14.5952 11.0383 14.638 11.2403 14.638H23.501C23.501 14.638 23.6074 14.6166 23.6288 14.5531H23.5775ZM17.6265 19.1003H24.0863C24.224 19.1003 24.289 19.1003 24.2989 18.9198C24.3517 18.2626 24.3517 17.6016 24.2989 16.9437C24.2989 16.816 24.2354 16.7632 24.097 16.7632H11.241C11.0819 16.7632 11.0391 16.816 11.0391 16.9652V18.8563C11.0391 18.9765 11.0391 19.0375 11.0696 19.0685C11.1009 19.1003 11.1646 19.1003 11.2938 19.1003H17.6265ZM23.0344 21.3104C23.2149 21.2905 23.397 21.2905 23.5775 21.3104V21.3119C23.6609 21.354 23.5867 21.5147 23.5867 21.5147C22.9334 22.7937 21.8976 23.8357 20.6223 24.499H20.5481C20.3025 24.6451 20.0424 24.7667 19.7732 24.86C19.0326 25.1423 18.2561 25.3137 17.4667 25.3703C17.2119 25.4246 16.9518 25.443 16.6917 25.4231H11.2517C11.0391 25.4231 11.0391 25.3802 11.0391 25.2104V21.5231C11.0391 21.3104 11.0926 21.3104 11.2517 21.3104H23.0344Z" fill="#8D97A0"/>
</svg>
