<svg width="16" height="16" viewBox="0 0 16 16" fill="none" xmlns="http://www.w3.org/2000/svg">
<path id="Combined Shape" fill-rule="evenodd" clip-rule="evenodd" d="M16 8C16 3.58204 12.4187 0 8 0C3.58204 0 0 3.58204 0 8C0 12.4183 3.58204 16 8 16C12.4187 16 16 12.4187 16 8ZM4.1919 12.4399V12.41V11.2451V10.8501V9.67509C4.1919 9.60993 4.1919 9.60021 4.11198 9.60021H3.02693C2.9668 9.60021 2.94196 9.60021 2.94196 9.52029V8.57024H4.1019C4.1667 8.57024 4.1919 8.57024 4.1919 8.48528V7.54531C4.1919 7.48519 4.1919 7.47043 4.11198 7.47043H3.02693C2.9668 7.47043 2.94196 7.47043 2.94196 7.39051V6.51066C2.94196 6.45558 2.94196 6.44082 3.02189 6.44082H4.09686C4.17174 6.44082 4.1919 6.44082 4.1919 6.34578V3.65079C4.1919 3.57087 4.1919 3.55071 4.29198 3.55071H8.04178C8.31394 3.56151 8.5843 3.59139 8.85178 3.64071C9.40295 3.74259 9.93251 3.93952 10.4167 4.22068C10.7378 4.40968 11.0334 4.63792 11.2966 4.90072C11.4946 5.10629 11.6731 5.32877 11.8315 5.56565C11.9889 5.80577 12.1195 6.06246 12.2221 6.33066C12.2347 6.4005 12.3017 6.44766 12.3715 6.43578H13.2665C13.3247 6.43578 13.3534 6.43578 13.3682 6.45013C13.3826 6.46408 13.3839 6.49162 13.3864 6.54594V7.36603C13.3864 7.44595 13.3565 7.46611 13.2762 7.46611H12.5861C12.5163 7.46611 12.4961 7.46611 12.5011 7.55611C12.5285 7.86067 12.5285 8.16632 12.5011 8.47088C12.5011 8.55584 12.5011 8.56592 12.5965 8.56592H13.386C13.4093 8.5959 13.4016 8.62587 13.3938 8.65595C13.3899 8.67103 13.386 8.68614 13.386 8.70128C13.3911 8.75924 13.3911 8.81792 13.386 8.87589V9.48105C13.386 9.56601 13.3612 9.59121 13.2859 9.59121H12.3409C12.2751 9.57861 12.211 9.62073 12.1959 9.68625C11.9709 10.2713 11.6109 10.7958 11.1457 11.2163C10.9758 11.3693 10.7972 11.5133 10.6108 11.6461C10.5703 11.6694 10.5301 11.6928 10.49 11.7162L10.49 11.7163C10.3315 11.8087 10.1744 11.9004 10.0106 11.9762C9.63299 12.1462 9.23699 12.2714 8.83054 12.351C8.44462 12.4201 8.0533 12.4514 7.66053 12.446H4.19046V12.441L4.1919 12.4399ZM11.0978 6.42501C11.1064 6.40233 11.1064 6.37749 11.0978 6.35517C11.047 6.24465 10.9869 6.13916 10.9171 6.04016C10.812 5.87096 10.6881 5.71508 10.547 5.57504C10.4804 5.49044 10.4034 5.41448 10.317 5.35004C9.88423 4.98175 9.36979 4.72111 8.81682 4.59007C8.53782 4.52743 8.2527 4.49755 7.96685 4.50007H5.28195C5.20707 4.50007 5.19699 4.52995 5.19699 4.59511V6.36993C5.19699 6.44481 5.19699 6.46497 5.29203 6.46497H11.0618C11.0618 6.46497 11.1118 6.45489 11.1219 6.42501H11.0978ZM8.29698 8.56486H11.3368C11.4016 8.56486 11.4322 8.56486 11.4369 8.47989C11.4618 8.17065 11.4618 7.85961 11.4369 7.55C11.4369 7.48988 11.407 7.46504 11.3419 7.46504H5.29203C5.21715 7.46504 5.19699 7.48988 5.19699 7.56009V8.45001C5.19699 8.50661 5.19699 8.53532 5.21134 8.54988C5.2261 8.56486 5.25607 8.56486 5.31687 8.56486H8.29698ZM10.8418 9.60488C10.9268 9.59552 11.0125 9.59552 11.0974 9.60488V9.6056C11.1367 9.6254 11.1018 9.701 11.1018 9.701C10.7943 10.3029 10.3069 10.7932 9.70675 11.1054H9.67183C9.55627 11.1741 9.43387 11.2314 9.30715 11.2753C8.95866 11.4081 8.59326 11.4888 8.22174 11.5154C8.10186 11.541 7.97945 11.5496 7.85705 11.5403H5.29707C5.19699 11.5403 5.19699 11.5201 5.19699 11.4402V9.70496C5.19699 9.60488 5.22219 9.60488 5.29707 9.60488H10.8418Z" fill="url(#paint0_linear)"/>
<defs>
<linearGradient id="paint0_linear" x1="2" y1="-3.84187e-07" x2="22.8607" y2="12.6403" gradientUnits="userSpaceOnUse">
<stop stop-color="#5294FF"/>
<stop offset="1" stop-color="#1EFF78"/>
</linearGradient>
</defs>
</svg>
