<svg width="103" height="103" viewBox="0 0 103 103" fill="none" xmlns="http://www.w3.org/2000/svg">
<g filter="url(#filter0_d)">
<path fill-rule="evenodd" clip-rule="evenodd" d="M51.5 78C66.1355 78 78 66.1355 78 51.5C78 36.8645 66.1355 25 51.5 25C36.8645 25 25 36.8645 25 51.5C25 66.1355 36.8645 78 51.5 78ZM63.0402 58.9609C63.1284 58.8707 63.1994 58.7631 63.2483 58.6426C63.2962 58.5232 63.3212 58.3969 63.3222 58.2686V58.2676V50.4347C63.3222 49.8933 62.8934 49.4556 62.3629 49.4556C61.8324 49.4556 61.4036 49.8933 61.4036 50.4347V55.8943L53.0571 47.3261C52.8624 47.1273 52.5948 47.0236 52.3195 47.0392C52.0442 47.0558 51.79 47.192 51.6202 47.4142L48.7107 51.2161L42.1101 44.8371C41.9249 44.659 41.688 44.5698 41.4511 44.5698C41.1969 44.5698 40.9436 44.6717 40.7537 44.8743C40.3901 45.267 40.4064 45.8867 40.7911 46.2588L48.1582 53.378C48.3539 53.5669 48.611 53.6639 48.8901 53.6433C49.1587 53.6227 49.4071 53.4876 49.574 53.2693L52.4633 49.4938L60.0569 57.2885H54.6888C54.1583 57.2885 53.7296 57.7262 53.7296 58.2676C53.7296 58.8091 54.1584 59.2468 54.6888 59.2468H62.3629C62.3783 59.2468 62.3924 59.2429 62.4065 59.2389C62.4188 59.2355 62.4311 59.232 62.4445 59.2311C62.5404 59.2223 62.6363 59.2105 62.7275 59.1724C62.8387 59.1253 62.9375 59.0558 63.0238 58.9726C63.0261 58.9703 63.0286 58.9688 63.0312 58.9673C63.0341 58.9657 63.0371 58.9639 63.0402 58.9609Z" fill="url(#paint0_linear)"/>
</g>
<defs>
<filter id="filter0_d" x="0" y="0" width="103" height="103" filterUnits="userSpaceOnUse" color-interpolation-filters="sRGB">
<feFlood flood-opacity="0" result="BackgroundImageFix"/>
<feColorMatrix in="SourceAlpha" type="matrix" values="0 0 0 0 0 0 0 0 0 0 0 0 0 0 0 0 0 0 127 0"/>
<feOffset/>
<feGaussianBlur stdDeviation="12.5"/>
<feColorMatrix type="matrix" values="0 0 0 0 0.921569 0 0 0 0 0.290196 0 0 0 0 0.592157 0 0 0 0.25 0"/>
<feBlend mode="normal" in2="BackgroundImageFix" result="effect1_dropShadow"/>
<feBlend mode="normal" in="SourceGraphic" in2="effect1_dropShadow" result="shape"/>
</filter>
<linearGradient id="paint0_linear" x1="63.3553" y1="72.3788" x2="23.7177" y2="30.5045" gradientUnits="userSpaceOnUse">
<stop stop-color="#EB4A97"/>
<stop offset="1" stop-color="#8C43F6"/>
</linearGradient>
</defs>
</svg>
