<svg width="16" height="16" viewBox="0 0 16 16" fill="none" xmlns="http://www.w3.org/2000/svg">
<path fill-rule="evenodd" clip-rule="evenodd" d="M0 8C0 3.58172 3.58172 0 8 0C12.4183 0 16 3.58172 16 8C16 12.4183 12.4183 16 8 16C3.58172 16 0 12.4183 0 8ZM10.676 10.6905C11.0342 10.3478 11.3025 9.92184 11.469 9.45552C11.6353 8.98992 11.702 8.49356 11.7041 8.00061C11.7067 7.40227 11.6161 6.79619 11.3731 6.246C11.1889 5.82925 10.9179 5.45436 10.5761 5.1528C10.2978 4.90727 9.97716 4.71184 9.63569 4.56734C9.31206 4.43041 8.96684 4.32959 8.61541 4.30839C8.58094 4.30631 8.54641 4.305 8.51184 4.30448C8.46219 4.30377 8.41253 4.30386 8.36287 4.30395C7.9633 4.30395 7.56373 4.30429 7.16415 4.30463C6.76457 4.30497 6.36499 4.30531 5.96541 4.30531H5.53227V11.6959H6.4808C6.64752 11.6959 6.81428 11.6954 6.98104 11.6949C7.31459 11.6939 7.64817 11.6928 7.98164 11.6959C8.55931 11.7013 9.1247 11.592 9.65398 11.361C10.0293 11.1971 10.3797 10.9741 10.676 10.6905ZM7.17188 5.50299C7.61373 5.49461 8.06004 5.48615 8.49254 5.5536C9.02691 5.63695 9.53327 5.86784 9.88299 6.29035C10.328 6.82798 10.4466 7.55317 10.4087 8.2321C10.3823 8.70284 10.2733 9.1664 9.98812 9.55132C9.7422 9.88328 9.39529 10.1242 9.01521 10.2792C8.6776 10.4168 8.31815 10.4962 7.95405 10.5073C7.9228 10.5083 7.89152 10.5087 7.86021 10.5087C7.6899 10.5084 7.51959 10.5084 7.34928 10.5085C7.28265 10.5085 7.21601 10.5085 7.14938 10.5085H6.73535V5.50853C6.87993 5.50853 7.02566 5.50576 7.17188 5.50299Z" fill="white"/>
</svg>
