<svg width="18" height="13" viewBox="0 0 18 13" fill="none" xmlns="http://www.w3.org/2000/svg">
<path fill-rule="evenodd" clip-rule="evenodd" d="M16.5645 5.31574C15.8911 3.27205 15.1346 2.18318 15.0735 2.09521L15.0697 2.08968C15.0249 2.0414 13.9149 0.86795 11.2396 0L10.8861 0.85026C12.1588 1.26319 13.0618 1.76694 13.5584 2.09243C12.0758 1.70133 10.3121 1.4618 8.75 1.4618C7.18792 1.4618 5.42421 1.70133 3.94164 2.09243C4.4382 1.76697 5.34116 1.26319 6.61391 0.85026L6.26039 0C3.58511 0.86795 2.47509 2.0414 2.43031 2.08968L2.42645 2.09529C2.36493 2.18385 1.60867 3.27268 0.93557 5.31574C0.264277 7.3531 0.009263 10.2272 0 10.3425L0.00564822 10.3505C0.1197 10.5128 1.51568 12.5 5.18482 12.5L6.13515 11.2843C5.07045 11.0346 4.05521 10.6319 3.12587 10.0854L3.69404 9.33137C5.19333 10.2129 6.94166 10.679 8.75 10.679C10.5583 10.679 12.3067 10.2129 13.806 9.33137L14.3741 10.0854C13.4448 10.6319 12.4295 11.0346 11.3648 11.2843L12.3152 12.5C15.9845 12.5 17.3804 10.5127 17.4944 10.3505L17.5 10.3425C17.4907 10.2272 17.2357 7.3531 16.5645 5.31574ZM6.37936 7.68541H5.35397V6.17572H6.37936V7.68541ZM11.1206 7.68541H12.146V6.17572H11.1206V7.68541Z" fill="#646464"/>
</svg>
