<svg width="18" height="13" viewBox="0 0 18 13" fill="none" xmlns="http://www.w3.org/2000/svg">
<path fill-rule="evenodd" clip-rule="evenodd" d="M17.0645 5.56574C16.3911 3.52205 15.6346 2.43318 15.5735 2.34521L15.5697 2.33968C15.5249 2.2914 14.4149 1.11795 11.7396 0.25L11.3861 1.10026C12.6588 1.51319 13.5618 2.01694 14.0584 2.34243C12.5758 1.95133 10.8121 1.7118 9.25 1.7118C7.68792 1.7118 5.92421 1.95133 4.44164 2.34243C4.9382 2.01697 5.84116 1.51319 7.11391 1.10026L6.76039 0.25C4.08511 1.11795 2.97509 2.2914 2.93031 2.33968L2.92645 2.34529C2.86493 2.43385 2.10867 3.52268 1.43557 5.56574C0.764277 7.6031 0.509263 10.4772 0.5 10.5925L0.505648 10.6005C0.6197 10.7628 2.01568 12.75 5.68482 12.75L6.63515 11.5343C5.57045 11.2846 4.55521 10.8819 3.62587 10.3354L4.19404 9.58137C5.69333 10.4629 7.44166 10.929 9.25 10.929C11.0583 10.929 12.8067 10.4629 14.306 9.58137L14.8741 10.3354C13.9448 10.8819 12.9295 11.2846 11.8648 11.5343L12.8152 12.75C16.4845 12.75 17.8804 10.7627 17.9944 10.6005L18 10.5925C17.9907 10.4772 17.7357 7.6031 17.0645 5.56574ZM6.87936 7.93541H5.85397V6.42572H6.87936V7.93541ZM11.6206 7.93541H12.646V6.42572H11.6206V7.93541Z" fill="#646464"/>
</svg>
