<svg width="15" height="21" viewBox="0 0 15 21" fill="none" xmlns="http://www.w3.org/2000/svg">
<path fill-rule="evenodd" clip-rule="evenodd" d="M12.067 0.5H13.7874C14.4283 0.50125 14.9475 1.02045 14.9488 1.66136V19.325C14.9483 19.6322 14.8257 19.9265 14.6079 20.1432C14.3912 20.361 14.0969 20.4836 13.7897 20.4841H2.55788C1.16618 20.4803 0.0389062 19.3531 0.0351562 17.9614V3.02955C0.0351562 1.63517 1.16351 0.50375 2.55788 0.5H8.32607V6.32273C8.32607 6.73182 8.73743 6.93182 9.06016 6.42045L10.1965 4.60227L11.3329 6.42045C11.6533 6.93409 12.067 6.73182 12.067 6.32273V0.5ZM3.04425 17.4977L14.0033 17.4841V16.6091C14.0021 16.4991 13.9133 16.4103 13.8033 16.4091H2.55788C1.69493 16.4091 0.995384 17.1086 0.995384 17.9716C0.995384 18.8345 1.69493 19.5341 2.55788 19.5341H13.8033C13.8559 19.5342 13.9065 19.5138 13.9442 19.4773C13.9808 19.4395 14.0012 19.3889 14.0011 19.3364L14.0033 18.4545H3.04425C2.78004 18.4363 2.58061 18.2073 2.59885 17.9431C2.61533 17.7043 2.80538 17.5142 3.04425 17.4977Z" fill="#646464"/>
</svg>
