<svg width="20" height="24" viewBox="0 0 20 24" fill="none" xmlns="http://www.w3.org/2000/svg">
<g filter="url(#filter0_d)">
<path fill-rule="evenodd" clip-rule="evenodd" d="M13.0729 8.12557C13.9492 9.40372 14.9423 10.8522 15.1062 13.1634C15.1062 13.1634 15.1368 13.6146 15.1368 13.7758C15.1368 16.9747 12.7382 19.5787 9.78709 19.5879H9.78333C9.7806 19.5886 9.77736 19.5884 9.77412 19.5881C9.77321 19.588 9.77229 19.588 9.77139 19.5879C6.81302 19.5879 4.40601 16.9804 4.40601 13.7758C4.40601 13.6657 4.40629 13.5557 4.41241 13.4459C4.49973 10.1473 6.00061 9.32114 6.06435 9.28771C6.15023 9.24168 6.2498 9.24516 6.3345 9.29308C6.41833 9.34164 6.47596 9.43055 6.48965 9.53272C6.49256 9.55418 6.76792 11.524 7.98351 11.8053C7.98846 10.957 8.02371 9.67273 8.29004 8.53031C8.67369 6.88936 9.77198 5.16956 11.0883 4.14917C11.1788 4.0779 11.2984 4.06876 11.398 4.12458C11.4973 4.18008 11.5599 4.29076 11.5599 4.41185C11.5599 5.91927 12.2607 6.9412 13.0721 8.1245L13.0724 8.12482L13.0729 8.12557ZM7.98293 16.8783C7.98293 18.0163 8.78516 18.9421 9.77139 18.9421C10.7576 18.9421 11.5599 18.0163 11.5599 16.8783C11.5599 16.8185 11.5561 16.7628 11.5524 16.7074L11.5523 16.707C11.4897 15.7709 11.1332 15.2219 10.7882 14.6909C10.5472 14.3197 10.3003 13.9394 10.1737 13.4696C9.88901 13.8316 9.66431 14.2831 9.57027 14.7076C9.46461 15.1862 9.45587 15.7166 9.45587 16.1764C9.45587 16.3548 9.32255 16.4992 9.15778 16.4992C8.65564 16.4992 8.34651 16.1294 8.17359 15.727C8.08132 15.9449 7.99718 16.2726 7.98524 16.7525C7.98288 16.7962 7.9829 16.8326 7.98292 16.8681L7.98293 16.8783Z" fill="url(#paint0_linear)"/>
</g>
<defs>
<filter id="filter0_d" x="0.406006" y="0.0883789" width="18.7308" height="23.5" filterUnits="userSpaceOnUse" color-interpolation-filters="sRGB">
<feFlood flood-opacity="0" result="BackgroundImageFix"/>
<feColorMatrix in="SourceAlpha" type="matrix" values="0 0 0 0 0 0 0 0 0 0 0 0 0 0 0 0 0 0 127 0"/>
<feOffset/>
<feGaussianBlur stdDeviation="2"/>
<feColorMatrix type="matrix" values="0 0 0 0 0.92549 0 0 0 0 0.470588 0 0 0 0 0.317647 0 0 0 0.25 0"/>
<feBlend mode="normal" in2="BackgroundImageFix" result="effect1_dropShadow"/>
<feBlend mode="normal" in="SourceGraphic" in2="effect1_dropShadow" result="shape"/>
</filter>
<linearGradient id="paint0_linear" x1="11.0674" y1="-15.9393" x2="1.11135" y2="-15.5733" gradientUnits="userSpaceOnUse">
<stop stop-color="#EB7A4A"/>
<stop offset="1" stop-color="#F643CF"/>
</linearGradient>
</defs>
</svg>
