<svg width="16" height="16" viewBox="0 0 16 16" fill="none" xmlns="http://www.w3.org/2000/svg">
<path d="M14.2166 6.1273C13.7113 6.1273 13.2666 6.34922 12.9393 6.69496C11.736 5.81287 10.1133 5.24522 8.3153 5.1847L9.24929 0.728348L12.2233 1.43513C12.2233 2.20591 12.8166 2.83548 13.5446 2.83548C14.2866 2.83548 14.8833 2.18922 14.8833 1.41774C14.8833 0.646261 14.2906 0 13.5453 0C13.026 0 12.578 0.331826 12.3546 0.785391L9.06996 0.0146087C8.90463 -0.032 8.74263 0.0932174 8.69863 0.268522L7.6733 5.18122C5.8893 5.25983 4.28397 5.82678 3.07664 6.70957C2.7493 6.34922 2.2873 6.1273 1.78197 6.1273C-0.0926916 6.1273 -0.706691 8.79096 1.00997 9.70157C0.949307 9.9833 0.921974 10.2838 0.921974 10.5837C0.921974 13.5757 4.1053 16 8.01396 16C11.9393 16 15.1226 13.5757 15.1226 10.5837C15.1226 10.2838 15.0926 9.96939 15.0186 9.68696C16.7006 8.77287 16.0813 6.1287 14.2166 6.1273ZM3.73397 9.89078C3.73397 9.10539 4.3273 8.47304 5.07263 8.47304C5.80063 8.47304 6.39463 9.10122 6.39463 9.89078C6.39463 10.6623 5.8013 11.2911 5.07263 11.2911C4.33064 11.2946 3.73397 10.6623 3.73397 9.89078ZM10.96 13.2285C9.73263 14.528 6.2693 14.528 5.0413 13.2285C4.90597 13.1033 4.90597 12.8821 5.0413 12.7395C5.1593 12.6143 5.36863 12.6143 5.48663 12.7395C6.42396 13.7572 9.53329 13.7746 10.5113 12.7395C10.6293 12.6143 10.8386 12.6143 10.9566 12.7395C11.0946 12.8828 11.0946 13.104 10.96 13.2285ZM10.9326 11.2939C10.2046 11.2939 9.61129 10.6657 9.61129 9.89496C9.61129 9.10957 10.2046 8.47722 10.9326 8.47722C11.6746 8.47722 12.2713 9.10539 12.2713 9.89496C12.268 10.6623 11.6746 11.2939 10.9326 11.2939Z" fill="#646464"/>
</svg>
