<svg width="20" height="18" viewBox="0 0 20 18" fill="none" xmlns="http://www.w3.org/2000/svg">
<path fill-rule="evenodd" clip-rule="evenodd" d="M3.6733 10.5068C3.8657 12.6204 5.026 13.9101 5.4866 14.3708C5.7142 14.5983 5.7142 14.9673 5.4866 15.1949L3.7215 16.9602C3.6077 17.074 3.4585 17.1309 3.3094 17.1309C3.1602 17.1309 3.0111 17.074 2.8973 16.9602C1.155 15.218 0.139 12.9446 0 10.5068H3.6733ZM19.8579 10.5068C19.7189 12.9446 18.7029 15.218 16.9606 16.9602C16.8468 17.074 16.6977 17.1309 16.5485 17.1309C16.4292 17.1309 16.3099 17.0945 16.2086 17.0217L16.1364 16.9602L14.3713 15.1949C14.1437 14.9673 14.1437 14.5983 14.3713 14.3708C14.811 13.9311 15.8882 12.736 16.1525 10.79L16.1846 10.5068H19.8579ZM10 3.19012C10.2727 3.19012 10.5088 3.37952 10.5679 3.64569C10.6969 4.2261 11.8281 9.35312 11.828 10.6265C11.828 11.6345 11.008 12.4545 9.99996 12.4546C8.99201 12.4545 8.17194 11.6344 8.17194 10.6265C8.17194 9.35304 9.30311 4.22615 9.43211 3.64572C9.49125 3.37955 9.72732 3.19015 10 3.19012ZM17.3581 3.31873C18.8554 4.99691 19.7279 7.10013 19.8575 9.34328H16.1855C16.0691 8.07809 15.5765 6.8917 14.762 5.91479L17.3581 3.31873ZM2.49995 3.31873L5.09601 5.91479C4.34415 6.81652 3.86661 7.8968 3.70608 9.05277L3.67257 9.34328H0.000547409C0.130089 7.10013 1.00259 4.99691 2.49995 3.31873ZM10.5108 0C12.7534 0.128727 14.8565 1.00018 16.5351 2.49622L13.939 5.09232C13.2079 4.48364 12.3596 4.05521 11.4488 3.82968L11.369 3.4568L11.178 2.58438C11.0947 2.2091 10.8417 1.90737 10.5106 1.75259L10.5108 0ZM9.34724 0L9.34686 1.83139C9.08666 1.99899 8.89292 2.26507 8.82197 2.58443L8.55828 3.79473C7.59102 4.00919 6.68987 4.45058 5.91902 5.09232L3.32293 2.49622C5.00157 1.00014 7.10463 0.128727 9.34724 0Z" fill="#8D97A0"/>
</svg>
