<svg width="17" height="18" viewBox="0 0 17 18" fill="none" xmlns="http://www.w3.org/2000/svg">
<path fill-rule="evenodd" clip-rule="evenodd" d="M16.2479 4.23L16.2634 4.215L12.4255 0.500016L11.3334 1.56L13.5073 3.66998C12.5388 4.02998 11.8485 4.935 11.8485 6C11.8485 7.38 13.0024 8.49998 14.4243 8.49998C14.79 8.49998 15.1403 8.42498 15.4545 8.28998V15.5C15.4546 16.05 14.991 16.5 14.4243 16.5C13.8576 16.5 13.394 16.05 13.394 15.5V11C13.394 9.89503 12.4719 9 11.3334 9H10.3031V2.00002C10.303 0.894984 9.38094 0 8.24246 0H2.06063C0.922108 0 0 0.894984 0 2.00002V18H10.303V10.5H11.8485V15.5C11.8485 16.88 13.0024 18 14.4243 18C15.8461 18 17 16.88 17 15.5V6C17 5.31 16.7116 4.68502 16.2479 4.23ZM8.24246 6.99998H2.06063V2.00002H8.24246V6.99998ZM13.394 6C13.394 6.54998 13.8576 6.99998 14.4243 6.99998C14.991 6.99998 15.4546 6.54998 15.4546 6C15.4546 5.45002 14.991 5.00002 14.4243 5.00002C13.8576 5.00002 13.394 5.45002 13.394 6Z" fill="#646464"/>
</svg>
