<svg width="20" height="18" viewBox="0 0 20 18" fill="none" xmlns="http://www.w3.org/2000/svg">
<path fill-rule="evenodd" clip-rule="evenodd" d="M10.5108 0C12.7534 0.128727 14.8565 1.00018 16.5351 2.49622L13.939 5.09232C12.962 4.27897 11.7758 3.78745 10.5108 3.67187V0ZM14.762 5.91479L17.3581 3.31873C18.8554 4.99691 19.7279 7.10013 19.8575 9.34328H16.1855C16.0691 8.07809 15.5765 6.8917 14.762 5.91479ZM0.000547409 9.34328H3.67257C3.78893 8.07809 4.28149 6.89166 5.09601 5.91479L2.49995 3.31873C1.00259 4.99691 0.130089 7.10013 0.000547409 9.34328ZM3.67339 10.5068C3.75495 11.4029 4.01066 12.1503 4.3131 12.7497C4.01807 13.2047 3.77209 13.5892 3.60958 13.8446C3.16705 14.5401 3.26502 15.4328 3.84788 16.0157C3.9894 16.1573 4.15106 16.2713 4.32625 16.3556L3.72163 16.9602C3.60784 17.074 3.45867 17.1309 3.30955 17.1309C3.16038 17.1309 3.01125 17.074 2.8975 16.9602C1.15513 15.218 0.139164 12.9447 0.00012207 10.5068H3.67339ZM19.8579 10.5068H16.1846C15.9922 12.6205 14.8319 13.9101 14.3713 14.3708C14.1437 14.5984 14.1437 14.9674 14.3713 15.195L16.1364 16.9603C16.2502 17.074 16.3994 17.131 16.5485 17.131C16.6977 17.131 16.8468 17.0741 16.9606 16.9603C18.7029 15.218 19.7189 12.9447 19.8579 10.5068ZM3.32293 2.49622C5.00157 1.00014 7.10463 0.128727 9.34724 0V3.67187C8.08232 3.78745 6.89601 4.27897 5.91902 5.09232L3.32293 2.49622ZM11.2216 8.64213C10.5088 7.92939 9.34907 7.92939 8.63632 8.64213C7.73589 9.54252 4.91042 13.9677 4.59119 14.4693C4.44477 14.6994 4.47782 15.0002 4.67062 15.193C4.86346 15.3858 5.16431 15.4189 5.39434 15.2725C5.89598 14.9533 10.3211 12.1278 11.2216 11.2274C11.9343 10.5146 11.9343 9.35488 11.2216 8.64213Z" fill="#5294FF"/>
</svg>
