<svg width="17" height="13" viewBox="0 0 17 13" fill="none" xmlns="http://www.w3.org/2000/svg">
<path d="M7.65192 10.2311C7.91749 10.2311 8.15651 10.4435 8.15651 10.7356C8.15651 11.0012 7.94405 11.2402 7.65192 11.2402C7.38635 11.2402 7.14734 11.0278 7.14734 10.7356C7.14734 10.4435 7.38635 10.2311 7.65192 10.2311ZM15.4597 7.15044C15.1941 7.15044 14.9551 6.93799 14.9551 6.64586C14.9551 6.38029 15.1676 6.14127 15.4597 6.14127C15.7253 6.14127 15.9643 6.35373 15.9643 6.64586C15.9643 6.91143 15.7253 7.15044 15.4597 7.15044ZM15.4597 5.10555C14.6099 5.10555 13.9194 5.79603 13.9194 6.64586C13.9194 6.8052 13.9459 6.96454 13.9991 7.12389L8.92666 9.8327C8.63453 9.40779 8.15651 9.16878 7.65192 9.16878C7.06767 9.16878 6.53653 9.51402 6.27096 10.0186L1.70315 7.62847C1.22512 7.3629 0.85332 6.59274 0.906435 5.84915C0.932992 5.47735 1.06578 5.18522 1.25168 5.07899C1.38446 4.99932 1.51725 5.02588 1.70315 5.10555L1.7297 5.13211C2.95133 5.76948 6.90833 7.84093 7.06767 7.9206C7.33324 8.02682 7.46602 8.07994 7.91749 7.86748L16.0971 3.61836C16.2298 3.56524 16.3626 3.45901 16.3626 3.27311C16.3626 3.0341 16.1236 2.92787 16.1236 2.92787C15.6456 2.71542 14.9286 2.37017 14.2381 2.05149C12.7509 1.36101 11.0512 0.564296 10.3076 0.16594C9.67026 -0.179301 9.13912 0.112826 9.05945 0.16594L8.87355 0.245611C5.5008 1.94526 1.03922 4.1495 0.773649 4.30884C0.32218 4.57441 0.0300522 5.13211 0.00349514 5.82259C-0.0496189 6.91143 0.508079 8.05338 1.30479 8.45174L6.13817 10.9481C6.2444 11.6917 6.90833 12.2759 7.65192 12.2759C8.50175 12.2759 9.16567 11.612 9.19223 10.7622L14.5036 7.89404C14.7692 8.10649 15.1145 8.21272 15.4597 8.21272C16.3095 8.21272 17 7.52224 17 6.67242C17 5.79603 16.3095 5.10555 15.4597 5.10555Z" fill="white"/>
</svg>
