<svg width="15" height="15" viewBox="0 0 15 15" fill="none" xmlns="http://www.w3.org/2000/svg">
<path d="M7.49906 0C3.35813 0 0 3.44292 0 7.69008C0 11.087 2.14875 13.9689 5.13 14.9867C5.505 15.0575 5.64188 14.8201 5.64188 14.6161C5.64188 14.4333 5.63531 13.9498 5.63156 13.3083C3.54562 13.7726 3.105 12.2771 3.105 12.2771C2.76469 11.3886 2.2725 11.1522 2.2725 11.1522C1.59094 10.6754 2.32312 10.6849 2.32312 10.6849C3.07594 10.7395 3.47156 11.4777 3.47156 11.4777C4.14094 12.6524 5.2275 12.3135 5.655 12.1163C5.7225 11.6194 5.91656 11.2804 6.13125 11.088C4.46625 10.8936 2.715 10.234 2.715 7.28796C2.715 6.4483 3.0075 5.76182 3.4875 5.22374C3.40969 5.02938 3.15281 4.24716 3.56063 3.1892C3.56063 3.1892 4.19063 2.9824 5.62313 3.97717C6.22125 3.80675 6.8625 3.72153 7.50094 3.71866C8.1375 3.72249 8.77969 3.80675 9.37875 3.97813C10.8103 2.98335 11.4394 3.19016 11.4394 3.19016C11.8481 4.24908 11.5912 5.03034 11.5144 5.2247C11.9953 5.76278 12.285 6.44925 12.285 7.28892C12.285 10.2426 10.5319 10.8927 8.86125 11.0832C9.13031 11.3207 9.37031 11.7898 9.37031 12.5069C9.37031 13.5352 9.36094 14.3643 9.36094 14.6161C9.36094 14.822 9.49594 15.0613 9.87656 14.9857C12.8531 13.967 15 11.0861 15 7.69008C15 3.44292 11.6419 0 7.49906 0Z" fill="#646464"/>
</svg>
