<svg width="600" height="347" viewBox="0 0 600 347" fill="none" xmlns="http://www.w3.org/2000/svg">
<path opacity="0.6" d="M600 173.433L598.76 172.716L598.645 172.783L587.441 166.303L587.557 166.236L586.317 165.52L586.201 165.587L574.998 159.107L575.113 159.04L573.873 158.323L573.758 158.39L562.554 151.91L562.67 151.843L561.43 151.127L561.315 151.194L550.111 144.714L550.226 144.647L548.987 143.93L548.871 143.997L537.666 137.517L537.781 137.45L536.541 136.734L536.426 136.801L525.222 130.321L525.338 130.254L524.098 129.537L523.982 129.604L512.779 123.124L512.894 123.057L511.654 122.341L511.539 122.408L500.335 115.928L500.451 115.861L499.211 115.144L499.096 115.211L487.892 108.731L488.007 108.664L486.768 107.948L486.652 108.015L475.449 101.535L475.564 101.468L474.324 100.751L474.209 100.818L463.005 94.3384L463.12 94.2711L461.881 93.5546L461.765 93.6219L450.562 87.1418L450.677 87.0746L449.437 86.3581L449.322 86.4254L438.118 79.9454L438.234 79.8781L436.994 79.1616L436.879 79.2289L425.673 72.7488L425.788 72.6816L424.548 71.9651L424.433 72.0323L413.229 65.5523L413.345 65.4851L412.105 64.7686L411.99 64.8358L400.786 58.3558L400.901 58.2886L399.662 57.5721L399.546 57.6393L388.343 51.1593L388.458 51.0921L387.218 50.3756L387.103 50.4428L375.897 43.9628L376.012 43.8956L374.773 43.1791L374.657 43.2463L363.454 36.7663L363.569 36.699L362.329 35.9826L362.214 36.0498L351.01 29.5698L351.126 29.5025L349.886 28.786L349.771 28.8533L338.567 22.3733L338.682 22.306L337.442 21.5895L337.327 21.6568L326.123 15.1768L326.239 15.1095L324.999 14.393L324.884 14.4603L313.68 7.98024L313.795 7.91301L312.556 7.19652L312.44 7.26375L301.237 0.783739L301.352 0.71649L300.112 0L299.997 0.0672326L298.757 0.783739L287.553 7.26375L286.314 7.98024L275.11 14.4603L273.87 15.1768L262.667 21.6568L261.427 22.3733L250.223 28.8533L248.984 29.5698L237.78 36.0498L236.54 36.7663L225.336 43.2463L224.097 43.9628L212.893 50.4428L211.653 51.1593L200.45 57.6393L199.21 58.3558L188.006 64.8358L186.766 65.5523L175.563 72.0323L174.323 72.7488L163.119 79.2289L161.88 79.9454L150.676 86.4254L149.436 87.1418L138.233 93.6219L136.993 94.3384L125.676 100.884L124.549 101.535L113.346 108.015L112.106 108.731L100.902 115.211L99.6626 115.928L88.459 122.408L87.2192 123.124L76.0155 129.604L74.7758 130.321L63.5721 136.801L62.3324 137.517L51.1287 143.997L49.889 144.714L38.6853 151.194L37.4456 151.91L26.2419 158.39L25.0022 159.107L13.7985 165.587L12.5588 166.303L1.3551 172.783L0.115373 173.5L0 173.567L1.23972 174.284L1.3551 174.216L12.5588 180.697L12.4434 180.764L13.6831 181.48L13.7985 181.413L25.0022 187.893L24.8868 187.96L26.1265 188.677L26.2419 188.609L37.4456 195.09L37.3302 195.157L38.5699 195.873L38.6853 195.806L49.889 202.286L49.7736 202.353L51.0134 203.07L51.1287 203.003L62.3324 209.483L62.217 209.55L63.4568 210.266L63.5721 210.199L74.7758 216.679L74.6604 216.746L75.9002 217.463L76.0155 217.396L87.2192 223.876L87.1038 223.943L88.3436 224.659L88.459 224.592L99.6626 231.072L99.5472 231.139L100.787 231.856L100.902 231.789L112.106 238.269L111.991 238.336L113.23 239.052L113.346 238.985L124.549 245.465L124.434 245.532L125.674 246.249L125.789 246.182L136.995 252.662L136.88 252.729L138.119 253.445L138.235 253.378L149.438 259.858L149.323 259.925L150.563 260.642L150.678 260.575L161.882 267.055L161.766 267.122L163.006 267.838L163.121 267.771L174.325 274.251L174.21 274.318L175.45 275.035L175.565 274.968L186.769 281.448L186.653 281.515L187.893 282.231L188.008 282.164L199.212 288.644L199.097 288.711L200.336 289.428L200.452 289.361L211.655 295.841L211.54 295.908L212.78 296.624L212.895 296.557L224.099 303.037L223.983 303.104L225.223 303.821L225.339 303.754L236.542 310.234L236.427 310.301L237.667 311.017L237.782 310.95L248.986 317.43L248.87 317.497L250.11 318.214L250.225 318.147L261.429 324.627L261.314 324.694L262.553 325.41L262.669 325.343L273.872 331.823L273.757 331.89L274.997 332.607L275.112 332.54L286.316 339.02L286.2 339.087L287.44 339.803L287.556 339.736L298.759 346.216L298.644 346.283L299.884 347L300.377 346.714L301.239 346.216L313.244 339.274L313.682 339.02L324.886 332.54L326.126 331.823L337.329 325.343L338.258 324.805L349.773 318.147L350.381 317.794L362.216 310.95L363.456 310.234L374.701 303.731L375.899 303.037L387.571 296.288L388.345 295.841L399.548 289.361L400.788 288.644L411.992 282.164L413.173 281.481L424.435 274.97L425.675 274.253L436.879 267.773L438.118 267.057L449.322 260.577L450.562 259.86L461.765 253.38L463.005 252.664L474.209 246.184L475.449 245.467L486.652 238.987L487.892 238.271L499.096 231.791L500.335 231.074L511.539 224.594L512.779 223.878L523.982 217.398L525.222 216.681L536.426 210.201L537.666 209.485L548.869 203.005L550.109 202.288L561.313 195.808L562.552 195.092L573.769 188.605L574.996 187.895L586.199 181.415L587.439 180.699L598.643 174.219L599.883 173.502L600 173.433ZM584.962 166.303L573.758 172.783L562.552 166.303L573.756 159.823L584.962 166.303ZM298.751 173.498L287.547 179.978L276.344 173.498L287.547 167.018L298.751 173.498ZM288.785 166.299L299.988 159.819L311.192 166.299L299.988 172.779L288.785 166.299ZM299.991 174.214L311.194 180.694L299.991 187.174L288.785 180.694L299.991 174.214ZM301.23 173.498L312.434 167.018L323.638 173.498L312.434 179.978L301.23 173.498ZM313.674 166.301L324.877 159.821L336.081 166.301L324.877 172.781L313.674 166.301ZM312.434 165.583L301.23 159.103L312.434 152.623L323.638 159.103L312.434 165.583ZM299.991 158.386L288.785 151.906L299.988 145.426L311.192 151.906L299.991 158.386ZM298.751 159.105L287.547 165.585L276.344 159.105L287.547 152.625L298.751 159.105ZM286.307 166.299L275.104 172.779L263.9 166.299L275.104 159.819L286.307 166.299ZM273.862 173.496L262.658 179.976L251.455 173.496L262.658 167.016L273.862 173.496ZM275.104 174.214L286.307 180.694L275.104 187.174L263.9 180.694L275.104 174.214ZM287.547 181.411L298.751 187.891L287.547 194.371L276.344 187.891L287.547 181.411ZM299.991 188.607L311.194 195.087L299.991 201.567L288.787 195.087L299.991 188.607ZM301.23 187.889L312.434 181.409L323.638 187.889L312.434 194.369L301.23 187.889ZM313.674 180.694L324.877 174.214L336.081 180.694L324.877 187.174L313.674 180.694ZM326.117 173.498L337.321 167.018L348.525 173.498L337.321 179.978L326.117 173.498ZM338.561 166.301L349.764 159.821L360.968 166.301L349.764 172.781L338.561 166.301ZM337.323 165.583L326.119 159.103L337.323 152.623L348.527 159.103L337.323 165.583ZM324.877 158.388L313.674 151.908L324.877 145.428L336.083 151.908L324.877 158.388ZM312.434 151.19L301.23 144.71L312.434 138.23L323.638 144.71L312.434 151.19ZM299.988 143.993L288.785 137.513L299.988 131.033L311.192 137.513L299.988 143.993ZM298.751 144.712L287.547 151.192L276.344 144.712L287.547 138.232L298.751 144.712ZM286.307 151.908L275.104 158.388L263.898 151.908L275.102 145.428L286.307 151.908ZM273.862 159.105L262.658 165.585L251.455 159.105L262.658 152.625L273.862 159.105ZM261.419 166.299L250.215 172.779L239.011 166.299L250.215 159.819L261.419 166.299ZM248.975 173.496L237.771 179.976L226.568 173.496L237.771 167.016L248.975 173.496ZM250.215 174.212L261.419 180.692L250.215 187.172L239.011 180.692L250.215 174.212ZM262.658 181.409L273.862 187.889L262.658 194.369L251.455 187.889L262.658 181.409ZM275.104 188.607L286.307 195.087L275.104 201.567L263.898 195.087L275.104 188.607ZM287.547 195.804L298.751 202.284L287.547 208.764L276.344 202.284L287.547 195.804ZM299.991 203L311.194 209.48L299.991 215.96L288.785 209.48L299.991 203ZM301.23 202.282L312.434 195.802L323.638 202.282L312.434 208.762L301.23 202.282ZM313.674 195.087L324.877 188.607L336.083 195.087L324.88 201.567L313.674 195.087ZM326.119 187.891L337.323 181.411L348.527 187.891L337.323 194.371L326.119 187.891ZM338.563 180.694L349.766 174.214L360.972 180.694L349.768 187.174L338.563 180.694ZM351.006 173.498L362.21 167.018L373.413 173.498L362.21 179.978L351.006 173.498ZM363.449 166.301L374.653 159.821L385.857 166.301L374.653 172.781L363.449 166.301ZM362.21 165.585L351.006 159.105L362.21 152.625L373.413 159.105L362.21 165.585ZM349.766 158.388L338.563 151.908L349.766 145.428L360.97 151.908L349.766 158.388ZM337.321 151.19L326.117 144.71L337.321 138.23L348.525 144.71L337.321 151.19ZM324.877 143.995L313.672 137.515L324.875 131.035L336.079 137.515L324.877 143.995ZM312.434 136.799L301.23 130.319L312.434 123.839L323.638 130.319L312.434 136.799ZM299.988 129.6L288.783 123.12L299.986 116.64L311.19 123.12L299.988 129.6ZM298.749 130.319L287.545 136.799L276.341 130.319L287.545 123.839L298.749 130.319ZM286.305 137.515L275.102 143.995L263.898 137.515L275.102 131.035L286.305 137.515ZM273.862 144.71L262.658 151.19L251.455 144.71L262.658 138.23L273.862 144.71ZM261.419 151.906L250.215 158.386L239.011 151.906L250.215 145.426L261.419 151.906ZM248.975 159.103L237.771 165.583L226.568 159.103L237.771 152.623L248.975 159.103ZM236.532 166.299L225.328 172.779L214.124 166.299L225.328 159.819L236.532 166.299ZM224.088 173.496L212.885 179.976L201.681 173.496L212.885 167.016L224.088 173.496ZM225.328 174.212L236.532 180.692L225.328 187.172L214.124 180.692L225.328 174.212ZM237.771 181.409L248.975 187.889L237.771 194.369L226.568 187.889L237.771 181.409ZM250.215 188.605L261.419 195.085L250.215 201.565L239.009 195.085L250.215 188.605ZM262.658 195.804L273.862 202.284L262.658 208.764L251.455 202.284L262.658 195.804ZM275.104 202.998L286.307 209.478L275.104 215.958L263.9 209.478L275.104 202.998ZM287.547 210.197L298.751 216.677L287.547 223.157L276.344 216.677L287.547 210.197ZM299.993 217.393L311.196 223.873L299.993 230.353L288.789 223.873L299.993 217.393ZM301.23 216.675L312.434 210.195L323.638 216.675L312.434 223.155L301.23 216.675ZM313.674 209.478L324.877 202.998L336.081 209.478L324.877 215.958L313.674 209.478ZM326.119 202.282L337.323 195.802L348.527 202.282L337.323 208.762L326.119 202.282ZM338.563 195.087L349.766 188.607L360.97 195.087L349.766 201.567L338.563 195.087ZM351.006 187.891L362.21 181.411L373.413 187.891L362.21 194.371L351.006 187.891ZM363.449 180.694L374.653 174.214L385.859 180.694L374.655 187.174L363.449 180.694ZM375.893 173.498L387.097 167.018L398.3 173.498L387.097 179.978L375.893 173.498ZM388.336 166.301L399.54 159.821L410.744 166.301L399.54 172.781L388.336 166.301ZM387.099 165.585L375.895 159.105L387.099 152.625L398.302 159.105L387.099 165.585ZM374.653 158.388L363.449 151.908L374.653 145.428L385.857 151.908L374.653 158.388ZM362.21 151.192L351.006 144.712L362.21 138.232L373.413 144.712L362.21 151.192ZM349.764 143.995L338.561 137.515L349.764 131.035L360.97 137.515L349.764 143.995ZM337.321 136.799L326.117 130.319L337.321 123.839L348.525 130.319L337.321 136.799ZM324.877 129.6L313.672 123.12L324.875 116.64L336.079 123.12L324.877 129.6ZM312.434 122.406L301.23 115.926L312.434 109.446L323.638 115.926L312.434 122.406ZM299.988 115.207L288.785 108.727L299.988 102.247L311.192 108.727L299.988 115.207ZM298.749 115.926L287.545 122.406L276.341 115.926L287.545 109.446L298.749 115.926ZM286.305 123.122L275.102 129.602L263.898 123.122L275.102 116.642L286.305 123.122ZM273.862 130.317L262.658 136.797L251.455 130.317L262.658 123.837L273.862 130.317ZM261.419 137.513L250.215 143.993L239.011 137.513L250.215 131.033L261.419 137.513ZM248.975 144.71L237.771 151.19L226.568 144.71L237.771 138.23L248.975 144.71ZM236.532 151.906L225.328 158.386L214.124 151.906L225.328 145.426L236.532 151.906ZM224.086 159.103L212.883 165.583L201.677 159.103L212.88 152.623L224.086 159.103ZM211.643 166.299L200.439 172.779L189.235 166.299L200.439 159.819L211.643 166.299ZM199.199 173.496L187.996 179.976L176.79 173.496L187.994 167.016L199.199 173.496ZM200.439 174.212L211.643 180.692L200.439 187.172L189.235 180.692L200.439 174.212ZM212.883 181.409L224.088 187.889L212.885 194.369L201.681 187.889L212.883 181.409ZM225.328 188.605L236.532 195.085L225.328 201.565L214.124 195.085L225.328 188.605ZM237.771 195.802L248.977 202.282L237.774 208.762L226.57 202.282L237.771 195.802ZM250.215 202.998L261.419 209.478L250.215 215.958L239.011 209.478L250.215 202.998ZM262.66 210.195L273.864 216.675L262.66 223.155L251.457 216.675L262.66 210.195ZM275.104 217.391L286.307 223.871L275.104 230.351L263.9 223.871L275.104 217.391ZM287.547 224.588L298.751 231.068L287.547 237.548L276.344 231.068L287.547 224.588ZM299.993 231.786L311.196 238.266L299.993 244.747L288.787 238.266L299.993 231.786ZM301.232 231.068L312.436 224.588L323.64 231.068L312.436 237.548L301.232 231.068ZM313.676 223.871L324.88 217.391L336.083 223.871L324.88 230.351L313.676 223.871ZM326.119 216.677L337.323 210.197L348.527 216.677L337.323 223.157L326.119 216.677ZM338.563 209.48L349.766 203L360.972 209.48L349.768 215.96L338.563 209.48ZM351.006 202.284L362.21 195.804L373.413 202.284L362.21 208.764L351.006 202.284ZM363.449 195.087L374.653 188.607L385.857 195.087L374.653 201.567L363.449 195.087ZM375.895 187.891L387.099 181.411L398.302 187.891L387.099 194.371L375.895 187.891ZM388.338 180.694L399.542 174.214L410.746 180.694L399.542 187.174L388.338 180.694ZM400.782 173.498L411.985 167.018L423.189 173.498L411.985 179.978L400.782 173.498ZM413.225 166.301L424.429 159.821L435.633 166.301L424.429 172.781L413.225 166.301ZM411.985 165.585L400.782 159.105L411.985 152.625L423.189 159.105L411.985 165.585ZM399.542 158.388L388.338 151.908L399.542 145.428L410.746 151.908L399.542 158.388ZM387.097 151.192L375.891 144.712L387.094 138.232L398.298 144.712L387.097 151.192ZM374.653 143.995L363.449 137.515L374.653 131.035L385.857 137.515L374.653 143.995ZM362.21 136.799L351.006 130.319L362.21 123.839L373.413 130.319L362.21 136.799ZM349.764 129.602L338.561 123.122L349.764 116.642L360.968 123.122L349.764 129.602ZM337.321 122.406L326.117 115.926L337.321 109.446L348.525 115.926L337.321 122.406ZM324.877 115.209L313.674 108.729L324.877 102.249L336.081 108.729L324.877 115.209ZM312.432 108.011L301.228 101.531L312.432 95.0507L323.636 101.531L312.432 108.011ZM299.988 100.816L288.785 94.3363L299.988 87.8563L311.192 94.3363L299.988 100.816ZM298.749 101.533L287.545 108.013L276.341 101.533L287.545 95.0528L298.749 101.533ZM286.305 108.729L275.102 115.209L263.898 108.729L275.102 102.249L286.305 108.729ZM273.862 115.926L262.658 122.406L251.455 115.926L262.658 109.446L273.862 115.926ZM261.419 123.122L250.215 129.602L239.011 123.122L250.215 116.642L261.419 123.122ZM248.975 130.317L237.771 136.797L226.568 130.317L237.771 123.837L248.975 130.317ZM236.53 137.513L225.326 143.993L214.122 137.513L225.326 131.033L236.53 137.513ZM224.086 144.71L212.883 151.19L201.679 144.71L212.883 138.23L224.086 144.71ZM211.643 151.906L200.439 158.386L189.235 151.906L200.439 145.426L211.643 151.906ZM199.199 159.103L187.996 165.583L176.792 159.103L187.996 152.623L199.199 159.103ZM186.756 166.299L175.552 172.779L164.349 166.299L175.552 159.819L186.756 166.299ZM174.313 173.496L163.109 179.976L151.905 173.496L163.109 167.016L174.313 173.496ZM175.552 174.212L186.756 180.692L175.552 187.172L164.349 180.692L175.552 174.212ZM187.996 181.409L199.199 187.889L187.996 194.369L176.792 187.889L187.996 181.409ZM200.439 188.605L211.643 195.085L200.439 201.565L189.235 195.085L200.439 188.605ZM212.883 195.802L224.088 202.282L212.885 208.762L201.681 202.282L212.883 195.802ZM225.328 202.998L236.532 209.478L225.328 215.958L214.124 209.478L225.328 202.998ZM237.771 210.195L248.975 216.675L237.771 223.155L226.568 216.675L237.771 210.195ZM250.217 217.391L261.421 223.871L250.217 230.351L239.013 223.871L250.217 217.391ZM262.66 224.588L273.864 231.068L262.66 237.548L251.457 231.068L262.66 224.588ZM275.104 231.784L286.307 238.264L275.104 244.744L263.898 238.264L275.104 231.784ZM287.547 238.981L298.751 245.461L287.547 251.941L276.344 245.461L287.547 238.981ZM299.993 246.177L311.196 252.657L299.993 259.137L288.789 252.657L299.993 246.177ZM301.232 245.461L312.436 238.981L323.64 245.461L312.436 251.941L301.232 245.461ZM313.676 238.264L324.88 231.784L336.083 238.264L324.88 244.744L313.676 238.264ZM326.119 231.068L337.323 224.588L348.527 231.068L337.323 237.548L326.119 231.068ZM338.563 223.871L349.766 217.391L360.97 223.871L349.766 230.351L338.563 223.871ZM351.006 216.677L362.21 210.197L373.413 216.677L362.21 223.157L351.006 216.677ZM363.449 209.48L374.653 203L385.857 209.48L374.653 215.96L363.449 209.48ZM375.895 202.284L387.099 195.804L398.302 202.284L387.099 208.764L375.895 202.284ZM388.338 195.087L399.542 188.607L410.746 195.087L399.542 201.567L388.338 195.087ZM400.782 187.891L411.985 181.411L423.189 187.891L411.985 194.371L400.782 187.891ZM413.225 180.694L424.429 174.214L435.633 180.694L424.429 187.174L413.225 180.694ZM425.669 173.498L436.872 167.018L448.076 173.498L436.872 179.978L425.669 173.498ZM438.112 166.301L449.316 159.821L460.519 166.301L449.316 172.781L438.112 166.301ZM436.874 165.585L425.669 159.105L436.872 152.625L448.076 159.105L436.874 165.585ZM424.429 158.388L413.225 151.908L424.429 145.428L435.633 151.908L424.429 158.388ZM411.985 151.192L400.782 144.712L411.985 138.232L423.189 144.712L411.985 151.192ZM399.54 143.995L388.336 137.515L399.54 131.035L410.744 137.515L399.54 143.995ZM387.097 136.799L375.893 130.319L387.097 123.839L398.3 130.319L387.097 136.799ZM374.653 129.602L363.449 123.122L374.653 116.642L385.859 123.122L374.653 129.602ZM362.21 122.406L351.006 115.926L362.21 109.446L373.413 115.926L362.21 122.406ZM349.764 115.209L338.561 108.729L349.764 102.249L360.968 108.729L349.764 115.209ZM337.321 108.013L326.117 101.533L337.321 95.0528L348.525 101.533L337.321 108.013ZM324.875 100.816L313.672 94.3363L324.875 87.8563L336.079 94.3363L324.875 100.816ZM312.432 93.6198L301.228 87.1398L312.432 80.6598L323.636 87.1398L312.432 93.6198ZM299.988 86.4233L288.783 79.9432L299.986 73.4632L311.19 79.9432L299.988 86.4233ZM298.749 87.1398L287.545 93.6198L276.341 87.1398L287.545 80.6598L298.749 87.1398ZM286.305 94.3363L275.102 100.816L263.898 94.3363L275.102 87.8563L286.305 94.3363ZM273.862 101.533L262.658 108.013L251.455 101.533L262.658 95.0528L273.862 101.533ZM261.419 108.727L250.215 115.207L239.011 108.727L250.215 102.247L261.419 108.727ZM248.973 115.924L237.769 122.404L226.566 115.924L237.769 109.444L248.973 115.924ZM236.53 123.12L225.326 129.6L214.122 123.12L225.326 116.64L236.53 123.12ZM224.086 130.317L212.883 136.797L201.679 130.317L212.883 123.837L224.086 130.317ZM211.643 137.513L200.439 143.993L189.235 137.513L200.439 131.033L211.643 137.513ZM199.199 144.71L187.996 151.19L176.792 144.71L187.996 138.23L199.199 144.71ZM186.756 151.906L175.552 158.386L164.349 151.906L175.552 145.426L186.756 151.906ZM174.31 159.103L163.107 165.583L151.903 159.103L163.107 152.623L174.31 159.103ZM161.867 166.299L150.663 172.779L139.46 166.299L150.663 159.819L161.867 166.299ZM149.424 173.496L138.22 179.976L127.016 173.496L138.22 167.016L149.424 173.496ZM150.663 174.212L161.867 180.692L150.663 187.172L139.46 180.692L150.663 174.212ZM163.107 181.409L174.31 187.889L163.107 194.369L151.901 187.889L163.107 181.409ZM175.552 188.605L186.756 195.085L175.552 201.565L164.349 195.085L175.552 188.605ZM187.996 195.802L199.199 202.282L187.996 208.762L176.79 202.282L187.996 195.802ZM200.439 202.998L211.643 209.478L200.439 215.958L189.235 209.478L200.439 202.998ZM212.885 210.195L224.09 216.675L212.887 223.155L201.683 216.675L212.885 210.195ZM225.328 217.391L236.532 223.871L225.328 230.351L214.124 223.871L225.328 217.391ZM237.771 224.588L248.977 231.068L237.774 237.548L226.57 231.068L237.771 224.588ZM250.217 231.784L261.421 238.264L250.217 244.744L239.013 238.264L250.217 231.784ZM262.66 238.981L273.864 245.461L262.66 251.941L251.457 245.461L262.66 238.981ZM275.104 246.177L286.307 252.657L275.104 259.137L263.9 252.657L275.104 246.177ZM287.549 253.374L298.753 259.854L287.549 266.334L276.346 259.854L287.549 253.374ZM299.993 260.57L311.196 267.05L299.993 273.53L288.789 267.05L299.993 260.57ZM301.232 259.854L312.436 253.374L323.64 259.854L312.436 266.334L301.232 259.854ZM313.676 252.657L324.88 246.177L336.083 252.657L324.88 259.137L313.676 252.657ZM326.119 245.461L337.323 238.981L348.527 245.461L337.323 251.941L326.119 245.461ZM338.563 238.266L349.766 231.786L360.972 238.266L349.768 244.747L338.563 238.266ZM351.008 231.07L362.212 224.59L373.415 231.07L362.212 237.55L351.008 231.07ZM363.452 223.873L374.655 217.393L385.861 223.873L374.657 230.353L363.452 223.873ZM375.895 216.677L387.099 210.197L398.302 216.677L387.099 223.157L375.895 216.677ZM388.338 209.48L399.542 203L410.746 209.48L399.542 215.96L388.338 209.48ZM400.782 202.284L411.985 195.804L423.189 202.284L411.985 208.764L400.782 202.284ZM413.225 195.087L424.429 188.607L435.633 195.087L424.429 201.567L413.225 195.087ZM425.669 187.891L436.872 181.411L448.076 187.891L436.872 194.371L425.669 187.891ZM438.114 180.694L449.318 174.214L460.521 180.694L449.318 187.174L438.114 180.694ZM450.557 173.498L461.761 167.018L472.965 173.498L461.761 179.978L450.557 173.498ZM463.001 166.301L474.205 159.821L485.408 166.301L474.205 172.781L463.001 166.301ZM461.761 165.585L450.557 159.105L461.761 152.625L472.967 159.105L461.761 165.585ZM449.318 158.388L438.114 151.908L449.318 145.428L460.521 151.908L449.318 158.388ZM436.872 151.192L425.669 144.712L436.872 138.232L448.076 144.712L436.872 151.192ZM424.429 143.995L413.225 137.515L424.429 131.035L435.633 137.515L424.429 143.995ZM411.985 136.799L400.782 130.319L411.985 123.839L423.189 130.319L411.985 136.799ZM399.54 129.602L388.336 123.122L399.54 116.642L410.744 123.122L399.54 129.602ZM387.097 122.406L375.891 115.926L387.094 109.446L398.298 115.926L387.097 122.406ZM374.653 115.209L363.449 108.729L374.653 102.249L385.857 108.729L374.653 115.209ZM362.208 108.013L351.004 101.533L362.208 95.0528L373.411 101.533L362.208 108.013ZM349.764 100.816L338.561 94.3363L349.764 87.8563L360.968 94.3363L349.764 100.816ZM337.321 93.6198L326.117 87.1398L337.321 80.6598L348.525 87.1398L337.321 93.6198ZM324.875 86.4233L313.672 79.9432L324.875 73.4632L336.079 79.9432L324.875 86.4233ZM312.432 79.2267L301.228 72.7467L312.432 66.2667L323.636 72.7467L312.432 79.2267ZM299.988 72.0303L288.785 65.5502L299.988 59.0702L311.192 65.5502L299.988 72.0303ZM298.749 72.7467L287.545 79.2267L276.341 72.7467L287.545 66.2667L298.749 72.7467ZM286.305 79.9432L275.102 86.4233L263.896 79.9432L275.1 73.4632L286.305 79.9432ZM273.86 87.1398L262.656 93.6198L251.452 87.1398L262.656 80.6598L273.86 87.1398ZM261.416 94.3342L250.213 100.814L239.009 94.3342L250.213 87.8542L261.416 94.3342ZM248.973 101.533L237.769 108.013L226.566 101.533L237.769 95.0528L248.973 101.533ZM236.53 108.727L225.326 115.207L214.122 108.727L225.326 102.247L236.53 108.727ZM224.086 115.924L212.883 122.404L201.679 115.924L212.883 109.444L224.086 115.924ZM211.643 123.12L200.439 129.6L189.235 123.12L200.439 116.64L211.643 123.12ZM199.199 130.317L187.996 136.797L176.792 130.317L187.996 123.837L199.199 130.317ZM186.754 137.513L175.55 143.993L164.347 137.513L175.55 131.033L186.754 137.513ZM174.31 144.71L163.107 151.19L151.903 144.71L163.107 138.23L174.31 144.71ZM161.867 151.906L150.663 158.386L139.46 151.906L150.663 145.426L161.867 151.906ZM149.424 159.103L138.22 165.583L127.016 159.103L138.22 152.623L149.424 159.103ZM136.98 166.299L125.777 172.779L114.573 166.299L125.777 159.819L136.98 166.299ZM124.537 173.496L113.333 179.976L102.129 173.496L113.333 167.016L124.537 173.496ZM125.777 174.212L136.98 180.692L125.777 187.172L114.573 180.692L125.777 174.212ZM138.22 181.409L149.424 187.889L138.22 194.369L127.014 187.889L138.22 181.409ZM150.663 188.605L161.867 195.085L150.663 201.565L139.46 195.085L150.663 188.605ZM163.109 195.802L174.313 202.282L163.109 208.762L151.905 202.282L163.109 195.802ZM175.552 202.998L186.756 209.478L175.552 215.958L164.349 209.478L175.552 202.998ZM187.996 210.195L199.199 216.675L187.996 223.155L176.79 216.675L187.996 210.195ZM200.441 217.391L211.645 223.871L200.441 230.351L189.238 223.871L200.441 217.391ZM212.885 224.588L224.088 231.068L212.885 237.548L201.681 231.068L212.885 224.588ZM225.328 231.784L236.532 238.264L225.328 244.744L214.124 238.264L225.328 231.784ZM237.771 238.981L248.975 245.461L237.771 251.941L226.568 245.461L237.771 238.981ZM250.217 246.177L261.421 252.657L250.217 259.137L239.013 252.657L250.217 246.177ZM262.66 253.374L273.864 259.854L262.66 266.334L251.457 259.854L262.66 253.374ZM275.106 260.57L286.31 267.05L275.106 273.53L263.902 267.05L275.106 260.57ZM287.549 267.767L298.753 274.247L287.549 280.727L276.346 274.247L287.549 267.767ZM299.993 274.963L311.196 281.443L299.993 287.923L288.787 281.443L299.993 274.963ZM301.232 274.247L312.436 267.767L323.64 274.247L312.436 280.727L301.232 274.247ZM313.676 267.05L324.88 260.57L336.083 267.05L324.88 273.53L313.676 267.05ZM326.119 259.854L337.323 253.374L348.527 259.854L337.323 266.334L326.119 259.854ZM338.563 252.66L349.766 246.179L360.97 252.66L349.766 259.139L338.563 252.66ZM351.008 245.463L362.212 238.983L373.415 245.463L362.212 251.943L351.008 245.463ZM363.452 238.266L374.655 231.786L385.859 238.266L374.655 244.747L363.452 238.266ZM375.895 231.07L387.099 224.59L398.302 231.07L387.099 237.55L375.895 231.07ZM388.338 223.873L399.542 217.393L410.746 223.873L399.542 230.353L388.338 223.873ZM400.782 216.677L411.985 210.197L423.189 216.677L411.985 223.157L400.782 216.677ZM413.225 209.48L424.429 203L435.633 209.48L424.429 215.96L413.225 209.48ZM425.671 202.284L436.874 195.804L448.08 202.284L436.876 208.764L425.671 202.284ZM438.114 195.087L449.318 188.607L460.521 195.087L449.318 201.567L438.114 195.087ZM450.557 187.891L461.761 181.411L472.965 187.891L461.761 194.371L450.557 187.891ZM463.001 180.694L474.205 174.214L485.408 180.694L474.205 187.174L463.001 180.694ZM475.444 173.498L486.648 167.018L497.852 173.498L486.648 179.978L475.444 173.498ZM487.888 166.301L499.091 159.821L510.295 166.301L499.091 172.781L487.888 166.301ZM486.648 165.585L475.444 159.105L486.648 152.625L497.852 159.105L486.648 165.585ZM474.205 158.388L463.001 151.908L474.205 145.428L485.408 151.908L474.205 158.388ZM461.761 151.192L450.557 144.712L461.761 138.232L472.967 144.712L461.761 151.192ZM449.316 143.995L438.112 137.515L449.316 131.035L460.519 137.515L449.316 143.995ZM436.872 136.799L425.666 130.319L436.87 123.839L448.074 130.319L436.872 136.799ZM424.429 129.602L413.225 123.122L424.429 116.642L435.633 123.122L424.429 129.602ZM411.985 122.406L400.782 115.926L411.985 109.446L423.189 115.926L411.985 122.406ZM399.54 115.209L388.336 108.729L399.54 102.249L410.744 108.729L399.54 115.209ZM387.097 108.013L375.893 101.533L387.097 95.0528L398.3 101.533L387.097 108.013ZM374.651 100.816L363.447 94.3363L374.651 87.8563L385.855 94.3363L374.651 100.816ZM362.208 93.6198L351.004 87.1398L362.208 80.6598L373.411 87.1398L362.208 93.6198ZM349.764 86.4233L338.561 79.9432L349.764 73.4632L360.97 79.9432L349.764 86.4233ZM337.321 79.2267L326.117 72.7467L337.321 66.2667L348.525 72.7467L337.321 79.2267ZM324.875 72.0303L313.672 65.5502L324.875 59.0702L336.081 65.5502L324.875 72.0303ZM312.432 64.8337L301.228 58.3537L312.432 51.8737L323.636 58.3537L312.432 64.8337ZM299.988 57.6372L288.783 51.1572L299.986 44.6772L311.192 51.1572L299.988 57.6372ZM298.749 58.3537L287.545 64.8337L276.341 58.3537L287.545 51.8737L298.749 58.3537ZM286.305 65.5502L275.102 72.0303L263.896 65.5502L275.1 59.0702L286.305 65.5502ZM273.86 72.7467L262.656 79.2267L251.452 72.7467L262.656 66.2667L273.86 72.7467ZM261.416 79.9432L250.213 86.4233L239.009 79.9432L250.213 73.4632L261.416 79.9432ZM248.973 87.1376L237.769 93.6177L226.566 87.1376L237.769 80.6576L248.973 87.1376ZM236.53 94.3342L225.326 100.814L214.122 94.3342L225.326 87.8542L236.53 94.3342ZM224.086 101.531L212.883 108.011L201.679 101.531L212.883 95.0507L224.086 101.531ZM211.643 108.727L200.439 115.207L189.235 108.727L200.439 102.247L211.643 108.727ZM199.197 115.924L187.994 122.404L176.788 115.924L187.992 109.444L199.197 115.924ZM186.754 123.12L175.55 129.6L164.347 123.12L175.55 116.64L186.754 123.12ZM174.31 130.317L163.107 136.797L151.901 130.317L163.105 123.837L174.31 130.317ZM161.867 137.513L150.663 143.993L139.46 137.513L150.663 131.033L161.867 137.513ZM149.424 144.71L138.22 151.19L127.014 144.71L138.218 138.23L149.424 144.71ZM136.98 151.906L125.777 158.386L114.573 151.906L125.777 145.426L136.98 151.906ZM124.535 159.103L113.331 165.583L102.127 159.103L113.331 152.623L124.535 159.103ZM112.091 166.299L100.888 172.779L89.684 166.299L100.888 159.819L112.091 166.299ZM99.6479 173.496L88.4443 179.976L77.2406 173.496L88.4443 167.016L99.6479 173.496ZM100.888 174.212L112.093 180.692L100.89 187.172L89.6861 180.692L100.888 174.212ZM113.331 181.409L124.535 187.889L113.331 194.369L102.127 187.889L113.331 181.409ZM125.777 188.605L136.98 195.085L125.777 201.565L114.573 195.085L125.777 188.605ZM138.22 195.802L149.424 202.282L138.22 208.762L127.016 202.282L138.22 195.802ZM150.663 202.998L161.867 209.478L150.663 215.958L139.46 209.478L150.663 202.998ZM163.109 210.195L174.313 216.675L163.109 223.155L151.903 216.675L163.109 210.195ZM175.552 217.391L186.756 223.871L175.552 230.351L164.349 223.871L175.552 217.391ZM187.996 224.588L199.199 231.068L187.996 237.548L176.792 231.068L187.996 224.588ZM200.441 231.784L211.645 238.264L200.441 244.744L189.238 238.264L200.441 231.784ZM212.885 238.981L224.088 245.461L212.885 251.941L201.681 245.461L212.885 238.981ZM225.328 246.177L236.532 252.657L225.328 259.137L214.124 252.657L225.328 246.177ZM237.774 253.374L248.977 259.854L237.774 266.334L226.57 259.854L237.774 253.374ZM250.217 260.57L261.421 267.05L250.217 273.53L239.013 267.05L250.217 260.57ZM262.66 267.767L273.864 274.247L262.66 280.727L251.457 274.247L262.66 267.767ZM275.106 274.963L286.31 281.443L275.106 287.923L263.902 281.443L275.106 274.963ZM287.549 282.16L298.753 288.64L287.549 295.12L276.346 288.64L287.549 282.16ZM299.993 289.356L311.196 295.836L299.993 302.316L288.787 295.836L299.993 289.356ZM301.232 288.64L312.436 282.16L323.64 288.64L312.436 295.12L301.232 288.64ZM313.676 281.443L324.88 274.963L336.083 281.443L324.88 287.923L313.676 281.443ZM326.121 274.247L337.325 267.767L348.529 274.247L337.325 280.727L326.121 274.247ZM338.565 267.05L349.768 260.57L360.972 267.05L349.768 273.53L338.565 267.05ZM351.008 259.854L362.212 253.374L373.415 259.854L362.212 266.334L351.008 259.854ZM363.452 252.66L374.655 246.179L385.859 252.66L374.655 259.139L363.452 252.66ZM375.895 245.463L387.099 238.983L398.302 245.463L387.099 251.943L375.895 245.463ZM388.338 238.266L399.542 231.786L410.746 238.266L399.542 244.747L388.338 238.266ZM400.784 231.07L411.988 224.59L423.191 231.07L411.988 237.55L400.784 231.07ZM413.227 223.873L424.431 217.393L435.635 223.873L424.431 230.353L413.227 223.873ZM425.671 216.677L436.874 210.197L448.078 216.677L436.874 223.157L425.671 216.677ZM438.114 209.48L449.318 203L460.521 209.48L449.318 215.96L438.114 209.48ZM450.557 202.284L461.761 195.804L472.967 202.284L461.763 208.764L450.557 202.284ZM463.001 195.087L474.205 188.607L485.408 195.087L474.205 201.567L463.001 195.087ZM475.444 187.891L486.648 181.411L497.854 187.891L486.65 194.371L475.444 187.891ZM487.89 180.694L499.094 174.214L510.297 180.694L499.094 187.174L487.89 180.694ZM500.333 173.498L511.537 167.018L522.743 173.498L511.539 179.978L500.333 173.498ZM512.777 166.301L523.98 159.821L535.184 166.301L523.98 172.781L512.777 166.301ZM511.537 165.585L500.333 159.105L511.537 152.625L522.741 159.105L511.537 165.585ZM499.094 158.388L487.89 151.908L499.094 145.428L510.297 151.908L499.094 158.388ZM486.648 151.192L475.444 144.712L486.648 138.232L497.852 144.712L486.648 151.192ZM474.205 143.995L463.001 137.515L474.205 131.035L485.408 137.515L474.205 143.995ZM461.761 136.799L450.557 130.319L461.761 123.839L472.965 130.319L461.761 136.799ZM449.316 129.602L438.112 123.122L449.316 116.642L460.519 123.122L449.316 129.602ZM436.872 122.406L425.669 115.926L436.872 109.446L448.076 115.926L436.872 122.406ZM424.429 115.209L413.225 108.729L424.429 102.249L435.633 108.729L424.429 115.209ZM411.983 108.013L400.778 101.533L411.981 95.0528L423.185 101.533L411.983 108.013ZM399.54 100.816L388.336 94.3363L399.54 87.8563L410.744 94.3363L399.54 100.816ZM387.097 93.6198L375.893 87.1398L387.097 80.6598L398.3 87.1398L387.097 93.6198ZM374.651 86.4233L363.447 79.9432L374.651 73.4632L385.855 79.9432L374.651 86.4233ZM362.208 79.2267L351.004 72.7467L362.208 66.2667L373.411 72.7467L362.208 79.2267ZM349.764 72.0303L338.561 65.5502L349.764 59.0702L360.97 65.5502L349.764 72.0303ZM337.319 64.8337L326.115 58.3537L337.319 51.8737L348.522 58.3537L337.319 64.8337ZM324.875 57.6372L313.672 51.1572L324.875 44.6772L336.079 51.1572L324.875 57.6372ZM312.432 50.4407L301.228 43.9607L312.432 37.4807L323.636 43.9607L312.432 50.4407ZM299.986 43.2442L288.783 36.7642L299.986 30.2842L311.19 36.7642L299.986 43.2442ZM298.747 43.9607L287.543 50.4407L276.339 43.9607L287.543 37.4807L298.747 43.9607ZM286.303 51.1572L275.1 57.6372L263.896 51.1572L275.1 44.6772L286.303 51.1572ZM273.86 58.3537L262.656 64.8337L251.452 58.3537L262.656 51.8737L273.86 58.3537ZM261.416 65.5502L250.213 72.0303L239.009 65.5502L250.213 59.0702L261.416 65.5502ZM248.973 72.7467L237.769 79.2267L226.566 72.7467L237.769 66.2667L248.973 72.7467ZM236.53 79.9432L225.326 86.4233L214.122 79.9432L225.326 73.4632L236.53 79.9432ZM224.086 87.1376L212.883 93.6177L201.679 87.1376L212.883 80.6576L224.086 87.1376ZM211.641 94.3342L200.437 100.814L189.233 94.3342L200.437 87.8542L211.641 94.3342ZM199.197 101.531L187.994 108.011L176.79 101.531L187.994 95.0507L199.197 101.531ZM186.754 108.727L175.55 115.207L164.347 108.727L175.55 102.247L186.754 108.727ZM174.31 115.924L163.107 122.404L151.903 115.924L163.107 109.444L174.31 115.924ZM161.867 123.12L150.663 129.6L139.46 123.12L150.663 116.64L161.867 123.12ZM149.424 130.317L138.22 136.797L127.016 130.317L138.22 123.837L149.424 130.317ZM136.978 137.513L125.774 143.993L114.571 137.513L125.774 131.033L136.978 137.513ZM124.535 144.71L113.331 151.19L102.127 144.71L113.331 138.23L124.535 144.71ZM112.091 151.906L100.888 158.386L89.684 151.906L100.888 145.426L112.091 151.906ZM99.6479 159.103L88.4443 165.583L77.2406 159.103L88.4443 152.623L99.6479 159.103ZM87.2045 166.299L76.0009 172.779L64.7972 166.299L76.0009 159.819L87.2045 166.299ZM74.7611 173.496L63.5574 179.976L52.3538 173.496L63.5574 167.016L74.7611 173.496ZM76.0009 174.212L87.2066 180.692L76.003 187.172L64.7993 180.692L76.0009 174.212ZM88.4443 181.409L99.6479 187.889L88.4443 194.369L77.2406 187.889L88.4443 181.409ZM100.888 188.605L112.093 195.085L100.89 201.565L89.6861 195.085L100.888 188.605ZM113.333 195.802L124.537 202.282L113.333 208.762L102.129 202.282L113.333 195.802ZM125.777 202.998L136.982 209.478L125.779 215.958L114.575 209.478L125.777 202.998ZM138.22 210.195L149.424 216.675L138.22 223.155L127.016 216.675L138.22 210.195ZM150.665 217.391L161.869 223.871L150.665 230.351L139.462 223.871L150.665 217.391ZM163.109 224.588L174.313 231.068L163.109 237.548L151.903 231.068L163.109 224.588ZM175.552 231.784L186.756 238.264L175.552 244.744L164.349 238.264L175.552 231.784ZM187.998 238.981L199.201 245.461L187.998 251.941L176.794 245.461L187.998 238.981ZM200.441 246.177L211.645 252.657L200.441 259.137L189.238 252.657L200.441 246.177ZM212.885 253.374L224.088 259.854L212.885 266.334L201.681 259.854L212.885 253.374ZM225.33 260.57L236.534 267.05L225.33 273.53L214.126 267.05L225.33 260.57ZM237.774 267.767L248.979 274.247L237.776 280.727L226.572 274.247L237.774 267.767ZM250.217 274.963L261.421 281.443L250.217 287.923L239.013 281.443L250.217 274.963ZM262.66 282.16L273.864 288.64L262.66 295.12L251.457 288.64L262.66 282.16ZM275.106 289.356L286.31 295.836L275.106 302.316L263.902 295.836L275.106 289.356ZM287.549 296.553L298.753 303.033L287.549 309.513L276.346 303.033L287.549 296.553ZM299.995 303.749L311.198 310.229L299.995 316.71L288.789 310.229L299.995 303.749ZM301.232 303.033L312.436 296.553L323.64 303.033L312.436 309.513L301.232 303.033ZM313.678 295.836L324.882 289.356L336.087 295.836L324.884 302.316L313.678 295.836ZM326.121 288.64L337.325 282.16L348.529 288.64L337.325 295.12L326.121 288.64ZM338.565 281.443L349.768 274.963L360.972 281.443L349.768 287.923L338.565 281.443ZM351.008 274.247L362.212 267.767L373.415 274.247L362.212 280.727L351.008 274.247ZM363.452 267.053L374.655 260.573L385.859 267.053L374.655 273.533L363.452 267.053ZM375.895 259.854L387.099 253.374L398.302 259.854L387.099 266.334L375.895 259.854ZM388.338 252.66L399.542 246.179L410.746 252.66L399.542 259.139L388.338 252.66ZM400.784 245.463L411.988 238.983L423.191 245.463L411.988 251.943L400.784 245.463ZM413.227 238.266L424.431 231.786L435.635 238.266L424.431 244.747L413.227 238.266ZM425.671 231.07L436.874 224.59L448.078 231.07L436.874 237.55L425.671 231.07ZM438.114 223.873L449.318 217.393L460.521 223.873L449.318 230.353L438.114 223.873ZM450.557 216.677L461.761 210.197L472.967 216.677L461.763 223.157L450.557 216.677ZM463.001 209.48L474.205 203L485.408 209.48L474.205 215.96L463.001 209.48ZM475.446 202.284L486.65 195.804L497.856 202.284L486.652 208.764L475.446 202.284ZM487.89 195.087L499.094 188.607L510.297 195.087L499.094 201.567L487.89 195.087ZM500.333 187.891L511.537 181.411L522.741 187.891L511.537 194.371L500.333 187.891ZM512.777 180.694L523.98 174.214L535.184 180.694L523.98 187.174L512.777 180.694ZM525.22 173.498L536.424 167.018L547.627 173.498L536.424 179.978L525.22 173.498ZM537.663 166.303L548.867 159.823L560.071 166.303L548.867 172.783L537.663 166.303ZM536.424 165.585L525.22 159.105L536.424 152.625L547.627 159.105L536.424 165.585ZM523.98 158.388L512.777 151.908L523.98 145.428L535.184 151.908L523.98 158.388ZM511.537 151.192L500.333 144.712L511.537 138.232L522.741 144.712L511.537 151.192ZM499.091 143.995L487.888 137.515L499.091 131.035L510.295 137.515L499.091 143.995ZM486.648 136.799L475.444 130.319L486.648 123.839L497.854 130.319L486.648 136.799ZM474.205 129.602L463.001 123.122L474.205 116.642L485.408 123.122L474.205 129.602ZM461.759 122.406L450.555 115.926L461.759 109.446L472.963 115.926L461.759 122.406ZM449.316 115.209L438.112 108.729L449.316 102.249L460.519 108.729L449.316 115.209ZM436.872 108.013L425.669 101.533L436.872 95.0528L448.078 101.533L436.872 108.013ZM424.427 100.816L413.223 94.3363L424.427 87.8563L435.63 94.3363L424.427 100.816ZM411.983 93.6198L400.78 87.1398L411.983 80.6598L423.187 87.1398L411.983 93.6198ZM399.54 86.4233L388.336 79.9432L399.54 73.4632L410.744 79.9432L399.54 86.4233ZM387.097 79.2267L375.893 72.7467L387.097 66.2667L398.3 72.7467L387.097 79.2267ZM374.651 72.0303L363.447 65.5502L374.651 59.0702L385.855 65.5502L374.651 72.0303ZM362.208 64.8337L351.004 58.3537L362.208 51.8737L373.411 58.3537L362.208 64.8337ZM349.762 57.6372L338.558 51.1572L349.762 44.6772L360.966 51.1572L349.762 57.6372ZM337.319 50.4407L326.115 43.9607L337.319 37.4807L348.522 43.9607L337.319 50.4407ZM324.875 43.2442L313.672 36.7642L324.875 30.2842L336.081 36.7642L324.875 43.2442ZM312.432 36.0477L301.228 29.5677L312.432 23.0877L323.636 29.5677L312.432 36.0477ZM299.986 28.8512L288.781 22.3712L299.984 15.8911L311.188 22.3712L299.986 28.8512ZM298.747 29.5677L287.543 36.0477L276.339 29.5677L287.543 23.0877L298.747 29.5677ZM286.303 36.7642L275.1 43.2442L263.894 36.7642L275.097 30.2842L286.303 36.7642ZM273.86 43.9607L262.656 50.4407L251.452 43.9607L262.656 37.4807L273.86 43.9607ZM261.416 51.1572L250.213 57.6372L239.007 51.1572L250.211 44.6772L261.416 51.1572ZM248.973 58.3537L237.769 64.8337L226.566 58.3537L237.769 51.8737L248.973 58.3537ZM236.53 65.5502L225.326 72.0303L214.122 65.5502L225.326 59.0702L236.53 65.5502ZM224.084 72.7446L212.88 79.2247L201.677 72.7446L212.88 66.2646L224.084 72.7446ZM211.641 79.9412L200.437 86.4212L189.233 79.9412L200.437 73.4612L211.641 79.9412ZM199.197 87.1376L187.994 93.6177L176.79 87.1376L187.994 80.6576L199.197 87.1376ZM186.754 94.3342L175.55 100.814L164.347 94.3342L175.55 87.8542L186.754 94.3342ZM174.31 101.531L163.107 108.011L151.903 101.531L163.107 95.0507L174.31 101.531ZM161.867 108.727L150.663 115.207L139.46 108.727L150.663 102.247L161.867 108.727ZM149.422 115.924L138.218 122.404L127.014 115.924L138.218 109.444L149.422 115.924ZM136.978 123.12L125.774 129.6L114.571 123.12L125.774 116.64L136.978 123.12ZM124.535 130.317L113.331 136.797L102.127 130.317L113.331 123.837L124.535 130.317ZM112.091 137.513L100.888 143.993L89.684 137.513L100.888 131.033L112.091 137.513ZM99.6479 144.71L88.4443 151.19L77.2406 144.71L88.4443 138.23L99.6479 144.71ZM87.2045 151.906L76.0009 158.386L64.7972 151.906L76.0009 145.426L87.2045 151.906ZM74.759 159.103L63.5554 165.583L52.3517 159.103L63.5554 152.623L74.759 159.103ZM62.3156 166.299L51.1119 172.779L39.9062 166.299L51.1098 159.819L62.3156 166.299ZM49.8722 173.496L38.6685 179.976L27.4649 173.496L38.6685 167.016L49.8722 173.496ZM51.1119 174.212L62.3156 180.692L51.1119 187.172L39.9083 180.692L51.1119 174.212ZM63.5554 181.409L74.759 187.889L63.5554 194.369L52.3517 187.889L63.5554 181.409ZM76.0009 188.605L87.2045 195.085L76.0009 201.565L64.7972 195.085L76.0009 188.605ZM88.4443 195.802L99.6479 202.282L88.4443 208.762L77.2406 202.282L88.4443 195.802ZM100.89 202.998L112.093 209.478L100.89 215.958L89.6861 209.478L100.89 202.998ZM113.333 210.195L124.537 216.675L113.333 223.155L102.129 216.675L113.333 210.195ZM125.777 217.391L136.982 223.871L125.779 230.351L114.575 223.871L125.777 217.391ZM138.22 224.588L149.424 231.068L138.22 237.548L127.016 231.068L138.22 224.588ZM150.665 231.784L161.869 238.264L150.665 244.744L139.462 238.264L150.665 231.784ZM163.109 238.981L174.313 245.461L163.109 251.941L151.903 245.461L163.109 238.981ZM175.552 246.177L186.756 252.657L175.552 259.137L164.349 252.657L175.552 246.177ZM187.998 253.374L199.201 259.854L187.998 266.334L176.794 259.854L187.998 253.374ZM200.441 260.57L211.645 267.05L200.441 273.53L189.238 267.05L200.441 260.57ZM212.885 267.767L224.088 274.247L212.885 280.727L201.681 274.247L212.885 267.767ZM225.33 274.963L236.534 281.443L225.33 287.923L214.126 281.443L225.33 274.963ZM237.774 282.16L248.977 288.64L237.774 295.12L226.57 288.64L237.774 282.16ZM250.217 289.356L261.421 295.836L250.217 302.316L239.013 295.836L250.217 289.356ZM262.662 296.553L273.866 303.033L262.662 309.513L251.459 303.033L262.662 296.553ZM275.106 303.749L286.31 310.229L275.106 316.71L263.902 310.229L275.106 303.749ZM287.549 310.946L298.753 317.426L287.549 323.906L276.346 317.426L287.549 310.946ZM299.995 318.143L311.198 324.623L299.995 331.103L288.791 324.623L299.995 318.143ZM301.234 317.426L312.438 310.946L323.642 317.426L312.438 323.906L301.234 317.426ZM313.678 310.229L324.882 303.749L336.085 310.229L324.882 316.71L313.678 310.229ZM326.121 303.033L337.325 296.553L348.529 303.033L337.325 309.513L326.121 303.033ZM338.565 295.836L349.768 289.356L360.974 295.836L349.771 302.316L338.565 295.836ZM351.008 288.64L362.212 282.16L373.415 288.64L362.212 295.12L351.008 288.64ZM363.452 281.443L374.655 274.963L385.861 281.443L374.657 287.923L363.452 281.443ZM375.897 274.249L387.101 267.769L398.304 274.249L387.101 280.729L375.897 274.249ZM388.34 267.053L399.544 260.573L410.748 267.053L399.544 273.533L388.34 267.053ZM400.784 259.856L411.988 253.376L423.191 259.856L411.988 266.336L400.784 259.856ZM413.227 252.66L424.431 246.179L435.635 252.66L424.431 259.139L413.227 252.66ZM425.671 245.463L436.874 238.983L448.078 245.463L436.874 251.943L425.671 245.463ZM438.114 238.266L449.318 231.786L460.521 238.266L449.318 244.747L438.114 238.266ZM450.557 231.07L461.761 224.59L472.965 231.07L461.761 237.55L450.557 231.07ZM463.003 223.873L474.207 217.393L485.41 223.873L474.207 230.353L463.003 223.873ZM475.446 216.677L486.65 210.197L497.854 216.677L486.65 223.157L475.446 216.677ZM487.89 209.48L499.094 203L510.297 209.48L499.094 215.96L487.89 209.48ZM500.333 202.284L511.537 195.804L522.741 202.284L511.537 208.764L500.333 202.284ZM512.777 195.087L523.98 188.607L535.184 195.087L523.98 201.567L512.777 195.087ZM525.22 187.891L536.424 181.411L547.627 187.891L536.424 194.371L525.22 187.891ZM537.666 180.694L548.869 174.214L560.073 180.694L548.869 187.174L537.666 180.694ZM550.109 173.498L561.313 167.018L572.516 173.498L561.313 179.978L550.109 173.498ZM572.516 159.107L561.313 165.587L550.109 159.107L561.313 152.627L572.516 159.107ZM560.073 151.91L548.869 158.39L537.666 151.91L548.869 145.43L560.073 151.91ZM547.627 144.714L536.424 151.194L525.22 144.714L536.424 138.234L547.627 144.714ZM535.184 137.517L523.98 143.997L512.777 137.517L523.98 131.037L535.184 137.517ZM522.741 130.319L511.537 136.799L500.333 130.319L511.537 123.839L522.741 130.319ZM510.295 123.122L499.091 129.602L487.888 123.122L499.091 116.642L510.295 123.122ZM497.852 115.926L486.648 122.406L475.444 115.926L486.648 109.446L497.852 115.926ZM485.408 108.731L474.205 115.211L463.001 108.731L474.205 102.251L485.408 108.731ZM472.963 101.533L461.759 108.013L450.555 101.533L461.759 95.0528L472.963 101.533ZM460.519 94.3363L449.316 100.816L438.112 94.3363L449.316 87.8563L460.519 94.3363ZM448.076 87.1398L436.872 93.6198L425.669 87.1398L436.872 80.6598L448.076 87.1398ZM435.63 79.9432L424.427 86.4233L413.223 79.9432L424.427 73.4632L435.63 79.9432ZM423.187 72.7467L411.983 79.2267L400.78 72.7467L411.983 66.2667L423.187 72.7467ZM410.744 65.5502L399.54 72.0303L388.336 65.5502L399.54 59.0702L410.744 65.5502ZM398.3 58.3537L387.097 64.8337L375.893 58.3537L387.097 51.8737L398.3 58.3537ZM385.855 51.1572L374.651 57.6372L363.447 51.1572L374.651 44.6772L385.855 51.1572ZM373.411 43.9607L362.208 50.4407L351.004 43.9607L362.208 37.4807L373.411 43.9607ZM360.966 36.7642L349.762 43.2442L338.558 36.7642L349.762 30.2842L360.966 36.7642ZM348.522 29.5677L337.319 36.0477L326.115 29.5677L337.319 23.0877L348.522 29.5677ZM336.079 22.3712L324.875 28.8512L313.672 22.3712L324.875 15.8911L336.079 22.3712ZM323.636 15.1747L312.432 21.6547L301.228 15.1747L312.432 8.69465L323.636 15.1747ZM299.986 1.49813L311.19 7.97814L299.986 14.4582L288.781 7.97814L299.986 1.49813ZM287.543 8.69465L298.747 15.1747L287.543 21.6547L276.339 15.1747L287.543 8.69465ZM275.1 15.8911L286.303 22.3712L275.1 28.8512L263.896 22.3712L275.1 15.8911ZM262.654 23.0877L273.858 29.5677L262.654 36.0477L251.45 29.5677L262.654 23.0877ZM250.211 30.2842L261.414 36.7642L250.211 43.2442L239.007 36.7642L250.211 30.2842ZM237.767 37.4807L248.973 43.9607L237.769 50.4407L226.566 43.9607L237.767 37.4807ZM225.324 44.6772L236.528 51.1572L225.324 57.6372L214.12 51.1572L225.324 44.6772ZM212.88 51.8737L224.086 58.3537L212.883 64.8337L201.677 58.3537L212.88 51.8737ZM200.437 59.0702L211.641 65.5502L200.437 72.0303L189.233 65.5502L200.437 59.0702ZM187.994 66.2667L199.197 72.7467L187.994 79.2267L176.79 72.7467L187.994 66.2667ZM175.548 73.4612L186.752 79.9412L175.548 86.4212L164.344 79.9412L175.548 73.4612ZM163.105 80.6576L174.308 87.1376L163.105 93.6177L151.901 87.1376L163.105 80.6576ZM150.661 87.8542L161.865 94.3342L150.661 100.814L139.458 94.3342L150.661 87.8542ZM149.422 101.531L138.218 108.011L127.012 101.531L138.216 95.0507L149.422 101.531ZM125.774 102.247L136.978 108.727L125.774 115.207L114.571 108.727L125.774 102.247ZM113.331 109.444L124.535 115.924L113.331 122.404L102.127 115.924L113.331 109.444ZM100.886 116.64L112.091 123.12L100.888 129.6L89.684 123.12L100.886 116.64ZM88.4422 123.837L99.6459 130.317L88.4422 136.797L77.2385 130.317L88.4422 123.837ZM75.9988 131.033L87.2045 137.513L76.0009 143.993L64.7972 137.513L75.9988 131.033ZM63.5554 138.23L74.759 144.71L63.5554 151.19L52.3517 144.71L63.5554 138.23ZM51.1119 145.426L62.3156 151.906L51.1119 158.386L39.9083 151.906L51.1119 145.426ZM38.6685 152.623L49.8722 159.103L38.6685 165.583L27.4649 159.103L38.6685 152.623ZM26.2251 159.819L37.4288 166.299L26.2251 172.779L15.0214 166.299L26.2251 159.819ZM2.57595 173.494L13.7796 167.014L24.9833 173.494L13.7796 179.974L2.57595 173.494ZM15.0194 180.69L26.223 174.21L37.4267 180.69L26.223 187.17L15.0194 180.69ZM27.4649 187.887L38.6685 181.407L49.8722 187.887L38.6685 194.367L27.4649 187.887ZM39.9083 195.083L51.1119 188.603L62.3177 195.083L51.114 201.563L39.9083 195.083ZM52.3517 202.28L63.5554 195.8L74.759 202.28L63.5554 208.76L52.3517 202.28ZM64.7972 209.478L76.0009 202.998L87.2045 209.478L76.0009 215.958L64.7972 209.478ZM77.2406 216.673L88.4443 210.193L99.6479 216.673L88.4443 223.153L77.2406 216.673ZM89.684 223.869L100.888 217.389L112.093 223.869L100.89 230.349L89.684 223.869ZM102.129 231.068L113.333 224.588L124.537 231.068L113.333 237.548L102.129 231.068ZM114.573 238.264L125.777 231.784L136.98 238.264L125.777 244.744L114.573 238.264ZM127.016 245.461L138.22 238.981L149.424 245.461L138.22 251.941L127.016 245.461ZM139.462 252.657L150.665 246.177L161.869 252.657L150.665 259.137L139.462 252.657ZM151.905 259.854L163.109 253.374L174.313 259.854L163.109 266.334L151.905 259.854ZM164.349 267.05L175.552 260.57L186.756 267.05L175.552 273.53L164.349 267.05ZM176.794 274.247L187.998 267.767L199.201 274.247L187.998 280.727L176.794 274.247ZM189.238 281.443L200.441 274.963L211.645 281.443L200.441 287.923L189.238 281.443ZM201.681 288.64L212.885 282.16L224.09 288.64L212.887 295.12L201.681 288.64ZM214.126 295.836L225.33 289.356L236.534 295.836L225.33 302.316L214.126 295.836ZM226.57 303.033L237.774 296.553L248.977 303.033L237.774 309.513L226.57 303.033ZM239.013 310.229L250.217 303.749L261.421 310.229L250.217 316.71L239.013 310.229ZM251.459 317.426L262.662 310.946L273.868 317.426L262.665 323.906L251.459 317.426ZM263.902 324.623L275.106 318.143L286.31 324.623L275.106 331.103L263.902 324.623ZM276.346 331.819L287.549 325.339L298.753 331.819L287.549 338.299L276.346 331.819ZM288.791 339.016L299.995 332.536L311.198 339.016L299.995 345.496L288.791 339.016ZM312.438 338.299L301.234 331.819L312.438 325.339L323.642 331.819L312.438 338.299ZM324.882 331.103L313.678 324.623L324.882 318.143L336.085 324.623L324.882 331.103ZM337.325 323.906L326.121 317.426L337.325 310.946L348.529 317.426L337.325 323.906ZM349.771 316.71L338.567 310.229L349.771 303.749L360.974 310.229L349.771 316.71ZM351.008 303.033L362.212 296.553L373.415 303.033L362.212 309.513L351.008 303.033ZM363.452 295.836L374.655 289.356L385.859 295.836L374.655 302.316L363.452 295.836ZM387.101 295.12L375.897 288.64L387.101 282.16L398.304 288.64L387.101 295.12ZM399.544 287.923L388.34 281.443L399.544 274.963L410.748 281.443L399.544 287.923ZM411.988 280.727L400.784 274.247L411.988 267.767L423.191 274.247L411.988 280.727ZM424.433 273.533L413.229 267.053L424.433 260.573L435.637 267.053L424.433 273.533ZM436.876 266.336L425.673 259.856L436.876 253.376L448.082 259.856L436.876 266.336ZM449.32 259.139L438.116 252.66L449.32 246.179L460.524 252.66L449.32 259.139ZM461.763 251.943L450.56 245.463L461.763 238.983L472.969 245.463L461.763 251.943ZM474.207 244.747L463.003 238.266L474.207 231.786L485.41 238.266L474.207 244.747ZM486.65 237.55L475.446 231.07L486.65 224.59L497.854 231.07L486.65 237.55ZM499.096 230.353L487.892 223.873L499.096 217.393L510.299 223.873L499.096 230.353ZM511.539 223.157L500.335 216.677L511.539 210.197L522.743 216.677L511.539 223.157ZM523.982 215.96L512.779 209.48L523.982 203L535.186 209.48L523.982 215.96ZM536.426 208.764L525.222 202.284L536.426 195.804L547.63 202.284L536.426 208.764ZM548.869 201.567L537.663 195.087L548.867 188.607L560.071 195.087L548.869 201.567ZM550.109 187.891L561.313 181.411L572.516 187.891L561.313 194.371L550.109 187.891ZM573.756 187.174L562.552 180.694L573.756 174.214L584.96 180.694L573.756 187.174ZM586.201 179.978L574.998 173.498L586.201 167.018L597.405 173.498L586.201 179.978Z" fill="url(#paint0_grid_linear)"/>
<defs>
<linearGradient id="paint0_grid_linear" x1="300" y1="-12.342" x2="166.668" y2="310.983" gradientUnits="userSpaceOnUse">
<stop stop-color="#EB4A97" stop-opacity="0"/>
<stop offset="1" stop-color="#8C43F6"/>
</linearGradient>
</defs>
</svg>
