<svg width="15" height="15" viewBox="0 0 15 15" fill="none" xmlns="http://www.w3.org/2000/svg">
<path opacity="0.5" fill-rule="evenodd" clip-rule="evenodd" d="M7.5 15C11.6421 15 15 11.6421 15 7.5C15 3.35786 11.6421 0 7.5 0C3.35786 0 0 3.35786 0 7.5C0 11.6421 3.35786 15 7.5 15ZM7.38937 9.06917L7.42437 8.13583C7.96104 8.12806 8.43354 8.03861 8.84187 7.8675C9.25021 7.69639 9.57299 7.43583 9.81021 7.08583C10.0474 6.73583 10.166 6.2925 10.166 5.75583C10.166 5.23472 10.0513 4.79333 9.82187 4.43167C9.59243 4.07 9.27743 3.79194 8.87687 3.5975C8.47632 3.40306 8.01549 3.30583 7.49437 3.30583C6.93437 3.30583 6.4541 3.41083 6.05354 3.62083C5.65299 3.83083 5.34771 4.11861 5.13771 4.48417C4.92771 4.84972 4.8266 5.26583 4.83437 5.7325H6.24604C6.24604 5.36694 6.35493 5.07722 6.57271 4.86333C6.79049 4.64944 7.09382 4.5425 7.48271 4.5425C7.85604 4.5425 8.15549 4.64944 8.38104 4.86333C8.6066 5.07722 8.71937 5.37083 8.71937 5.74417C8.71937 6.13306 8.62215 6.42861 8.42771 6.63083C8.23326 6.83306 7.97271 6.96917 7.64604 7.03917C7.31937 7.10917 6.95771 7.14417 6.56104 7.14417H6.02437L6.07104 9.06917H7.38937ZM6.73604 11.6942C7.00826 11.6942 7.22993 11.6086 7.40104 11.4375C7.57215 11.2664 7.65771 11.0603 7.65771 10.8192C7.65771 10.5703 7.57215 10.3603 7.40104 10.1892C7.22993 10.0181 7.00826 9.9325 6.73604 9.9325C6.46382 9.9325 6.24021 10.0181 6.06521 10.1892C5.89021 10.3603 5.80271 10.5703 5.80271 10.8192C5.80271 11.0603 5.89021 11.2664 6.06521 11.4375C6.24021 11.6086 6.46382 11.6942 6.73604 11.6942Z" fill="white"/>
</svg>
