<svg width="15" height="15" viewBox="0 0 15 15" fill="none" xmlns="http://www.w3.org/2000/svg">
<path id="Combined Shape" fill-rule="evenodd" clip-rule="evenodd" d="M7.66797 14.5C11.534 14.5 14.668 11.366 14.668 7.5C14.668 3.63401 11.534 0.5 7.66797 0.5C3.80198 0.5 0.667969 3.63401 0.667969 7.5C0.667969 11.366 3.80198 14.5 7.66797 14.5ZM7.56472 8.96456L7.59739 8.09344C8.09827 8.08618 8.53927 8.0027 8.92039 7.843C9.3015 7.6833 9.60276 7.44011 9.82416 7.11344C10.0456 6.78678 10.1563 6.373 10.1563 5.87211C10.1563 5.38574 10.0492 4.97378 9.83505 4.63622C9.6209 4.29867 9.3269 4.03915 8.95305 3.85767C8.5792 3.67619 8.14909 3.58544 7.66272 3.58544C7.14005 3.58544 6.69179 3.68344 6.31794 3.87944C5.94409 4.07544 5.65916 4.34404 5.46316 4.68522C5.26716 5.02641 5.17279 5.41478 5.18005 5.85033H6.49761C6.49761 5.50915 6.59924 5.23874 6.8025 5.03911C7.00576 4.83948 7.28887 4.73967 7.65183 4.73967C8.00027 4.73967 8.27976 4.83948 8.49027 5.03911C8.70079 5.23874 8.80605 5.51278 8.80605 5.86122C8.80605 6.22418 8.71531 6.50004 8.53383 6.68878C8.35235 6.87752 8.10916 7.00456 7.80427 7.06989C7.49939 7.13522 7.16183 7.16789 6.79161 7.16789H6.29072L6.33427 8.96456H7.56472ZM6.95494 11.4146C7.20901 11.4146 7.4159 11.3347 7.57561 11.175C7.73531 11.0153 7.81516 10.8229 7.81516 10.5979C7.81516 10.3656 7.73531 10.1696 7.57561 10.0099C7.4159 9.85019 7.20901 9.77033 6.95494 9.77033C6.70087 9.77033 6.49216 9.85019 6.32883 10.0099C6.1655 10.1696 6.08383 10.3656 6.08383 10.5979C6.08383 10.8229 6.1655 11.0153 6.32883 11.175C6.49216 11.3347 6.70087 11.4146 6.95494 11.4146Z" fill="#646464"/>
</svg>
