<svg width="112" height="112" viewBox="0 0 112 112" fill="none" xmlns="http://www.w3.org/2000/svg">
<path fill-rule="evenodd" clip-rule="evenodd" d="M61.9232 62.9895L52.6679 53.7341C50.7067 54.9451 48.3762 55.4125 46.0997 55.0513C43.8232 54.6902 41.7518 53.5244 40.2617 51.7659C38.7554 49.9604 37.9528 47.6709 38.0021 45.32C38.0515 42.9691 38.9494 40.7154 40.5302 38.9746C42.1565 37.2149 44.3797 36.1237 46.7666 35.9135C49.1535 35.7034 51.5331 36.3893 53.4419 37.8377C55.3507 39.2861 56.652 41.3932 57.0922 43.7485C57.5324 46.1039 57.0801 48.5387 55.8232 50.5788L73.3521 68.1081C73.7681 68.527 74.0011 69.0937 74 69.6841C73.9989 70.2744 73.7639 70.8403 73.3465 71.2577C72.929 71.6751 72.3631 71.9101 71.7727 71.9111C71.1824 71.9121 70.6157 71.6791 70.1968 71.263L69.7367 70.8026L64.3265 76.2124C64.2723 76.2667 64.2079 76.3097 64.137 76.3391C64.0662 76.3684 63.9902 76.3835 63.9135 76.3835C63.8368 76.3835 63.7609 76.3684 63.69 76.3391C63.6192 76.3097 63.5548 76.2667 63.5006 76.2124L61.1719 73.8834C61.1176 73.8292 61.0746 73.7648 61.0452 73.6939C61.0159 73.6231 61.0008 73.5471 61.0008 73.4704C61.0008 73.3937 61.0159 73.3178 61.0452 73.2469C61.0746 73.1761 61.1176 73.1117 61.1719 73.0575L66.5814 67.6476L65.0786 66.1445L60.8327 70.3896C60.7784 70.4439 60.7141 70.4869 60.6432 70.5162C60.5724 70.5456 60.4964 70.5607 60.4197 70.5607C60.343 70.5607 60.2671 70.5456 60.1962 70.5162C60.1254 70.4869 60.061 70.4439 60.0068 70.3896L57.6781 68.0606C57.6238 68.0063 57.5808 67.942 57.5514 67.8711C57.5221 67.8002 57.507 67.7243 57.507 67.6476C57.507 67.5709 57.5221 67.495 57.5514 67.4241C57.5808 67.3532 57.6238 67.2889 57.6781 67.2346L61.9232 62.9895ZM46.9738 37.0707C44.8373 37.2315 42.841 38.1954 41.3865 39.7686C39.9977 41.298 39.2088 43.2781 39.1654 45.3435C39.1219 47.4089 39.8268 49.4204 41.15 51.0069C42.507 52.6097 44.4114 53.6507 46.4931 53.9276C48.5749 54.2045 50.6852 53.6975 52.4139 52.5051C52.5262 52.4273 52.6623 52.3915 52.7984 52.4039C52.9345 52.4162 53.0619 52.476 53.1584 52.5728L63.1621 62.5766C63.2164 62.6308 63.2594 62.6952 63.2887 62.766C63.3181 62.8369 63.3332 62.9128 63.3332 62.9895C63.3332 63.0662 63.3181 63.1422 63.2887 63.213C63.2594 63.2839 63.2164 63.3483 63.1621 63.4025L58.917 67.6476L60.4197 69.1508L64.6656 64.9056C64.7198 64.8514 64.7842 64.8083 64.8551 64.779C64.9259 64.7496 65.0019 64.7345 65.0786 64.7345C65.1553 64.7345 65.2312 64.7496 65.3021 64.779C65.3729 64.8083 65.4373 64.8514 65.4915 64.9056L67.8202 67.2347C67.8745 67.2889 67.9175 67.3533 67.9469 67.4241C67.9762 67.495 67.9913 67.5709 67.9913 67.6476C67.9913 67.7243 67.9762 67.8003 67.9469 67.8711C67.9175 67.942 67.8745 68.0064 67.8202 68.0606L62.4107 73.4704L63.9135 74.9736L69.3237 69.5637C69.378 69.5094 69.4423 69.4664 69.5132 69.437C69.5841 69.4077 69.66 69.3926 69.7367 69.3926C69.8134 69.3926 69.8893 69.4077 69.9602 69.437C70.0311 69.4664 70.0954 69.5094 70.1497 69.5637L71.0227 70.4371C71.1214 70.5359 71.2386 70.6142 71.3675 70.6676C71.4965 70.7211 71.6347 70.7486 71.7743 70.7486C71.9139 70.7486 72.0522 70.7211 72.1811 70.6677C72.3101 70.6143 72.4273 70.536 72.526 70.4373C72.6248 70.3386 72.7031 70.2215 72.7565 70.0925C72.81 69.9635 72.8375 69.8253 72.8375 69.6857C72.8375 69.5461 72.81 69.4079 72.7566 69.2789C72.7032 69.1499 72.6249 69.0327 72.5262 68.934L54.6619 51.0696C54.5653 50.9731 54.5056 50.8457 54.4932 50.7097C54.4809 50.5736 54.5166 50.4375 54.5943 50.3251C55.8082 48.5597 56.3085 46.4001 55.9945 44.2807C55.6805 42.1613 54.5756 40.2394 52.902 38.9018C51.2284 37.5641 49.1103 36.9099 46.9738 37.0707ZM51.6352 50.4251C50.5011 51.3571 49.0789 51.8671 47.611 51.8682C46.7773 51.8697 45.9515 51.7065 45.1811 51.3879C44.4107 51.0694 43.7108 50.6017 43.1217 50.0118C42.0832 48.9743 41.4366 47.6088 41.292 46.148C41.1474 44.6872 41.5137 43.2214 42.3286 42.0004C43.1435 40.7794 44.3565 39.8787 45.7611 39.4518C47.1656 39.0249 48.6746 39.0981 50.0312 39.6591C51.3877 40.22 52.5078 41.234 53.2006 42.5282C53.8934 43.8224 54.1161 45.3167 53.8307 46.7567C53.5452 48.1966 52.7693 49.493 51.6352 50.4251ZM46.6001 40.442C45.5952 40.6419 44.6721 41.1353 43.9476 41.8599V41.8599C43.4646 42.3398 43.0813 42.9105 42.8197 43.5392C42.5581 44.1678 42.4235 44.842 42.4235 45.5229C42.4235 46.2038 42.5581 46.878 42.8197 47.5066C43.0813 48.1353 43.4646 48.706 43.9476 49.1859C44.6721 49.9104 45.5952 50.4039 46.6001 50.6038C47.6051 50.8037 48.6467 50.7012 49.5934 50.3091C50.54 49.917 51.3491 49.253 51.9184 48.4011C52.4877 47.5491 52.7915 46.5475 52.7915 45.5229C52.7915 44.4983 52.4877 43.4966 51.9184 42.6447C51.3491 41.7927 50.54 41.1288 49.5934 40.7367C48.6467 40.3446 47.6051 40.242 46.6001 40.442Z" fill="url(#paint0_linear)"/>
<circle opacity="0.35" cx="56" cy="56" r="55.5" stroke="url(#paint1_linear)"/>
<defs>
<linearGradient id="paint0_linear" x1="64.0526" y1="72.0873" x2="33.7728" y2="43.6581" gradientUnits="userSpaceOnUse">
<stop stop-color="#EB4A97"/>
<stop offset="1" stop-color="#8C43F6"/>
</linearGradient>
<linearGradient id="paint1_linear" x1="81.0526" y1="100.121" x2="-2.70966" y2="11.6322" gradientUnits="userSpaceOnUse">
<stop stop-color="#EB4A97"/>
<stop offset="1" stop-color="#8C43F6"/>
</linearGradient>
</defs>
</svg>
