<svg width="112" height="112" viewBox="0 0 112 112" fill="none" xmlns="http://www.w3.org/2000/svg">
<circle opacity="0.35" cx="56" cy="56" r="55.5" stroke="url(#paint0_linear)"/>
<path d="M65.2414 68.1942V71.7735C65.2414 71.9768 65.1633 72.1717 65.0244 72.3154C64.8854 72.4592 64.697 72.5399 64.5005 72.5399C64.304 72.5399 64.1155 72.4592 63.9766 72.3154C63.8377 72.1717 63.7596 71.9768 63.7596 71.7735V68.1942C63.7596 67.9909 63.8377 67.796 63.9766 67.6522C64.1155 67.5085 64.304 67.4278 64.5005 67.4278C64.697 67.4278 64.8854 67.5085 65.0244 67.6522C65.1633 67.796 65.2414 67.9909 65.2414 68.1942ZM67.9603 63.2583C67.7638 63.2583 67.5754 63.3391 67.4365 63.4828C67.2975 63.6265 67.2195 63.8215 67.2195 64.0248V71.7735C67.2195 71.9768 67.2975 72.1717 67.4365 72.3154C67.5754 72.4592 67.7638 72.5399 67.9603 72.5399C68.1568 72.5399 68.3453 72.4592 68.4842 72.3154C68.6231 72.1717 68.7012 71.9768 68.7012 71.7735V64.0248C68.7012 63.8215 68.6231 63.6265 68.4842 63.4828C68.3453 63.3391 68.1568 63.2583 67.9603 63.2583ZM71.4202 65.642C71.2237 65.642 71.0353 65.7227 70.8963 65.8664C70.7574 66.0102 70.6793 66.2051 70.6793 66.4084V71.7735C70.6793 71.9768 70.7574 72.1717 70.8963 72.3154C71.0353 72.4592 71.2237 72.5399 71.4202 72.5399C71.6167 72.5399 71.8051 72.4592 71.9441 72.3154C72.083 72.1717 72.1611 71.9768 72.1611 71.7735V66.4084C72.1611 66.2051 72.083 66.0102 71.9441 65.8664C71.8051 65.7227 71.6167 65.642 71.4202 65.642ZM74.8726 68.6234C74.6761 68.6234 74.4877 68.7042 74.3488 68.8479C74.2098 68.9916 74.1318 69.1866 74.1318 69.3899V71.7735C74.1318 71.9768 74.2098 72.1717 74.3488 72.3154C74.4877 72.4592 74.6761 72.5399 74.8726 72.5399C75.0691 72.5399 75.2576 72.4592 75.3965 72.3154C75.5354 72.1717 75.6135 71.9768 75.6135 71.7735V69.3899C75.6135 69.1866 75.5354 68.9916 75.3965 68.8479C75.2576 68.7042 75.0691 68.6234 74.8726 68.6234ZM80.7996 67.8953C80.7996 70.1691 80.1478 72.3919 78.9267 74.2825C77.7056 76.1731 75.97 77.6466 73.9393 78.5168C71.9087 79.3869 69.6742 79.6146 67.5185 79.171C65.3628 78.7274 63.3827 77.6325 61.8285 76.0246C60.2743 74.4168 59.2159 72.3683 58.7871 70.1382C58.3583 67.908 58.5783 65.5965 59.4195 63.4957C60.2606 61.395 61.685 59.5995 63.5125 58.3362C65.34 57.0729 67.4886 56.3987 69.6866 56.3987C72.6339 56.3987 75.4606 57.6099 77.5446 59.766C79.6287 61.922 80.7996 64.8462 80.7996 67.8953ZM79.3178 67.8953C79.3178 65.9247 78.753 63.9983 77.6947 62.3597C76.6364 60.7212 75.1322 59.4441 73.3723 58.69C71.6124 57.9359 69.6759 57.7385 67.8076 58.123C65.9393 58.5075 64.2232 59.4564 62.8762 60.8499C61.5293 62.2433 60.612 64.0187 60.2403 65.9515C59.8687 67.8842 60.0594 69.8876 60.7884 71.7083C61.5174 73.5289 62.7518 75.085 64.3357 76.1798C65.9196 77.2747 67.7817 77.859 69.6866 77.859C72.2409 77.859 74.6907 76.8093 76.4969 74.9407C78.3031 73.0722 79.3178 70.5378 79.3178 67.8953ZM63.3744 54.4749C63.4418 54.5865 63.5358 54.6782 63.6474 54.7413C63.7589 54.8044 63.8844 54.8367 64.0115 54.8351C64.1483 54.8386 64.2828 54.7985 64.3968 54.7202C64.562 54.6127 64.6796 54.4422 64.724 54.2456C64.7684 54.049 64.736 53.8422 64.6338 53.6701L62.8409 50.727V33.5664C62.8409 33.3631 62.7629 33.1681 62.6239 33.0244C62.485 32.8807 62.2966 32.7999 62.1001 32.7999C61.9036 32.7999 61.7151 32.8807 61.5762 33.0244C61.4373 33.1681 61.3592 33.3631 61.3592 33.5664V50.9493C61.361 51.0935 61.4021 51.2343 61.4777 51.3555L63.3744 54.4749ZM57.2178 76.0196H39.1332C38.8404 76.0217 38.5524 75.9434 38.2986 75.7926C38.0447 75.6417 37.8342 75.4238 37.6885 75.1612C37.5427 74.903 37.4658 74.6094 37.4658 74.3104C37.4658 74.0114 37.5427 73.7178 37.6885 73.4597L43.1339 63.266H56.9733C57.1698 63.266 57.3582 63.1852 57.4971 63.0415C57.6361 62.8978 57.7141 62.7028 57.7141 62.4995C57.7141 62.2963 57.6361 62.1013 57.4971 61.9576C57.3582 61.8139 57.1698 61.7331 56.9733 61.7331H43.9488L49.5053 51.3172C49.5643 51.2042 49.5948 51.0777 49.5942 50.9493V33.5664C49.5942 33.3631 49.5162 33.1681 49.3772 33.0244C49.2383 32.8807 49.0498 32.7999 48.8534 32.7999C48.6569 32.7999 48.4684 32.8807 48.3295 33.0244C48.1905 33.1681 48.1125 33.3631 48.1125 33.5664V50.727L36.4142 72.7085C36.1411 73.2009 35.9981 73.7589 35.9996 74.3265C36.001 74.8942 36.1468 75.4514 36.4224 75.9423C36.6979 76.4332 37.0935 76.8404 37.5693 77.123C38.0451 77.4056 38.5845 77.5538 39.1332 77.5525H57.2178C57.4142 77.5525 57.6027 77.4717 57.7416 77.328C57.8806 77.1842 57.9586 76.9893 57.9586 76.786C57.9586 76.5827 57.8806 76.3878 57.7416 76.2441C57.6027 76.1003 57.4142 76.0196 57.2178 76.0196ZM55.4915 36.4405C55.4915 35.9858 55.6219 35.5412 55.8661 35.1631C56.1103 34.785 56.4575 34.4903 56.8636 34.3162C57.2697 34.1422 57.7166 34.0967 58.1477 34.1854C58.5789 34.2741 58.9749 34.4931 59.2858 34.8147C59.5966 35.1362 59.8083 35.5459 59.894 35.9919C59.9798 36.438 59.9358 36.9003 59.7675 37.3204C59.5993 37.7406 59.3145 38.0997 58.9489 38.3523C58.5834 38.605 58.1537 38.7399 57.7141 38.7399C57.1247 38.7399 56.5593 38.4976 56.1425 38.0664C55.7257 37.6352 55.4915 37.0503 55.4915 36.4405ZM56.9733 36.4405C56.9733 36.5921 57.0167 36.7403 57.0981 36.8663C57.1795 36.9924 57.2952 37.0906 57.4306 37.1486C57.566 37.2066 57.715 37.2218 57.8587 37.1922C58.0024 37.1627 58.1344 37.0897 58.238 36.9825C58.3416 36.8753 58.4122 36.7387 58.4408 36.59C58.4694 36.4414 58.4547 36.2873 58.3986 36.1472C58.3425 36.0072 58.2476 35.8875 58.1257 35.8033C58.0039 35.719 57.8607 35.6741 57.7141 35.6741C57.5176 35.6741 57.3292 35.7548 57.1903 35.8986C57.0513 36.0423 56.9733 36.2373 56.9733 36.4405ZM51.7872 42.5721C51.7872 42.1173 51.9175 41.6727 52.1618 41.2946C52.406 40.9165 52.7531 40.6218 53.1592 40.4478C53.5654 40.2737 54.0123 40.2282 54.4434 40.3169C54.8745 40.4056 55.2706 40.6246 55.5814 40.9462C55.8922 41.2678 56.1039 41.6775 56.1897 42.1235C56.2754 42.5695 56.2314 43.0318 56.0632 43.452C55.895 43.8721 55.6101 44.2312 55.2446 44.4839C54.8791 44.7365 54.4494 44.8714 54.0098 44.8714C53.4203 44.8714 52.855 44.6291 52.4382 44.1979C52.0214 43.7667 51.7872 43.1819 51.7872 42.5721ZM53.2689 42.5721C53.2689 42.7236 53.3124 42.8718 53.3938 42.9979C53.4752 43.1239 53.5909 43.2221 53.7263 43.2802C53.8617 43.3382 54.0106 43.3533 54.1543 43.3238C54.298 43.2942 54.4301 43.2212 54.5337 43.114C54.6373 43.0068 54.7078 42.8703 54.7364 42.7216C54.765 42.5729 54.7503 42.4188 54.6943 42.2788C54.6382 42.1387 54.5432 42.019 54.4214 41.9348C54.2996 41.8506 54.1563 41.8056 54.0098 41.8056C53.8133 41.8056 53.6249 41.8864 53.4859 42.0301C53.347 42.1738 53.2689 42.3688 53.2689 42.5721ZM59.1959 52.3442C59.1959 53.0642 58.9895 53.7681 58.6028 54.3668C58.2161 54.9655 57.6665 55.4321 57.0235 55.7077C56.3804 55.9832 55.6728 56.0553 54.9902 55.9148C54.3076 55.7744 53.6805 55.4276 53.1883 54.9185C52.6962 54.4093 52.361 53.7606 52.2252 53.0544C52.0895 52.3482 52.1591 51.6162 52.4255 50.951C52.6919 50.2858 53.1429 49.7172 53.7216 49.3171C54.3003 48.9171 54.9807 48.7036 55.6767 48.7036C56.6101 48.7036 57.5052 49.0872 58.1651 49.7699C58.8251 50.4526 59.1959 51.3786 59.1959 52.3442ZM57.7141 52.3442C57.7141 51.9273 57.5946 51.5198 57.3708 51.1732C57.1469 50.8266 56.8287 50.5564 56.4564 50.3969C56.0841 50.2374 55.6745 50.1956 55.2793 50.277C54.8841 50.3583 54.521 50.559 54.2361 50.8538C53.9512 51.1486 53.7571 51.5241 53.6785 51.933C53.5999 52.3419 53.6402 52.7656 53.7944 53.1508C53.9487 53.5359 54.2098 53.8651 54.5448 54.0967C54.8799 54.3283 55.2738 54.4519 55.6767 54.4519C56.2171 54.4519 56.7353 54.2298 57.1174 53.8346C57.4995 53.4393 57.7141 52.9032 57.7141 52.3442Z" fill="url(#paint1_linear)"/>
<defs>
<linearGradient id="paint0_linear" x1="81.0526" y1="100.121" x2="-2.70966" y2="11.6322" gradientUnits="userSpaceOnUse">
<stop stop-color="#EB4A97"/>
<stop offset="1" stop-color="#8C43F6"/>
</linearGradient>
<linearGradient id="paint1_linear" x1="68.4206" y1="74.4503" x2="33.5273" y2="39.0058" gradientUnits="userSpaceOnUse">
<stop stop-color="#EB4A97"/>
<stop offset="1" stop-color="#8C43F6"/>
</linearGradient>
</defs>
</svg>
