<svg width="60" height="60" viewBox="0 0 60 60" fill="none" xmlns="http://www.w3.org/2000/svg">
<path opacity="0.3" d="M59 30C59 46.0163 46.0163 59 30 59C13.9837 59 1 46.0163 1 30C1 13.9837 13.9837 1 30 1C46.0163 1 59 13.9837 59 30Z" stroke="url(#paint0_landing_yield_linear)" stroke-width="2"/>
<g filter="url(#filter0_landing_yield_d)">
<path fill-rule="evenodd" clip-rule="evenodd" d="M43.7704 23.5724C41.4284 18.104 36.0225 14.5 30.0008 14.5C26.5867 14.5 23.3887 15.6205 20.7501 17.7386C20.4276 17.9966 19.9551 17.9471 19.6956 17.6246C19.4361 17.3006 19.4886 16.8296 19.8111 16.5701C22.7182 14.2345 26.2417 13 30.0008 13C36.7118 13 42.7277 17.0699 45.2496 23.2166L46.6007 20.8764C46.8077 20.5179 47.2668 20.3934 47.6253 20.6019C47.9838 20.8089 48.1068 21.2664 47.8998 21.6264L45.6497 25.5235C45.5102 25.7635 45.2582 25.8985 45.0002 25.8985C44.8727 25.8985 44.7437 25.867 44.6252 25.798L40.7281 23.5479C40.3696 23.3409 40.2466 22.8834 40.4536 22.5234C40.6606 22.1649 41.1181 22.0404 41.4781 22.2489L43.7704 23.5724ZM29.2506 25.0275V24.2496C29.2506 23.8356 29.5866 23.4996 30.0006 23.4996C30.4146 23.4996 30.7506 23.8356 30.7506 24.2496V25.0008H32.2506C32.6646 25.0008 33.0006 25.3368 33.0006 25.7508C33.0006 26.1648 32.6646 26.5008 32.2506 26.5008H29.6256C29.0046 26.5008 28.5006 27.0063 28.5006 27.6258C28.5006 28.2453 29.0046 28.7509 29.6256 28.7509H30.3756C31.8231 28.7509 33.0006 29.9284 33.0006 31.3759C33.0006 32.6961 32.0211 33.7918 30.7506 33.9742V34.7507C30.7506 35.1647 30.4146 35.5007 30.0006 35.5007C29.5866 35.5007 29.2506 35.1647 29.2506 34.7507V34.0009H27.7506C27.3365 34.0009 27.0005 33.6649 27.0005 33.2509C27.0005 32.8369 27.3365 32.5009 27.7506 32.5009H30.3756C30.9966 32.5009 31.5006 31.9954 31.5006 31.3759C31.5006 30.7564 30.9966 30.2509 30.3756 30.2509H29.6256C28.1781 30.2509 27.0005 29.0734 27.0005 27.6258C27.0005 26.3056 27.9801 25.21 29.2506 25.0275ZM31.1009 44.4606L32.7799 42.7816C33.0724 42.4891 33.0724 42.0136 32.7799 41.7211C32.4874 41.4286 32.0119 41.4286 31.7194 41.7211L28.7194 44.7211C28.4269 45.0136 28.4269 45.4891 28.7194 45.7816L31.7194 48.7816C31.8664 48.9271 32.0584 49.0006 32.2504 49.0006C32.4424 49.0006 32.6344 48.9271 32.7799 48.7801C33.0724 48.4876 33.0724 48.0121 32.7799 47.7196L31.0292 45.9689C39.6497 45.436 46.5009 38.2525 46.5009 29.5003C46.5009 29.0863 46.1649 28.7503 45.7509 28.7503C45.3369 28.7503 45.0009 29.0863 45.0009 29.5003C45.0009 37.4014 38.8603 43.8954 31.1009 44.4606ZM24.7505 45.0862C24.668 45.0862 24.584 45.0727 24.5015 45.0442C17.9224 42.7371 13.5003 36.491 13.5003 29.5009C13.5003 26.4736 14.3185 23.5566 15.8737 21.0092L12.9435 21.7942C12.5445 21.8947 12.132 21.6637 12.0255 21.2632C11.919 20.8627 12.156 20.4532 12.5565 20.3452L16.9036 19.1812C17.3041 19.0807 17.7151 19.3117 17.8216 19.7107L18.9856 24.0563C19.0936 24.4583 18.8551 24.8678 18.4561 24.9758C18.3901 24.9923 18.3256 25.0013 18.2611 25.0013C17.9296 25.0013 17.6266 24.7808 17.5366 24.4463L16.9275 22.173C15.6637 24.394 15.0003 26.9026 15.0003 29.5009C15.0003 35.855 19.0189 41.5326 24.9995 43.6281C25.3895 43.7646 25.595 44.1922 25.4585 44.5837C25.3505 44.8927 25.061 45.0862 24.7505 45.0862Z" fill="url(#paint1_landing_yield_linear)"/>
</g>
<defs>
<filter id="filter0_landing_yield_d" x="8" y="9" width="44.0003" height="44.0006" filterUnits="userSpaceOnUse" color-interpolation-filters="sRGB">
<feFlood flood-opacity="0" result="BackgroundImageFix"/>
<feColorMatrix in="SourceAlpha" type="matrix" values="0 0 0 0 0 0 0 0 0 0 0 0 0 0 0 0 0 0 127 0"/>
<feOffset/>
<feGaussianBlur stdDeviation="2"/>
<feColorMatrix type="matrix" values="0 0 0 0 0.207187 0 0 0 0 0.975 0 0 0 0 0.781869 0 0 0 0.3 0"/>
<feBlend mode="normal" in2="BackgroundImageFix" result="effect1_dropShadow"/>
<feBlend mode="normal" in="SourceGraphic" in2="effect1_dropShadow" result="shape"/>
</filter>
<linearGradient id="paint0_landing_yield_linear" x1="43.4211" y1="53.6364" x2="-1.4516" y2="6.23155" gradientUnits="userSpaceOnUse">
<stop stop-color="#EB4A97"/>
<stop offset="1" stop-color="#8C43F6"/>
</linearGradient>
<linearGradient id="paint1_landing_yield_linear" x1="38.0528" y1="45.1824" x2="11.1287" y2="16.7393" gradientUnits="userSpaceOnUse">
<stop stop-color="#EB4A97"/>
<stop offset="1" stop-color="#8C43F6"/>
</linearGradient>
</defs>
</svg>
