<svg width="60" height="60" viewBox="0 0 60 60" fill="none" xmlns="http://www.w3.org/2000/svg">
<path opacity="0.3" d="M59 30C59 46.0163 46.0163 59 30 59C13.9837 59 1 46.0163 1 30C1 13.9837 13.9837 1 30 1C46.0163 1 59 13.9837 59 30Z" stroke="url(#paint0_linear)" stroke-width="2"/>
<g filter="url(#filter0_d)">
<path fill-rule="evenodd" clip-rule="evenodd" d="M30.0645 11C19.5472 11 11 19.5631 11 30.0645C11 40.5817 19.5472 49.1289 30.0645 49.1289C40.5817 49.1289 49.1289 40.5817 49.1289 30.0645C49.1289 19.5631 40.5817 11 30.0645 11ZM30.0645 47.5402C20.421 47.5402 12.5887 39.7079 12.5887 30.0645C12.5887 20.4369 20.421 12.5887 30.0645 12.5887C39.7079 12.5887 47.5402 20.4369 47.5402 30.0645C47.5402 39.7079 39.7079 47.5402 30.0645 47.5402ZM19.1818 23.9479L23.9479 19.1818C24.2497 18.8799 24.7581 18.8799 25.06 19.1818C25.3777 19.4995 25.3777 19.992 25.06 20.3098L21.6602 23.7096H21.6602L20.8659 24.5039L21.6602 25.2983H20.1351C19.6902 25.2983 19.3407 24.9488 19.3407 24.5039C19.3407 24.1286 19.6083 23.802 19.9732 23.7261C19.6082 23.8019 19.3406 24.1286 19.3406 24.504C19.3406 24.9488 19.6902 25.2983 20.135 25.2983H21.6602L25.06 28.714C25.3777 29.0159 25.3777 29.5243 25.06 29.842C24.917 29.985 24.7105 30.0644 24.5039 30.0644C24.2974 30.0644 24.0909 29.985 23.9479 29.842L19.1818 25.0759C18.864 24.7581 18.864 24.2656 19.1818 23.9479ZM40.3911 23.7096C40.8359 23.7096 41.1854 24.075 41.1854 24.5039C41.1854 24.9488 40.8359 25.2983 40.3911 25.2983H21.6602L20.8659 24.5039L21.6602 23.7096H40.3911ZM38.4687 36.4193L39.2631 35.6249L38.4687 34.8306L39.263 35.6249L38.4687 36.4193H19.7378C19.293 36.4193 18.9435 36.0698 18.9435 35.6249C18.9435 35.196 19.293 34.8306 19.7378 34.8306H38.4687L35.0689 31.4307C34.7511 31.113 34.7511 30.6205 35.0689 30.3028C35.3707 30.0009 35.8791 30.0009 36.181 30.3028L40.9471 35.0689C41.2648 35.3866 41.2648 35.8791 40.9471 36.1969L36.181 40.963C36.038 41.106 35.8315 41.1854 35.6249 41.1854C35.4184 41.1854 35.2119 41.106 35.0689 40.963C34.7511 40.6452 34.7511 40.1527 35.0689 39.835L38.4687 36.4193Z" fill="url(#paint1_linear)"/>
</g>
<defs>
<filter id="filter0_d" x="7" y="7" width="46.1289" height="46.1289" filterUnits="userSpaceOnUse" color-interpolation-filters="sRGB">
<feFlood flood-opacity="0" result="BackgroundImageFix"/>
<feColorMatrix in="SourceAlpha" type="matrix" values="0 0 0 0 0 0 0 0 0 0 0 0 0 0 0 0 0 0 127 0"/>
<feOffset/>
<feGaussianBlur stdDeviation="2"/>
<feColorMatrix type="matrix" values="0 0 0 0 0.207187 0 0 0 0 0.975 0 0 0 0 0.781869 0 0 0 0.3 0"/>
<feBlend mode="normal" in2="BackgroundImageFix" result="effect1_dropShadow"/>
<feBlend mode="normal" in="SourceGraphic" in2="effect1_dropShadow" result="shape"/>
</filter>
<linearGradient id="paint0_linear" x1="43.4211" y1="53.6364" x2="-1.4516" y2="6.23155" gradientUnits="userSpaceOnUse">
<stop stop-color="#EB4A97"/>
<stop offset="1" stop-color="#8C43F6"/>
</linearGradient>
<linearGradient id="paint1_linear" x1="38.5933" y1="45.0849" x2="10.0775" y2="14.96" gradientUnits="userSpaceOnUse">
<stop stop-color="#EB4A97"/>
<stop offset="1" stop-color="#8C43F6"/>
</linearGradient>
</defs>
</svg>
