<svg width="60" height="60" viewBox="0 0 60 60" fill="none" xmlns="http://www.w3.org/2000/svg">
<path opacity="0.3" d="M59 30C59 46.0163 46.0163 59 30 59C13.9837 59 1 46.0163 1 30C1 13.9837 13.9837 1 30 1C46.0163 1 59 13.9837 59 30Z" stroke="url(#paint0_linear)" stroke-width="2"/>
<g filter="url(#filter0_d)">
<path fill-rule="evenodd" clip-rule="evenodd" d="M30.1906 14.028L43.5238 18.028C43.8065 18.1133 43.9998 18.372 43.9998 18.6666V33.3332C43.9998 39.2291 35.0106 44.4718 30.1972 45.9704C30.1332 45.9904 30.0665 45.9998 29.9999 45.9998C29.9333 45.9998 29.8666 45.9904 29.8026 45.9704C24.9892 44.4731 16 39.2292 16 33.3332V18.6666C16 18.372 16.1933 18.112 16.4747 18.028L29.8079 14.028C29.9333 13.9907 30.0653 13.9907 30.1906 14.028ZM29.9999 44.6344C35.2492 42.9371 42.6665 38.0144 42.6665 33.3332V19.1626L29.9999 15.3627L17.3333 19.1626V33.3332C17.3333 38.0144 24.7506 42.9371 29.9999 44.6344ZM34.5372 25.3131C34.8715 24.9791 35.415 24.9791 35.7493 25.3131C36.0836 25.647 36.0836 26.19 35.7493 26.524L28.8917 33.3749C28.7254 33.5411 28.506 33.625 28.2865 33.625C28.067 33.625 27.8477 33.541 27.6796 33.3749L24.2508 29.9494C23.9165 29.6154 23.9165 29.0725 24.2508 28.7385C24.5851 28.4045 25.1286 28.4045 25.4629 28.7385L28.2865 31.5577L34.5372 25.3131Z" fill="url(#paint1_linear)"/>
</g>
<defs>
<filter id="filter0_d" x="12" y="10" width="35.9998" height="39.9998" filterUnits="userSpaceOnUse" color-interpolation-filters="sRGB">
<feFlood flood-opacity="0" result="BackgroundImageFix"/>
<feColorMatrix in="SourceAlpha" type="matrix" values="0 0 0 0 0 0 0 0 0 0 0 0 0 0 0 0 0 0 127 0"/>
<feOffset/>
<feGaussianBlur stdDeviation="2"/>
<feColorMatrix type="matrix" values="0 0 0 0 0.207187 0 0 0 0 0.975 0 0 0 0 0.781869 0 0 0 0.3 0"/>
<feBlend mode="normal" in2="BackgroundImageFix" result="effect1_dropShadow"/>
<feBlend mode="normal" in="SourceGraphic" in2="effect1_dropShadow" result="shape"/>
</filter>
<linearGradient id="paint0_linear" x1="43.4211" y1="53.6364" x2="-1.4516" y2="6.23155" gradientUnits="userSpaceOnUse">
<stop stop-color="#EB4A97"/>
<stop offset="1" stop-color="#8C43F6"/>
</linearGradient>
<linearGradient id="paint1_linear" x1="36.263" y1="42.6058" x2="12.369" y2="20.5187" gradientUnits="userSpaceOnUse">
<stop stop-color="#EB4A97"/>
<stop offset="1" stop-color="#8C43F6"/>
</linearGradient>
</defs>
</svg>
