<svg width="61" height="61" viewBox="0 0 61 61" fill="none" xmlns="http://www.w3.org/2000/svg">
<g opacity="0.2" filter="url(#filter0_d)">
<rect x="4" y="4" width="53" height="53" rx="7" fill="url(#paint0_linear)"/>
</g>
<g filter="url(#filter1_d)">
<path fill-rule="evenodd" clip-rule="evenodd" d="M20.6575 31.2464C21.912 31.2464 22.9289 32.2634 22.9289 33.5178V41.5108C22.9289 42.7653 21.912 43.7822 20.6575 43.7822H19.9003C18.6459 43.7822 17.6289 42.7653 17.6289 41.5108V33.5178C17.6289 32.2634 18.6459 31.2464 19.9003 31.2464H20.6575ZM31.524 23.899C32.7785 23.899 33.7954 24.9159 33.7954 26.1704V41.5108C33.7954 42.7653 32.7785 43.7822 31.524 43.7822H30.7669C29.5124 43.7822 28.4954 42.7653 28.4954 41.5108V26.1704C28.4954 24.9159 29.5124 23.899 30.7669 23.899H31.524ZM42.3905 17.6285C43.645 17.6285 44.662 18.6455 44.662 19.9V41.5108C44.662 42.7653 43.645 43.7822 42.3905 43.7822H41.6334C40.3789 43.7822 39.362 42.7653 39.362 41.5108V19.9C39.362 18.6455 40.3789 17.6285 41.6334 17.6285H42.3905Z" fill="url(#paint1_linear)"/>
</g>
<defs>
<filter id="filter0_d" x="0" y="0" width="61" height="61" filterUnits="userSpaceOnUse" color-interpolation-filters="sRGB">
<feFlood flood-opacity="0" result="BackgroundImageFix"/>
<feColorMatrix in="SourceAlpha" type="matrix" values="0 0 0 0 0 0 0 0 0 0 0 0 0 0 0 0 0 0 127 0"/>
<feOffset/>
<feGaussianBlur stdDeviation="2"/>
<feColorMatrix type="matrix" values="0 0 0 0 0.92549 0 0 0 0 0.470588 0 0 0 0 0.317647 0 0 0 0.25 0"/>
<feBlend mode="normal" in2="BackgroundImageFix" result="effect1_dropShadow"/>
<feBlend mode="normal" in="SourceGraphic" in2="effect1_dropShadow" result="shape"/>
</filter>
<filter id="filter1_d" x="13.6289" y="13.6285" width="35.0331" height="34.1537" filterUnits="userSpaceOnUse" color-interpolation-filters="sRGB">
<feFlood flood-opacity="0" result="BackgroundImageFix"/>
<feColorMatrix in="SourceAlpha" type="matrix" values="0 0 0 0 0 0 0 0 0 0 0 0 0 0 0 0 0 0 127 0"/>
<feOffset/>
<feGaussianBlur stdDeviation="2"/>
<feColorMatrix type="matrix" values="0 0 0 0 0.92549 0 0 0 0 0.470588 0 0 0 0 0.317647 0 0 0 0.25 0"/>
<feBlend mode="normal" in2="BackgroundImageFix" result="effect1_dropShadow"/>
<feBlend mode="normal" in="SourceGraphic" in2="effect1_dropShadow" result="shape"/>
</filter>
<linearGradient id="paint1_linear" x1="34.4103" y1="-16.1648" x2="9.37051" y2="-14.7905" gradientUnits="userSpaceOnUse">
<stop stop-color="#EB7A4A"/>
<stop offset="1" stop-color="#F643CF"/>
</linearGradient>
</defs>
</svg>
