<svg width="103" height="103" viewBox="0 0 103 103" fill="none" xmlns="http://www.w3.org/2000/svg">
<g opacity="0.2" filter="url(#filter0_d)">
<rect x="25" y="25" width="53" height="53" rx="7" fill="url(#paint0_linear)"/>
</g>
<g filter="url(#filter1_d)">
<path d="M62.6891 48.1517C62.6231 48.0381 62.5274 47.9436 62.4117 47.8778C62.296 47.8121 62.1645 47.7774 62.0306 47.7774H52.1147L53.7771 35.3882C53.795 35.2224 53.7551 35.0556 53.6639 34.9146C53.5727 34.7735 53.4355 34.6666 53.2744 34.6109C53.1133 34.5551 52.9376 34.5539 52.7757 34.6074C52.6138 34.6609 52.4751 34.766 52.3819 34.9057L40.3231 55.512C40.2525 55.6239 40.2139 55.7521 40.2111 55.8834C40.2083 56.0147 40.2415 56.1443 40.3072 56.2589C40.3728 56.3736 40.4687 56.469 40.5848 56.5355C40.701 56.6019 40.8331 56.637 40.9678 56.637H50.7355L49.4181 69.0448C49.4051 69.2101 49.4492 69.3748 49.5433 69.5128C49.6374 69.6507 49.7761 69.7541 49.9374 69.8063C50.0986 69.8585 50.2731 69.8567 50.4332 69.801C50.5932 69.7453 50.7295 69.639 50.8205 69.4991L62.6801 48.895C62.7488 48.783 62.7859 48.6551 62.7875 48.5246C62.7891 48.394 62.7552 48.2653 62.6891 48.1517Z" fill="url(#paint1_linear)"/>
</g>
<defs>
<filter id="filter0_d" x="0" y="0" width="103" height="103" filterUnits="userSpaceOnUse" color-interpolation-filters="sRGB">
<feFlood flood-opacity="0" result="BackgroundImageFix"/>
<feColorMatrix in="SourceAlpha" type="matrix" values="0 0 0 0 0 0 0 0 0 0 0 0 0 0 0 0 0 0 127 0"/>
<feOffset/>
<feGaussianBlur stdDeviation="12.5"/>
<feColorMatrix type="matrix" values="0 0 0 0 0.168627 0 0 0 0 0.898039 0 0 0 0 0.603922 0 0 0 0.25 0"/>
<feBlend mode="normal" in2="BackgroundImageFix" result="effect1_dropShadow"/>
<feBlend mode="normal" in="SourceGraphic" in2="effect1_dropShadow" result="shape"/>
</filter>
<filter id="filter1_d" x="15.2109" y="9.56818" width="72.5766" height="85.276" filterUnits="userSpaceOnUse" color-interpolation-filters="sRGB">
<feFlood flood-opacity="0" result="BackgroundImageFix"/>
<feColorMatrix in="SourceAlpha" type="matrix" values="0 0 0 0 0 0 0 0 0 0 0 0 0 0 0 0 0 0 127 0"/>
<feOffset/>
<feGaussianBlur stdDeviation="12.5"/>
<feColorMatrix type="matrix" values="0 0 0 0 0.168627 0 0 0 0 0.898039 0 0 0 0 0.603922 0 0 0 0.25 0"/>
<feBlend mode="normal" in2="BackgroundImageFix" result="effect1_dropShadow"/>
<feBlend mode="normal" in="SourceGraphic" in2="effect1_dropShadow" result="shape"/>
</filter>
<linearGradient id="paint1_linear" x1="43.033" y1="34.5682" x2="78.0148" y2="48.1341" gradientUnits="userSpaceOnUse">
<stop stop-color="#5294FF"/>
<stop offset="1" stop-color="#1EFF78"/>
</linearGradient>
</defs>
</svg>
