<svg width="16" height="20" viewBox="0 0 16 20" fill="none" xmlns="http://www.w3.org/2000/svg">
<path fill-rule="evenodd" clip-rule="evenodd" d="M13.3487 6.66045H12.3972V4.75746C12.3972 2.09328 10.304 0 7.63977 0C4.97559 0 2.88231 2.09328 2.88231 4.75746V6.66045H1.93082C0.884175 6.66045 0.027832 7.51679 0.027832 8.56343V18.0784C0.027832 19.125 0.884175 19.9813 1.93082 19.9813H13.3487C14.3954 19.9813 15.2517 19.125 15.2517 18.0784V8.56343C15.2517 7.51679 14.3954 6.66045 13.3487 6.66045ZM7.63977 15.2239C6.59313 15.2239 5.73679 14.3675 5.73679 13.3209C5.73679 12.2743 6.59313 11.4179 7.63977 11.4179C8.68641 11.4179 9.54276 12.2743 9.54276 13.3209C9.54276 14.3675 8.68641 15.2239 7.63977 15.2239ZM4.69015 6.66045H10.5894V4.75746C10.5894 3.13993 9.25731 1.80784 7.63977 1.80784C6.02223 1.80784 4.69015 3.13993 4.69015 4.75746V6.66045Z" fill="#646464"/>
</svg>
