<svg width="125" height="31" viewBox="0 0 125 31" fill="none" xmlns="http://www.w3.org/2000/svg">
<path fill-rule="evenodd" clip-rule="evenodd" d="M61.046 11.439V18.2091H58.2668V7.75054H60.1348L61.0005 8.21744C61.4257 7.98399 61.8699 7.8089 62.3331 7.69218C62.7963 7.57545 63.3544 7.51709 64.0075 7.51709C64.9642 7.51709 65.7843 7.61825 66.4677 7.82057C67.1511 8.0229 67.6903 8.233 68.0851 8.45089L67.2878 10.4819C65.8754 9.8438 64.4706 9.52475 63.0735 9.52475H62.8229C62.1243 9.52475 61.6573 9.66482 61.4219 9.94496C61.1865 10.2251 61.0612 10.7231 61.046 11.439ZM45.6897 22.5513V17.929C47.3602 18.1158 49.1447 18.2092 51.043 18.2092H52.2048C53.116 18.2092 53.7918 18.0419 54.2323 17.7073C54.6727 17.3727 54.946 16.9991 55.0524 16.5867C55.1587 16.1743 55.2118 15.7191 55.2118 15.221V10.7388C55.2118 10.1785 55.1625 9.69606 55.0637 9.29141C54.965 8.88677 54.6955 8.52881 54.255 8.21755C53.8146 7.90628 53.1312 7.75065 52.2048 7.75065H51.043C48.9321 7.75065 47.0337 7.85181 45.348 8.05413L44.7784 7.75065H42.9105V22.5513H45.6897ZM51.3392 16.2014H46.3958C46.1529 16.2014 45.9858 16.1897 45.8947 16.1663C45.8036 16.143 45.7466 16.0846 45.7238 15.9912C45.701 15.8979 45.6897 15.7267 45.6897 15.4777V9.94491C47.1172 9.8204 48.6207 9.75815 50.2001 9.75815H51.3392C51.734 9.75815 52.0188 9.83208 52.1934 9.97993C52.3681 10.1278 52.4478 10.3651 52.4326 10.6919V15.2676C52.4326 15.5633 52.3263 15.7928 52.1137 15.9562C51.9011 16.1196 51.6429 16.2014 51.3392 16.2014ZM77.5869 18.2092C79.0449 18.2092 80.1573 18.1469 80.9243 18.0224C81.6912 17.8979 82.0747 17.7189 82.0747 17.4855L81.1634 15.9681C79.1892 16.1237 77.1465 16.2015 75.0356 16.2015H73.8738C73.1296 16.2015 72.7651 15.8902 72.7803 15.2677V13.9837C74.4812 14.1238 76.167 14.1939 77.8375 14.1939H81.8241V10.7388C81.8241 9.99176 81.7064 9.40425 81.471 8.97626C81.2356 8.54827 80.8331 8.237 80.2636 8.04246C79.6941 7.84792 78.9082 7.75065 77.9059 7.75065H73.0081C72.0969 7.75065 71.4211 7.91795 70.9807 8.25257C70.5403 8.58718 70.2669 8.96069 70.1606 9.37312C70.0543 9.78555 70.0011 10.2408 70.0011 10.7388V15.221C70.0011 15.7813 70.0505 16.2638 70.1492 16.6684C70.2479 17.0731 70.5175 17.431 70.9579 17.7423C71.3983 18.0535 72.0817 18.2092 73.0081 18.2092H77.5869ZM72.7803 12.186H79.0449V10.6919C79.0449 10.3496 79.0108 10.1239 78.9424 10.0149C78.8741 9.906 78.6918 9.83597 78.3957 9.80484C78.1193 9.77579 77.5882 9.7603 76.8025 9.75836L73.8738 9.75815C73.4941 9.75815 73.217 9.83208 73.0423 9.97993C72.8677 10.1278 72.7803 10.3651 72.7803 10.6919V12.186ZM87.681 18.2092V10.2719C87.681 10.0385 87.7228 9.89449 87.8063 9.84002C87.8899 9.78555 88.0759 9.75831 88.3644 9.75831H91.5081C91.8878 9.75831 92.165 9.83224 92.3396 9.98009C92.5143 10.1279 92.6016 10.3653 92.6016 10.6921V18.2092H95.3808V10.2719C95.3808 10.0696 95.4225 9.9334 95.5061 9.86337C95.5896 9.79333 95.7604 9.75831 96.0186 9.75831H99.2079C99.5875 9.75831 99.8647 9.83224 100.039 9.98009C100.214 10.1279 100.301 10.3653 100.301 10.6921V18.2092H103.081V10.7388C103.081 10.2408 103.027 9.78555 102.921 9.37312C102.815 8.96069 102.541 8.58718 102.101 8.25257C101.661 7.91795 100.985 7.75065 100.074 7.75065H98.9345C96.8995 7.75065 95.4415 7.97632 94.5607 8.42765C94.3784 8.20977 94.0861 8.04246 93.6836 7.92574C93.2812 7.80901 92.8446 7.75065 92.3738 7.75065H91.2348C89.6553 7.75065 88.3569 7.84403 87.3393 8.03079L86.7698 7.75065H84.9018V18.2092H87.681ZM109.256 7.75065V18.2092H106.477V7.75065H109.256ZM116.867 18.2092C118.751 18.2092 120.543 18.0535 122.244 17.7423L123.132 18.2092H125V10.7388C125 10.2408 124.947 9.78555 124.841 9.37312C124.734 8.96069 124.461 8.58718 124.02 8.25257C123.58 7.91795 122.904 7.75065 121.993 7.75065L120.304 7.75084C118.516 7.75213 117.173 7.75985 116.275 7.77399C115.288 7.78956 114.551 7.83236 114.065 7.90239C113.579 7.97243 113.336 8.07748 113.336 8.21755L113.587 9.99176C114.984 9.83613 117.118 9.75831 119.988 9.75831H121.127C121.613 9.75831 121.917 9.84002 122.039 10.0034C122.16 10.1668 122.221 10.3964 122.221 10.6921V12.2329C120.322 12.0461 118.546 11.9527 116.89 11.9527H115.728C114.635 11.9527 113.815 12.2212 113.268 12.7581C112.721 13.2951 112.448 14.0771 112.448 15.1043C112.448 17.1742 113.541 18.2092 115.728 18.2092H116.867ZM116.321 16.2014H121.538C121.781 16.2014 121.944 16.1897 122.027 16.1663C122.111 16.143 122.164 16.0885 122.187 16.0029C122.21 15.9173 122.221 15.7578 122.221 15.5244V13.7268H116.321C115.926 13.7268 115.645 13.828 115.478 14.0303C115.311 14.2326 115.227 14.5517 115.227 14.9874C115.227 15.4076 115.318 15.715 115.501 15.9096C115.683 16.1041 115.956 16.2014 116.321 16.2014Z" fill="white"/>
<path fill-rule="evenodd" clip-rule="evenodd" d="M36.0787 10.6889L27.4343 0H8.82596L0 10.6577L18.0532 31L19.961 28.8503L13.4293 21.5224L13.446 21.5071L3.75953 10.5922L10.1534 2.87123H26.0858L32.3382 10.6025L23.7934 20.2305L25.7063 22.3765L36.0787 10.6889ZM19.9632 24.5463L21.8761 26.6924L23.7912 24.5344L21.8783 22.3884L19.9632 24.5463Z" fill="#5294FF"/>
<path fill-rule="evenodd" clip-rule="evenodd" d="M11.4813 5.74219H24.7375L28.5978 10.5157L21.8807 18.0845L19.9679 15.9386L24.8581 10.4285L23.3898 8.61336H12.8093L11.2779 10.4623L17.124 17.0492L17.1214 17.0516L23.7927 24.5361L21.8757 26.6918L15.0016 18.9797L15.0118 18.9704L7.51868 10.5272L11.4813 5.74219Z" fill="white"/>
</svg>
