<svg width="19" height="19" viewBox="0 0 19 19" fill="none" xmlns="http://www.w3.org/2000/svg">
<path fill-rule="evenodd" clip-rule="evenodd" d="M13.1914 15.6875V14.2812C13.1914 13.8929 12.8766 13.5781 12.4883 13.5781C12.0999 13.5781 11.7852 13.8929 11.7852 14.2812V15.6875C11.7852 16.4629 11.1543 17.0938 10.3789 17.0938H3.3125C2.53714 17.0938 1.90625 16.4629 1.90625 15.6875V3.3125C1.90625 2.53714 2.53714 1.90625 3.3125 1.90625H10.3789C11.1543 1.90625 11.7852 2.53714 11.7852 3.3125V4.71875C11.7852 5.10712 12.0999 5.42188 12.4883 5.42188C12.8766 5.42188 13.1914 5.10712 13.1914 4.71875V3.3125C13.1914 1.76164 11.9298 0.5 10.3789 0.5H3.3125C1.76164 0.5 0.5 1.76164 0.5 3.3125V15.6875C0.5 17.2384 1.76164 18.5 3.3125 18.5H10.3789C11.9298 18.5 13.1914 17.2384 13.1914 15.6875ZM16.4107 6.71771L17.9852 8.29219C18.6706 8.9776 18.6706 10.0927 17.9852 10.7781L16.4107 12.3526C16.2733 12.4899 16.0934 12.5586 15.9134 12.5586C15.7335 12.5586 15.5536 12.4899 15.4163 12.3526C15.1416 12.0781 15.1416 11.6329 15.4163 11.3583L16.5362 10.2383H8.09375C7.70538 10.2383 7.39062 9.92352 7.39062 9.53516C7.39062 9.14679 7.70538 8.83203 8.09375 8.83203H16.5362L15.4163 7.71198C15.1416 7.43745 15.1416 6.99223 15.4163 6.71771C15.6908 6.44305 16.136 6.44305 16.4107 6.71771Z" fill="#646464"/>
</svg>
