<svg width="21" height="18" viewBox="0 0 21 18" fill="none" xmlns="http://www.w3.org/2000/svg">
<g opacity="0.6" clip-path="url(#clip0)">
<path fill-rule="evenodd" clip-rule="evenodd" d="M21.1964 6.23437L16.1178 0H5.18529L0 6.21618L10.6063 18.0809L11.7272 16.8271L7.88974 12.5531L7.89965 12.5441L2.20874 6.17787L5.96518 1.67458H15.3256L18.9988 6.1839L13.9787 11.7995L15.1025 13.0512L21.1964 6.23437ZM11.7284 14.3167L12.8523 15.5685L13.9774 14.3098L12.8536 13.0581L11.7284 14.3167Z" fill="white"/>
<path fill-rule="evenodd" clip-rule="evenodd" d="M6.74531 3.34917H14.5334L16.8013 6.13333L12.855 10.5479L11.7311 9.29626L14.6042 6.08242L13.7415 5.02375H7.52545L6.62575 6.10218L10.0605 9.94404L10.0589 9.94547L11.7298 11.8066L13.9783 14.3108L12.852 15.5682L8.81341 11.0701L8.81947 11.0646L4.41724 6.14003L6.74531 3.34917Z" fill="white"/>
</g>
<defs>
<clipPath id="clip0">
<rect width="21" height="18" fill="white"/>
</clipPath>
</defs>
</svg>
