<svg width="134" height="33" viewBox="0 0 134 33" fill="none" xmlns="http://www.w3.org/2000/svg">
<path fill-rule="evenodd" clip-rule="evenodd" d="M65.4413 12.1739V19.3789H62.462V8.24845H64.4645L65.3925 8.74534C65.8483 8.49689 66.3245 8.31056 66.8211 8.18634C67.3176 8.06211 67.9159 8 68.616 8C69.6416 8 70.5208 8.10766 71.2534 8.32298C71.986 8.5383 72.5639 8.7619 72.9872 8.99379L72.1325 11.1553C70.6184 10.4762 69.1125 10.1366 67.6147 10.1366H67.3461C66.5972 10.1366 66.0966 10.2857 65.8442 10.5839C65.5919 10.882 65.4576 11.412 65.4413 12.1739ZM48.9793 24V19.0807C50.7701 19.2795 52.6831 19.3789 54.7181 19.3789H55.9635C56.9404 19.3789 57.6648 19.2008 58.137 18.8447C58.6091 18.4886 58.9021 18.0911 59.0161 17.6522C59.1301 17.2133 59.187 16.7288 59.187 16.1988V11.4286C59.187 10.8323 59.1341 10.3188 59.0283 9.8882C58.9225 9.45756 58.6335 9.0766 58.1614 8.74534C57.6893 8.41408 56.9566 8.24845 55.9635 8.24845H54.7181C52.4551 8.24845 50.4201 8.35611 48.613 8.57143L48.0025 8.24845H46V24H48.9793ZM55.0356 17.2422H49.7363C49.4758 17.2422 49.2968 17.2298 49.1991 17.205C49.1014 17.1801 49.0403 17.118 49.0159 17.0186C48.9915 16.9193 48.9793 16.7371 48.9793 16.472V10.5839C50.5096 10.4513 52.1214 10.3851 53.8145 10.3851H55.0356C55.4589 10.3851 55.7641 10.4638 55.9513 10.6211C56.1386 10.7785 56.224 11.0311 56.2078 11.3789V16.2484C56.2078 16.5631 56.0938 16.8075 55.8659 16.9814C55.6379 17.1553 55.3612 17.2422 55.0356 17.2422ZM83.1732 19.3789C84.7361 19.3789 85.9286 19.3126 86.7508 19.1801C87.5729 19.0476 87.984 18.8571 87.984 18.6087L87.0072 16.9938C84.8907 17.1594 82.701 17.2422 80.4381 17.2422H79.1926C78.3949 17.2422 78.0042 16.911 78.0205 16.2484V14.882C79.8439 15.0311 81.651 15.1056 83.4418 15.1056H87.7154V11.4286C87.7154 10.6335 87.5892 10.0083 87.3369 9.5528C87.0845 9.09731 86.6531 8.76605 86.0426 8.55901C85.4321 8.35197 84.5896 8.24845 83.5151 8.24845H78.2647C77.2878 8.24845 76.5634 8.4265 76.0912 8.78261C75.6191 9.13872 75.3261 9.53623 75.2121 9.97516C75.0981 10.4141 75.0412 10.8986 75.0412 11.4286V16.1988C75.0412 16.795 75.0941 17.3085 75.1999 17.7391C75.3057 18.1698 75.5947 18.5507 76.0668 18.882C76.5389 19.2133 77.2716 19.3789 78.2647 19.3789H83.1732ZM78.0205 12.9689H84.7361V11.3789C84.7361 11.0145 84.6995 10.7743 84.6262 10.6584C84.5529 10.5424 84.3576 10.4679 84.0401 10.4348C83.7438 10.4039 83.1745 10.3874 82.3322 10.3853L79.1926 10.3851C78.7856 10.3851 78.4885 10.4638 78.3013 10.6211C78.1141 10.7785 78.0205 11.0311 78.0205 11.3789V12.9689ZM93.9941 19.3789V10.9317C93.9941 10.6832 94.0388 10.53 94.1284 10.472C94.2179 10.4141 94.4173 10.3851 94.7267 10.3851H98.0967C98.5037 10.3851 98.8008 10.4638 98.988 10.6211C99.1753 10.7785 99.2689 11.0311 99.2689 11.3789V19.3789H102.248V10.9317C102.248 10.7164 102.293 10.5714 102.382 10.4969C102.472 10.4224 102.655 10.3851 102.932 10.3851H106.351C106.758 10.3851 107.055 10.4638 107.242 10.6211C107.429 10.7785 107.523 11.0311 107.523 11.3789V19.3789H110.502V11.4286C110.502 10.8986 110.445 10.4141 110.331 9.97516C110.217 9.53623 109.924 9.13872 109.452 8.78261C108.98 8.4265 108.256 8.24845 107.279 8.24845H106.058C103.876 8.24845 102.313 8.48861 101.369 8.96894C101.174 8.73706 100.86 8.55901 100.429 8.43478C99.9974 8.31056 99.5294 8.24845 99.0247 8.24845H97.8036C96.1105 8.24845 94.7185 8.34783 93.6277 8.54658L93.0172 8.24845H91.0148V19.3789H93.9941ZM117.123 8.24845V19.3789H114.144V8.24845H117.123ZM125.282 19.3789C127.301 19.3789 129.222 19.2133 131.045 18.882L131.998 19.3789H134V11.4286C134 10.8986 133.943 10.4141 133.829 9.97516C133.715 9.53623 133.422 9.13872 132.95 8.78261C132.478 8.4265 131.753 8.24845 130.776 8.24845L128.966 8.24865C127.049 8.25002 125.609 8.25823 124.647 8.27329C123.589 8.28986 122.799 8.3354 122.278 8.40994C121.757 8.48447 121.497 8.59627 121.497 8.74534L121.765 10.6335C123.263 10.4679 125.551 10.3851 128.628 10.3851H129.849C130.369 10.3851 130.695 10.472 130.825 10.646C130.956 10.8199 131.021 11.0642 131.021 11.3789V13.0186C128.986 12.8199 127.081 12.7205 125.306 12.7205H124.061C122.889 12.7205 122.01 13.0062 121.423 13.5776C120.837 14.1491 120.544 14.9814 120.544 16.0745C120.544 18.2774 121.717 19.3789 124.061 19.3789H125.282ZM124.696 17.2422H130.288C130.549 17.2422 130.724 17.2298 130.813 17.205C130.903 17.1801 130.96 17.1222 130.984 17.0311C131.008 16.94 131.021 16.7702 131.021 16.5217V14.6087H124.696C124.273 14.6087 123.971 14.7164 123.792 14.9317C123.613 15.147 123.524 15.4865 123.524 15.9503C123.524 16.3975 123.621 16.7246 123.817 16.9317C124.012 17.1387 124.305 17.2422 124.696 17.2422Z" fill="white"/>
<path fill-rule="evenodd" clip-rule="evenodd" d="M38.6764 11.3757L29.4095 0H9.46143L0 11.3425L19.353 32.9916L21.3981 30.7038L14.3961 22.9052L14.4142 22.8888L4.03021 11.2726L10.8845 3.05556H27.964L34.6665 11.2836L25.5065 21.5302L27.5571 23.8141L38.6764 11.3757ZM21.4004 26.1232L23.4511 28.4073L25.5041 26.1107L23.4535 23.8267L21.4004 26.1232Z" fill="#5294FF"/>
<path fill-rule="evenodd" clip-rule="evenodd" d="M12.308 6.11111H26.5186L30.6569 11.1913L23.4561 19.2465L21.4055 16.9626L26.6478 11.0984L25.0738 9.16667H13.7315L12.0899 11.1344L18.3571 18.1446L18.3541 18.1472L21.4031 21.543L25.5058 26.1125L23.4507 28.4068L16.0816 20.1992L16.0927 20.1892L8.06006 11.2035L12.308 6.11111Z" fill="white"/>
</svg>
