<svg width="134" height="34" viewBox="0 0 134 34" fill="none" xmlns="http://www.w3.org/2000/svg">
<path fill-rule="evenodd" clip-rule="evenodd" d="M65.4413 13.1739V20.3789H62.462V9.24845H64.4645L65.3925 9.74534C65.8483 9.49689 66.3245 9.31056 66.8211 9.18634C67.3176 9.06211 67.9159 9 68.616 9C69.6416 9 70.5208 9.10766 71.2534 9.32298C71.986 9.5383 72.5639 9.7619 72.9872 9.99379L72.1325 12.1553C70.6184 11.4762 69.1125 11.1366 67.6147 11.1366H67.3461C66.5972 11.1366 66.0966 11.2857 65.8442 11.5839C65.5919 11.882 65.4576 12.412 65.4413 13.1739ZM48.9793 25V20.0807C50.7701 20.2795 52.6831 20.3789 54.7181 20.3789H55.9635C56.9404 20.3789 57.6648 20.2008 58.137 19.8447C58.6091 19.4886 58.9021 19.0911 59.0161 18.6522C59.1301 18.2133 59.187 17.7288 59.187 17.1988V12.4286C59.187 11.8323 59.1341 11.3188 59.0283 10.8882C58.9225 10.4576 58.6335 10.0766 58.1614 9.74534C57.6893 9.41408 56.9566 9.24845 55.9635 9.24845H54.7181C52.4551 9.24845 50.4201 9.35611 48.613 9.57143L48.0025 9.24845H46V25H48.9793ZM55.0356 18.2422H49.7363C49.4758 18.2422 49.2968 18.2298 49.1991 18.205C49.1014 18.1801 49.0403 18.118 49.0159 18.0186C48.9915 17.9193 48.9793 17.7371 48.9793 17.472V11.5839C50.5096 11.4513 52.1214 11.3851 53.8145 11.3851H55.0356C55.4589 11.3851 55.7641 11.4638 55.9513 11.6211C56.1386 11.7785 56.224 12.0311 56.2078 12.3789V17.2484C56.2078 17.5631 56.0938 17.8075 55.8659 17.9814C55.6379 18.1553 55.3612 18.2422 55.0356 18.2422ZM83.1732 20.3789C84.7361 20.3789 85.9286 20.3126 86.7508 20.1801C87.5729 20.0476 87.984 19.8571 87.984 19.6087L87.0072 17.9938C84.8907 18.1594 82.701 18.2422 80.4381 18.2422H79.1926C78.3949 18.2422 78.0042 17.911 78.0205 17.2484V15.882C79.8439 16.0311 81.651 16.1056 83.4418 16.1056H87.7154V12.4286C87.7154 11.6335 87.5892 11.0083 87.3369 10.5528C87.0845 10.0973 86.6531 9.76605 86.0426 9.55901C85.4321 9.35197 84.5896 9.24845 83.5151 9.24845H78.2647C77.2878 9.24845 76.5634 9.4265 76.0912 9.78261C75.6191 10.1387 75.3261 10.5362 75.2121 10.9752C75.0981 11.4141 75.0412 11.8986 75.0412 12.4286V17.1988C75.0412 17.795 75.0941 18.3085 75.1999 18.7391C75.3057 19.1698 75.5947 19.5507 76.0668 19.882C76.5389 20.2133 77.2716 20.3789 78.2647 20.3789H83.1732ZM78.0205 13.9689H84.7361V12.3789C84.7361 12.0145 84.6995 11.7743 84.6262 11.6584C84.5529 11.5424 84.3576 11.4679 84.0401 11.4348C83.7438 11.4039 83.1745 11.3874 82.3322 11.3853L79.1926 11.3851C78.7856 11.3851 78.4885 11.4638 78.3013 11.6211C78.1141 11.7785 78.0205 12.0311 78.0205 12.3789V13.9689ZM93.9941 20.3789V11.9317C93.9941 11.6832 94.0388 11.53 94.1284 11.472C94.2179 11.4141 94.4173 11.3851 94.7267 11.3851H98.0967C98.5037 11.3851 98.8008 11.4638 98.988 11.6211C99.1753 11.7785 99.2689 12.0311 99.2689 12.3789V20.3789H102.248V11.9317C102.248 11.7164 102.293 11.5714 102.382 11.4969C102.472 11.4224 102.655 11.3851 102.932 11.3851H106.351C106.758 11.3851 107.055 11.4638 107.242 11.6211C107.429 11.7785 107.523 12.0311 107.523 12.3789V20.3789H110.502V12.4286C110.502 11.8986 110.445 11.4141 110.331 10.9752C110.217 10.5362 109.924 10.1387 109.452 9.78261C108.98 9.4265 108.256 9.24845 107.279 9.24845H106.058C103.876 9.24845 102.313 9.48861 101.369 9.96894C101.174 9.73706 100.86 9.55901 100.429 9.43478C99.9974 9.31056 99.5294 9.24845 99.0247 9.24845H97.8036C96.1105 9.24845 94.7185 9.34783 93.6277 9.54658L93.0172 9.24845H91.0148V20.3789H93.9941ZM117.123 9.24845V20.3789H114.144V9.24845H117.123ZM125.282 20.3789C127.301 20.3789 129.222 20.2133 131.045 19.882L131.998 20.3789H134V12.4286C134 11.8986 133.943 11.4141 133.829 10.9752C133.715 10.5362 133.422 10.1387 132.95 9.78261C132.478 9.4265 131.753 9.24845 130.776 9.24845L128.966 9.24865C127.049 9.25002 125.609 9.25823 124.647 9.27329C123.589 9.28986 122.799 9.3354 122.278 9.40994C121.757 9.48447 121.497 9.59627 121.497 9.74534L121.765 11.6335C123.263 11.4679 125.551 11.3851 128.628 11.3851H129.849C130.369 11.3851 130.695 11.472 130.825 11.646C130.956 11.8199 131.021 12.0642 131.021 12.3789V14.0186C128.986 13.8199 127.081 13.7205 125.306 13.7205H124.061C122.889 13.7205 122.01 14.0062 121.423 14.5776C120.837 15.1491 120.544 15.9814 120.544 17.0745C120.544 19.2774 121.717 20.3789 124.061 20.3789H125.282ZM124.696 18.2422H130.288C130.549 18.2422 130.724 18.2298 130.813 18.205C130.903 18.1801 130.96 18.1222 130.984 18.0311C131.008 17.94 131.021 17.7702 131.021 17.5217V15.6087H124.696C124.273 15.6087 123.971 15.7164 123.792 15.9317C123.613 16.147 123.524 16.4865 123.524 16.9503C123.524 17.3975 123.621 17.7246 123.817 17.9317C124.012 18.1387 124.305 18.2422 124.696 18.2422Z" fill="#31425F"/>
<path fill-rule="evenodd" clip-rule="evenodd" d="M38.6764 12.3757L29.4095 1H9.46143L0 12.3425L19.353 33.9916L21.3981 31.7038L14.3961 23.9052L14.4142 23.8888L4.03021 12.2726L10.8845 4.05556H27.964L34.6665 12.2836L25.5065 22.5302L27.5571 24.8141L38.6764 12.3757ZM21.4004 27.1232L23.4511 29.4073L25.5041 27.1107L23.4535 24.8267L21.4004 27.1232Z" fill="#5294FF"/>
<path fill-rule="evenodd" clip-rule="evenodd" d="M12.308 7.11111H26.5186L30.6569 12.1913L23.4561 20.2465L21.4055 17.9626L26.6478 12.0984L25.0738 10.1667H13.7315L12.0899 12.1344L18.3571 19.1446L18.3541 19.1472L21.4031 22.543L25.5058 27.1125L23.4507 29.4068L16.0816 21.1992L16.0927 21.1892L8.06006 12.2035L12.308 7.11111Z" fill="#31425F"/>
</svg>
