<svg width="100" height="100" viewBox="0 0 100 100" fill="none" xmlns="http://www.w3.org/2000/svg">
<circle opacity="0.35" cx="50.0001" cy="50" r="49" stroke="url(#paint0_market_linear)" stroke-width="2"/>
<g filter="url(#filter0_market_d)">
<path fill-rule="evenodd" clip-rule="evenodd" d="M66.3594 45.8507V54.75C68.0108 55.3215 69.4423 56.3948 70.4537 57.82C71.465 59.2451 72.0057 60.9507 72 62.6982C72 67.3416 68.2394 71.126 63.596 71.126C59.9787 71.126 56.8874 68.7714 55.6974 65.638H29.3675C29.2067 65.6327 29.054 65.5661 28.9407 65.4519C28.8275 65.3376 28.7622 65.1843 28.7584 65.0235V29.4169C28.7584 29.261 28.8203 29.1116 28.9304 29.0014C29.0406 28.8912 29.1901 28.8293 29.3459 28.8293C29.5017 28.8293 29.6511 28.8912 29.7613 29.0014C29.8715 29.1116 29.9334 29.261 29.9334 29.4169V64.463H32.3814V52.6982C32.3782 52.6234 32.3904 52.5488 32.417 52.4789C32.4437 52.4091 32.4843 52.3454 32.5365 52.2917C32.5886 52.2381 32.6511 52.1956 32.7202 52.167C32.7893 52.1384 32.8635 52.1241 32.9383 52.1251H37.8649V41.7423C37.8609 41.6673 37.8722 41.5922 37.8981 41.5217C37.924 41.4512 37.964 41.3867 38.0155 41.3321C38.0671 41.2775 38.1292 41.2339 38.1981 41.204C38.267 41.1741 38.3412 41.1585 38.4163 41.1582H43.3483V37.6338C43.3483 37.3093 43.5698 37.0456 43.8942 37.0456H49.3722C49.6966 37.0456 50.0069 37.3093 50.0069 37.6338V46.6417H54.2174V34.8948C54.2174 34.5704 54.5256 34.3038 54.8501 34.3038H60.3276C60.6525 34.3038 60.8759 34.5704 60.8759 34.8948V45.2708H65.806C65.881 45.2706 65.9552 45.2857 66.0242 45.3152C66.0932 45.3446 66.1554 45.3877 66.2072 45.442C66.2589 45.4962 66.2991 45.5604 66.3253 45.6307C66.3514 45.7009 66.363 45.7758 66.3594 45.8507ZM60.8759 54.7102C61.7412 54.4218 62.6469 54.2733 63.5589 54.2702V54.2703C64.1046 54.2688 64.6492 54.3219 65.1844 54.4288V51.9293H60.8759V54.7102ZM55.3924 40.9623V60.6019C56.0779 58.2536 57.6446 56.2995 59.7009 55.2086V40.9623H55.3924ZM65.1844 50.7543V46.4458H60.8759V50.7543H65.1844ZM59.7009 39.7873V35.4789H55.3924V39.7873H59.7009ZM54.2174 52.1251V47.8167H50.0069V52.1251H54.2174ZM48.8318 38.2206H44.5234V42.529H48.8318V38.2206ZM43.3483 48.0125V42.3332H39.0399V48.0125H43.3483ZM37.8649 58.9795V53.3002H33.5564V58.9795H37.8649ZM37.8649 60.1545H33.5564V64.463H37.8649V60.1545ZM39.0399 49.1876V52.6982V64.463H43.3483V49.1876H39.0399ZM48.8318 43.7041H44.5234V64.463H48.8318V43.7041ZM54.2174 53.3002H50.0069V64.463H54.2174V53.3002ZM59.3501 68.5589C60.5854 69.4531 62.071 69.9354 63.596 69.9374C65.3246 69.9371 66.9962 69.3188 68.3089 68.1941C69.6217 67.0694 70.4891 65.5124 70.7546 63.8042C71.0201 62.0961 70.6661 60.3493 69.7566 58.8792C68.8472 57.4091 67.4421 56.3126 65.7951 55.7876C65.6903 55.7858 65.5879 55.7557 65.4987 55.7007C64.254 55.3612 62.9413 55.3603 61.6962 55.6981C60.4511 56.0359 59.3188 56.7002 58.4165 57.6222C57.5141 58.5442 56.8744 59.6905 56.5634 60.9426C56.2525 62.1946 56.2816 63.5071 56.6478 64.7441C56.6834 64.8099 56.7059 64.8818 56.7143 64.9561C57.1926 66.4041 58.1148 67.6647 59.3501 68.5589ZM64.5608 59.7032C64.305 59.4474 63.9582 59.3036 63.5964 59.3032C63.2345 59.3032 62.8875 59.4469 62.6316 59.7028C62.3758 59.9587 62.232 60.3057 62.232 60.6676C62.232 61.0294 62.3758 61.3765 62.6316 61.6324C62.8875 61.8882 63.2345 62.032 63.5964 62.032C64.2254 62.0321 64.832 62.2656 65.2986 62.6874C65.7653 63.1091 66.0589 63.6889 66.1225 64.3147C66.1861 64.9404 66.0153 65.5675 65.6431 66.0746C65.2709 66.5816 64.7237 66.9324 64.1076 67.0592V67.8895C64.1076 68.0453 64.0457 68.1948 63.9356 68.305C63.8254 68.4151 63.6759 68.477 63.5201 68.477C63.3643 68.477 63.2149 68.4151 63.1047 68.305C62.9945 68.1948 62.9326 68.0453 62.9326 67.8895V67.0223C62.3946 66.8758 61.9196 66.5566 61.5807 66.1138C61.2418 65.671 61.0578 65.129 61.0571 64.5714C61.0571 64.4156 61.119 64.2662 61.2291 64.156C61.3393 64.0458 61.4888 63.9839 61.6446 63.9839C61.8004 63.9839 61.9498 64.0458 62.06 64.156C62.1702 64.2662 62.2321 64.4156 62.2321 64.5714C62.2321 64.8413 62.3121 65.1051 62.4621 65.3295C62.612 65.5538 62.8251 65.7287 63.0744 65.832C63.3237 65.9353 63.5981 65.9623 63.8627 65.9096C64.1274 65.857 64.3705 65.727 64.5613 65.5362C64.7521 65.3454 64.8821 65.1022 64.9347 64.8376C64.9873 64.5729 64.9603 64.2985 64.857 64.0492C64.7537 63.7999 64.5788 63.5868 64.3545 63.4369C64.1301 63.287 63.8663 63.207 63.5964 63.207C62.9809 63.2071 62.3863 62.9836 61.9233 62.5781C61.4602 62.1726 61.1602 61.6127 61.0791 61.0026C60.9979 60.3925 61.1411 59.7736 61.4821 59.2612C61.823 58.7488 62.3385 58.3776 62.9326 58.2168V57.608C62.9326 57.4522 62.9945 57.3027 63.1047 57.1926C63.2149 57.0824 63.3643 57.0205 63.5201 57.0205C63.6759 57.0205 63.8254 57.0824 63.9356 57.1926C64.0457 57.3027 64.1076 57.4522 64.1076 57.608V58.1798C64.6801 58.2983 65.1943 58.6103 65.5637 59.0634C65.9331 59.5165 66.1352 60.083 66.1359 60.6676C66.1359 60.8234 66.0741 60.9728 65.9639 61.083C65.8537 61.1932 65.7043 61.2551 65.5484 61.2551C65.3926 61.2551 65.2432 61.1932 65.133 61.083C65.0228 60.9728 64.9609 60.8234 64.9609 60.6676C64.9605 60.3058 64.8166 59.959 64.5608 59.7032Z" fill="url(#paint1_market_linear)"/>
</g>
<defs>
<filter id="filter0_market_d" x="24.7584" y="24.8293" width="51.2417" height="50.2966" filterUnits="userSpaceOnUse" color-interpolation-filters="sRGB">
<feFlood flood-opacity="0" result="BackgroundImageFix"/>
<feColorMatrix in="SourceAlpha" type="matrix" values="0 0 0 0 0 0 0 0 0 0 0 0 0 0 0 0 0 0 127 0"/>
<feOffset/>
<feGaussianBlur stdDeviation="2"/>
<feColorMatrix type="matrix" values="0 0 0 0 0.207187 0 0 0 0 0.975 0 0 0 0 0.781869 0 0 0 0.3 0"/>
<feBlend mode="normal" in2="BackgroundImageFix" result="effect1_dropShadow"/>
<feBlend mode="normal" in="SourceGraphic" in2="effect1_dropShadow" result="shape"/>
</filter>
<linearGradient id="paint0_market_linear" x1="72.3685" y1="89.3939" x2="-2.41928" y2="10.3859" gradientUnits="userSpaceOnUse">
<stop stop-color="#EB4A97"/>
<stop offset="1" stop-color="#8C43F6"/>
</linearGradient>
<linearGradient id="paint1_market_linear" x1="60.0517" y1="66.64" x2="28.465" y2="32.5252" gradientUnits="userSpaceOnUse">
<stop stop-color="#EB4A97"/>
<stop offset="1" stop-color="#8C43F6"/>
</linearGradient>
</defs>
</svg>
