<svg width="19" height="12" viewBox="0 0 19 12" fill="none" xmlns="http://www.w3.org/2000/svg">
<path fill-rule="evenodd" clip-rule="evenodd" d="M5.35867 0C8.31818 0 10.7171 2.68645 10.7171 6.00013C10.7171 9.3138 8.318 12 5.35867 12C2.39933 12 0 9.3138 0 6.00013C0 2.68645 2.39914 0 5.35867 0ZM13.9161 0.351472C15.3958 0.351472 16.5954 2.88021 16.5954 6.00013H16.5956C16.5956 9.11924 15.396 11.6487 13.9163 11.6487C12.4365 11.6487 11.2369 9.11924 11.2369 6.00013C11.2369 2.88101 12.4363 0.351472 13.9161 0.351472ZM19 6.00013C19 3.20536 18.578 0.93982 18.0577 0.93982C17.5374 0.93982 17.1156 3.20557 17.1156 6.00013C17.1156 8.7947 17.5372 11.0604 18.0577 11.0604C18.5781 11.0604 19 8.79408 19 6.00013Z" fill="#646464"/>
</svg>
