<svg width="39" height="33" viewBox="0 0 39 33" fill="none" xmlns="http://www.w3.org/2000/svg">
<path fill-rule="evenodd" clip-rule="evenodd" d="M38.6764 11.3757L29.4095 0H9.46143L0 11.3425L19.353 32.9916L21.3981 30.7038L14.3961 22.9052L14.4142 22.8888L4.03021 11.2726L10.8845 3.05556H27.964L34.6665 11.2836L25.5065 21.5302L27.5571 23.8141L38.6764 11.3757ZM21.4004 26.1232L23.4511 28.4073L25.5041 26.1107L23.4535 23.8267L21.4004 26.1232Z" fill="#5294FF"/>
<path fill-rule="evenodd" clip-rule="evenodd" d="M12.308 6.11108H26.5186L30.6569 11.1913L23.4561 19.2464L21.4055 16.9626L26.6478 11.0984L25.0738 9.16664H13.7315L12.0899 11.1344L18.3571 18.1445L18.3541 18.1471L21.4031 21.543L25.5058 26.1125L23.4507 28.4067L16.0816 20.1992L16.0927 20.1892L8.06006 11.2035L12.308 6.11108Z" fill="white"/>
</svg>
