<svg width="134" height="34" viewBox="0 0 134 34" fill="none" xmlns="http://www.w3.org/2000/svg">
<path fill-rule="evenodd" clip-rule="evenodd" d="M35.0952 9.94176H37.9373V11.701H38.0728C38.3702 11.349 38.7491 10.9972 39.1822 10.6996C39.9129 10.1854 40.9684 9.67114 42.4032 9.67114C46.0571 9.67114 48.8988 12.513 48.8988 16.8434C48.8988 21.1741 46.0571 24.0157 42.4032 24.0157C40.9684 24.0157 39.9129 23.5287 39.1822 23.0144C38.7491 22.7164 38.3702 22.3647 38.0728 21.9859H37.9373V28.8876H35.0952V9.94176ZM41.8616 21.4447C44.3249 21.4447 45.9216 19.8476 45.9216 16.8434C45.9216 13.8391 44.3249 12.2422 41.8616 12.2422C39.5611 12.2422 37.9373 13.8391 37.9373 16.8434C37.9373 19.8476 39.5611 21.4447 41.8616 21.4447Z" fill="black"/>
<path fill-rule="evenodd" clip-rule="evenodd" d="M51.0186 9.94189H53.8606V11.9717H53.9961C54.2125 11.5658 54.5103 11.214 54.8621 10.8892C55.4845 10.348 56.4045 9.8064 57.7849 9.8064H59.4092V12.5131H57.65C55.4845 12.5131 53.8606 14.0017 53.8606 16.3021V23.7453H51.0186V9.94189Z" fill="black"/>
<path fill-rule="evenodd" clip-rule="evenodd" d="M66.9997 9.67114C70.9244 9.67114 74.0369 12.8108 74.0369 16.8436V17.7906H62.8048C63.2379 20.0914 64.9701 21.4447 66.9997 21.4447C68.4071 21.4447 69.4086 21.0116 70.0312 20.4973C70.3832 20.2267 70.681 19.9019 70.9244 19.55H73.9014C73.5496 20.3888 73.0893 21.1469 72.4671 21.7965C71.3847 22.8791 69.7334 24.0157 66.9997 24.0157C63.0756 24.0157 59.9629 20.8763 59.9629 16.8436C59.9629 12.8108 63.0756 9.67114 66.9997 9.67114ZM71.0597 15.4902C70.7619 13.8663 69.463 12.2422 66.9997 12.2422C65.105 12.2422 63.373 13.4332 62.9401 15.4902H71.0597Z" fill="black"/>
<path fill-rule="evenodd" clip-rule="evenodd" d="M76.0938 9.94176H78.9358V11.8365H79.0713C79.3147 11.4303 79.6125 11.0784 79.9913 10.7536C80.641 10.2124 81.6152 9.67114 83.1309 9.67114C84.8901 9.67114 86 10.3205 86.6763 10.9703C87.0826 11.349 87.3804 11.7821 87.5969 12.2422H87.7322C87.9756 11.7821 88.3276 11.349 88.7876 10.9703C89.5184 10.3205 90.7093 9.67114 92.4685 9.67114C95.608 9.67114 97.6112 11.674 97.6112 15.4902V23.7451H94.769V15.6255C94.769 13.3249 93.7135 12.2422 91.7918 12.2422C89.9243 12.2422 88.2736 13.8661 88.2736 16.1669V23.7451H85.4314V15.6255C85.4314 13.3249 84.3759 12.2422 82.4542 12.2422C80.5867 12.2422 78.9358 13.8661 78.9358 16.1669V23.7451H76.0938V9.94176Z" fill="black"/>
<path fill-rule="evenodd" clip-rule="evenodd" d="M101.753 4.52856C102.701 4.52856 103.458 5.28644 103.458 6.23379C103.458 7.18114 102.701 7.91166 101.753 7.91166C100.806 7.91166 100.075 7.18114 100.075 6.23379C100.075 5.28644 100.806 4.52856 101.753 4.52856ZM100.346 23.7452H103.188V9.94185H100.346V23.7452Z" fill="black"/>
<path fill-rule="evenodd" clip-rule="evenodd" d="M111.692 9.67114C113.1 9.67114 114.183 10.1854 114.913 10.6996C115.346 10.9972 115.725 11.3492 116.023 11.701H116.158V9.94176H119V23.7451H116.158V21.8506H116.023C115.725 22.2565 115.346 22.6083 114.913 22.9333C114.183 23.4745 113.1 24.0157 111.692 24.0157C108.038 24.0157 105.197 21.1741 105.197 16.8436C105.197 12.5132 108.038 9.67114 111.692 9.67114ZM112.234 21.4447C114.534 21.4447 116.158 19.8478 116.158 16.8436C116.158 13.8393 114.534 12.2422 112.234 12.2422C109.771 12.2422 108.174 13.8393 108.174 16.8436C108.174 19.8478 109.771 21.4447 112.234 21.4447Z" fill="black"/>
<path fill-rule="evenodd" clip-rule="evenodd" d="M7.00339 9.8864H18.7485C19.4163 9.8864 19.8021 10.6441 19.4095 11.1842L13.8199 18.87C13.4269 19.4102 13.8128 20.1679 14.4807 20.1679H19.4067C19.6681 20.1679 19.9137 20.0427 20.0675 19.8311L25.5956 12.2301C25.8039 11.9434 25.8039 11.5554 25.5956 11.2687L20.7491 4.6051C20.5953 4.39345 20.3496 4.26831 20.0882 4.26831H5.66361C5.40205 4.26831 5.15657 4.39345 5.00278 4.6051L0.156243 11.2687C-0.052081 11.5554 -0.052081 11.9436 0.156243 12.2301L12.2148 28.811C12.5411 29.2596 13.2106 29.2596 13.5369 28.811L15.9996 25.4246C16.2081 25.1379 16.2081 24.7497 15.9996 24.463L6.34256 11.1842C5.94976 10.6441 6.33554 9.8864 7.00339 9.8864Z" fill="#5294FF"/>
</svg>
