<svg width="18" height="15" viewBox="0 0 18 15" fill="none" xmlns="http://www.w3.org/2000/svg">
<path opacity="0.5" fill-rule="evenodd" clip-rule="evenodd" d="M5.74732 3.38723H12.5886C12.9776 3.38723 13.2023 3.84405 12.9736 4.1697L9.71779 8.80359C9.48888 9.12924 9.7137 9.58606 10.1027 9.58606H12.972C13.1243 9.58606 13.2674 9.51061 13.357 9.38301L16.577 4.80028C16.6983 4.62742 16.6983 4.39349 16.577 4.22064L13.7539 0.203058C13.6644 0.0754501 13.5213 0 13.369 0H4.96692C4.81457 0 4.67158 0.0754501 4.582 0.203058L1.75898 4.22064C1.63763 4.39349 1.63763 4.62753 1.75898 4.80028L8.78288 14.7971C8.97292 15.0676 9.36291 15.0676 9.55295 14.7971L10.9874 12.7554C11.1089 12.5826 11.1089 12.3485 10.9874 12.1757L5.3624 4.1697C5.1336 3.84405 5.35831 3.38723 5.74732 3.38723Z" fill="white"/>
</svg>
