<svg width="22" height="19" viewBox="0 0 22 19" fill="none" xmlns="http://www.w3.org/2000/svg">
<path d="M21.2837 6.28436C21.2731 6.21649 21.2516 6.15005 21.2254 6.08608C21.2196 6.07223 21.2196 6.05812 21.2133 6.04408C21.2125 6.0433 21.2114 6.04174 21.211 6.04096C21.211 6.0394 21.2102 6.03862 21.2094 6.03764L18.8546 1.03758C18.8492 1.02608 18.839 1.01574 18.8328 1.00404C18.8246 0.989994 18.8218 0.972831 18.8128 0.958918C18.7949 0.928493 18.7703 0.904829 18.7492 0.877719C18.7277 0.849829 18.7081 0.819728 18.6843 0.795024C18.6492 0.758357 18.609 0.727086 18.568 0.696596C18.5423 0.676312 18.5181 0.653883 18.49 0.637435C18.4424 0.608765 18.3908 0.588286 18.3385 0.568717C18.3124 0.558771 18.287 0.543558 18.2596 0.535952C18.1784 0.513067 18.0941 0.5 18.0067 0.5H10.5969H4.12885C4.04648 0.5 3.96665 0.511507 3.88896 0.531791C3.86185 0.539007 3.83708 0.553115 3.8103 0.562281C3.76271 0.580225 3.71388 0.595892 3.66922 0.621442C3.64068 0.63789 3.61728 0.659864 3.59069 0.677872C3.55239 0.704982 3.5128 0.730922 3.4788 0.763753C3.45481 0.787352 3.4357 0.815242 3.41437 0.841832C3.38921 0.871348 3.35976 0.898067 3.33922 0.931613L0.141289 5.9318C0.129391 5.95131 0.123735 5.97341 0.112943 5.99408C0.103777 6.01047 0.0885639 6.02451 0.0805675 6.04245C0.072181 6.06124 0.0717909 6.08094 0.0637944 6.09888C0.0466313 6.14472 0.0329788 6.19042 0.0221869 6.23788C0.0141904 6.27552 0.00736419 6.31238 0.00346348 6.3495C-0.00102234 6.39631 -0.000632268 6.44299 0.00170816 6.49025C0.00463369 6.52874 0.00736419 6.56658 0.0134103 6.60402C0.0217968 6.65005 0.0362944 6.69322 0.0509221 6.73756C0.0641845 6.77527 0.0760817 6.81291 0.0938949 6.84847C0.099746 6.86076 0.102281 6.8748 0.108133 6.88748C0.124906 6.91868 0.149675 6.94313 0.170219 6.97121C0.186602 6.99559 0.196549 7.02121 0.215272 7.04305L9.88097 18.4596C10.0477 18.6563 10.2975 18.7961 10.5466 18.789C10.5497 18.789 10.5529 18.7906 10.5549 18.7906C10.5689 18.7913 10.5821 18.7913 10.5962 18.7913C10.5966 18.7913 10.5966 18.7913 10.5966 18.7913C10.5966 18.7913 10.5973 18.7913 10.5981 18.7913C10.6817 18.7913 10.7636 18.7757 10.8425 18.7547C10.8659 18.7473 10.887 18.7398 10.9104 18.7309C10.9686 18.7106 11.0252 18.6833 11.0791 18.6512C11.097 18.6407 11.1161 18.6302 11.1337 18.6184C11.1974 18.5743 11.2571 18.5236 11.3086 18.4623L21.0736 7.04598C21.086 7.03115 21.0931 7.01321 21.104 6.99754C21.1196 6.97784 21.1392 6.96146 21.1525 6.93916C21.1665 6.91712 21.1735 6.89235 21.1852 6.86875C21.2017 6.83852 21.2172 6.80803 21.2294 6.77527C21.2477 6.72768 21.2602 6.67937 21.2712 6.631C21.2782 6.59817 21.2861 6.56697 21.2891 6.5342C21.2954 6.48031 21.293 6.42778 21.2891 6.37434C21.2868 6.34274 21.2883 6.31323 21.2837 6.28436Z" fill="#5294FF"/>
</svg>
