<svg width="44" height="38" viewBox="0 0 44 38" fill="none" xmlns="http://www.w3.org/2000/svg">
<path d="M33.3159 11.6142C32.5117 11.1632 31.4778 11.1632 30.5587 11.6142L24.1253 15.3353L19.7598 17.7033L13.4413 21.4243C12.6371 21.8754 11.6031 21.8754 10.6841 21.4243L5.74413 18.4926C4.93995 18.0415 4.36554 17.1395 4.36554 16.1246V10.4866C4.36554 9.58457 4.82507 8.68249 5.74413 8.11869L10.6841 5.2997C11.4883 4.84866 12.5222 4.84866 13.4413 5.2997L18.3812 8.23145C19.1854 8.68249 19.7598 9.58457 19.7598 10.5994V14.3205L24.1253 11.8398V8.00593C24.1253 7.10386 23.6658 6.20178 22.7467 5.63798L13.5561 0.338279C12.752 -0.11276 11.718 -0.11276 10.799 0.338279L1.37859 5.75074C0.45953 6.20178 0 7.10386 0 8.00593V18.6053C0 19.5074 0.45953 20.4095 1.37859 20.9733L10.6841 26.273C11.4883 26.724 12.5222 26.724 13.4413 26.273L19.7598 22.6647L24.1253 20.184L30.4439 16.5757C31.248 16.1246 32.282 16.1246 33.201 16.5757L38.141 19.3947C38.9452 19.8457 39.5196 20.7478 39.5196 21.7626V27.4006C39.5196 28.3027 39.0601 29.2047 38.141 29.7685L33.3159 32.5875C32.5117 33.0386 31.4778 33.0386 30.5587 32.5875L25.6188 29.7685C24.8146 29.3175 24.2402 28.4154 24.2402 27.4006V23.7923L19.8747 26.273V29.9941C19.8747 30.8961 20.3342 31.7982 21.2533 32.362L30.5587 37.6617C31.3629 38.1128 32.3969 38.1128 33.3159 37.6617L42.6214 32.362C43.4256 31.911 44 31.0089 44 29.9941V19.2819C44 18.3798 43.5405 17.4777 42.6214 16.9139L33.3159 11.6142Z" fill="#8247E5"/>
</svg>
