<svg width="14" height="17" viewBox="0 0 14 17" fill="none" xmlns="http://www.w3.org/2000/svg">
<path d="M7.2783 16.1233L13.0577 10.3451C13.2226 10.1802 13.3132 9.96039 13.3132 9.72596C13.3132 9.49128 13.2225 9.27161 13.0577 9.10665L12.5328 8.58199C12.368 8.41715 12.1481 8.32638 11.9135 8.32638C11.679 8.32638 11.4516 8.41715 11.2869 8.58199L7.90802 11.9529V1.24342C7.90802 0.760559 7.52992 0.379028 7.0469 0.379028H6.30487C5.82184 0.379028 5.40563 0.760559 5.40563 1.24342V11.9911L2.00787 8.58211C1.8429 8.41739 1.62893 8.3265 1.39437 8.3265C1.16 8.3265 0.94285 8.41739 0.778009 8.58211L0.254874 9.10677C0.0899001 9.27173 0 9.4914 0 9.72608C0 9.96051 0.0910741 10.1803 0.256036 10.3453L6.03522 16.1234C6.20066 16.2887 6.42166 16.3796 6.65646 16.379C6.8921 16.3795 7.1131 16.2887 7.2783 16.1233Z" fill="url(#paint1_put_linear)"/>
<defs>
<linearGradient id="paint1_put_linear" x1="9.63452" y1="14.6821" x2="-2.25062" y2="4.23471" gradientUnits="userSpaceOnUse">
<stop stop-color="#EB4A97"/>
<stop offset="1" stop-color="#8C43F6"/>
</linearGradient>
</defs>
</svg>
