<svg width="119" height="49" viewBox="0 0 119 49" fill="none" xmlns="http://www.w3.org/2000/svg">
<mask id="path-1-outside-1" maskUnits="userSpaceOnUse" x="0" y="0" width="119" height="49" fill="black">
<rect fill="white" width="119" height="49"/>
<path fill-rule="evenodd" clip-rule="evenodd" d="M13 1C6.37258 1 1 6.37258 1 13V27C1 33.6274 6.37258 39 13 39H50.1186L57.8774 46.7588L65.6362 39H106C112.627 39 118 33.6274 118 27V13C118 6.37258 112.627 1 106 1H13Z"/>
</mask>
<path fill-rule="evenodd" clip-rule="evenodd" d="M13 1C6.37258 1 1 6.37258 1 13V27C1 33.6274 6.37258 39 13 39H50.1186L57.8774 46.7588L65.6362 39H106C112.627 39 118 33.6274 118 27V13C118 6.37258 112.627 1 106 1H13Z" fill="black" fill-opacity="0.9"/>
<path d="M50.1186 39L50.8257 38.2929L50.5329 38H50.1186V39ZM57.8774 46.7588L57.1703 47.4659L57.8774 48.173L58.5845 47.4659L57.8774 46.7588ZM65.6362 39V38H65.222L64.9291 38.2929L65.6362 39ZM2 13C2 6.92487 6.92487 2 13 2V0C5.8203 0 0 5.8203 0 13H2ZM2 27V13H0V27H2ZM13 38C6.92487 38 2 33.0751 2 27H0C0 34.1797 5.8203 40 13 40V38ZM50.1186 38H13V40H50.1186V38ZM58.5845 46.0517L50.8257 38.2929L49.4115 39.7071L57.1703 47.4659L58.5845 46.0517ZM64.9291 38.2929L57.1703 46.0517L58.5845 47.4659L66.3434 39.7071L64.9291 38.2929ZM106 38H65.6362V40H106V38ZM117 27C117 33.0751 112.075 38 106 38V40C113.18 40 119 34.1797 119 27H117ZM117 13V27H119V13H117ZM106 2C112.075 2 117 6.92487 117 13H119C119 5.8203 113.18 0 106 0V2ZM13 2H106V0H13V2Z" fill="white" fill-opacity="0.15" mask="url(#path-1-outside-1)"/>
<path d="M16.3446 25V15.2H19.7886C20.4793 15.2 21.0486 15.312 21.4966 15.536C21.9539 15.7507 22.2946 16.0493 22.5186 16.432C22.7426 16.8053 22.8546 17.2253 22.8546 17.692C22.8546 18.3267 22.6819 18.826 22.3366 19.19C22.0006 19.554 21.5946 19.806 21.1186 19.946C21.4826 20.0113 21.8139 20.156 22.1126 20.38C22.4113 20.604 22.6446 20.884 22.8126 21.22C22.9899 21.556 23.0786 21.9247 23.0786 22.326C23.0786 22.8207 22.9573 23.2733 22.7146 23.684C22.4719 24.0853 22.1126 24.4073 21.6366 24.65C21.1606 24.8833 20.5819 25 19.9006 25H16.3446ZM17.5206 19.484H19.7046C20.3299 19.484 20.8106 19.3393 21.1466 19.05C21.4826 18.7513 21.6506 18.3407 21.6506 17.818C21.6506 17.3233 21.4826 16.9267 21.1466 16.628C20.8199 16.3293 20.3253 16.18 19.6626 16.18H17.5206V19.484ZM17.5206 24.02H19.7746C20.4466 24.02 20.9646 23.866 21.3286 23.558C21.6926 23.2407 21.8746 22.802 21.8746 22.242C21.8746 21.6913 21.6833 21.2527 21.3006 20.926C20.9179 20.59 20.3999 20.422 19.7466 20.422H17.5206V24.02ZM27.8185 25.168C27.1558 25.168 26.5678 25.0187 26.0545 24.72C25.5411 24.412 25.1351 23.9873 24.8365 23.446C24.5471 22.9047 24.4025 22.2653 24.4025 21.528C24.4025 20.8 24.5471 20.1653 24.8365 19.624C25.1258 19.0733 25.5271 18.6487 26.0405 18.35C26.5631 18.042 27.1651 17.888 27.8465 17.888C28.5185 17.888 29.0971 18.042 29.5825 18.35C30.0771 18.6487 30.4551 19.0453 30.7165 19.54C30.9778 20.0347 31.1085 20.5667 31.1085 21.136C31.1085 21.2387 31.1038 21.3413 31.0945 21.444C31.0945 21.5467 31.0945 21.6633 31.0945 21.794H25.5645C25.5925 22.326 25.7138 22.7693 25.9285 23.124C26.1525 23.4693 26.4278 23.7307 26.7545 23.908C27.0905 24.0853 27.4451 24.174 27.8185 24.174C28.3038 24.174 28.7098 24.062 29.0365 23.838C29.3631 23.614 29.6011 23.3107 29.7505 22.928H30.9125C30.7258 23.572 30.3665 24.1087 29.8345 24.538C29.3118 24.958 28.6398 25.168 27.8185 25.168ZM27.8185 18.882C27.2585 18.882 26.7591 19.0547 26.3205 19.4C25.8911 19.736 25.6438 20.2307 25.5785 20.884H29.9465C29.9185 20.2587 29.7038 19.7687 29.3025 19.414C28.9011 19.0593 28.4065 18.882 27.8185 18.882ZM35.3272 25.168C34.4965 25.168 33.8058 24.958 33.2552 24.538C32.7045 24.118 32.3825 23.5487 32.2892 22.83H33.4932C33.5678 23.194 33.7592 23.5113 34.0672 23.782C34.3845 24.0433 34.8092 24.174 35.3412 24.174C35.8358 24.174 36.1998 24.0713 36.4332 23.866C36.6665 23.6513 36.7832 23.3993 36.7832 23.11C36.7832 22.69 36.6292 22.41 36.3212 22.27C36.0225 22.13 35.5978 22.004 35.0472 21.892C34.6738 21.8173 34.3005 21.71 33.9272 21.57C33.5538 21.43 33.2412 21.234 32.9892 20.982C32.7372 20.7207 32.6112 20.38 32.6112 19.96C32.6112 19.3533 32.8352 18.8587 33.2832 18.476C33.7405 18.084 34.3565 17.888 35.1312 17.888C35.8685 17.888 36.4705 18.0747 36.9372 18.448C37.4132 18.812 37.6885 19.3347 37.7632 20.016H36.6012C36.5545 19.6613 36.4005 19.386 36.1392 19.19C35.8872 18.9847 35.5465 18.882 35.1172 18.882C34.6972 18.882 34.3705 18.9707 34.1372 19.148C33.9132 19.3253 33.8012 19.5587 33.8012 19.848C33.8012 20.128 33.9458 20.3473 34.2352 20.506C34.5338 20.6647 34.9352 20.8 35.4392 20.912C35.8685 21.0053 36.2745 21.122 36.6572 21.262C37.0492 21.3927 37.3665 21.5933 37.6092 21.864C37.8612 22.1253 37.9872 22.508 37.9872 23.012C37.9965 23.6373 37.7585 24.1553 37.2732 24.566C36.7972 24.9673 36.1485 25.168 35.3272 25.168ZM42.0967 25C41.4621 25 40.9627 24.846 40.5987 24.538C40.2347 24.23 40.0527 23.6747 40.0527 22.872V19.05H38.8487V18.056H40.0527L40.2067 16.39H41.2287V18.056H43.2727V19.05H41.2287V22.872C41.2287 23.3107 41.3174 23.6093 41.4947 23.768C41.6721 23.9173 41.9847 23.992 42.4327 23.992H43.1607V25H42.0967ZM51.2159 22.816C50.8239 22.816 50.4645 22.7647 50.1379 22.662L49.4379 23.32C49.5405 23.3947 49.6665 23.46 49.8159 23.516C49.9745 23.5627 50.1985 23.6093 50.4879 23.656C50.7772 23.6933 51.1832 23.7353 51.7059 23.782C52.6392 23.8473 53.3065 24.062 53.7079 24.426C54.1092 24.79 54.3099 25.266 54.3099 25.854C54.3099 26.2553 54.1979 26.638 53.9739 27.002C53.7592 27.366 53.4232 27.6647 52.9659 27.898C52.5179 28.1313 51.9392 28.248 51.2299 28.248C50.6045 28.248 50.0492 28.164 49.5639 27.996C49.0785 27.8373 48.7005 27.59 48.4299 27.254C48.1592 26.9273 48.0239 26.512 48.0239 26.008C48.0239 25.7467 48.0939 25.462 48.2339 25.154C48.3739 24.8553 48.6352 24.5707 49.0179 24.3C48.8125 24.216 48.6352 24.1273 48.4859 24.034C48.3459 23.9313 48.2152 23.8193 48.0939 23.698V23.376L49.2839 22.2C48.7332 21.7333 48.4579 21.1173 48.4579 20.352C48.4579 19.8947 48.5652 19.4793 48.7799 19.106C48.9945 18.7327 49.3072 18.4387 49.7179 18.224C50.1285 18 50.6279 17.888 51.2159 17.888C51.6172 17.888 51.9812 17.944 52.3079 18.056H54.8699V18.938L53.5679 18.994C53.8385 19.386 53.9739 19.8387 53.9739 20.352C53.9739 20.8093 53.8619 21.2247 53.6379 21.598C53.4232 21.9713 53.1105 22.27 52.6999 22.494C52.2985 22.7087 51.8039 22.816 51.2159 22.816ZM51.2159 21.85C51.7105 21.85 52.1025 21.724 52.3919 21.472C52.6905 21.2107 52.8399 20.8373 52.8399 20.352C52.8399 19.876 52.6905 19.512 52.3919 19.26C52.1025 18.9987 51.7105 18.868 51.2159 18.868C50.7119 18.868 50.3105 18.9987 50.0119 19.26C49.7225 19.512 49.5779 19.876 49.5779 20.352C49.5779 20.8373 49.7225 21.2107 50.0119 21.472C50.3105 21.724 50.7119 21.85 51.2159 21.85ZM49.1719 25.896C49.1719 26.3627 49.3679 26.708 49.7599 26.932C50.1519 27.1653 50.6419 27.282 51.2299 27.282C51.8085 27.282 52.2705 27.156 52.6159 26.904C52.9705 26.652 53.1479 26.316 53.1479 25.896C53.1479 25.5973 53.0265 25.336 52.7839 25.112C52.5412 24.8973 52.0932 24.7713 51.4399 24.734C50.9265 24.6967 50.4832 24.65 50.1099 24.594C49.7272 24.7993 49.4752 25.0187 49.3539 25.252C49.2325 25.4947 49.1719 25.7093 49.1719 25.896ZM58.5065 25.168C57.9278 25.168 57.4471 25.07 57.0645 24.874C56.6818 24.678 56.3971 24.4167 56.2105 24.09C56.0238 23.7633 55.9305 23.4087 55.9305 23.026C55.9305 22.3167 56.2011 21.7707 56.7425 21.388C57.2838 21.0053 58.0211 20.814 58.9545 20.814H60.8305V20.73C60.8305 20.1233 60.6718 19.666 60.3545 19.358C60.0371 19.0407 59.6125 18.882 59.0805 18.882C58.6231 18.882 58.2265 18.9987 57.8905 19.232C57.5638 19.456 57.3585 19.7873 57.2745 20.226H56.0705C56.1171 19.722 56.2851 19.2973 56.5745 18.952C56.8731 18.6067 57.2418 18.3453 57.6805 18.168C58.1191 17.9813 58.5858 17.888 59.0805 17.888C60.0511 17.888 60.7791 18.1493 61.2645 18.672C61.7591 19.1853 62.0065 19.8713 62.0065 20.73V25H60.9565L60.8865 23.754C60.6905 24.146 60.4011 24.482 60.0185 24.762C59.6451 25.0327 59.1411 25.168 58.5065 25.168ZM58.6885 24.174C59.1365 24.174 59.5191 24.0573 59.8365 23.824C60.1631 23.5907 60.4105 23.2873 60.5785 22.914C60.7465 22.5407 60.8305 22.1487 60.8305 21.738V21.724H59.0525C58.3618 21.724 57.8718 21.8453 57.5825 22.088C57.3025 22.3213 57.1625 22.6153 57.1625 22.97C57.1625 23.334 57.2931 23.628 57.5545 23.852C57.8251 24.0667 58.2031 24.174 58.6885 24.174ZM66.4307 25.168C65.6 25.168 64.9094 24.958 64.3587 24.538C63.808 24.118 63.486 23.5487 63.3927 22.83H64.5967C64.6714 23.194 64.8627 23.5113 65.1707 23.782C65.488 24.0433 65.9127 24.174 66.4447 24.174C66.9394 24.174 67.3034 24.0713 67.5367 23.866C67.77 23.6513 67.8867 23.3993 67.8867 23.11C67.8867 22.69 67.7327 22.41 67.4247 22.27C67.126 22.13 66.7014 22.004 66.1507 21.892C65.7774 21.8173 65.404 21.71 65.0307 21.57C64.6574 21.43 64.3447 21.234 64.0927 20.982C63.8407 20.7207 63.7147 20.38 63.7147 19.96C63.7147 19.3533 63.9387 18.8587 64.3867 18.476C64.844 18.084 65.46 17.888 66.2347 17.888C66.972 17.888 67.574 18.0747 68.0407 18.448C68.5167 18.812 68.792 19.3347 68.8667 20.016H67.7047C67.658 19.6613 67.504 19.386 67.2427 19.19C66.9907 18.9847 66.65 18.882 66.2207 18.882C65.8007 18.882 65.474 18.9707 65.2407 19.148C65.0167 19.3253 64.9047 19.5587 64.9047 19.848C64.9047 20.128 65.0494 20.3473 65.3387 20.506C65.6374 20.6647 66.0387 20.8 66.5427 20.912C66.972 21.0053 67.378 21.122 67.7607 21.262C68.1527 21.3927 68.47 21.5933 68.7127 21.864C68.9647 22.1253 69.0907 22.508 69.0907 23.012C69.1 23.6373 68.862 24.1553 68.3767 24.566C67.9007 24.9673 67.252 25.168 66.4307 25.168ZM74.4758 28.08V18.056H75.5398L75.6518 19.204C75.8758 18.868 76.1931 18.5647 76.6038 18.294C77.0238 18.0233 77.5558 17.888 78.1998 17.888C78.8904 17.888 79.4924 18.0467 80.0058 18.364C80.5191 18.6813 80.9158 19.1153 81.1958 19.666C81.4851 20.2167 81.6298 20.842 81.6298 21.542C81.6298 22.242 81.4851 22.8673 81.1958 23.418C80.9158 23.9593 80.5144 24.3887 79.9918 24.706C79.4784 25.014 78.8764 25.168 78.1858 25.168C77.6164 25.168 77.1078 25.0513 76.6598 24.818C76.2211 24.5847 75.8851 24.258 75.6518 23.838V28.08H74.4758ZM78.0598 24.146C78.5264 24.146 78.9371 24.0387 79.2918 23.824C79.6464 23.6 79.9264 23.292 80.1318 22.9C80.3371 22.508 80.4398 22.0507 80.4398 21.528C80.4398 21.0053 80.3371 20.548 80.1318 20.156C79.9264 19.764 79.6464 19.4607 79.2918 19.246C78.9371 19.022 78.5264 18.91 78.0598 18.91C77.5931 18.91 77.1824 19.022 76.8278 19.246C76.4731 19.4607 76.1931 19.764 75.9878 20.156C75.7824 20.548 75.6798 21.0053 75.6798 21.528C75.6798 22.0507 75.7824 22.508 75.9878 22.9C76.1931 23.292 76.4731 23.6 76.8278 23.824C77.1824 24.0387 77.5931 24.146 78.0598 24.146ZM83.2668 25V18.056H84.3308L84.4288 19.386C84.6434 18.9287 84.9701 18.5647 85.4088 18.294C85.8474 18.0233 86.3888 17.888 87.0328 17.888V19.12H86.7108C86.3001 19.12 85.9221 19.1947 85.5768 19.344C85.2314 19.484 84.9561 19.7267 84.7508 20.072C84.5454 20.4173 84.4428 20.8933 84.4428 21.5V25H83.2668ZM89.0667 16.516C88.8334 16.516 88.6374 16.4413 88.4787 16.292C88.3294 16.1333 88.2547 15.9373 88.2547 15.704C88.2547 15.48 88.3294 15.2933 88.4787 15.144C88.6374 14.9947 88.8334 14.92 89.0667 14.92C89.2907 14.92 89.4821 14.9947 89.6407 15.144C89.7994 15.2933 89.8787 15.48 89.8787 15.704C89.8787 15.9373 89.7994 16.1333 89.6407 16.292C89.4821 16.4413 89.2907 16.516 89.0667 16.516ZM88.4787 25V18.056H89.6547V25H88.4787ZM94.8943 25.168C94.2317 25.168 93.6343 25.0187 93.1023 24.72C92.5797 24.412 92.1643 23.9873 91.8563 23.446C91.5577 22.8953 91.4083 22.256 91.4083 21.528C91.4083 20.8 91.5577 20.1653 91.8563 19.624C92.1643 19.0733 92.5797 18.6487 93.1023 18.35C93.6343 18.042 94.2317 17.888 94.8943 17.888C95.7157 17.888 96.4063 18.1027 96.9663 18.532C97.5357 18.9613 97.895 19.5353 98.0443 20.254H96.8403C96.747 19.8247 96.5183 19.4933 96.1543 19.26C95.7903 19.0173 95.3657 18.896 94.8803 18.896C94.4883 18.896 94.1197 18.994 93.7743 19.19C93.429 19.386 93.149 19.68 92.9343 20.072C92.7197 20.464 92.6123 20.9493 92.6123 21.528C92.6123 22.1067 92.7197 22.592 92.9343 22.984C93.149 23.376 93.429 23.6747 93.7743 23.88C94.1197 24.076 94.4883 24.174 94.8803 24.174C95.3657 24.174 95.7903 24.0573 96.1543 23.824C96.5183 23.5813 96.747 23.2407 96.8403 22.802H98.0443C97.9043 23.502 97.5497 24.0713 96.9803 24.51C96.411 24.9487 95.7157 25.168 94.8943 25.168ZM102.809 25.168C102.146 25.168 101.558 25.0187 101.045 24.72C100.531 24.412 100.125 23.9873 99.8267 23.446C99.5374 22.9047 99.3927 22.2653 99.3927 21.528C99.3927 20.8 99.5374 20.1653 99.8267 19.624C100.116 19.0733 100.517 18.6487 101.031 18.35C101.553 18.042 102.155 17.888 102.837 17.888C103.509 17.888 104.087 18.042 104.573 18.35C105.067 18.6487 105.445 19.0453 105.707 19.54C105.968 20.0347 106.099 20.5667 106.099 21.136C106.099 21.2387 106.094 21.3413 106.085 21.444C106.085 21.5467 106.085 21.6633 106.085 21.794H100.555C100.583 22.326 100.704 22.7693 100.919 23.124C101.143 23.4693 101.418 23.7307 101.745 23.908C102.081 24.0853 102.435 24.174 102.809 24.174C103.294 24.174 103.7 24.062 104.027 23.838C104.353 23.614 104.591 23.3107 104.741 22.928H105.903C105.716 23.572 105.357 24.1087 104.825 24.538C104.302 24.958 103.63 25.168 102.809 25.168ZM102.809 18.882C102.249 18.882 101.749 19.0547 101.311 19.4C100.881 19.736 100.634 20.2307 100.569 20.884H104.937C104.909 20.2587 104.694 19.7687 104.293 19.414C103.891 19.0593 103.397 18.882 102.809 18.882Z" fill="#DCDCDC"/>
</svg>
