<svg width="20" height="21" viewBox="0 0 20 21" fill="none" xmlns="http://www.w3.org/2000/svg">
<path fill-rule="evenodd" clip-rule="evenodd" d="M1.45833 0.5H7.70833C8.5125 0.5 9.16667 1.15417 9.16667 1.95833V5.70833C9.16667 6.5125 8.5125 7.16667 7.70833 7.16667H1.45833C0.654167 7.16667 0 6.5125 0 5.70833V1.95833C0 1.15417 0.654167 0.5 1.45833 0.5ZM1.45833 8.83337H7.70833C8.5125 8.83337 9.16667 9.48754 9.16667 10.2917V19.0417C9.16667 19.8459 8.5125 20.5 7.70833 20.5H1.45833C0.654167 20.5 0 19.8459 0 19.0417V10.2917C0 9.48754 0.654167 8.83337 1.45833 8.83337ZM18.5417 13.8334H12.2917C11.4875 13.8334 10.8334 14.4875 10.8334 15.2917V19.0417C10.8334 19.8459 11.4875 20.5 12.2917 20.5H18.5417C19.3459 20.5 20 19.8459 20 19.0417V15.2917C20 14.4875 19.3459 13.8334 18.5417 13.8334ZM12.2917 0.5H18.5417C19.3459 0.5 20 1.15417 20 1.95833V10.7083C20 11.5125 19.3459 12.1667 18.5417 12.1667H12.2917C11.4875 12.1667 10.8334 11.5125 10.8334 10.7083V1.95833C10.8334 1.15417 11.4875 0.5 12.2917 0.5Z" fill="#5294FF"/>
</svg>
