<svg width="24" height="23" viewBox="0 0 24 23" fill="none" xmlns="http://www.w3.org/2000/svg">
<path opacity="0.4" fill-rule="evenodd" clip-rule="evenodd" d="M6.52696 5.19375H17.473C18.0955 5.19375 18.455 5.89422 18.0891 6.39355L12.8797 13.4988C12.5135 13.9982 12.8732 14.6986 13.4956 14.6986H18.0865C18.3301 14.6986 18.559 14.5829 18.7024 14.3873L23.8544 7.36042C24.0485 7.09538 24.0485 6.73669 23.8544 6.47164L19.3376 0.311355C19.1942 0.11569 18.9653 0 18.7217 0H5.27833C5.03456 0 4.80578 0.11569 4.66245 0.311355L0.145614 6.47164C-0.048538 6.73669 -0.048538 7.09555 0.145614 7.36042L11.3839 22.6889C11.6879 23.1037 12.3119 23.1037 12.616 22.6889L14.9112 19.5583C15.1055 19.2933 15.1055 18.9344 14.9112 18.6693L5.91109 6.39355C5.545 5.89422 5.90454 5.19375 6.52696 5.19375Z" fill="white"/>
</svg>
