<svg width="111" height="33" viewBox="0 0 111 33" fill="none" xmlns="http://www.w3.org/2000/svg">
<path d="M0 1.584H12.576C16.608 1.584 18.624 3.344 18.624 6.864V16.128C18.624 19.68 16.608 21.456 12.576 21.456H6.816V32.112H0V1.584ZM11.76 15.216V7.824C11.76 7.024 11.344 6.624 10.512 6.624H6.816V16.416H10.512C11.344 16.416 11.76 16.016 11.76 15.216Z" fill="white"/>
<path d="M31.9786 8.208H32.7946V14.016H30.4426C28.4266 14.016 27.4186 15.136 27.4186 17.376V32.112H20.7466V8.352H27.3226V11.76C27.5786 10.704 28.1066 9.856 28.9066 9.216C29.7066 8.544 30.7306 8.208 31.9786 8.208Z" fill="white"/>
<path d="M39.7555 8.352H45.1795C49.2435 8.352 51.2755 10.128 51.2755 13.68V22.08H40.0915V26.16C40.0915 26.576 40.1875 26.88 40.3795 27.072C40.5715 27.232 40.9075 27.312 41.3875 27.312H43.5475C43.9955 27.312 44.3155 27.216 44.5075 27.024C44.6995 26.832 44.7955 26.512 44.7955 26.064V24.48H51.2275V26.784C51.2275 30.336 49.1955 32.112 45.1315 32.112H39.7555C35.7235 32.112 33.7075 30.336 33.7075 26.784V13.68C33.7075 10.128 35.7235 8.352 39.7555 8.352ZM40.0915 18.144H44.8435V14.304C44.8435 13.888 44.7475 13.6 44.5555 13.44C44.3635 13.248 44.0435 13.152 43.5955 13.152H41.3875C40.9075 13.152 40.5715 13.248 40.3795 13.44C40.1875 13.6 40.0915 13.888 40.0915 14.304V18.144Z" fill="white"/>
<path d="M74.5976 8.352H75.7496C79.4936 8.352 81.3656 10.128 81.3656 13.68V32.112H74.6936V14.592C74.6936 13.792 74.2616 13.392 73.3976 13.392H72.2456C71.3176 13.392 70.8536 13.904 70.8536 14.928V32.112H64.1336V14.592C64.1336 13.792 63.7016 13.392 62.8376 13.392H61.6856C60.7576 13.392 60.2936 13.904 60.2936 14.928V32.112H53.6216V8.352H60.1976V11.04C60.6456 9.248 61.9256 8.352 64.0376 8.352H65.2376C67.8616 8.352 69.5736 9.248 70.3736 11.04C70.5976 10.208 71.0776 9.552 71.8136 9.072C72.5816 8.592 73.5096 8.352 74.5976 8.352Z" fill="white"/>
<path d="M84.0245 5.184V0H90.9845V5.184H84.0245ZM90.8405 32.112H84.1685V8.352H90.8405V32.112Z" fill="white"/>
<path d="M104.08 8.352H110.656V32.112H103.984V29.76C103.504 31.328 102.24 32.112 100.192 32.112H99.04C95.296 32.112 93.424 30.336 93.424 26.784V13.68C93.424 10.128 95.296 8.352 99.04 8.352H100.192C102.336 8.352 103.632 9.248 104.08 11.04V8.352ZM101.44 27.072H102.544C103.504 27.072 103.984 26.56 103.984 25.536V14.928C103.984 13.904 103.504 13.392 102.544 13.392H101.44C100.576 13.392 100.144 13.792 100.144 14.592V25.872C100.144 26.672 100.576 27.072 101.44 27.072Z" fill="white"/>
</svg>
