<svg width="18" height="15" viewBox="0 0 18 15" fill="none" xmlns="http://www.w3.org/2000/svg">
<g clip-path="url(#clip0)">
<path fill-rule="evenodd" clip-rule="evenodd" d="M17.6637 5.19531L13.4315 0H4.32108L0 5.18015L8.83861 15.0674L9.77263 14.0226L6.57479 10.4609L6.58304 10.4534L1.84062 5.14823L4.97098 1.39549H12.7713L15.8324 5.15325L11.6489 9.83293L12.5855 10.876L17.6637 5.19531ZM9.77368 11.9306L10.7102 12.9737L11.6478 11.9249L10.7113 10.8818L9.77368 11.9306Z" fill="#646464"/>
<path fill-rule="evenodd" clip-rule="evenodd" d="M5.62121 2.79095H12.1113L14.0012 5.11109L10.7126 8.78993L9.77608 7.74687L12.1703 5.06867L11.4514 4.18644H6.27133L5.52158 5.08514L8.38383 8.28668L8.38251 8.28787L9.77498 9.83879L11.6487 11.9257L10.7101 12.9735L7.34463 9.22505L7.34968 9.22049L3.68115 5.11667L5.62121 2.79095Z" fill="#646464"/>
</g>
<defs>
<clipPath id="clip0">
<rect width="17.5" height="15" fill="white"/>
</clipPath>
</defs>
</svg>
