<svg width="21" height="18" viewBox="0 0 21 18" fill="none" xmlns="http://www.w3.org/2000/svg">
<path fill-rule="evenodd" clip-rule="evenodd" d="M9.88448 0.00598145C7.64187 0.134708 5.5388 1.00616 3.86016 2.50221L6.45625 5.0983C7.43324 4.28495 8.61951 3.79343 9.88448 3.67785V0.00598145ZM5.63324 5.92077L3.03719 3.32471C1.53986 5.00289 0.667321 7.10611 0.53778 9.34927H4.2098C4.32616 8.08407 4.81872 6.89768 5.63324 5.92077ZM20.3947 9.34927H16.7227C16.6063 8.08407 16.1138 6.89764 15.2993 5.92077L17.8953 3.32471C19.3927 5.00289 20.2652 7.10611 20.3947 9.34927ZM16.7219 10.5128C16.6403 11.4089 16.3846 12.1562 16.0822 12.7557C16.3772 13.2107 16.6232 13.5952 16.7857 13.8506C17.2282 14.5461 17.1302 15.4388 16.5474 16.0217C16.4059 16.1632 16.2442 16.2773 16.069 16.3615L16.6736 16.9662C16.7874 17.08 16.9366 17.1369 17.0857 17.1369C17.2349 17.1369 17.384 17.08 17.4978 16.9662C19.2401 15.224 20.2561 12.9507 20.3951 10.5128H16.7219ZM0.537354 10.5128H4.21066C4.40303 12.6265 5.56335 13.9161 6.024 14.3768C6.25155 14.6044 6.25155 14.9734 6.024 15.201L4.25883 16.9662C4.14503 17.08 3.99587 17.1369 3.84674 17.1369C3.69761 17.1369 3.54848 17.08 3.43469 16.9662C1.69236 15.224 0.676397 12.9507 0.537354 10.5128ZM17.0723 2.50221C15.3937 1.00612 13.2906 0.134708 11.048 0.00598145V3.67785C12.3129 3.79343 13.4993 4.28495 14.4762 5.0983L17.0723 2.50221ZM9.17371 8.64811C9.88646 7.93537 11.0462 7.93537 11.7589 8.64811C12.6594 9.5485 15.4848 13.9737 15.8041 14.4753C15.9505 14.7054 15.9174 15.0062 15.7246 15.199C15.5318 15.3918 15.231 15.4249 15.0009 15.2784C14.4993 14.9592 10.0741 12.1338 9.17371 11.2334C8.46096 10.5206 8.46096 9.36086 9.17371 8.64811Z" fill="#5294FF"/>
</svg>
