<?xml version="1.0" encoding="utf-8"?>
<!-- Generator: Adobe Illustrator 24.3.0, SVG Export Plug-In . SVG Version: 6.00 Build 0)  -->
<svg version="1.1" id="Layer_1" xmlns="http://www.w3.org/2000/svg" xmlns:xlink="http://www.w3.org/1999/xlink" x="0px" y="0px"
	 viewBox="0 0 12 14" style="enable-background:new 0 0 12 14;" xml:space="preserve">
<style type="text/css">
	.st0{fill:url(#SVGID_PUT_1_);}
</style>
<g>
	
		<linearGradient id="SVGID_PUT_1_" gradientUnits="userSpaceOnUse" x1="10.1448" y1="1026.9022" x2="-0.2898" y2="1017.4535" gradientTransform="matrix(1 0 0 -1 0 1030)">
		<stop  offset="0" style="stop-color:#EB4A97"/>
		<stop  offset="1" style="stop-color:#8C43F6"/>
	</linearGradient>
	<path class="st0" d="M6.6,13.8l5.2-5.1C11.9,8.6,12,8.4,12,8.2c0-0.2-0.1-0.4-0.2-0.5l-0.5-0.5C11.1,7,10.9,7,10.7,7
		c-0.2,0-0.4,0.1-0.6,0.2l-3,2.9V0.8C7.1,0.3,6.8,0,6.4,0H5.7C5.2,0,4.9,0.3,4.9,0.8v9.4l-3.1-3C1.7,7,1.5,7,1.3,7
		C1,7,0.8,7,0.7,7.2L0.2,7.6C0.1,7.8,0,8,0,8.2c0,0.2,0.1,0.4,0.2,0.5l5.2,5.1C5.6,13.9,5.8,14,6,14C6.2,14,6.4,13.9,6.6,13.8z"/>
</g>
</svg>
