<svg width="62" height="64" viewBox="0 0 62 64" fill="none" xmlns="http://www.w3.org/2000/svg">
<g filter="url(#filter0_d)">
<path d="M6.56043 0.223774L11.7697 5.27968C11.9184 5.42401 12 5.61636 12 5.82147C12 6.0268 11.9183 6.21904 11.7697 6.36337L11.2966 6.8224C11.1481 6.96661 10.9499 7.04607 10.7384 7.04607C10.5271 7.04607 10.3221 6.96661 10.1736 6.8224L7.12802 3.87286V13.2437C7.12802 13.6662 6.78723 14 6.35181 14H5.68301C5.2476 14 4.87245 13.6662 4.87245 13.2437V3.8394L1.80983 6.8223C1.66113 6.9665 1.46822 7.04595 1.25678 7.04595C1.04558 7.04595 0.849855 6.9665 0.701275 6.8223L0.229732 6.36326C0.0810335 6.21893 0 6.02669 0 5.82135C0 5.61625 0.0820885 5.42389 0.230787 5.27956L5.43992 0.22366C5.58909 0.0789942 5.78821 -0.000566608 5.99988 3.03787e-06C6.21226 -0.000452255 6.4115 0.0789942 6.56043 0.223774Z" fill="url(#paint1_linear)"/>
</g>
<defs>
<linearGradient id="paint1_linear" x1="33.6842" y1="26.4848" x2="23.2496" y2="35.9335" gradientUnits="userSpaceOnUse">
<stop stop-color="#EB4A97"/>
<stop offset="1" stop-color="#8C43F6"/>
</linearGradient>
</defs>
</svg>
