<svg width="103" height="103" viewBox="0 0 103 103" fill="none" xmlns="http://www.w3.org/2000/svg">
<g filter="url(#filter0_remain_stable_d)">
<path fill-rule="evenodd" clip-rule="evenodd" d="M51.5 78C66.1355 78 78 66.1355 78 51.5C78 36.8645 66.1355 25 51.5 25C36.8645 25 25 36.8645 25 51.5C25 66.1355 36.8645 78 51.5 78ZM41.3077 50.2769C40.407 50.2769 39.6769 51.007 39.6769 51.9077C39.6769 52.8083 40.407 53.5385 41.3077 53.5385H62.5077C63.4083 53.5385 64.1385 52.8083 64.1385 51.9077C64.1385 51.007 63.4083 50.2769 62.5077 50.2769H41.3077Z" fill="url(#paint0_remain_stable_linear)"/>
</g>
<defs>
<filter id="filter0_remain_stable_d" x="0" y="0" width="103" height="103" filterUnits="userSpaceOnUse" color-interpolation-filters="sRGB">
<feFlood flood-opacity="0" result="BackgroundImageFix"/>
<feColorMatrix in="SourceAlpha" type="matrix" values="0 0 0 0 0 0 0 0 0 0 0 0 0 0 0 0 0 0 127 0"/>
<feOffset/>
<feColorMatrix type="matrix" values="0 0 0 0 1 0 0 0 0 0.568384 0 0 0 0 0.321569 0 0 0 0.25 0"/>
<feBlend mode="normal" in2="BackgroundImageFix" result="effect1_dropShadow"/>
<feBlend mode="normal" in="SourceGraphic" in2="effect1_dropShadow" result="shape"/>
</filter>
<linearGradient id="paint0_remain_stable_linear" x1="57.901" y1="-43.4816" x2="8.79946" y2="-40.8745" gradientUnits="userSpaceOnUse">
<stop stop-color="#EB7A4A"/>
<stop offset="1" stop-color="#F643CF"/>
</linearGradient>
</defs>
</svg>
