<svg width="16" height="17" viewBox="0 0 16 17" fill="none" xmlns="http://www.w3.org/2000/svg">
<path id="Combined Shape" fill-rule="evenodd" clip-rule="evenodd" d="M7.04606 0.0881348C3.16097 0.0881348 0 3.2491 0 7.1342C0 11.0195 3.16097 14.1803 7.04606 14.1803C8.75506 14.1803 10.3239 13.5687 11.5452 12.553L14.8897 15.8976C15.0168 16.0246 15.1831 16.0881 15.3496 16.0881C15.5159 16.0881 15.6824 16.0246 15.8094 15.8976C16.0635 15.6437 16.0635 15.2318 15.8094 14.9779L12.4649 11.6333C13.4806 10.412 14.0921 8.84319 14.0921 7.1342C14.0921 3.2491 10.9314 0.0881348 7.04606 0.0881348ZM7.04606 12.8795C3.87816 12.8795 1.30081 10.3021 1.30081 7.13423C1.30081 3.96632 3.87816 1.38895 7.04606 1.38895C10.214 1.38895 12.7913 3.96629 12.7913 7.1342C12.7913 10.3021 10.214 12.8795 7.04606 12.8795Z" fill="current"/>
</svg>
