<svg width="20" height="21" viewBox="0 0 20 21" fill="none" xmlns="http://www.w3.org/2000/svg">
<path d="M19.6538 12.8013L17.766 11.2919C17.7899 11.0591 17.8105 10.787 17.8105 10.4991C17.8105 10.2113 17.7908 9.93915 17.766 9.70639L19.6555 8.19615C20.0064 7.91265 20.1022 7.40951 19.8789 6.99042L17.9157 3.5175C17.706 3.12551 17.2465 2.92425 16.7801 3.10013L14.5526 4.01449C14.1256 3.69949 13.678 3.4335 13.215 3.22088L12.8761 0.805014C12.8205 0.3465 12.4303 0 11.969 0H8.03253C7.57126 0 7.18191 0.3465 7.12712 0.798L6.78739 3.22264C6.33896 3.42915 5.89826 3.69165 5.4524 4.01625L3.21885 3.09926C2.80034 2.93389 2.29972 3.11936 2.09177 3.50962L0.126108 6.98689C-0.105791 7.38765 -0.00995902 7.90826 0.34862 8.19878L2.23642 9.70815C2.20646 10.003 2.19194 10.2594 2.19194 10.5C2.19194 10.7407 2.2065 10.997 2.23642 11.2928L0.346895 12.803C-0.00398203 13.0874 -0.0989719 13.5905 0.124383 14.0088L2.08752 17.4816C2.2972 17.8728 2.75245 18.0758 3.22311 17.899L5.45067 16.9847C5.87684 17.2988 6.3244 17.5648 6.78739 17.7783L7.12627 20.1933C7.18187 20.6535 7.57126 21 8.03337 21H11.9699C12.4311 21 12.8214 20.6535 12.8761 20.202L13.2159 17.7783C13.6643 17.5709 14.1041 17.3092 14.5508 16.9837L16.7844 17.9007C16.8922 17.9436 17.0043 17.9655 17.1199 17.9655C17.4519 17.9655 17.7574 17.78 17.9114 17.4912L19.8831 14C20.1022 13.5905 20.0063 13.0874 19.6538 12.8013ZM10.0008 14C8.11296 14 6.57772 12.4302 6.57772 10.5C6.57772 8.56976 8.11296 7.00001 10.0008 7.00001C11.8886 7.00001 13.4238 8.56976 13.4238 10.5C13.4238 12.4302 11.8886 14 10.0008 14Z" fill="#646464"/>
</svg>
