<svg width="116" height="99" viewBox="0 0 116 99" fill="none" xmlns="http://www.w3.org/2000/svg">
<path fill-rule="evenodd" clip-rule="evenodd" d="M38.0879 22.3557H83.4359C86.0145 22.3557 87.504 25.3708 85.9881 27.5201L64.4064 58.1037C62.8891 60.253 64.3793 63.268 66.9579 63.268H85.9774C86.9866 63.268 87.9351 62.7701 88.5289 61.9278L109.873 31.6818C110.677 30.541 110.677 28.997 109.873 27.8562L91.1603 1.34018C90.5665 0.497971 89.618 0 88.6088 0H32.915C31.9051 0 30.9573 0.497971 30.3635 1.34018L11.6509 27.8562C10.8465 28.997 10.8465 30.5417 11.6509 31.6818L58.2093 97.6611C59.469 99.4463 62.0541 99.4463 63.3138 97.6611L72.8224 84.1857C73.6275 83.0449 73.6275 81.5002 72.8224 80.3594L35.5364 27.5201C34.0198 25.3708 35.5093 22.3557 38.0879 22.3557Z" fill="url(#paint0_linear)"/>
<defs>
<linearGradient id="paint0_linear" x1="83.0025" y1="88.5" x2="8.98085" y2="9.96279" gradientUnits="userSpaceOnUse">
<stop stop-color="#EB4A97"/>
<stop offset="1" stop-color="#8C43F6"/>
</linearGradient>
</defs>
</svg>
