<svg width="20" height="21" viewBox="0 0 20 21" fill="none" xmlns="http://www.w3.org/2000/svg">
<path fill-rule="evenodd" clip-rule="evenodd" d="M19.0529 4.34707C19.3803 5.12605 19.5475 5.95042 19.5475 6.80108C19.5475 7.65173 19.3803 8.47611 19.0505 9.25747C18.7327 10.0078 18.2787 10.6816 17.7004 11.2599C17.1222 11.8381 16.4483 12.2921 15.698 12.6099C14.9191 12.9373 14.0947 13.1045 13.2441 13.1045C12.1807 13.1045 11.1365 12.8369 10.2118 12.328L6.21658 16.3256L7.69567 17.8047C7.87249 17.9791 7.92506 18.2443 7.81753 18.4952C7.79364 18.5478 7.76018 18.5956 7.71956 18.6362L6.05409 20.3016C5.87968 20.4785 5.61442 20.531 5.36353 20.4235C5.31098 20.3996 5.26319 20.3662 5.22257 20.3255L3.71959 18.8226L2.67538 19.8668C2.50095 20.0436 2.23571 20.0962 1.98482 19.9886C1.93225 19.9648 1.88446 19.9313 1.84384 19.8907L0.154472 18.2013C0.113851 18.1607 0.0780088 18.1129 0.0565034 18.0603C-0.0510235 17.8094 0.00393473 17.5442 0.178367 17.3698L7.72198 9.83333C7.21301 8.90621 6.94539 7.8644 6.94539 6.80108C6.94539 5.95042 7.11027 5.12366 7.44002 4.34707C7.75782 3.59677 8.21182 2.92294 8.79008 2.34468C9.36833 1.76643 10.0422 1.31243 10.7925 0.994624C11.5714 0.667264 12.3958 0.5 13.2465 0.5C14.0971 0.5 14.9239 0.664875 15.7005 0.994624C16.4508 1.31243 17.1246 1.76643 17.7029 2.34468C18.2811 2.92294 18.7351 3.59677 19.0529 4.34707ZM13.2441 9.92652C14.078 9.92652 14.8642 9.60155 15.4544 9.01135C16.0469 8.42115 16.3719 7.63501 16.3672 6.80107C16.3672 5.96714 16.0422 5.181 15.452 4.5908C14.8618 4.0006 14.0756 3.67563 13.2417 3.67563C12.4078 3.67563 11.6216 4.0006 11.0314 4.5908C10.4412 5.181 10.1163 5.96476 10.1163 6.80107C10.1163 7.63501 10.4436 8.42115 11.0338 9.01135C11.624 9.60155 12.4102 9.92652 13.2441 9.92652Z" fill="#5294FF"/>
</svg>
