<svg width="36" height="34" viewBox="0 0 36 34" fill="none" xmlns="http://www.w3.org/2000/svg">
<path fill-rule="evenodd" clip-rule="evenodd" d="M35.3951 21.5071L35.4 21.5C37.65 18.05 33.45 10.85 25.65 5.74996C18 0.349963 9.9 -1.00004 7.5 2.44996L7.49996 2.45002L7.49985 2.44995L0.599854 12.5L0.638989 12.5269C-1.50875 16.1724 2.82344 22.9372 10.35 28.25C17.9248 33.597 25.9409 34.9731 28.4276 31.6502L28.4999 31.7L35.3951 21.5071ZM17.8499 17.45C24.8999 22.4 32.2499 23.9 34.3499 20.9C36.2999 17.9 32.0999 11.6 25.0499 6.65004C17.9999 1.70004 10.6499 0.200043 8.54992 3.20004C6.44992 6.20004 10.6499 12.5 17.8499 17.45ZM19.4999 14.75C23.0999 17.15 26.6999 17.9 27.7499 16.4C28.7999 14.9 26.6999 11.75 23.2499 9.35004C19.6499 6.95004 16.0499 6.20004 14.9999 7.70004C13.9499 9.20004 16.0499 12.35 19.4999 14.75ZM6.90005 5.89988C6.90005 5.74988 6.75005 5.59988 6.60005 5.74988C6.54275 5.80717 6.48546 5.84258 6.43652 5.87283C6.35734 5.92176 6.30005 5.95717 6.30005 6.04988C6.34023 6.17043 6.38042 6.28021 6.41772 6.38212L6.41772 6.38213L6.41774 6.38218L6.41774 6.38219C6.51966 6.66065 6.60005 6.88026 6.60005 7.09988C6.60005 7.24988 6.75005 7.39988 6.90005 7.24988C7.05005 7.24988 7.20005 7.09988 7.05005 6.94988C7.05005 6.64988 7.05005 6.34988 6.90005 5.89988ZM7.34995 8.15002C7.49995 8.00002 7.64995 8.15002 7.64995 8.30002C9.29995 11.9 12.6 15.8 17.25 18.8C17.25 18.85 17.2666 18.9 17.2833 18.95C17.3166 19.05 17.35 19.15 17.25 19.25C17.2 19.25 17.15 19.2667 17.1 19.2834C17 19.3167 16.9 19.35 16.8 19.25C12.3 16.25 8.84995 12.2 7.19995 8.45002C7.19995 8.30002 7.19995 8.30002 7.34995 8.15002ZM25.8 23C25.65 23 25.5 23 25.5 23.15C25.5 23.3 25.5 23.45 25.65 23.45C25.875 23.525 26.1375 23.6 26.4 23.675C26.6625 23.75 26.925 23.825 27.15 23.9C27.3 23.9 27.45 23.9 27.45 23.75C27.45 23.6 27.45 23.45 27.3 23.45C27.075 23.375 26.8125 23.3 26.55 23.225L26.55 23.225L26.55 23.225C26.2875 23.15 26.025 23.075 25.8 23ZM28.2 23.9C28.2 23.75 28.35 23.6 28.5 23.6H28.5C29.7 23.75 30.9 23.9 32.1 23.75C32.25 23.75 32.4 23.9 32.4 24.05C32.4 24.2 32.25 24.35 32.1 24.35C31.05 24.5 29.7 24.35 28.5 24.2C28.35 24.2 28.2 24.05 28.2 23.9Z" fill="#646464"/>
</svg>
