<svg width="22" height="17" viewBox="0 0 22 17" fill="none" xmlns="http://www.w3.org/2000/svg">
<path d="M3.22517 6.3082H13.7919C14.2957 6.3082 14.704 5.89987 14.704 5.39616C14.704 4.89246 14.2957 4.48413 13.7919 4.48413H3.22517L5.3164 2.3929C5.67257 2.03673 5.67257 1.45923 5.3164 1.10306C4.96023 0.746895 4.38273 0.746895 4.02656 1.10306L0.378337 4.75124C0.35709 4.77249 0.336996 4.79485 0.317928 4.81811C0.309293 4.82863 0.301768 4.83974 0.293688 4.85056C0.28394 4.86355 0.273894 4.87625 0.26483 4.8898C0.256151 4.90276 0.248627 4.91623 0.240675 4.92952C0.233364 4.94175 0.225669 4.95372 0.218914 4.96633C0.211646 4.97988 0.20549 4.99386 0.198992 5.00772C0.192793 5.02084 0.186251 5.03375 0.180651 5.04722C0.175093 5.06069 0.170561 5.07445 0.165688 5.08813C0.160515 5.10254 0.155 5.11673 0.150553 5.13144C0.146406 5.14512 0.143371 5.15902 0.139908 5.17287C0.136103 5.18787 0.131913 5.20271 0.128878 5.21801C0.125714 5.23405 0.123833 5.25021 0.121525 5.26632C0.119643 5.27962 0.117078 5.29274 0.115753 5.30621C0.109853 5.36607 0.109853 5.42639 0.115753 5.48624C0.117078 5.49971 0.119601 5.51279 0.121525 5.52613C0.123833 5.54225 0.125714 5.55845 0.128921 5.57444C0.131956 5.58974 0.136146 5.60454 0.139951 5.61954C0.143414 5.63339 0.146449 5.64729 0.150596 5.66097C0.155042 5.67568 0.160557 5.68991 0.16573 5.70428C0.170647 5.71796 0.175136 5.73172 0.180694 5.74519C0.186251 5.75866 0.192835 5.77153 0.199034 5.78465C0.205576 5.7985 0.211732 5.81248 0.219 5.82608C0.225755 5.83865 0.233407 5.85058 0.240718 5.8628C0.24867 5.87614 0.256194 5.88961 0.264873 5.90261C0.273894 5.91612 0.28394 5.92877 0.293645 5.94177C0.301768 5.95263 0.309293 5.96374 0.317971 5.9743C0.336911 5.99739 0.356876 6.01958 0.377953 6.04065C0.378124 6.04082 0.378209 6.04099 0.37838 6.04112L4.02656 9.6893C4.38273 10.0455 4.96023 10.0455 5.3164 9.6893C5.67257 9.33313 5.67257 8.75564 5.3164 8.39947L3.22517 6.3082Z" fill="#8D97A0"/>
<path d="M21.7942 12.5409C21.8029 12.5303 21.8105 12.5191 21.8186 12.5082C21.8283 12.4953 21.8383 12.4827 21.8473 12.4692C21.856 12.4562 21.8636 12.4427 21.8715 12.4294C21.8788 12.4172 21.8864 12.4052 21.8931 12.3927C21.9004 12.3791 21.9066 12.3651 21.9132 12.3512C21.9194 12.3381 21.9258 12.3253 21.9314 12.3118C21.937 12.2984 21.9415 12.2846 21.9464 12.2709C21.9516 12.2565 21.9571 12.2423 21.9615 12.2276C21.9657 12.2139 21.9687 12.2 21.9722 12.1862C21.976 12.1712 21.9802 12.1563 21.9832 12.1411C21.9864 12.1251 21.9883 12.1089 21.9906 12.0928C21.9925 12.0795 21.9951 12.0664 21.9964 12.0529C22.0023 11.993 22.0023 11.9327 21.9964 11.8729C21.9951 11.8594 21.9925 11.8463 21.9906 11.833C21.9883 11.8169 21.9864 11.8006 21.9832 11.7847C21.9802 11.7694 21.976 11.7546 21.9722 11.7396C21.9687 11.7257 21.9657 11.7118 21.9615 11.6981C21.9571 11.6834 21.9516 11.6692 21.9464 11.6548C21.9415 11.6411 21.937 11.6274 21.9314 11.6139C21.9259 11.6005 21.9194 11.5876 21.9132 11.5745C21.9066 11.5606 21.9005 11.5466 21.8931 11.533C21.8864 11.5205 21.8788 11.5086 21.8715 11.4964C21.8636 11.483 21.856 11.4695 21.8473 11.4565C21.8383 11.4431 21.8283 11.4304 21.8186 11.4175C21.8105 11.4066 21.8029 11.3954 21.7942 11.3848C21.7754 11.362 21.7556 11.3399 21.7347 11.319C21.7344 11.3187 21.7341 11.3183 21.7338 11.318L18.0856 7.66984C17.7295 7.31367 17.152 7.31367 16.7958 7.66984C16.4396 8.02601 16.4396 8.6035 16.7958 8.95967L18.887 11.0509H8.32024C7.81653 11.0509 7.4082 11.4592 7.4082 11.9629C7.4082 12.4666 7.81653 12.875 8.32024 12.875H18.887L16.7958 14.9662C16.4396 15.3224 16.4396 15.8999 16.7958 16.256C17.152 16.6122 17.7295 16.6122 18.0856 16.256L21.7338 12.6079C21.7341 12.6075 21.7344 12.6072 21.7347 12.6069C21.7556 12.5858 21.7754 12.5638 21.7942 12.5409Z" fill="#8D97A0"/>
</svg>
