<svg width="20" height="15" viewBox="0 0 20 15" fill="none" xmlns="http://www.w3.org/2000/svg">
<g opacity="0.6">
<path d="M2.8451 5.51303H12.4999C12.9601 5.51303 13.3332 5.13995 13.3332 4.67971C13.3332 4.21948 12.9601 3.84639 12.4999 3.84639H2.8451L4.75584 1.93565C5.08127 1.61022 5.08127 1.08256 4.75584 0.757134C4.43041 0.431704 3.90275 0.431704 3.57732 0.757134L0.243965 4.09045C0.224551 4.10987 0.206191 4.1303 0.18877 4.15155C0.180879 4.16116 0.174004 4.17131 0.166621 4.1812C0.157715 4.19307 0.148535 4.20467 0.140254 4.21706C0.132324 4.22889 0.125449 4.2412 0.118184 4.25334C0.111504 4.26452 0.104473 4.27545 0.0983008 4.28698C0.0916602 4.29936 0.0860352 4.31213 0.0800977 4.32479C0.0744336 4.33678 0.068457 4.34858 0.0633398 4.36088C0.0582617 4.37319 0.0541211 4.38577 0.049668 4.39827C0.0449414 4.41143 0.0399023 4.4244 0.0358398 4.43784C0.0320508 4.45034 0.0292773 4.46303 0.0261133 4.47569C0.0226367 4.4894 0.0188086 4.50295 0.0160352 4.51694C0.0131445 4.53159 0.0114258 4.54635 0.00931641 4.56108C0.00759766 4.57323 0.00525391 4.58522 0.00404297 4.59752C-0.00134766 4.65221 -0.00134766 4.70733 0.00404297 4.76202C0.00525391 4.77432 0.00755859 4.78627 0.00931641 4.79846C0.0114258 4.81319 0.0131445 4.82799 0.0160742 4.8426C0.0188477 4.85659 0.0226758 4.8701 0.0261523 4.88381C0.0293164 4.89647 0.0320898 4.90917 0.0358789 4.92167C0.0399414 4.9351 0.0449805 4.94811 0.049707 4.96124C0.0541992 4.97374 0.0583008 4.98631 0.0633789 4.99862C0.068457 5.01092 0.0744727 5.02268 0.0801367 5.03467C0.0861133 5.04733 0.0917383 5.0601 0.0983789 5.07252C0.104551 5.08401 0.111543 5.09491 0.118223 5.10608C0.125488 5.11827 0.132363 5.13057 0.140293 5.14245C0.148535 5.15479 0.157715 5.16635 0.166582 5.17823C0.174004 5.18815 0.180879 5.19831 0.188809 5.20795C0.206113 5.22905 0.224355 5.24932 0.243613 5.26858C0.24377 5.26874 0.243848 5.26889 0.244004 5.26901L3.57732 8.60233C3.90275 8.92776 4.43041 8.92776 4.75584 8.60233C5.08127 8.2769 5.08127 7.74924 4.75584 7.42381L2.8451 5.51303Z" fill="#5294FF"/>
<path d="M19.8109 11.2079C19.8189 11.1982 19.8258 11.188 19.8332 11.1781C19.8421 11.1663 19.8512 11.1547 19.8594 11.1424C19.8674 11.1305 19.8743 11.1182 19.8815 11.106C19.8882 11.0949 19.8952 11.084 19.9013 11.0725C19.9079 11.0601 19.9136 11.0473 19.9196 11.0346C19.9253 11.0226 19.9312 11.0109 19.9363 10.9986C19.9414 10.9863 19.9455 10.9737 19.95 10.9612C19.9547 10.9481 19.9597 10.9351 19.9638 10.9217C19.9676 10.9092 19.9704 10.8964 19.9735 10.8838C19.977 10.8701 19.9808 10.8565 19.9836 10.8426C19.9865 10.828 19.9882 10.8132 19.9904 10.7985C19.9921 10.7863 19.9944 10.7744 19.9956 10.762C20.001 10.7073 20.001 10.6522 19.9956 10.5975C19.9944 10.5852 19.9921 10.5733 19.9904 10.5611C19.9883 10.5463 19.9865 10.5315 19.9836 10.5169C19.9808 10.503 19.977 10.4894 19.9735 10.4757C19.9704 10.4631 19.9676 10.4504 19.9638 10.4379C19.9597 10.4244 19.9547 10.4114 19.95 10.3983C19.9455 10.3858 19.9414 10.3732 19.9363 10.3609C19.9312 10.3487 19.9253 10.3369 19.9196 10.3249C19.9136 10.3122 19.908 10.2994 19.9013 10.287C19.8952 10.2756 19.8882 10.2647 19.8815 10.2535C19.8743 10.2413 19.8674 10.229 19.8594 10.2171C19.8512 10.2048 19.8421 10.1933 19.8332 10.1815C19.8258 10.1715 19.8188 10.1613 19.8109 10.1516C19.7938 10.1307 19.7756 10.1106 19.7565 10.0915C19.7563 10.0912 19.756 10.0908 19.7557 10.0906L16.4224 6.75725C16.097 6.43182 15.5693 6.43182 15.2439 6.75725C14.9185 7.08268 14.9185 7.61033 15.2439 7.93576L17.1546 9.84651H7.49982C7.03959 9.84651 6.6665 10.2196 6.6665 10.6798C6.6665 11.1401 7.03959 11.5131 7.49982 11.5131H17.1546L15.2439 13.4239C14.9185 13.7493 14.9185 14.277 15.2439 14.6024C15.5693 14.9278 16.097 14.9278 16.4224 14.6024L19.7557 11.2691C19.756 11.2688 19.7563 11.2685 19.7565 11.2682C19.7756 11.2489 19.7938 11.2288 19.8109 11.2079Z" fill="#5294FF"/>
</g>
</svg>
