<svg width="14" height="14" viewBox="0 0 14 14" fill="none" xmlns="http://www.w3.org/2000/svg">
<path id="Combined Shape" fill-rule="evenodd" clip-rule="evenodd" d="M7 14C10.866 14 14 10.866 14 7C14 3.13401 10.866 0 7 0C3.13401 0 0 3.13401 0 7C0 10.866 3.13401 14 7 14ZM6.89675 8.46456L6.92942 7.59344C7.43031 7.58618 7.87131 7.5027 8.25242 7.343C8.63353 7.1833 8.93479 6.94011 9.15619 6.61344C9.3776 6.28678 9.48831 5.873 9.48831 5.37211C9.48831 4.88574 9.38123 4.47378 9.16708 4.13622C8.95294 3.79867 8.65894 3.53915 8.28508 3.35767C7.91123 3.17619 7.48112 3.08544 6.99475 3.08544C6.47208 3.08544 6.02382 3.18344 5.64997 3.37944C5.27612 3.57544 4.99119 3.84404 4.79519 4.18522C4.59919 4.52641 4.50482 4.91478 4.51208 5.35033H5.82964C5.82964 5.00915 5.93127 4.73874 6.13453 4.53911C6.33779 4.33948 6.6209 4.23967 6.98386 4.23967C7.33231 4.23967 7.61179 4.33948 7.82231 4.53911C8.03282 4.73874 8.13808 5.01278 8.13808 5.36122C8.13808 5.72418 8.04734 6.00004 7.86586 6.18878C7.68438 6.37752 7.44119 6.50456 7.13631 6.56989C6.83142 6.63522 6.49386 6.66789 6.12364 6.66789H5.62275L5.66631 8.46456H6.89675ZM6.28697 10.9146C6.54105 10.9146 6.74794 10.8347 6.90764 10.675C7.06734 10.5153 7.14719 10.3229 7.14719 10.0979C7.14719 9.86559 7.06734 9.66959 6.90764 9.50989C6.74794 9.35019 6.54105 9.27033 6.28697 9.27033C6.0329 9.27033 5.82419 9.35019 5.66086 9.50989C5.49753 9.66959 5.41586 9.86559 5.41586 10.0979C5.41586 10.3229 5.49753 10.5153 5.66086 10.675C5.82419 10.8347 6.0329 10.9146 6.28697 10.9146Z" fill="#646464"/>
</svg>
