<svg width="134" height="134" viewBox="0 0 134 134" fill="none" xmlns="http://www.w3.org/2000/svg">
<g filter="url(#filter0_d)">
<path fill-rule="evenodd" clip-rule="evenodd" d="M67 109C90.196 109 109 90.196 109 67C109 43.804 90.196 25 67 25C43.804 25 25 43.804 25 67C25 90.196 43.804 109 67 109ZM76.6411 61.0073C77.2204 60.2257 76.6511 59.1294 75.6656 59.1294H58.3344C57.3489 59.1294 56.7796 60.2257 57.3592 61.0073L71.6093 80.2216C71.917 80.6364 71.917 81.1981 71.6093 81.613L67.9753 86.5131C67.4938 87.1623 66.5059 87.1623 66.0245 86.5131L48.2306 62.5207C47.9231 62.1061 47.9231 61.5444 48.2306 61.1295L55.3822 51.4873C55.6092 51.1811 55.9714 51 56.3573 51H77.6427C78.0283 51 78.3909 51.1811 78.6178 51.4873L85.7694 61.1295C86.0769 61.5444 86.0769 62.1058 85.7694 62.5207L77.6121 73.5192C77.3852 73.8255 77.0227 74.0066 76.637 74.0066H69.368C68.3825 74.0066 67.813 72.9102 68.3929 72.1286L76.6411 61.0073Z" fill="url(#paint0_linear)"/>
</g>
<defs>
<filter id="filter0_d" x="0" y="0" width="134" height="134" filterUnits="userSpaceOnUse" color-interpolation-filters="sRGB">
<feFlood flood-opacity="0" result="BackgroundImageFix"/>
<feColorMatrix in="SourceAlpha" type="matrix" values="0 0 0 0 0 0 0 0 0 0 0 0 0 0 0 0 0 0 127 0"/>
<feOffset/>
<feGaussianBlur stdDeviation="12.5"/>
<feColorMatrix type="matrix" values="0 0 0 0 0.168627 0 0 0 0 0.898039 0 0 0 0 0.603922 0 0 0 0.25 0"/>
<feBlend mode="normal" in2="BackgroundImageFix" result="effect1_dropShadow"/>
<feBlend mode="normal" in="SourceGraphic" in2="effect1_dropShadow" result="shape"/>
</filter>
<linearGradient id="paint0_linear" x1="35.5" y1="25" x2="145.019" y2="91.3613" gradientUnits="userSpaceOnUse">
<stop stop-color="#5294FF"/>
<stop offset="1" stop-color="#1EFF78"/>
</linearGradient>
</defs>
</svg>
