<svg width="19" height="15" viewBox="0 0 19 15" fill="none" xmlns="http://www.w3.org/2000/svg">
<path d="M18.4615 1.77577C17.775 2.07692 17.0435 2.27654 16.2808 2.37346C17.0654 1.905 17.6642 1.16885 17.9458 0.281538C17.2142 0.717692 16.4065 1.02577 15.5458 1.19769C14.8512 0.458077 13.8612 0 12.7812 0C10.6858 0 8.99885 1.70077 8.99885 3.78577C8.99885 4.08577 9.02423 4.37423 9.08654 4.64885C5.94 4.49538 3.15577 2.98731 1.28538 0.69C0.958846 1.25654 0.767308 1.905 0.767308 2.60308C0.767308 3.91385 1.44231 5.07577 2.44846 5.74846C1.84038 5.73692 1.24385 5.56038 0.738461 5.28231C0.738461 5.29385 0.738461 5.30885 0.738461 5.32385C0.738461 7.16308 2.05038 8.69077 3.77077 9.04269C3.46269 9.12692 3.12692 9.16731 2.77846 9.16731C2.53615 9.16731 2.29154 9.15346 2.06192 9.10269C2.55231 10.6015 3.94385 11.7035 5.59846 11.7392C4.31077 12.7465 2.67577 13.3535 0.905769 13.3535C0.595385 13.3535 0.297692 13.3396 0 13.3015C1.67654 14.3827 3.66346 15 5.80615 15C12.7708 15 16.5785 9.23077 16.5785 4.23C16.5785 4.06269 16.5727 3.90115 16.5646 3.74077C17.3158 3.20769 17.9469 2.54192 18.4615 1.77577Z" fill="#646464"/>
</svg>
