<svg width="16" height="18" viewBox="0 0 16 18" fill="none" xmlns="http://www.w3.org/2000/svg">
<path id="Combined Shape Copy 5" fill-rule="evenodd" clip-rule="evenodd" d="M0.892928 1.36554C2.93716 3.84845 6.08685 7.7088 6.24478 7.91936C6.37638 8.09483 6.32374 8.26153 6.1044 8.38436C5.98157 8.45455 5.72714 8.52474 5.60431 8.52474C5.46393 8.52474 5.29724 8.45455 5.18318 8.34049C5.10422 8.26153 4.76205 7.76144 3.98998 6.55947C3.40216 5.63825 2.90206 4.87495 2.89329 4.86618C2.8894 4.86423 2.88594 4.8625 2.88433 4.86357C2.87134 4.87212 2.97681 5.06058 3.92853 6.7612L3.92857 6.76126C4.60413 7.96323 4.82347 8.39313 4.82347 8.44577C4.82347 8.55983 4.78837 8.62124 4.64799 8.77917C4.41111 9.04237 4.30583 9.34067 4.22687 9.96359C4.13913 10.6567 3.90225 11.148 3.22668 11.9815C2.83188 12.4728 2.77046 12.5606 2.67395 12.7623C2.55112 13.008 2.51603 13.1484 2.49848 13.4642C2.48094 13.7976 2.51603 14.0082 2.61254 14.324C2.70027 14.6048 2.79678 14.789 3.03367 15.1487C3.23546 15.4646 3.35829 15.7015 3.35829 15.7892C3.35829 15.8594 3.37583 15.8594 3.69168 15.7892C4.4462 15.6137 5.06912 15.3154 5.41129 14.947C5.62186 14.7188 5.6745 14.596 5.6745 14.2802C5.6745 14.0784 5.66572 14.0345 5.61308 13.9117C5.52535 13.7187 5.35865 13.5607 4.99894 13.3151C4.52517 12.9905 4.32337 12.7273 4.27073 12.3763C4.22687 12.078 4.27951 11.8762 4.54271 11.3235C4.81469 10.7532 4.88488 10.5163 4.92875 9.93727C4.95507 9.56878 4.99894 9.41963 5.10422 9.30558C5.21827 9.18275 5.31478 9.13888 5.58676 9.10379C6.03421 9.04237 6.32374 8.92832 6.55185 8.70898C6.75364 8.52473 6.84137 8.34049 6.85015 8.06851L6.85892 7.86672L6.74487 7.74389C6.33251 7.27012 0.620949 0.988281 0.594629 0.988281C0.589269 0.988281 0.639564 1.05048 0.717516 1.14689C0.767176 1.20831 0.828059 1.2836 0.892928 1.36554ZM3.5863 13.8415C3.68281 13.6748 3.63017 13.4642 3.47224 13.3589C3.32309 13.2624 3.09498 13.3063 3.09498 13.4379C3.09498 13.473 3.11253 13.5081 3.16517 13.5256C3.24413 13.5695 3.25291 13.6134 3.19149 13.7099C3.13008 13.8064 3.13008 13.8941 3.20904 13.9555C3.33187 14.0521 3.49856 13.9994 3.5863 13.8415ZM6.38514 4.85739C6.2009 4.83107 6.19212 4.8223 6.27986 4.81352C6.44655 4.7872 6.83259 4.8223 7.10457 4.88371C7.73626 5.03286 8.30654 5.41889 8.91191 6.09446L9.06984 6.2787L9.29795 6.24361C10.2718 6.08568 11.272 6.20851 12.1055 6.59455C12.3336 6.69983 12.6933 6.91039 12.7372 6.96303C12.7547 6.98058 12.781 7.09464 12.7986 7.20869C12.86 7.62105 12.8337 7.92812 12.7021 8.16501C12.6319 8.29661 12.6319 8.3317 12.6758 8.44576C12.7108 8.53349 12.8161 8.59491 12.9126 8.59491C13.1232 8.59491 13.3425 8.26152 13.4478 7.79652L13.4917 7.61227L13.5707 7.70001C14.0181 8.2001 14.369 8.89321 14.4217 9.38453L14.4392 9.51613L14.3603 9.40207C14.2287 9.20028 14.1058 9.06868 13.9391 8.95462C13.6408 8.75283 13.325 8.69142 12.4915 8.64755C11.737 8.60368 11.3071 8.54227 10.886 8.40189C10.1665 8.16501 9.79804 7.85793 8.94701 6.72615C8.56975 6.22606 8.33286 5.95408 8.09598 5.72597C7.57834 5.22588 7.0607 4.96267 6.38514 4.85739ZM12.9215 5.97163C12.939 5.63824 12.9829 5.4189 13.0794 5.21711C13.1145 5.13815 13.1496 5.06796 13.1584 5.06796C13.1672 5.06796 13.1496 5.12938 13.1233 5.19956C13.0531 5.39258 13.0443 5.66456 13.0882 5.97163C13.1496 6.36644 13.1759 6.41908 13.5971 6.84899C13.7901 7.05078 14.0182 7.30521 14.1059 7.41049L14.2551 7.60351L14.1059 7.46313C13.9217 7.28766 13.5006 6.95427 13.404 6.9104C13.3426 6.87531 13.3339 6.87531 13.29 6.91918C13.2549 6.95427 13.2461 7.00691 13.2461 7.26134C13.2373 7.65615 13.1847 7.90181 13.0531 8.15624C12.9829 8.28784 12.9741 8.26152 13.0356 8.11237C13.0794 7.99832 13.0882 7.94568 13.0882 7.56842C13.0882 6.80512 13.0005 6.62088 12.4653 6.3138C12.3337 6.23484 12.1056 6.12078 11.974 6.05937C11.8336 5.99796 11.7283 5.94531 11.7371 5.94531C11.7546 5.92777 12.2723 6.07692 12.4741 6.16465C12.7811 6.28748 12.8338 6.29626 12.8689 6.28748C12.8952 6.26116 12.9127 6.19097 12.9215 5.97163ZM6.19222 5.39259C6.13957 5.98041 6.37646 6.77003 6.74495 7.27889C7.03447 7.6737 7.48192 7.98078 7.81532 8.01587C8.03466 8.03342 8.09607 7.96323 7.99956 7.82285C7.85918 7.62984 7.69249 7.32276 7.64862 7.19116C7.6223 7.1122 7.56088 6.86654 7.51702 6.65597C7.36787 5.93655 7.20994 5.64702 6.859 5.43646C6.7274 5.35749 6.45542 5.25221 6.2975 5.22589L6.20976 5.20834L6.19222 5.39259ZM12.4739 11.0954C10.7368 10.3935 10.1226 9.78812 10.1226 8.76162C10.1226 8.61247 10.1314 8.48964 10.1314 8.48964C10.1373 8.48964 10.1665 8.51303 10.2087 8.54683L10.2087 8.54683L10.2089 8.54693C10.23 8.5638 10.2543 8.58326 10.2806 8.6037C10.6315 8.88445 11.0263 9.00728 12.123 9.1652C12.7635 9.26171 13.132 9.3319 13.4653 9.44595C14.5269 9.7969 15.185 10.5163 15.3429 11.4902C15.3867 11.7709 15.3604 12.3061 15.2902 12.5869C15.2288 12.8062 15.0534 13.2098 15.0095 13.2186C15.0007 13.2186 14.9832 13.1747 14.9832 13.1045C14.9656 12.736 14.7814 12.3851 14.4743 12.1131C14.1058 11.7973 13.632 11.5604 12.4739 11.0954ZM11.1579 11.0164C11.1842 11.0866 11.2281 11.2533 11.2456 11.3849C11.386 12.2096 10.9561 12.8852 10.0875 13.1571C9.99981 13.1922 9.64887 13.2624 9.3067 13.3151C8.61359 13.4379 8.29775 13.5168 7.99067 13.666C7.77134 13.7713 7.49936 13.9292 7.5169 13.9468C7.52568 13.9555 7.57832 13.938 7.63096 13.9204C8.02577 13.7801 8.46444 13.7099 9.12246 13.6748C9.34266 13.6601 9.58743 13.6393 9.72318 13.6277L9.72335 13.6277L9.78925 13.6221C10.3771 13.5432 10.7894 13.3677 11.1053 13.0431C11.2807 12.8588 11.386 12.6921 11.4738 12.4553C11.5264 12.3061 11.5352 12.2447 11.5352 11.9815C11.5352 11.7095 11.5352 11.6569 11.4738 11.4902C11.3948 11.2708 11.3071 11.1129 11.193 10.9813L11.114 10.8848L11.1579 11.0164ZM12.0441 12.7975C11.816 12.2974 11.7633 11.8236 11.8861 11.3761C11.9037 11.3323 11.9212 11.2884 11.9388 11.2884C11.9563 11.2884 12.009 11.3147 12.0616 11.3498C12.1669 11.42 12.3862 11.5428 12.9477 11.8499C13.6584 12.236 14.062 12.5343 14.3427 12.8764C14.5884 13.1747 14.7375 13.5169 14.8077 13.938C14.8516 14.1749 14.8253 14.7452 14.7639 14.9821C14.5708 15.7278 14.1322 16.3244 13.4917 16.6666C13.3952 16.7192 13.3162 16.7543 13.3075 16.7543C13.2987 16.7543 13.3338 16.6666 13.3864 16.5613C13.597 16.1138 13.6233 15.6839 13.4654 15.2014C13.3689 14.9031 13.1671 14.5434 12.7635 13.938C12.281 13.2361 12.1669 13.0519 12.0441 12.7975ZM7.69233 14.4293C6.95535 14.5522 6.15696 14.9382 5.50772 15.4822L5.32348 15.6576L5.49017 15.6839C6.36752 15.8156 6.60441 15.9384 7.21856 16.5701C7.5695 16.9298 7.69233 17.0088 7.98185 17.0877C8.41176 17.2018 8.83288 17 8.98203 16.6139C9.04345 16.4385 9.03467 16.1577 8.96449 16.0173C8.78902 15.6752 8.27138 15.5699 8.02572 15.8156C7.82393 16.0173 7.88534 16.3332 8.13978 16.3858C8.16354 16.3898 8.17658 16.392 8.17727 16.3899C8.17811 16.3875 8.16073 16.3788 8.12223 16.3595C8.00817 16.3069 7.95553 16.2367 7.95553 16.1226C7.94676 15.8506 8.25383 15.7103 8.53458 15.8331C8.74515 15.9296 8.82411 16.0524 8.82411 16.263C8.82411 16.5876 8.54336 16.8421 8.21874 16.7982C8.04327 16.7719 7.8327 16.6666 7.71865 16.535C7.43789 16.2191 7.54318 15.7015 7.94676 15.5085C8.25383 15.3593 8.65741 15.4032 8.97326 15.605C9.33297 15.8419 9.4909 16.0524 9.79797 16.7631C9.90325 17 10.0261 17.2544 10.0875 17.3421C10.377 17.7808 10.7367 18.0002 11.1579 18.0002C11.3948 18.0002 11.5702 17.9651 11.7896 17.851C11.9475 17.772 12.1844 17.6141 12.1668 17.5966C12.1668 17.5897 12.1232 17.6045 12.0661 17.624L12.0177 17.6404C11.5527 17.8159 11.0789 17.8071 10.8069 17.6054C10.6315 17.4737 10.4911 17.2281 10.4209 16.9122L10.4123 16.8622C10.3956 16.7658 10.3615 16.5686 10.3332 16.3771C10.2366 15.7717 10.1401 15.4997 9.92957 15.1839C9.71024 14.8592 9.28911 14.596 8.82411 14.4732C8.53458 14.3942 8.00817 14.3767 7.69233 14.4293ZM6.66586 9.74427C6.72727 9.51616 6.92907 9.28805 7.13963 9.22663C7.28001 9.18277 7.55198 9.20909 7.68359 9.27927C7.93802 9.41088 8.12226 9.7004 8.0784 9.91097C8.03453 10.1654 7.62217 10.376 7.13963 10.376C6.89397 10.376 6.80624 10.3409 6.70973 10.218C6.64831 10.1391 6.63077 9.88465 6.66586 9.74427ZM7.61325 9.36699C7.74485 9.44595 7.77117 9.56 7.70098 9.66529C7.64834 9.73547 7.49042 9.80566 7.37636 9.80566C7.20089 9.80566 7.01665 9.68283 7.01665 9.56878C7.01665 9.34067 7.37636 9.21784 7.61325 9.36699Z" fill="current"/>
</svg>
