<svg width="21" height="24" viewBox="0 0 21 24" fill="none" xmlns="http://www.w3.org/2000/svg">
<path id="Combined Shape Copy 4" fill-rule="evenodd" clip-rule="evenodd" d="M0.676691 1.09817C3.43906 4.45333 7.69525 9.66982 7.90865 9.95436C8.08648 10.1915 8.01535 10.4167 7.71896 10.5827C7.55298 10.6776 7.20917 10.7724 7.04319 10.7724C6.8535 10.7724 6.62824 10.6776 6.47411 10.5234C6.36741 10.4167 5.90504 9.74096 4.86174 8.11673C4.06741 6.87188 3.39164 5.84044 3.37978 5.82859C3.37453 5.82596 3.36986 5.82362 3.36767 5.82506C3.35012 5.83661 3.49264 6.09128 4.77871 8.38934L4.77875 8.38941C5.69164 10.0136 5.98803 10.5946 5.98803 10.6657C5.98803 10.8198 5.94061 10.9028 5.75092 11.1162C5.43082 11.4719 5.28855 11.875 5.18185 12.7167C5.06329 13.6533 4.74319 14.3172 3.8303 15.4435C3.29679 16.1075 3.2138 16.226 3.08339 16.4987C2.91741 16.8306 2.86999 17.0203 2.84628 17.4471C2.82257 17.8977 2.86999 18.1822 3.0004 18.609C3.11896 18.9884 3.24937 19.2373 3.56947 19.7234C3.84216 20.1502 4.00813 20.4703 4.00813 20.5889C4.00813 20.6837 4.03185 20.6837 4.45865 20.5889C5.47824 20.3518 6.31999 19.9487 6.78236 19.4508C7.0669 19.1425 7.13803 18.9765 7.13803 18.5497C7.13803 18.277 7.12618 18.2178 7.05504 18.0518C6.93649 17.791 6.71123 17.5776 6.22514 17.2456C5.58494 16.8069 5.31226 16.4513 5.24112 15.977C5.18185 15.5739 5.25298 15.3013 5.60865 14.5544C5.97618 13.7837 6.07102 13.4636 6.1303 12.6812C6.16587 12.1832 6.22514 11.9817 6.36741 11.8276C6.52154 11.6616 6.65195 11.6023 7.01947 11.5549C7.62411 11.4719 8.01535 11.3178 8.3236 11.0214C8.59628 10.7724 8.71484 10.5234 8.72669 10.1559L8.73855 9.88322L8.58442 9.71725C8.02721 9.07704 0.309166 0.588379 0.273599 0.588379C0.266357 0.588379 0.33432 0.672432 0.439657 0.802707C0.506762 0.885698 0.589033 0.987447 0.676691 1.09817ZM4.31638 17.9569C4.44679 17.7317 4.37566 17.4471 4.16226 17.3049C3.96071 17.1745 3.65246 17.2337 3.65246 17.4116C3.65246 17.459 3.67618 17.5064 3.74731 17.5301C3.85401 17.5894 3.86587 17.6487 3.78288 17.7791C3.69989 17.9095 3.69989 18.0281 3.80659 18.1111C3.97257 18.2415 4.19783 18.1703 4.31638 17.9569ZM8.09834 5.81673C7.84937 5.78116 7.83752 5.76931 7.95607 5.75745C8.18133 5.72188 8.70298 5.76931 9.07051 5.8523C9.92411 6.05384 10.6947 6.57549 11.5128 7.48838L11.7262 7.73735L12.0344 7.68993C13.3504 7.47652 14.7019 7.6425 15.8282 8.16415C16.1365 8.30642 16.6226 8.59096 16.6818 8.66209C16.7056 8.6858 16.7411 8.83992 16.7648 8.99405C16.8478 9.55127 16.8123 9.96621 16.6344 10.2863C16.5396 10.4642 16.5396 10.5116 16.5989 10.6657C16.6463 10.7843 16.7885 10.8672 16.919 10.8672C17.2035 10.8672 17.4999 10.4167 17.6422 9.78838L17.7014 9.53941L17.8081 9.65797C18.4128 10.3337 18.887 11.2703 18.9581 11.9343L18.9818 12.1121L18.8751 11.958C18.6973 11.6853 18.5313 11.5075 18.3061 11.3533C17.903 11.0806 17.4762 10.9977 16.3499 10.9384C15.3303 10.8791 14.7494 10.7961 14.1803 10.6064C13.2081 10.2863 12.7102 9.87137 11.5602 8.34199C11.0504 7.66621 10.7303 7.29869 10.4102 6.99044C9.71071 6.31467 9.01123 5.959 8.09834 5.81673ZM16.9308 7.3224C16.9545 6.87188 17.0138 6.57549 17.1442 6.30281C17.1916 6.19611 17.2391 6.10127 17.2509 6.10127C17.2628 6.10127 17.2391 6.18426 17.2035 6.2791C17.1087 6.53993 17.0968 6.90745 17.1561 7.3224C17.2391 7.8559 17.2746 7.92704 17.8437 8.50797C18.1045 8.78065 18.4128 9.12446 18.5313 9.26673L18.7329 9.52755L18.5313 9.33786C18.2824 9.10075 17.7133 8.65023 17.5829 8.59096C17.4999 8.54353 17.488 8.54353 17.4288 8.60281C17.3813 8.65023 17.3695 8.72137 17.3695 9.06518C17.3576 9.59869 17.2865 9.93065 17.1087 10.2745C17.0138 10.4523 17.0019 10.4167 17.0849 10.2152C17.1442 10.0611 17.1561 9.98993 17.1561 9.48013C17.1561 8.44869 17.0375 8.19972 16.3143 7.78477C16.1365 7.67807 15.8282 7.52395 15.6504 7.44096C15.4607 7.35797 15.3184 7.28683 15.3303 7.28683C15.354 7.26312 16.0535 7.46467 16.3262 7.58322C16.7411 7.7492 16.8123 7.76106 16.8597 7.7492C16.8952 7.71364 16.919 7.61879 16.9308 7.3224ZM7.83752 6.53993C7.76638 7.33425 8.08649 8.40127 8.58442 9.08889C8.97566 9.6224 9.5803 10.0373 10.0308 10.0848C10.3272 10.1085 10.4102 10.0136 10.2798 9.82395C10.0901 9.56312 9.86484 9.14817 9.80556 8.97034C9.76999 8.86364 9.687 8.53168 9.62772 8.24714C9.42618 7.27498 9.21277 6.88374 8.73855 6.5992C8.56071 6.4925 8.19319 6.35023 7.97978 6.31467L7.86123 6.29096L7.83752 6.53993ZM16.3262 14.2461C13.9788 13.2977 13.1489 12.4796 13.1489 11.0925C13.1489 10.891 13.1607 10.725 13.1607 10.725C13.1686 10.725 13.2081 10.7566 13.2652 10.8023C13.2938 10.8251 13.3267 10.8514 13.3623 10.8791C13.8365 11.2585 14.37 11.4245 15.8519 11.6379C16.7174 11.7683 17.2154 11.8631 17.6659 12.0172C19.1004 12.4915 19.9896 13.4636 20.203 14.7796C20.2623 15.159 20.2267 15.8822 20.1318 16.2616C20.0489 16.558 19.8117 17.1033 19.7525 17.1152C19.7406 17.1152 19.7169 17.0559 19.7169 16.9611C19.6932 16.4631 19.4442 15.9889 19.0293 15.6214C18.5313 15.1946 17.8911 14.8745 16.3262 14.2461ZM14.5478 14.1394C14.5834 14.2343 14.6427 14.4595 14.6664 14.6373C14.8561 15.7518 14.2751 16.6647 13.1014 17.0322C12.9829 17.0796 12.5086 17.1745 12.0463 17.2456C11.1097 17.4116 10.6829 17.5183 10.2679 17.7198C9.97154 17.8621 9.60401 18.0755 9.62772 18.0992C9.63958 18.1111 9.71069 18.0874 9.78182 18.0636L9.78185 18.0636C10.3154 17.8739 10.9081 17.7791 11.7973 17.7317C12.0945 17.7119 12.4248 17.6838 12.6084 17.6682L12.6085 17.6681L12.6089 17.6681L12.6094 17.6681L12.6095 17.6681L12.6983 17.6605C13.4927 17.5538 14.0499 17.3167 14.4767 16.8781C14.7138 16.6291 14.8561 16.4038 14.9746 16.0837C15.0458 15.8822 15.0576 15.7992 15.0576 15.4435C15.0576 15.076 15.0576 15.0049 14.9746 14.7796C14.8679 14.4832 14.7494 14.2698 14.5952 14.092L14.4885 13.9616L14.5478 14.1394ZM15.7452 16.5461C15.437 15.8703 15.3659 15.2301 15.5318 14.6255C15.5556 14.5662 15.5793 14.5069 15.603 14.5069C15.6267 14.5069 15.6978 14.5425 15.769 14.5899C15.9112 14.6848 16.2076 14.8507 16.9664 15.2657C17.9267 15.7873 18.4721 16.1904 18.8514 16.6528C19.1834 17.0559 19.3849 17.5183 19.4798 18.0873C19.5391 18.4074 19.5035 19.1781 19.4205 19.4982C19.1597 20.5059 18.5669 21.3121 17.7014 21.7745C17.571 21.8456 17.4643 21.893 17.4525 21.893C17.4406 21.893 17.488 21.7745 17.5592 21.6322C17.8437 21.0276 17.8793 20.4466 17.6659 19.7946C17.5355 19.3915 17.2628 18.9054 16.7174 18.0873C16.0654 17.1389 15.9112 16.8899 15.7452 16.5461ZM9.86484 18.7513C8.86896 18.9172 7.79009 19.4389 6.91277 20.1739L6.6638 20.4111L6.88906 20.4466C8.07463 20.6245 8.39473 20.7904 9.22463 21.644C9.69886 22.1301 9.86484 22.2368 10.2561 22.3435C10.837 22.4977 11.4061 22.225 11.6076 21.7033C11.6906 21.4662 11.6788 21.0868 11.5839 20.8971C11.3468 20.4348 10.6473 20.2925 10.3154 20.6245C10.0427 20.8971 10.1257 21.3239 10.4695 21.3951C10.5016 21.4004 10.5192 21.4034 10.5201 21.4006C10.5213 21.3973 10.4978 21.3855 10.4458 21.3595C10.2916 21.2884 10.2205 21.1935 10.2205 21.0394C10.2086 20.6719 10.6236 20.4822 11.003 20.6482C11.2875 20.7786 11.3942 20.9446 11.3942 21.2291C11.3942 21.6678 11.0148 22.0116 10.5762 21.9523C10.3391 21.9167 10.0545 21.7745 9.9004 21.5966C9.52102 21.1698 9.66329 20.4703 10.2086 20.2095C10.6236 20.008 11.169 20.0672 11.5958 20.3399C12.0818 20.66 12.2952 20.9446 12.7102 21.9049C12.8525 22.225 13.0184 22.5688 13.1014 22.6873C13.4927 23.2801 13.9788 23.5765 14.5478 23.5765C14.8679 23.5765 15.105 23.5291 15.4014 23.375C15.6148 23.2683 15.9349 23.0549 15.9112 23.0312C15.9112 23.0218 15.8524 23.0419 15.7752 23.0682L15.7752 23.0683L15.7751 23.0683C15.7544 23.0754 15.7323 23.0829 15.7097 23.0904C15.0813 23.3276 14.4411 23.3157 14.0736 23.043C13.8365 22.8652 13.6468 22.5332 13.5519 22.1064L13.5403 22.0388C13.5178 21.9086 13.4717 21.642 13.4334 21.3832C13.303 20.5652 13.1726 20.1977 12.888 19.7709C12.5916 19.3322 12.0226 18.9765 11.3942 18.8105C11.003 18.7038 10.2916 18.6801 9.86484 18.7513ZM8.47772 12.4203C8.56071 12.1121 8.83339 11.8038 9.11793 11.7209C9.30762 11.6616 9.67515 11.6971 9.85298 11.792C10.1968 11.9698 10.4458 12.3611 10.3865 12.6456C10.3272 12.9894 9.76999 13.2739 9.11793 13.2739C8.78597 13.2739 8.66741 13.2265 8.537 13.0605C8.45401 12.9538 8.4303 12.61 8.47772 12.4203ZM9.75813 11.9105C9.93597 12.0172 9.97154 12.1714 9.87669 12.3136C9.80556 12.4085 9.59216 12.5033 9.43803 12.5033C9.20092 12.5033 8.95195 12.3373 8.95195 12.1832C8.95195 11.875 9.43803 11.709 9.75813 11.9105Z" fill="#5294FF"/>
</svg>
