<svg width="16" height="18" viewBox="0 0 16 18" fill="none" xmlns="http://www.w3.org/2000/svg">
<path id="Combined Shape Copy 4" fill-rule="evenodd" clip-rule="evenodd" d="M5.97874 7.33367C5.81165 7.11087 2.47901 3.0263 0.316039 0.399174C0.247402 0.312475 0.182982 0.232804 0.130438 0.167821L0.130438 0.167821L0.130437 0.16782C0.0479581 0.0658143 -0.0052577 0 0.000412918 0C0.0282623 0 6.07158 6.64672 6.50788 7.14801L6.62856 7.27797L6.61928 7.49148C6.61 7.77926 6.51717 7.9742 6.30365 8.16915C6.06229 8.40123 5.75595 8.52191 5.28251 8.58689C4.99473 8.62402 4.89262 8.67044 4.77194 8.8004C4.66054 8.92108 4.61413 9.07889 4.58628 9.46879C4.53986 10.0815 4.4656 10.3321 4.17782 10.9355C3.89933 11.5204 3.84363 11.7339 3.89004 12.0495C3.94574 12.4208 4.15925 12.6993 4.66054 13.0428C5.04115 13.3027 5.21753 13.4698 5.31036 13.674C5.36606 13.804 5.37534 13.8504 5.37534 14.0639C5.37534 14.3981 5.31964 14.5281 5.09685 14.7695C4.73481 15.1593 4.0757 15.475 3.27736 15.6606C2.94316 15.7349 2.9246 15.7349 2.9246 15.6606C2.9246 15.5678 2.79463 15.3172 2.58112 14.983C2.33048 14.6024 2.22836 14.4074 2.13553 14.1103C2.03342 13.7762 1.99628 13.5534 2.01485 13.2006C2.03342 12.8664 2.07055 12.7179 2.20051 12.458C2.30263 12.2444 2.36761 12.1516 2.78535 11.6318C3.50015 10.7499 3.7508 10.23 3.84363 9.49664C3.92717 8.83753 4.03857 8.52191 4.28922 8.24341C4.43775 8.07632 4.47488 8.01134 4.47488 7.89066C4.47488 7.83496 4.2428 7.38008 3.528 6.1083L3.52793 6.10817L3.5279 6.10811C2.52096 4.30882 2.40937 4.10943 2.42311 4.10038C2.42482 4.09925 2.42848 4.10108 2.43259 4.10314C2.44187 4.11242 2.97101 4.92006 3.59298 5.89478C4.4099 7.16657 4.77194 7.69571 4.85549 7.77926C4.97617 7.89994 5.15255 7.9742 5.30108 7.9742C5.43104 7.9742 5.70025 7.89994 5.83021 7.82567C6.06229 7.69571 6.11799 7.51933 5.97874 7.33367ZM6.12495 4.09387C5.93001 4.06602 5.92073 4.05674 6.01356 4.04745C6.18994 4.01961 6.59839 4.05674 6.88617 4.12172C7.55456 4.27953 8.15796 4.68799 8.79849 5.40279L8.96559 5.59774L9.20695 5.5606C10.2374 5.39351 11.2957 5.52347 12.1776 5.93193C12.4189 6.04333 12.7995 6.26612 12.8459 6.32182C12.8645 6.34039 12.8924 6.46107 12.9109 6.58175C12.9759 7.01805 12.9481 7.34296 12.8088 7.59361C12.7345 7.73285 12.7345 7.76999 12.781 7.89067C12.8181 7.9835 12.9295 8.04848 13.0316 8.04848C13.2544 8.04848 13.4865 7.69572 13.5979 7.20372L13.6443 7.00877L13.7278 7.1016C14.2013 7.63074 14.5726 8.36411 14.6283 8.88396L14.6469 9.02321L14.5633 8.90253C14.4241 8.68902 14.2941 8.54977 14.1177 8.42909C13.8021 8.21558 13.4679 8.1506 12.586 8.10418C11.7877 8.05776 11.3328 7.99278 10.8872 7.84425C10.126 7.59361 9.73609 7.2687 8.83563 6.07118C8.43645 5.54204 8.18581 5.25426 7.93516 5.0129C7.38746 4.48376 6.83976 4.20527 6.12495 4.09387ZM13.0399 5.27279C13.0585 4.92003 13.1049 4.68795 13.207 4.47444C13.2442 4.39089 13.2813 4.31663 13.2906 4.31663C13.2999 4.31663 13.2813 4.38161 13.2534 4.45587C13.1792 4.6601 13.1699 4.94788 13.2163 5.27279C13.2813 5.69053 13.3091 5.74623 13.7547 6.2011C13.959 6.41461 14.2003 6.68382 14.2931 6.79522L14.451 6.99945L14.2931 6.85092C14.0982 6.66526 13.6526 6.3125 13.5505 6.26608C13.4855 6.22895 13.4762 6.22895 13.4298 6.27537C13.3927 6.3125 13.3834 6.3682 13.3834 6.63741C13.3741 7.05515 13.3184 7.31508 13.1792 7.58429C13.1049 7.72353 13.0956 7.69568 13.1606 7.53787C13.207 7.41719 13.2163 7.36149 13.2163 6.96232C13.2163 6.15469 13.1235 5.95974 12.5572 5.63483C12.418 5.55128 12.1766 5.4306 12.0373 5.36562C11.8888 5.30064 11.7774 5.24494 11.7867 5.24494C11.8053 5.22637 12.353 5.38419 12.5665 5.47702C12.8914 5.60698 12.9471 5.61626 12.9842 5.60698C13.0121 5.57913 13.0306 5.50487 13.0399 5.27279ZM5.92486 4.66013C5.86916 5.2821 6.1198 6.11758 6.5097 6.656C6.81604 7.07374 7.28948 7.39865 7.64224 7.43578C7.87431 7.45435 7.9393 7.38008 7.83718 7.23155C7.68865 7.02733 7.51227 6.70242 7.46586 6.56317C7.43801 6.47962 7.37303 6.21969 7.32661 5.9969C7.1688 5.23568 7.0017 4.92934 6.63038 4.70654C6.49113 4.623 6.20335 4.5116 6.03626 4.48375L5.94343 4.46518L5.92486 4.66013ZM12.5684 10.6942C10.7304 9.95151 10.0806 9.31097 10.0806 8.22485C10.0806 8.06703 10.0898 7.93707 10.0898 7.93707C10.096 7.93707 10.127 7.96182 10.1716 7.99756L10.1717 7.99757L10.1717 7.99758C10.194 8.01546 10.2198 8.03609 10.2477 8.05775C10.619 8.35481 11.0367 8.48478 12.1971 8.65187C12.8748 8.75399 13.2647 8.82825 13.6174 8.94893C14.7407 9.32026 15.4369 10.0815 15.604 11.1119C15.6504 11.409 15.6226 11.9752 15.5483 12.2723C15.4833 12.5044 15.2977 12.9314 15.2513 12.9407C15.242 12.9407 15.2234 12.8943 15.2234 12.82C15.2048 12.4301 15.0099 12.0588 14.685 11.771C14.2951 11.4368 13.7938 11.1862 12.5684 10.6942ZM11.1787 10.6106C11.2066 10.6849 11.253 10.8612 11.2715 11.0005C11.4201 11.8731 10.9652 12.5879 10.0462 12.8757C9.95333 12.9128 9.582 12.9871 9.21996 13.0428C8.4866 13.1727 8.1524 13.2563 7.82749 13.4141C7.59542 13.5255 7.30764 13.6926 7.3262 13.7112C7.33549 13.7204 7.39119 13.7019 7.44689 13.6833C7.86463 13.5348 8.32878 13.4605 9.02502 13.4234C9.25815 13.4078 9.51731 13.3858 9.66089 13.3736L9.73053 13.3677C10.3525 13.2841 10.7888 13.0985 11.123 12.755C11.3087 12.5601 11.4201 12.3837 11.5129 12.133C11.5686 11.9752 11.5779 11.9102 11.5779 11.6317C11.5779 11.344 11.5779 11.2883 11.5129 11.1119C11.4293 10.8798 11.3365 10.7127 11.2158 10.5735L11.1323 10.4714L11.1787 10.6106ZM12.1133 12.4951C11.872 11.966 11.8163 11.4647 11.9462 10.9913C11.9648 10.9449 11.9834 10.8984 12.0019 10.8984C12.0205 10.8984 12.0762 10.9263 12.1319 10.9634C12.2433 11.0377 12.4754 11.1677 13.0695 11.4926C13.8214 11.901 14.2484 12.2166 14.5455 12.5787C14.8054 12.8943 14.9632 13.2564 15.0375 13.7019C15.0839 13.9526 15.0561 14.556 14.9911 14.8066C14.7869 15.5957 14.3227 16.227 13.645 16.589C13.5429 16.6447 13.4594 16.6818 13.4501 16.6818C13.4408 16.6818 13.4779 16.589 13.5336 16.4776C13.7564 16.0042 13.7843 15.5493 13.6172 15.0387C13.5151 14.7231 13.3016 14.3425 12.8745 13.7019C12.364 12.9593 12.2433 12.7643 12.1133 12.4951ZM7.50955 14.2218C6.72977 14.3517 5.885 14.7602 5.19805 15.3357L5.0031 15.5214L5.17948 15.5493C6.1078 15.6885 6.35844 15.8185 7.00826 16.4868C7.37958 16.8675 7.50955 16.951 7.81589 17.0346C8.27076 17.1552 8.71635 16.9417 8.87417 16.5333C8.93915 16.3476 8.92987 16.0505 8.8556 15.902C8.66994 15.54 8.12223 15.4286 7.86231 15.6885C7.64879 15.902 7.71378 16.2362 7.98299 16.2919C8.00813 16.2961 8.02192 16.2984 8.02266 16.2962C8.02355 16.2936 8.00516 16.2844 7.96442 16.2641C7.84374 16.2084 7.78804 16.1341 7.78804 16.0134C7.77876 15.7256 8.10367 15.5771 8.40073 15.7071C8.62352 15.8092 8.70707 15.9391 8.70707 16.1619C8.70707 16.5054 8.41001 16.7746 8.06654 16.7282C7.88087 16.7004 7.65808 16.589 7.5374 16.4497C7.24034 16.1155 7.35174 15.5678 7.77876 15.3636C8.10367 15.2058 8.53069 15.2522 8.86488 15.4657C9.24549 15.7163 9.41259 15.9391 9.7375 16.6911C9.8489 16.9417 9.97886 17.2109 10.0438 17.3038C10.3502 17.7679 10.7308 18 11.1764 18C11.427 18 11.6127 17.9629 11.8448 17.8422C12.0119 17.7586 12.2625 17.5915 12.2439 17.573C12.2439 17.5657 12.1979 17.5814 12.1375 17.602L12.1374 17.602L12.1374 17.602L12.0861 17.6194C11.5941 17.8051 11.0928 17.7958 10.8051 17.5823C10.6194 17.443 10.4709 17.1831 10.3966 16.8489L10.3875 16.7959L10.3875 16.7959L10.3875 16.7958C10.3699 16.6939 10.3338 16.4852 10.3038 16.2826C10.2017 15.6421 10.0995 15.3543 9.87675 15.0201C9.64467 14.6766 9.19908 14.3981 8.70707 14.2682C8.40073 14.1846 7.84374 14.1661 7.50955 14.2218ZM6.4215 9.26453C6.48648 9.02317 6.69999 8.78181 6.92279 8.71683C7.07132 8.67041 7.3591 8.69826 7.49834 8.77253C7.76755 8.91178 7.9625 9.21812 7.91608 9.44091C7.86967 9.71012 7.43336 9.93292 6.92279 9.93292C6.66286 9.93292 6.57003 9.89579 6.46792 9.76582C6.40293 9.68228 6.38437 9.41306 6.4215 9.26453ZM7.42766 8.86538C7.56691 8.94893 7.59476 9.06961 7.52049 9.18101C7.46479 9.25527 7.2977 9.32954 7.17701 9.32954C6.99135 9.32954 6.79641 9.19957 6.79641 9.07889C6.79641 8.83753 7.17701 8.70757 7.42766 8.86538Z" fill="#8D97A0"/>
</svg>
