<svg width="14" height="17" viewBox="0 0 34 40" fill="none" xmlns="http://www.w3.org/2000/svg">
<path id="Combined Shape Copy 4" fill-rule="evenodd" clip-rule="evenodd" d="M0.75421 1.45875C5.44065 7.15086 12.6614 16.0008 13.0234 16.4835C13.3251 16.8858 13.2044 17.2679 12.7016 17.5495C12.42 17.7104 11.8367 17.8713 11.5551 17.8713C11.2333 17.8713 10.8512 17.7104 10.5897 17.449C10.4087 17.2679 9.62425 16.1215 7.85426 13.3659C6.50666 11.254 5.36019 9.50413 5.34008 9.48402C5.33116 9.47956 5.32324 9.4756 5.31953 9.47804C5.28976 9.49764 5.53155 9.92969 7.71343 13.8285L7.71347 13.8285C9.2622 16.5841 9.76504 17.5696 9.76504 17.6903C9.76504 17.9518 9.68459 18.0926 9.36277 18.4546C8.81971 19.058 8.57835 19.7419 8.39733 21.1699C8.19619 22.7589 7.65313 23.8853 6.10439 25.796C5.19929 26.9224 5.05849 27.1235 4.83724 27.5861C4.55565 28.1493 4.4752 28.4711 4.43497 29.1952C4.39475 29.9595 4.4752 30.4422 4.69645 31.1663C4.89758 31.81 5.11883 32.2323 5.66189 33.057C6.1245 33.7811 6.40609 34.3241 6.40609 34.5253C6.40609 34.6862 6.44632 34.6862 7.1704 34.5253C8.90016 34.123 10.3282 33.4392 11.1126 32.5944C11.5954 32.0714 11.716 31.7899 11.716 31.0658C11.716 30.6032 11.6959 30.5026 11.5753 30.221C11.3741 29.7785 10.992 29.4165 10.1673 28.8533C9.08118 28.1091 8.61857 27.5057 8.49789 26.7011C8.39733 26.0173 8.51801 25.5547 9.12141 24.2875C9.74493 22.9802 9.90584 22.4371 10.0064 21.1096C10.0667 20.2648 10.1673 19.9229 10.4087 19.6614C10.6701 19.3798 10.8914 19.2793 11.5149 19.1988C12.5407 19.058 13.2044 18.7966 13.7274 18.2937C14.19 17.8713 14.3911 17.449 14.4113 16.8254L14.4314 16.3628L14.1699 16.0812C13.2246 14.9951 0.130693 0.593872 0.0703527 0.593872C0.0580662 0.593872 0.173369 0.736471 0.352075 0.957485C0.46592 1.09828 0.605496 1.2709 0.75421 1.45875ZM6.92904 30.0601C7.15029 29.6779 7.02961 29.1952 6.66757 28.9539C6.32564 28.7326 5.80269 28.8332 5.80269 29.1349C5.80269 29.2153 5.84292 29.2958 5.9636 29.336C6.14462 29.4366 6.16473 29.5371 6.02394 29.7584C5.88314 29.9796 5.88314 30.1808 6.06416 30.3216C6.34575 30.5428 6.72791 30.4221 6.92904 30.0601ZM13.3452 9.46391C12.9229 9.40357 12.9027 9.38345 13.1039 9.36334C13.486 9.303 14.371 9.38345 14.9945 9.52425C16.4427 9.86618 17.7501 10.7512 19.1379 12.2999L19.5 12.7223L20.0229 12.6418C22.2555 12.2798 24.5484 12.5614 26.4592 13.4464C26.9822 13.6877 27.8068 14.1705 27.9074 14.2911C27.9476 14.3314 28.0079 14.5928 28.0482 14.8543C28.189 15.7996 28.1286 16.5036 27.8269 17.0467C27.666 17.3484 27.666 17.4288 27.7666 17.6903C27.847 17.8914 28.0884 18.0322 28.3097 18.0322C28.7924 18.0322 29.2952 17.2679 29.5366 16.2019L29.6371 15.7795L29.8182 15.9807C30.8439 17.1271 31.6485 18.7161 31.7692 19.8425L31.8094 20.1442L31.6284 19.8827C31.3267 19.4201 31.0451 19.1184 30.6629 18.8569C29.9791 18.3943 29.255 18.2535 27.3442 18.1529C25.6144 18.0524 24.6289 17.9116 23.6634 17.5897C22.0141 17.0467 21.1694 16.3427 19.2184 13.7481C18.3535 12.6016 17.8104 11.9781 17.2674 11.4551C16.0807 10.3087 14.894 9.70527 13.3452 9.46391ZM28.3298 12.0183C28.37 11.254 28.4706 10.7512 28.6918 10.2886C28.7723 10.1075 28.8527 9.94663 28.8728 9.94663C28.8929 9.94663 28.8527 10.0874 28.7924 10.2483C28.6315 10.6908 28.6114 11.3143 28.7119 12.0183C28.8527 12.9234 28.9131 13.0441 29.8785 14.0297C30.321 14.4923 30.8439 15.0756 31.0451 15.3169L31.387 15.7594L31.0451 15.4376C30.6227 15.0353 29.6573 14.271 29.436 14.1705C29.2952 14.09 29.2751 14.09 29.1745 14.1906C29.0941 14.271 29.074 14.3917 29.074 14.975C29.0539 15.8801 28.9332 16.4433 28.6315 17.0266C28.4706 17.3283 28.4504 17.2679 28.5912 16.926C28.6918 16.6645 28.7119 16.5438 28.7119 15.679C28.7119 13.9291 28.5108 13.5067 27.2839 12.8027C26.9822 12.6217 26.4592 12.3602 26.1575 12.2195C25.8357 12.0787 25.5943 11.958 25.6144 11.958C25.6547 11.9178 26.8414 12.2597 27.304 12.4608C28.0079 12.7424 28.1286 12.7625 28.2091 12.7424C28.2694 12.6821 28.3097 12.5212 28.3298 12.0183ZM12.9027 10.6908C12.7821 12.0384 13.3251 13.8486 14.1699 15.0152C14.8336 15.9203 15.8594 16.6243 16.6237 16.7048C17.1266 16.745 17.2674 16.5841 17.0461 16.2623C16.7243 15.8198 16.3421 15.1158 16.2416 14.8141C16.1812 14.6331 16.0404 14.0699 15.9399 13.5872C15.5979 11.9379 15.2359 11.2741 14.4314 10.7914C14.1297 10.6104 13.5061 10.369 13.1441 10.3087L12.943 10.2684L12.9027 10.6908ZM27.304 23.7646C23.3215 22.1555 21.9136 20.7677 21.9136 18.4144C21.9136 18.0725 21.9337 17.7909 21.9337 17.7909C21.9471 17.7909 22.0141 17.8445 22.111 17.922L22.1112 17.9222C22.1596 17.9609 22.2154 18.0055 22.2756 18.0524C23.0802 18.696 23.9853 18.9776 26.4994 19.3396C27.9677 19.5609 28.8125 19.7218 29.5768 19.9832C32.0105 20.7878 33.519 22.4371 33.8811 24.6697C33.9816 25.3133 33.9213 26.5402 33.7604 27.1839C33.6196 27.6867 33.2173 28.6119 33.1168 28.632C33.0967 28.632 33.0564 28.5315 33.0564 28.3706C33.0162 27.5258 32.5938 26.7213 31.8898 26.0977C31.0451 25.3737 29.959 24.8306 27.304 23.7646ZM24.287 23.5836C24.3473 23.7445 24.4479 24.1266 24.4881 24.4283C24.8099 26.319 23.8243 27.8677 21.8331 28.4912C21.632 28.5717 20.8274 28.7326 20.043 28.8533C18.4541 29.1349 17.73 29.3159 17.026 29.6578C16.5232 29.8992 15.8996 30.2612 15.9399 30.3015C15.96 30.3216 16.0807 30.2813 16.2013 30.2411L16.2013 30.2411C17.1065 29.9193 18.1121 29.7584 19.6206 29.6779C20.1256 29.6443 20.6869 29.5965 20.9981 29.57L20.9983 29.57L21.1493 29.5573C22.4969 29.3762 23.4422 28.974 24.1663 28.2298C24.5685 27.8074 24.8099 27.4252 25.011 26.8822C25.1317 26.5402 25.1518 26.3994 25.1518 25.796V25.796C25.1518 25.1725 25.1518 25.0518 25.011 24.6697C24.83 24.1668 24.6289 23.8048 24.3674 23.5031L24.1864 23.2819L24.287 23.5836ZM26.3184 27.6666C25.7955 26.5201 25.6748 25.434 25.9564 24.4082C25.9966 24.3076 26.0368 24.2071 26.0771 24.2071C26.1173 24.2071 26.238 24.2674 26.3586 24.3479C26.6 24.5088 27.1028 24.7904 28.3901 25.4943C30.0193 26.3793 30.9445 27.0632 31.5881 27.8476C32.1513 28.5315 32.4933 29.3159 32.6542 30.2813C32.7547 30.8244 32.6944 32.1318 32.5536 32.6748C32.1111 34.3845 31.1054 35.7522 29.6371 36.5366C29.4159 36.6573 29.2349 36.7378 29.2148 36.7378C29.1946 36.7378 29.2751 36.5366 29.3958 36.2953C29.8785 35.2695 29.9388 34.2839 29.5768 33.1777C29.3556 32.4938 28.8929 31.6692 27.9677 30.2813C26.8615 28.6723 26.6 28.2499 26.3184 27.6666ZM16.3421 31.4077C14.6526 31.6893 12.8223 32.5743 11.3339 33.8213L10.9115 34.2236L11.2937 34.2839C13.305 34.5856 13.8481 34.8672 15.256 36.3154C16.0606 37.14 16.3421 37.3211 17.0059 37.5021C17.9914 37.7635 18.9569 37.3009 19.2988 36.4159C19.4396 36.0137 19.4195 35.37 19.2586 35.0482C18.8563 34.2638 17.6696 34.0224 17.1065 34.5856C16.6438 35.0482 16.7846 35.7723 17.3679 35.893L17.368 35.893L17.3683 35.8931C17.4225 35.9021 17.4523 35.907 17.4539 35.9024C17.4558 35.8967 17.416 35.8768 17.3277 35.8327C17.0662 35.712 16.9455 35.5511 16.9455 35.2896C16.9254 34.6661 17.6294 34.3443 18.273 34.6258C18.7558 34.8471 18.9368 35.1287 18.9368 35.6114C18.9368 36.3556 18.2931 36.9389 17.549 36.8383C17.1467 36.778 16.664 36.5366 16.4025 36.2349C15.7589 35.5108 16.0002 34.3241 16.9254 33.8816C17.6294 33.5397 18.5546 33.6403 19.2787 34.1029C20.1034 34.646 20.4654 35.1287 21.1694 36.7579C21.4107 37.3009 21.6923 37.8842 21.8331 38.0854C22.4969 39.091 23.3215 39.5939 24.287 39.5939C24.83 39.5939 25.2323 39.5134 25.7351 39.2519C26.0972 39.0709 26.6402 38.7089 26.6 38.6687C26.6 38.6528 26.5001 38.6869 26.3692 38.7316L26.3682 38.7319C26.3332 38.7439 26.2961 38.7565 26.2581 38.7692C25.1921 39.1715 24.1059 39.1514 23.4824 38.6888C23.0802 38.3871 22.7583 37.8239 22.5974 37.0998C22.5936 37.0767 22.5868 37.0374 22.5777 36.985C22.5395 36.7642 22.4613 36.3119 22.3963 35.8729C22.175 34.4851 21.9538 33.8615 21.4711 33.1375C20.9682 32.3933 20.0028 31.7898 18.9368 31.5083C18.273 31.3272 17.0662 31.287 16.3421 31.4077ZM13.9889 20.6671C14.1297 20.1442 14.5923 19.6212 15.075 19.4804C15.3968 19.3798 16.0203 19.4402 16.322 19.6011C16.9053 19.9028 17.3277 20.5665 17.2271 21.0493C17.1266 21.6326 16.1812 22.1153 15.075 22.1153C14.5118 22.1153 14.3107 22.0348 14.0894 21.7532C13.9486 21.5722 13.9084 20.9889 13.9889 20.6671ZM16.1611 19.8022C16.4628 19.9832 16.5232 20.2447 16.3623 20.4861C16.2416 20.647 15.8795 20.8079 15.6181 20.8079C15.2158 20.8079 14.7934 20.5263 14.7934 20.2648C14.7934 19.7419 15.6181 19.4603 16.1611 19.8022Z" fill="#646464"/>
</svg>
