<svg width="20" height="23" viewBox="0 0 20 23" fill="none" xmlns="http://www.w3.org/2000/svg">
<path id="Combined Shape Copy 5" fill-rule="evenodd" clip-rule="evenodd" d="M0.40362 0.509794C3.16599 3.86495 7.42218 9.08144 7.63558 9.36598C7.81341 9.60309 7.74228 9.82835 7.44589 9.99433C7.27991 10.0892 6.93609 10.184 6.77011 10.184C6.58042 10.184 6.35517 10.0892 6.20104 9.93505C6.09434 9.82835 5.63197 9.15258 4.58867 7.52835C3.79434 6.2835 3.11857 5.25206 3.10671 5.24021C3.10146 5.23758 3.09678 5.23524 3.0946 5.23668C3.07705 5.24823 3.21957 5.5029 4.50564 7.80096L4.50568 7.80103C5.41857 9.42526 5.71496 10.0062 5.71496 10.0773C5.71496 10.2314 5.66754 10.3144 5.47785 10.5278C5.15774 10.8835 5.01548 11.2866 4.90877 12.1284C4.79022 13.0649 4.47011 13.7289 3.55723 14.8552C3.02372 15.5191 2.94073 15.6376 2.81032 15.9103C2.64434 16.2423 2.59692 16.432 2.57321 16.8588C2.5495 17.3093 2.59692 17.5938 2.72733 18.0206C2.84589 18.4 2.9763 18.649 3.2964 19.1351C3.56908 19.5619 3.73506 19.882 3.73506 20.0005C3.73506 20.0954 3.75877 20.0954 4.18558 20.0005C5.20517 19.7634 6.04692 19.3603 6.50929 18.8624C6.79383 18.5541 6.86496 18.3881 6.86496 17.9613C6.86496 17.6887 6.8531 17.6294 6.78197 17.4634C6.66341 17.2026 6.43816 16.9892 5.95207 16.6572C5.31187 16.2186 5.03919 15.8629 4.96805 15.3887C4.90877 14.9856 4.97991 14.7129 5.33558 13.966C5.7031 13.1954 5.79795 12.8753 5.85723 12.0928C5.8928 11.5948 5.95207 11.3933 6.09434 11.2392C6.24847 11.0732 6.37888 11.0139 6.7464 10.9665C7.35104 10.8835 7.74228 10.7294 8.05053 10.433C8.32321 10.184 8.44176 9.93505 8.45362 9.56753L8.46548 9.29485L8.31135 9.12887C7.75414 8.48866 0.0360944 0 0.000527346 0C-0.00671475 0 0.0612489 0.0840535 0.166586 0.214328C0.23369 0.297319 0.315962 0.399068 0.40362 0.509794ZM4.04331 17.3686C4.17372 17.1433 4.10259 16.8588 3.88919 16.7165C3.68764 16.5861 3.37939 16.6454 3.37939 16.8232C3.37939 16.8706 3.4031 16.918 3.47424 16.9418C3.58094 17.001 3.5928 17.0603 3.50981 17.1907C3.42682 17.3211 3.42682 17.4397 3.53352 17.5227C3.6995 17.6531 3.92475 17.582 4.04331 17.3686ZM7.82527 5.22835C7.5763 5.19278 7.56444 5.18093 7.683 5.16907C7.90826 5.1335 8.42991 5.18093 8.79743 5.26392C9.65104 5.46546 10.4217 5.98711 11.2397 6.9L11.4531 7.14897L11.7614 7.10155C13.0773 6.88814 14.4289 7.05412 15.5552 7.57577C15.8634 7.71804 16.3495 8.00258 16.4088 8.07371C16.4325 8.09742 16.4681 8.25155 16.4918 8.40567C16.5748 8.96289 16.5392 9.37784 16.3614 9.69794C16.2665 9.87577 16.2665 9.9232 16.3258 10.0773C16.3732 10.1959 16.5155 10.2789 16.6459 10.2789C16.9304 10.2789 17.2268 9.82835 17.3691 9.2L17.4284 8.95103L17.5351 9.06959C18.1397 9.74536 18.6139 10.682 18.6851 11.3459L18.7088 11.5237L18.6021 11.3696C18.4242 11.0969 18.2583 10.9191 18.033 10.7649C17.6299 10.4923 17.2031 10.4093 16.0768 10.35C15.0572 10.2907 14.4763 10.2077 13.9072 10.018C12.9351 9.69794 12.4371 9.28299 11.2871 7.75361C10.7773 7.07783 10.4572 6.71031 10.1371 6.40206C9.43764 5.72629 8.73816 5.37062 7.82527 5.22835ZM16.6577 6.73402C16.6815 6.2835 16.7407 5.98711 16.8711 5.71443C16.9186 5.60773 16.966 5.51289 16.9778 5.51289C16.9897 5.51289 16.966 5.59588 16.9304 5.69072C16.8356 5.95155 16.8237 6.31907 16.883 6.73402C16.966 7.26753 17.0016 7.33866 17.5706 7.91959C17.8315 8.19227 18.1397 8.53608 18.2583 8.67835L18.4598 8.93917L18.2583 8.74949C18.0093 8.51237 17.4402 8.06186 17.3098 8.00258C17.2268 7.95515 17.215 7.95515 17.1557 8.01443C17.1083 8.06186 17.0964 8.13299 17.0964 8.4768C17.0845 9.01031 17.0134 9.34227 16.8356 9.68608C16.7407 9.86392 16.7289 9.82835 16.8119 9.6268C16.8711 9.47268 16.883 9.40155 16.883 8.89175C16.883 7.86031 16.7644 7.61134 16.0412 7.19639C15.8634 7.08969 15.5552 6.93557 15.3773 6.85258C15.1876 6.76959 15.0454 6.69845 15.0572 6.69845C15.0809 6.67474 15.7804 6.87629 16.0531 6.99485C16.4681 7.16082 16.5392 7.17268 16.5866 7.16082C16.6222 7.12526 16.6459 7.03041 16.6577 6.73402ZM7.56445 5.95155C7.49331 6.74588 7.81341 7.81289 8.31135 8.50051C8.70259 9.03402 9.30723 9.44897 9.75774 9.49639C10.0541 9.5201 10.1371 9.42526 10.0067 9.23557C9.81702 8.97474 9.59176 8.55979 9.53249 8.38196C9.49692 8.27526 9.41393 7.9433 9.35465 7.65876C9.1531 6.6866 8.9397 6.29536 8.46548 6.01082C8.28764 5.90412 7.92011 5.76186 7.70671 5.72629L7.58816 5.70258L7.56445 5.95155ZM16.0531 13.6577C13.7057 12.7093 12.8758 11.8912 12.8758 10.5041C12.8758 10.3026 12.8876 10.1366 12.8876 10.1366C12.8955 10.1366 12.9351 10.1682 12.9921 10.2139C13.0207 10.2367 13.0536 10.2631 13.0892 10.2907C13.5634 10.6701 14.0969 10.8361 15.5789 11.0495C16.4443 11.1799 16.9423 11.2747 17.3928 11.4289C18.8273 11.9031 19.7165 12.8753 19.9299 14.1912C19.9892 14.5706 19.9536 15.2938 19.8588 15.6732C19.7758 15.9696 19.5387 16.5149 19.4794 16.5268C19.4675 16.5268 19.4438 16.4675 19.4438 16.3727C19.4201 15.8747 19.1711 15.4005 18.7562 15.033C18.2583 14.6062 17.6181 14.2861 16.0531 13.6577ZM14.2748 13.551C14.3103 13.6459 14.3696 13.8711 14.3933 14.049C14.583 15.1634 14.0021 16.0763 12.8284 16.4438C12.7098 16.4912 12.2356 16.5861 11.7732 16.6572C10.8366 16.8232 10.4098 16.9299 9.99486 17.1314C9.69847 17.2737 9.33094 17.4871 9.35465 17.5108C9.36651 17.5227 9.43762 17.499 9.50875 17.4753L9.50877 17.4753C10.0423 17.2856 10.6351 17.1907 11.5242 17.1433C11.8214 17.1235 12.1517 17.0954 12.3353 17.0798L12.3354 17.0798L12.3358 17.0797L12.3364 17.0797L12.3364 17.0797L12.4253 17.0722C13.2196 16.9655 13.7768 16.7283 14.2036 16.2897C14.4407 16.0407 14.583 15.8155 14.7016 15.4954C14.7727 15.2938 14.7845 15.2108 14.7845 14.8552C14.7845 14.4876 14.7845 14.4165 14.7016 14.1912C14.5949 13.8948 14.4763 13.6814 14.3222 13.5036L14.2155 13.3732L14.2748 13.551ZM15.4722 15.9577C15.1639 15.282 15.0928 14.6418 15.2588 14.0371C15.2825 13.9778 15.3062 13.9186 15.3299 13.9186C15.3536 13.9186 15.4248 13.9541 15.4959 14.0015C15.6382 14.0964 15.9345 14.2624 16.6933 14.6773C17.6536 15.199 18.199 15.6021 18.5784 16.0644C18.9103 16.4675 19.1119 16.9299 19.2067 17.499C19.266 17.8191 19.2304 18.5897 19.1474 18.9098C18.8866 19.9175 18.2938 20.7237 17.4284 21.1861C17.298 21.2572 17.1912 21.3046 17.1794 21.3046C17.1675 21.3046 17.215 21.1861 17.2861 21.0438C17.5706 20.4392 17.6062 19.8582 17.3928 19.2062C17.2624 18.8031 16.9897 18.317 16.4443 17.499C15.7923 16.5505 15.6382 16.3015 15.4722 15.9577ZM9.59176 18.1629C8.59589 18.3289 7.51702 18.8505 6.6397 19.5856L6.39073 19.8227L6.61599 19.8582C7.80156 20.0361 8.12166 20.2021 8.95156 21.0557C9.42579 21.5418 9.59176 21.6485 9.983 21.7552C10.5639 21.9093 11.133 21.6366 11.3345 21.1149C11.4175 20.8778 11.4057 20.4985 11.3108 20.3088C11.0737 19.8464 10.3742 19.7041 10.0423 20.0361C9.7696 20.3088 9.85259 20.7356 10.1964 20.8067C10.2285 20.8121 10.2461 20.815 10.2471 20.8122C10.2482 20.8089 10.2247 20.7971 10.1727 20.7711C10.0186 20.7 9.94743 20.6052 9.94743 20.451C9.93558 20.0835 10.3505 19.8938 10.7299 20.0598C11.0144 20.1902 11.1211 20.3562 11.1211 20.6407C11.1211 21.0794 10.7418 21.4232 10.3031 21.3639C10.066 21.3284 9.78146 21.1861 9.62733 21.0082C9.24795 20.5814 9.39022 19.882 9.93558 19.6211C10.3505 19.4196 10.8959 19.4789 11.3227 19.7515C11.8088 20.0716 12.0222 20.3562 12.4371 21.3165C12.5794 21.6366 12.7454 21.9804 12.8284 22.099C13.2196 22.6918 13.7057 22.9881 14.2748 22.9881C14.5949 22.9881 14.832 22.9407 15.1284 22.7866C15.3418 22.6799 15.6619 22.4665 15.6382 22.4428C15.6382 22.4334 15.5793 22.4535 15.5022 22.4799L15.5021 22.4799L15.5021 22.4799C15.4813 22.487 15.4592 22.4945 15.4366 22.5021C14.8083 22.7392 14.1681 22.7273 13.8005 22.4546C13.5634 22.2768 13.3737 21.9448 13.2789 21.518L13.2673 21.4504C13.2448 21.3202 13.1987 21.0536 13.1603 20.7948C13.0299 19.9768 12.8995 19.6093 12.615 19.1825C12.3186 18.7438 11.7495 18.3881 11.1211 18.2222C10.7299 18.1155 10.0186 18.0918 9.59176 18.1629ZM8.20465 11.832C8.28764 11.5237 8.56032 11.2155 8.84486 11.1325C9.03455 11.0732 9.40207 11.1088 9.57991 11.2036C9.92372 11.3814 10.1727 11.7727 10.1134 12.0572C10.0541 12.401 9.49692 12.6856 8.84486 12.6856C8.5129 12.6856 8.39434 12.6381 8.26393 12.4722C8.18094 12.3655 8.15723 12.0216 8.20465 11.832ZM9.48506 11.3222C9.6629 11.4289 9.69847 11.583 9.60362 11.7253C9.53249 11.8201 9.31908 11.9149 9.16496 11.9149C8.92785 11.9149 8.67888 11.749 8.67888 11.5948C8.67888 11.2866 9.16496 11.1206 9.48506 11.3222Z" fill="url(#paint_linear_gradient_call_uniswap)"/>
<defs>
<linearGradient id="paint_linear_gradient_call_uniswap" x1="2.49486" y1="-5.51984e-07" x2="30.3593" y2="14.6592" gradientUnits="userSpaceOnUse">
<stop stop-color="#5294FF"/>
<stop offset="1" stop-color="#1EFF78"/>
</linearGradient>
<linearGradient id="paint_linear_gradient_put_uniswap" x1="2.49486" y1="-5.51984e-07" x2="30.3593" y2="14.6592" gradientUnits="userSpaceOnUse">
<stop stop-color="#EB4A97"/>
<stop offset="1" stop-color="#8C43F6"/>
</linearGradient>
</defs>
</svg>
