<svg width="15" height="15" viewBox="0 0 15 15" fill="none" xmlns="http://www.w3.org/2000/svg">
<path opacity="0.5" d="M11.2348 9.47771C11.2286 9.73235 11.0169 9.93427 10.7621 9.9279C10.5072 9.9217 10.3057 9.70983 10.3118 9.45502L10.4409 4.57557L3.91769 11.0988C3.73749 11.279 3.44498 11.279 3.26477 11.0988C3.08456 10.9185 3.08456 10.626 3.26477 10.4458L9.77751 3.93309L4.90834 4.0516C4.65337 4.0578 4.44166 3.85621 4.43546 3.60124C4.43236 3.46984 4.48443 3.34987 4.57062 3.26368C4.65158 3.18272 4.76241 3.13163 4.88581 3.12869L10.4469 2.99337C10.6936 2.99321 10.9254 3.08919 11.0998 3.26368C11.2743 3.43817 11.3703 3.66996 11.37 3.92787L11.2348 9.47771Z" fill="white"/>
</svg>
