<svg width="22" height="20" viewBox="0 0 22 20" fill="none" xmlns="http://www.w3.org/2000/svg">
<path fill-rule="evenodd" clip-rule="evenodd" d="M1.26667 16.3333H0.633333C0.283269 16.3333 0 16.0501 0 15.7V11.9C0 11.5499 0.283269 11.2667 0.633333 11.2667H1.26667V8.73333H0.633333C0.283269 8.73333 0 8.45006 0 8.1V4.3C0 3.94994 0.283269 3.66667 0.633333 3.66667H1.26667V2.4C1.26667 1.3523 2.11896 0.5 3.16667 0.5H19.7178C20.7655 0.5 21.6178 1.3523 21.6178 2.4V17.6C21.6178 18.6477 20.7655 19.5 19.7178 19.5H3.16667C2.11896 19.5 1.26667 18.6477 1.26667 17.6V16.3333ZM18.4089 8.09995C18.0588 8.09995 17.7755 8.38322 17.7755 8.73328V11.2666C17.7755 11.6167 18.0588 11.8999 18.4089 11.8999C18.7589 11.8999 19.0422 11.6167 19.0422 11.2666V8.73328C19.0422 8.38322 18.7589 8.09995 18.4089 8.09995ZM8.2755 9.99998C8.2755 9.35567 8.47116 8.75713 8.80307 8.25646L5.9277 5.38108C5.68032 5.1337 5.68032 4.73289 5.9277 4.48551C6.17508 4.23813 6.57589 4.23813 6.82327 4.48551L9.69865 7.36089C10.1993 7.02898 10.7979 6.83332 11.4422 6.83332C12.0865 6.83332 12.685 7.02898 13.1857 7.36089L16.0611 4.48551C16.3085 4.23813 16.7093 4.23813 16.9566 4.48551C17.204 4.73289 17.204 5.1337 16.9566 5.38108L14.0813 8.25646C14.4132 8.75713 14.6088 9.35567 14.6088 9.99998C14.6088 10.6443 14.4132 11.2428 14.0813 11.7435L16.9566 14.6189C17.204 14.8663 17.204 15.2671 16.9566 15.5145C16.8329 15.6382 16.6709 15.7 16.5089 15.7C16.3469 15.7 16.1848 15.6382 16.0611 15.5145L13.1857 12.6391C12.685 12.971 12.0865 13.1667 11.4422 13.1667C10.7979 13.1667 10.1993 12.971 9.69865 12.6391L6.82327 15.5145C6.69956 15.6382 6.53751 15.7 6.3755 15.7C6.2135 15.7 6.05141 15.6382 5.92774 15.5145C5.68036 15.2671 5.68036 14.8663 5.92774 14.6189L8.80311 11.7435C8.47116 11.2428 8.2755 10.6443 8.2755 9.99998ZM11.4422 11.9C12.4916 11.9 13.3422 11.0493 13.3422 9.99998C13.3422 8.95063 12.4916 8.09998 11.4422 8.09998C10.3929 8.09998 9.54224 8.95063 9.54224 9.99998C9.54224 11.0493 10.3929 11.9 11.4422 11.9Z" fill="#5294FF"/>
</svg>
