<svg width="18" height="19" viewBox="0 0 18 19" fill="none" xmlns="http://www.w3.org/2000/svg">
<path d="M17.626 14.2227L11.2675 1.81895C10.2459 -0.00614679 7.7555 -0.00857162 6.73253 1.81895L0.374305 14.2227C-0.670047 16.0876 0.594348 18.4492 2.64125 18.4492H15.3585C17.4037 18.4492 18.6704 16.0895 17.626 14.2227ZM9 16.2108C8.41858 16.2108 7.94531 15.7086 7.94531 15.0916C7.94531 14.4746 8.41858 13.9724 9 13.9724C9.58141 13.9724 10.0547 14.4746 10.0547 15.0916C10.0547 15.7086 9.58141 16.2108 9 16.2108ZM10.0547 11.7339C10.0547 12.3509 9.58141 12.8532 9 12.8532C8.41858 12.8532 7.94531 12.3509 7.94531 11.7339V6.13788C7.94531 5.5209 8.41858 5.01867 9 5.01867C9.58141 5.01867 10.0547 5.5209 10.0547 6.13788V11.7339Z" fill="#646464"/>
</svg>
