<svg width="16" height="16" viewBox="0 0 16 16" fill="none" xmlns="http://www.w3.org/2000/svg">
<path id="Combined Shape Copy 3" fill-rule="evenodd" clip-rule="evenodd" d="M7.99854 16C3.58064 15.9992 -0.000269542 12.4174 1.52175e-08 7.99951C0.000269636 3.58161 3.58161 0.000269636 7.99951 1.52176e-08C12.4174 -0.000269543 15.9992 3.58064 16 7.99854C16.0004 10.1208 15.1575 12.1562 13.6569 13.6569C12.1562 15.1575 10.1208 16.0004 7.99854 16ZM7.99786 0.623809C3.92769 0.627043 0.630328 3.92833 0.631945 7.99851C0.633562 12.0687 3.93354 15.3674 8.00372 15.3674C12.0739 15.3674 15.3739 12.0687 15.3755 7.99851C15.3763 6.04187 14.5991 4.16519 13.2153 2.78191C11.8315 1.39864 9.9545 0.622254 7.99786 0.623809ZM12.2011 3.39592C9.825 1.2231 6.18335 1.2231 3.80721 3.39592L3.35764 2.95661C5.97976 0.539204 10.0183 0.539204 12.6405 2.95661L12.2011 3.39592ZM12.6042 3.79712L13.0435 3.3578V3.34755C15.4609 5.96967 15.4609 10.0082 13.0435 12.6304L12.6042 12.191C14.777 9.8149 14.777 6.17325 12.6042 3.79712ZM3.39126 12.1955C1.22111 9.82 1.22111 6.18145 3.39126 3.80596L2.95194 3.36664C0.534538 5.98877 0.534538 10.0273 2.95194 12.6495L3.39126 12.1955ZM3.79696 12.6011C6.17309 14.774 9.81474 14.774 12.1909 12.6011L12.6405 13.0404C10.0183 15.4578 5.97976 15.4578 3.35764 13.0404L3.79696 12.6011ZM10.7689 6.53415C10.681 5.61744 9.89027 5.30992 8.89009 5.21619V3.95388H8.11688V5.19276H7.49891V3.95388H6.73156V5.22498H5.16319V6.05237C5.16319 6.05237 5.73431 6.04211 5.72552 6.05237C5.93956 6.02882 6.13379 6.17903 6.16484 6.39211V9.87151C6.1604 9.94455 6.12659 10.0127 6.07112 10.0604C6.01668 10.1091 5.94475 10.1334 5.87196 10.1278C5.88221 10.1366 5.30963 10.1278 5.30963 10.1278L5.16319 11.0518H6.71692V12.3434H7.49012V11.0709H8.1081V12.3376H8.88276V11.0606C10.189 10.9815 11.0999 10.6594 11.2141 9.43659C11.3063 8.45251 10.8436 8.01319 10.1041 7.836C10.5536 7.61488 10.8319 7.20485 10.7689 6.53415ZM9.68673 9.28427C9.68673 10.1662 8.29955 10.1459 7.66651 10.1366H7.66648H7.66645H7.66643C7.60993 10.1358 7.55945 10.1351 7.51649 10.1351V8.43053C7.57017 8.43068 7.6356 8.42923 7.70982 8.42759L7.70986 8.42759C8.36059 8.4132 9.68673 8.38388 9.68673 9.28427ZM7.64814 7.65616C8.1786 7.66558 9.32649 7.68596 9.32649 6.88275C9.32649 6.05921 8.21437 6.08814 7.67358 6.1022L7.67348 6.10221C7.6133 6.10377 7.5602 6.10515 7.51649 6.10515V7.65449C7.55394 7.65449 7.59829 7.65527 7.64807 7.65616L7.64814 7.65616Z" fill="url(#paint1_linear)"/>
<defs>
<linearGradient id="paint1_linear" x1="11.5789" y1="14.303" x2="-0.387095" y2="1.66175" gradientUnits="userSpaceOnUse">
<stop stop-color="#EB4A97"/>
<stop offset="1" stop-color="#8C43F6"/>
</linearGradient>
</defs>
</svg>
