<svg width="18" height="18" viewBox="0 0 18 18" fill="none" xmlns="http://www.w3.org/2000/svg">
<path fill-rule="evenodd" clip-rule="evenodd" d="M8.93794 17.967C4.00124 17.9661 -0.000179144 13.9637 0.000122087 9.02704C0.000423352 4.09034 4.00233 0.088436 8.93903 0.0881348C13.8757 0.0878336 17.8781 4.08925 17.879 9.02595C17.8795 11.3974 16.9376 13.6719 15.2607 15.3487C13.5839 17.0256 11.3094 17.9675 8.93794 17.967ZM8.93794 0.785226C4.3898 0.78884 0.705226 4.47781 0.707032 9.02595C0.708839 13.5741 4.39634 17.2601 8.94448 17.2601C13.4926 17.2601 17.1801 13.5741 17.1819 9.02595C17.1828 6.83954 16.3144 4.74248 14.7681 3.19676C13.2218 1.65104 11.1243 0.783488 8.93794 0.785226ZM13.6343 3.88286C10.9791 1.45488 6.90984 1.45488 4.25467 3.88286L3.7523 3.39195C6.68235 0.690672 11.1952 0.690672 14.1252 3.39195L13.6343 3.88286ZM14.0876 4.33123L14.5785 3.84032V3.82886C17.2798 6.7589 17.2798 11.2717 14.5785 14.2018L14.0876 13.7109C16.5156 11.0557 16.5156 6.9864 14.0876 4.33123ZM3.79485 13.7158C1.36986 11.0613 1.36986 6.99549 3.79485 4.34104L3.30394 3.85013C0.602659 6.78018 0.602659 11.293 3.30394 14.223L3.79485 13.7158ZM4.24812 14.169C6.90329 16.597 10.9726 16.597 13.6278 14.169L14.1301 14.66C11.2001 17.3612 6.68725 17.3612 3.75721 14.66L4.24812 14.169ZM12.0388 7.38959C11.9407 6.36523 11.057 6.02159 9.93939 5.91686V4.50632H9.07539V5.89068H8.38485V4.50632H7.52739V5.92668H5.77485V6.85123C5.77485 6.85123 6.41303 6.83977 6.40321 6.85123C6.64239 6.82491 6.85943 6.99276 6.89412 7.23086V11.1189C6.88916 11.2005 6.85138 11.2766 6.78939 11.33C6.72856 11.3843 6.64819 11.4115 6.56685 11.4052C6.5783 11.415 5.93849 11.4052 5.93849 11.4052L5.77485 12.4378H7.51103V13.881H8.37503V12.459H9.06558V13.8745H9.93121V12.4476C11.3908 12.3592 12.4087 11.9992 12.5363 10.6329C12.6394 9.53323 12.1223 9.04232 11.2959 8.84432C11.7983 8.59723 12.1092 8.13904 12.0388 7.38959ZM10.8279 10.4627C10.8279 11.4481 9.27786 11.4255 8.57048 11.4152L8.57037 11.4152C8.50725 11.4142 8.45084 11.4134 8.40285 11.4134V9.50868C8.46284 9.50885 8.53597 9.50723 8.61893 9.5054C9.34607 9.48932 10.8279 9.45655 10.8279 10.4627ZM8.55159 8.64328C9.14434 8.6538 10.427 8.67658 10.427 7.77904C10.427 6.8588 9.18432 6.89112 8.58002 6.90684C8.51273 6.90859 8.45335 6.91013 8.40449 6.91013V8.64141C8.44635 8.64141 8.49593 8.64229 8.55159 8.64328Z" fill="#646464"/>
</svg>
