<svg width="18" height="18" viewBox="0 0 18 18" fill="none" xmlns="http://www.w3.org/2000/svg">
<path id="Combined Shape Copy 3" fill-rule="evenodd" clip-rule="evenodd" d="M8.93782 17.9673C4.00112 17.9664 -0.000301214 13.964 1.70066e-08 9.02729C0.000301282 4.09059 4.00221 0.0886802 8.93891 0.0883789C13.8756 0.0880777 17.878 4.0895 17.8789 9.0262C17.8793 11.3977 16.9375 13.6721 15.2606 15.349C13.5837 17.0259 11.3093 17.9677 8.93782 17.9673ZM8.93782 0.78547C4.38968 0.789084 0.705103 4.47805 0.70691 9.02619C0.708717 13.5743 4.39622 17.2604 8.94436 17.2604C13.4925 17.2604 17.18 13.5743 17.1818 9.0262C17.1827 6.83979 16.3143 4.74272 14.768 3.19701C13.2216 1.65129 11.1242 0.783732 8.93782 0.78547ZM13.6342 3.88311C10.979 1.45512 6.90972 1.45512 4.25455 3.88311L3.75218 3.3922C6.68222 0.690916 11.195 0.690916 14.1251 3.3922L13.6342 3.88311ZM14.0875 4.33147L14.5784 3.84056V3.82911C17.2796 6.75915 17.2796 11.272 14.5784 14.202L14.0875 13.7111C16.5154 11.0559 16.5154 6.98664 14.0875 4.33147ZM3.79473 13.716C1.36974 11.0616 1.36974 6.99574 3.79473 4.34129L3.30382 3.85038C0.602537 6.78042 0.602537 11.2932 3.30382 14.2233L3.79473 13.716ZM4.248 14.1693C6.90317 16.5973 10.9725 16.5973 13.6276 14.1693L14.13 14.6602C11.2 17.3615 6.68713 17.3615 3.75709 14.6602L4.248 14.1693ZM12.0387 7.38983C11.9405 6.36547 11.0569 6.02183 9.93927 5.91711V4.50656H9.07527V5.89092H8.38473V4.50656H7.52727V5.92692H5.77473V6.85147C5.77473 6.85147 6.41291 6.84001 6.40309 6.85147C6.64226 6.82516 6.85931 6.993 6.894 7.23111V11.1191C6.88903 11.2007 6.85126 11.2769 6.78927 11.3302C6.72844 11.3846 6.64807 11.4117 6.56673 11.4055C6.57818 11.4153 5.93836 11.4055 5.93836 11.4055L5.77473 12.438H7.51091V13.8813H8.37491V12.4593H9.06545V13.8747H9.93109V12.4478C11.3907 12.3595 12.4085 11.9995 12.5362 10.6331C12.6393 9.53347 12.1222 9.04256 11.2958 8.84456C11.7982 8.59747 12.1091 8.13929 12.0387 7.38983ZM10.8278 10.4629C10.8278 11.4484 9.27773 11.4257 8.57036 11.4154L8.57025 11.4154C8.50713 11.4145 8.45072 11.4137 8.40273 11.4137V9.50892C8.46272 9.50909 8.53585 9.50747 8.6188 9.50564C9.34595 9.48956 10.8278 9.4568 10.8278 10.4629ZM8.55147 8.64352C9.14422 8.65405 10.4269 8.67682 10.4269 7.77929C10.4269 6.85904 9.1842 6.89137 8.5799 6.90708C8.51261 6.90883 8.45323 6.91038 8.40436 6.91038V8.64165C8.44623 8.64165 8.49581 8.64253 8.55147 8.64352Z" fill="#646464"/>
</svg>
