<svg width="18" height="20" viewBox="0 0 18 20" fill="none" xmlns="http://www.w3.org/2000/svg">
<path opacity="0.7" d="M17.1 1H14.4V0H3.6V1H0.9C0.36 1 0 1.4 0 2V4.4C0 6.7 1.53 8.6 3.6 8.9V9C3.6 11.9 5.4 14.3 7.83 14.9L7.2 17H5.13C4.77 17 4.41 17.3 4.32 17.7L3.6 20H14.4L13.68 17.7C13.59 17.3 13.23 17 12.87 17H10.8L10.17 14.9C12.6 14.3 14.4 11.9 14.4 9V8.9C16.47 8.6 18 6.7 18 4.4V2C18 1.4 17.64 1 17.1 1ZM3.6 6.9C2.61 6.6 1.8 5.6 1.8 4.4V3H3.6V6.9ZM16.2 4.4C16.2 5.6 15.39 6.7 14.4 6.9V3H16.2V4.4Z" fill="white"/>
</svg>
