<svg width="18" height="18" viewBox="0 0 18 18" fill="none" xmlns="http://www.w3.org/2000/svg">
<path fill-rule="evenodd" clip-rule="evenodd" d="M4.89522 4.06468H13.1048C13.5716 4.06468 13.8412 4.61287 13.5668 5.00365L9.65979 10.5643C9.3851 10.9551 9.65488 11.5033 10.1217 11.5033H13.5649C13.7476 11.5033 13.9193 11.4127 14.0268 11.2596L17.8908 5.76033C18.0364 5.5529 18.0364 5.27219 17.8908 5.06476L14.5032 0.243669C14.3957 0.0905401 14.224 0 14.0413 0H3.95874C3.77592 0 3.60434 0.0905401 3.49684 0.243669L0.109211 5.06476C-0.0364035 5.27219 -0.0364035 5.55304 0.109211 5.76033L8.5379 17.7566C8.76595 18.0811 9.23393 18.0811 9.46197 17.7566L11.1834 15.3065C11.3291 15.0991 11.3291 14.8182 11.1834 14.6108L4.43331 5.00365C4.15875 4.61287 4.4284 4.06468 4.89522 4.06468Z" fill="url(#paint0_linear)"/>
<defs>
<linearGradient id="paint0_linear" x1="11.1739" y1="-23.2579" x2="-5.50207" y2="-22.3725" gradientUnits="userSpaceOnUse">
<stop stop-color="#EB7A4A"/>
<stop offset="1" stop-color="#F643CF"/>
</linearGradient>
</defs>
</svg>
