<svg width="19" height="18" viewBox="0 0 19 18" fill="none" xmlns="http://www.w3.org/2000/svg">
<path id="Combined Shape Copy" fill-rule="evenodd" clip-rule="evenodd" d="M18.0504 9.08835C18.0504 4.26427 14.1383 0.352234 9.31424 0.352234C4.49016 0.352234 0.578125 4.26427 0.578125 9.08835C0.578125 13.9124 4.49016 17.8245 9.31424 17.8245C14.1383 17.8245 18.0504 13.9124 18.0504 9.08835ZM8.95431 5.50305V12.7715H9.7458V5.50305H8.95431ZM12.9834 7.9247L10.539 8.57292L9.99391 6.03595L10.7208 5.87171L11.0073 7.0738C11.0073 7.0738 11.6677 5.99052 10.7871 4.86881C10.2823 4.30788 10.0354 4.2695 9.48672 4.18417L9.44004 4.17691C8.9281 4.10352 7.73825 4.2765 7.38356 5.66554C7.2333 6.56012 7.40278 7.22231 8.55595 8.08894L8.4913 9.0534C8.4913 9.0534 7.20359 8.1466 6.87162 7.51061C6.61478 7.00741 6.17448 6.01324 6.96947 4.62944C7.39754 3.93754 8.24145 3.27359 9.72833 3.34348C10.4761 3.37493 12.302 4.28873 12.0189 6.42383C11.97 6.82395 11.7621 7.35685 11.7621 7.35685L12.765 7.13321L12.9834 7.9247ZM8.79531 14.8245C10.2787 14.9328 11.1401 14.2916 11.5874 13.6119C12.4173 12.2508 12.0032 11.2444 11.7621 10.7325C11.4476 10.0878 10.1844 9.14775 10.1844 9.14775L10.0935 10.1105C11.2222 11.0085 11.3742 11.676 11.2012 12.5653C10.8099 13.9439 9.61476 14.0872 9.10632 13.9998C9.08942 13.9967 9.07281 13.9937 9.05647 13.9907C8.51007 13.891 8.26527 13.8464 7.77668 13.2729C6.92753 12.1268 7.61594 11.0627 7.61594 11.0627L7.87103 12.2735L8.60312 12.1285L8.12438 9.57757L5.66254 10.1611L5.85998 10.9561L6.86813 10.7604C6.86813 10.7604 6.64623 11.2864 6.58682 11.6847C6.24786 13.8111 8.0475 14.7738 8.79531 14.8245Z" fill="#646464"/>
</svg>
