<svg width="19" height="18" viewBox="0 0 19 18" fill="none" xmlns="http://www.w3.org/2000/svg">
<path fill-rule="evenodd" clip-rule="evenodd" d="M18.0506 9.08813C18.0506 4.26405 14.1386 0.35202 9.31448 0.35202C4.4904 0.35202 0.578369 4.26405 0.578369 9.08813C0.578369 13.9122 4.4904 17.8242 9.31448 17.8242C14.1386 17.8242 18.0506 13.9122 18.0506 9.08813ZM8.95456 5.50283V12.7713H9.74605V5.50283H8.95456ZM12.9837 7.92449L10.5393 8.5727L9.99415 6.03574L10.721 5.8715L11.0075 7.07359C11.0075 7.07359 11.668 5.99031 10.7874 4.86859C10.2826 4.30767 10.0357 4.26928 9.48697 4.18396L9.44028 4.17669C8.92835 4.10331 7.73849 4.27628 7.3838 5.66533C7.23354 6.5599 7.40302 7.2221 8.55619 8.08872L8.49154 9.05319C8.49154 9.05319 7.20384 8.14638 6.87187 7.51039C6.61502 7.00719 6.17472 6.01302 6.96971 4.62922C7.39778 3.93732 8.24169 3.27338 9.72858 3.34327C10.4764 3.37472 12.3022 4.28851 12.0192 6.42362C11.9703 6.82373 11.7623 7.35664 11.7623 7.35664L12.7652 7.13299L12.9837 7.92449ZM8.79556 14.8243C10.279 14.9326 11.1403 14.2914 11.5876 13.6117C12.4176 12.2506 12.0035 11.2442 11.7623 10.7323C11.4478 10.0875 10.1846 9.14754 10.1846 9.14754L10.0937 10.1103C11.2225 11.0083 11.3745 11.6758 11.2015 12.5651C10.8101 13.9437 9.61501 14.0869 9.10656 13.9996C9.08967 13.9965 9.07305 13.9935 9.05671 13.9905C8.51031 13.8908 8.26551 13.8461 7.77693 13.2727C6.92778 12.1266 7.61618 11.0625 7.61618 11.0625L7.87128 12.2733L8.60336 12.1283L8.12463 9.57736L5.66279 10.1609L5.86022 10.9559L6.86837 10.7602C6.86837 10.7602 6.64647 11.2861 6.58707 11.6845C6.24811 13.8109 8.04775 14.7736 8.79556 14.8243Z" fill="#646464"/>
</svg>
