<svg width="16" height="16" viewBox="0 0 16 16" fill="none" xmlns="http://www.w3.org/2000/svg">
<path fill-rule="evenodd" clip-rule="evenodd" d="M16.0002 8C16.0002 3.5824 12.4178 0 8.00024 0C3.58264 0 0.000244141 3.5824 0.000244141 8C0.000244141 12.4176 3.58264 16 8.00024 16C12.4178 16 16.0002 12.4176 16.0002 8ZM7.67089 4.71682V11.3728H8.39569V4.71682H7.67089ZM11.3614 6.93439L9.12298 7.52799L8.62378 5.20479L9.28938 5.05439L9.55178 6.15519C9.55178 6.15519 10.1566 5.16319 9.35018 4.13599C8.88789 3.62233 8.66182 3.58718 8.15933 3.50904L8.11658 3.50239C7.64778 3.43519 6.55818 3.59359 6.23338 4.86559C6.09578 5.68479 6.25098 6.29119 7.30698 7.08479L7.24778 7.96799C7.24778 7.96799 6.06858 7.13759 5.76458 6.55519C5.52938 6.09439 5.12618 5.18399 5.85418 3.91679C6.24618 3.28319 7.01898 2.67519 8.38058 2.73919C9.06538 2.76799 10.7374 3.60479 10.4782 5.55999C10.4334 5.92639 10.243 6.41439 10.243 6.41439L11.1614 6.20959L11.3614 6.93439ZM7.52594 13.2528C8.88434 13.352 9.67314 12.7648 10.0827 12.1424C10.8427 10.896 10.4635 9.9744 10.2427 9.5056C9.95474 8.9152 8.79794 8.0544 8.79794 8.0544L8.71474 8.936C9.74834 9.7584 9.88754 10.3696 9.72914 11.184C9.37074 12.4464 8.27634 12.5776 7.81074 12.4976C7.79527 12.4948 7.78006 12.492 7.76509 12.4893C7.26473 12.398 7.04056 12.3571 6.59314 11.832C5.81554 10.7824 6.44594 9.808 6.44594 9.808L6.67954 10.9168L7.34994 10.784L6.91154 8.448L4.65714 8.9824L4.83794 9.7104L5.76114 9.5312C5.76114 9.5312 5.55794 10.0128 5.50354 10.3776C5.19314 12.3248 6.84114 13.2064 7.52594 13.2528Z" fill="url(#paint0_linear)"/>
<defs>
<linearGradient id="paint0_linear" x1="11.5792" y1="14.303" x2="-0.38685" y2="1.66175" gradientUnits="userSpaceOnUse">
<stop stop-color="#EB4A97"/>
<stop offset="1" stop-color="#8C43F6"/>
</linearGradient>
</defs>
</svg>
