<svg width="20" height="19" viewBox="0 0 20 19" fill="none" xmlns="http://www.w3.org/2000/svg">
<path fill-rule="evenodd" clip-rule="evenodd" d="M16.832 0.863281C16.0036 0.863281 15.332 1.53485 15.332 2.36328V16.6346C15.332 17.463 16.0036 18.1346 16.832 18.1346H18.332C19.1604 18.1346 19.832 17.463 19.832 16.6346V2.36328C19.832 1.53485 19.1604 0.863281 18.332 0.863281H16.832ZM8.15599 6.50415C8.15599 5.67572 8.82756 5.00415 9.65599 5.00415H11.156C11.9844 5.00415 12.656 5.67572 12.656 6.50415V16.6346C12.656 17.463 11.9844 18.1346 11.156 18.1346H9.65599C8.82756 18.1346 8.15599 17.463 8.15599 16.6346V6.50415ZM0.97998 11.3562C0.97998 10.5278 1.65155 9.85622 2.47998 9.85622H3.97998C4.80841 9.85622 5.47998 10.5278 5.47998 11.3562V16.6346C5.47998 17.463 4.80841 18.1346 3.97998 18.1346H2.47998C1.65155 18.1346 0.97998 17.463 0.97998 16.6346V11.3562Z" fill="#646464"/>
</svg>
